<svg width="100" height="153" viewBox="0 0 100 153" fill="none" xmlns="http://www.w3.org/2000/svg">
<mask id="mask0_707_302" style="mask-type:alpha" maskUnits="userSpaceOnUse" x="0" y="0" width="100" height="153">
<rect width="100" height="153" fill="#D9D9D9"/>
</mask>
<g mask="url(#mask0_707_302)">
<g opacity="0.9">
<path d="M25.9385 14.8125C9.85549 17.6259 1.51301 47.4274 7.30504 81.376C13.0971 115.325 30.8303 140.565 46.9133 137.752C62.9963 134.938 71.3388 105.137 65.5468 71.188C59.7547 37.2393 42.0215 11.9992 25.9385 14.8125Z" stroke="#C9EA32" stroke-width="0.8" stroke-miterlimit="10"/>
<path d="M23.1885 17.85C7.62532 21.2495 0.776374 50.6254 7.89097 83.463C15.0056 116.301 33.3896 140.165 48.9528 136.765C64.516 133.366 71.3649 103.99 64.2503 71.1524C57.1357 38.3149 38.7517 14.4506 23.1885 17.85Z" stroke="#C9EA32" stroke-width="0.8" stroke-miterlimit="10"/>
<path d="M62.9642 71.0897C54.5289 39.3684 35.4939 16.8843 20.4483 20.87C5.4027 24.8557 0.0439505 53.8018 8.47922 85.523C16.9145 117.244 35.9495 139.728 50.9951 135.743C66.0407 131.757 71.3995 102.811 62.9642 71.0897Z" stroke="#C9EA32" stroke-width="0.8" stroke-miterlimit="10"/>
<path d="M61.6718 71.0449C51.9145 40.4366 32.2274 19.3302 17.6995 23.9023C3.17159 28.4744 -0.695719 56.9938 9.06161 87.602C18.8189 118.21 38.506 139.317 53.0339 134.745C67.5618 130.172 71.4291 101.653 61.6718 71.0449Z" stroke="#C9EA32" stroke-width="0.8" stroke-miterlimit="10"/>
<path d="M60.3854 71.0058C49.3071 41.5064 28.9703 21.7729 14.9619 26.9297C0.953481 32.0864 -1.42184 60.1808 9.65646 89.6801C20.7348 119.179 41.0716 138.913 55.08 133.756C69.0884 128.599 71.4638 100.505 60.3854 71.0058Z" stroke="#C9EA32" stroke-width="0.8" stroke-miterlimit="10"/>
<path d="M59.1106 70.9708C46.7116 42.5861 25.7216 24.2321 12.2281 29.9761C-1.26534 35.72 -2.15262 63.3867 10.2463 91.7714C22.6453 120.156 43.6353 138.51 57.1288 132.766C70.6223 127.022 71.5095 99.3555 59.1106 70.9708Z" stroke="#C9EA32" stroke-width="0.8" stroke-miterlimit="10"/>
<path d="M57.8157 70.9226C44.0931 43.6496 22.4526 26.6713 9.48028 33.0004C-3.49206 39.3295 -2.88387 66.5694 10.8387 93.8424C24.5613 121.115 46.2018 138.094 59.1741 131.765C72.1465 125.435 71.5383 98.1956 57.8157 70.9226Z" stroke="#C9EA32" stroke-width="0.8" stroke-miterlimit="10"/>
<path d="M56.5344 70.8807C41.4925 44.7224 19.2001 29.1234 6.74305 36.0393C-5.71403 42.9552 -3.6186 69.7672 11.4233 95.9255C26.4652 122.084 48.7576 137.683 61.2147 130.767C73.6717 123.851 71.5763 97.0391 56.5344 70.8807Z" stroke="#C9EA32" stroke-width="0.8" stroke-miterlimit="10"/>
<path d="M55.232 70.834C38.8652 45.7921 15.9212 31.5736 3.98528 39.076C-7.9507 46.5785 -4.3588 72.9609 12.008 98.0028C28.3748 123.045 51.3188 137.263 63.2547 129.761C75.1907 122.258 71.5988 95.8758 55.232 70.834Z" stroke="#C9EA32" stroke-width="0.8" stroke-miterlimit="10"/>
<path d="M53.9475 70.7867C36.2591 46.8555 12.6629 34.0122 1.24386 42.1004C-10.1752 50.1887 -5.0928 76.1457 12.5956 100.077C30.284 124.008 53.8802 136.852 65.2992 128.763C76.7182 120.675 71.6359 94.718 53.9475 70.7867Z" stroke="#C9EA32" stroke-width="0.8" stroke-miterlimit="10"/>
<path d="M52.6702 70.7409C33.6625 47.9221 9.41418 36.4566 -1.4899 45.132C-12.394 53.8073 -5.82469 79.3383 13.183 102.157C32.1907 124.976 56.439 136.441 67.3431 127.766C78.2472 119.091 71.6779 93.5597 52.6702 70.7409Z" stroke="#C9EA32" stroke-width="0.8" stroke-miterlimit="10"/>
<path d="M51.3726 70.694C31.0414 48.9903 6.14068 38.9047 -4.24467 48.1672C-14.63 57.4296 -6.5673 82.5325 13.7639 104.236C34.0951 125.94 58.9958 136.025 69.3812 126.763C79.7665 117.501 71.7038 92.3976 51.3726 70.694Z" stroke="#C9EA32" stroke-width="0.8" stroke-miterlimit="10"/>
<path d="M50.0881 70.6544C28.4366 50.0623 2.8866 41.3506 -6.9795 51.1965C-16.8456 61.0423 -7.29167 85.7171 14.3598 106.309C36.0112 126.901 61.5612 135.613 71.4273 125.767C81.2934 115.921 71.7395 91.2466 50.0881 70.6544Z" stroke="#C9EA32" stroke-width="0.8" stroke-miterlimit="10"/>
<path d="M48.7876 70.6066C25.8105 51.1294 -0.393078 43.7972 -9.73962 54.2298C-19.0862 64.6623 -8.03636 88.909 14.9408 108.386C37.918 127.864 64.1215 135.196 73.468 124.763C82.8146 114.331 71.7648 90.0839 48.7876 70.6066Z" stroke="#C9EA32" stroke-width="0.8" stroke-miterlimit="10"/>
<path d="M47.4935 70.5738C23.1947 52.2091 -3.66189 46.2552 -12.4924 57.2756C-21.323 68.2959 -8.78347 92.1171 15.5153 110.482C39.8141 128.847 66.6707 134.8 75.5013 123.78C84.3318 112.76 71.7923 88.9385 47.4935 70.5738Z" stroke="#C9EA32" stroke-width="0.8" stroke-miterlimit="10"/>
<path d="M46.2163 70.5377C20.5949 53.2843 -6.91321 48.7046 -15.2248 60.3086C-23.5364 71.9126 -9.50408 95.3061 16.1173 112.559C41.7387 129.813 69.2468 134.392 77.5584 122.788C85.87 111.184 71.8377 87.791 46.2163 70.5377Z" stroke="#C9EA32" stroke-width="0.8" stroke-miterlimit="10"/>
<path d="M44.924 70.4937C17.9824 54.3563 -10.1752 51.1557 -17.9678 63.3449C-25.7604 75.5341 -10.2371 98.4973 16.7044 114.635C43.646 130.772 71.8036 133.973 79.5962 121.784C87.3888 109.594 71.8655 86.6311 44.924 70.4937Z" stroke="#C9EA32" stroke-width="0.8" stroke-miterlimit="10"/>
<path d="M43.6362 70.4474C15.3719 55.4226 -13.439 53.6001 -20.7148 66.3767C-27.9906 79.1532 -10.976 101.691 17.2883 116.715C45.5525 131.74 74.3635 133.563 81.6392 120.786C88.915 108.009 71.9005 85.4721 43.6362 70.4474Z" stroke="#C9EA32" stroke-width="0.8" stroke-miterlimit="10"/>
<path d="M42.3467 70.4091C12.7613 56.4962 -16.7005 56.0479 -23.458 69.4077C-30.2155 82.7675 -11.7098 104.876 17.8757 118.789C47.4611 132.702 76.9229 133.151 83.6804 119.791C90.4379 106.431 71.9322 84.322 42.3467 70.4091Z" stroke="#C9EA32" stroke-width="0.8" stroke-miterlimit="10"/>
<path d="M41.0514 70.3672C10.1447 57.5688 -19.9683 58.4988 -26.2077 72.4446C-32.4472 86.3903 -12.4504 108.071 18.4564 120.869C49.3632 133.668 79.4761 132.738 85.7156 118.792C91.955 104.846 71.9582 83.1657 41.0514 70.3672Z" stroke="#C9EA32" stroke-width="0.8" stroke-miterlimit="10"/>
<path d="M39.7623 70.3234C7.53552 58.6392 -23.2278 60.9474 -28.9494 75.4789C-34.671 90.0104 -13.1844 111.262 19.0424 122.947C51.2692 134.631 82.0325 132.323 87.7541 117.791C93.4758 103.26 71.9891 82.0076 39.7623 70.3234Z" stroke="#C9EA32" stroke-width="0.8" stroke-miterlimit="10"/>
<path d="M38.4935 70.2724C4.94483 59.696 -26.4728 63.3782 -31.6797 78.4968C-36.8867 93.6154 -13.9112 114.445 19.6375 125.022C53.1861 135.598 84.6037 131.916 89.8107 116.797C95.0176 101.679 72.0421 80.8487 38.4935 70.2724Z" stroke="#C9EA32" stroke-width="0.8" stroke-miterlimit="10"/>
</g>
</g>
</svg>
