<svg width="100" height="153" viewBox="0 0 100 153" fill="none" xmlns="http://www.w3.org/2000/svg">
<mask id="mask0_707_308" style="mask-type:alpha" maskUnits="userSpaceOnUse" x="0" y="0" width="100" height="153">
<rect width="100" height="153" fill="#D9D9D9"/>
</mask>
<g mask="url(#mask0_707_308)">
<g opacity="0.9">
<path d="M-25.4637 101.91C-25.4179 101.973 -25.3568 102.023 -25.2934 102.082L-25.2886 102.1C-24.7975 102.509 -24.2364 102.86 -23.6123 103.129C-22.3642 103.665 -20.8566 103.931 -19.1133 103.839C-18.0083 103.777 -16.8033 103.593 -15.5233 103.266C-7.41612 101.154 1.64486 93.8977 7.15206 85.6652C8.49275 83.6668 9.60981 81.6149 10.4597 79.5593C10.5106 79.4314 10.5639 79.3124 10.6213 79.1733C11.0753 78.0425 11.428 76.9583 11.6726 75.9319L11.3532 75.8758C11.0853 75.8343 10.7932 75.8089 10.4964 75.7658C10.4207 75.7673 10.3403 75.7511 10.2687 75.7324C9.1712 75.6116 8.13581 74.913 7.22285 73.6489C7.02372 73.3701 6.83511 73.06 6.64169 72.7322C6.62803 72.7169 6.62084 72.6903 6.60718 72.675C6.44753 72.3665 6.28548 72.0492 6.12269 71.694C5.89658 71.1754 5.67859 70.6166 5.46631 70.0086C4.9954 68.5867 4.62539 66.9758 4.36422 65.2404C4.05431 63.29 3.88386 61.1877 3.82705 58.9786C3.79861 57.6459 3.80725 56.2746 3.85778 54.8825C4.09065 49.1821 5.06759 43.1755 6.70151 37.9794C7.05577 36.8662 7.44621 35.7813 7.85989 34.747C7.9593 34.4824 8.06757 34.2154 8.17178 33.9685C8.94403 32.1527 9.76005 30.6387 10.5973 29.4136C11.8113 27.6491 13.0573 26.4939 14.2757 25.9736C14.6953 25.8028 15.0962 25.7037 15.4873 25.6737L15.5139 25.6665C15.8864 25.7082 16.2501 25.7522 16.6114 25.7874C16.551 25.7752 16.4883 25.7542 16.428 25.742C16.3789 25.7363 16.3274 25.7218 16.2783 25.716L16.4256 25.7332C17.095 25.818 17.7531 25.8963 18.3871 25.9906L18.762 26.0411C18.762 26.0411 18.7709 26.0387 18.7733 26.0476L18.7999 26.0404C20.0614 26.2404 21.7283 26.5682 23.0147 26.7899C22.816 26.7582 22.6068 26.7579 22.4007 26.8042C22.0747 26.8641 21.7324 27.0043 21.3763 27.2339C20.396 27.8609 19.3107 29.1531 18.2244 31.0731C17.4473 32.415 16.6584 34.0643 15.8755 36.0161C15.8287 36.1239 15.7955 36.2469 15.7486 36.3547C15.2525 37.6109 14.7909 38.9243 14.3413 40.282C12.9113 44.7573 11.7606 49.7368 11.0181 54.5391C10.7936 56.0259 10.6046 57.5031 10.455 58.9506C10.2007 61.4151 10.0666 63.7616 10.0776 65.907C10.086 67.692 10.1808 69.3394 10.4006 70.7819C10.4881 71.3856 10.5878 71.9289 10.7069 72.4385C10.8812 73.1518 11.0758 73.7645 11.2995 74.2743C11.7982 75.413 12.4249 76.0417 13.1578 76.1853C13.1602 76.1942 13.169 76.1918 13.1779 76.1894C13.2093 76.1999 13.2519 76.2169 13.2809 76.2185C12.9923 77.504 12.5547 78.906 11.952 80.4002C11.88 80.5908 11.7992 80.7838 11.7314 80.9543C7.31737 91.4669 -3.16091 102.824 -11.9442 106.545C-12.8381 106.93 -13.6827 107.216 -14.4781 107.403C-15.8934 107.758 -17.132 107.818 -18.1867 107.609C-18.848 107.484 -19.4359 107.244 -19.9455 106.907C-20.0493 106.84 -20.1578 106.756 -20.2663 106.671C-20.2775 106.664 -20.2912 106.649 -20.3048 106.634L-20.7485 106.26L-20.7822 106.24C-20.8522 106.193 -20.9092 106.123 -20.9703 106.073C-20.9815 106.066 -20.9904 106.069 -20.9928 106.06C-21.3616 105.751 -21.7602 105.403 -22.1701 105.048C-22.6482 104.617 -23.1424 104.161 -23.6213 103.692L-24.0247 103.326C-24.0906 103.258 -24.154 103.199 -24.2175 103.141C-24.2923 103.075 -24.3469 103.014 -24.4192 102.958L-24.9688 102.403C-25.1343 102.248 -25.2821 102.089 -25.434 101.949C-25.5995 101.794 -25.7473 101.635 -25.9016 101.486C-25.9426 101.441 -25.9859 101.386 -26.0245 101.349C-25.9859 101.386 -25.9522 101.405 -25.9225 101.445C-25.8678 101.506 -25.8068 101.556 -25.7521 101.617L-26.1177 101.25L-26.1225 101.233L-25.6886 101.676C-25.6204 101.753 -25.5456 101.818 -25.4798 101.886L-25.4637 101.91Z" fill="#B83856"/>
<path d="M-11.9315 112.73C-11.5094 112.92 -10.992 112.97 -10.3842 112.862C-9.6501 112.73 -8.80455 112.377 -7.82103 111.797C-7.33047 111.502 -6.79876 111.149 -6.24604 110.733C-3.20367 108.454 0.244192 104.725 3.51926 100.358C5.43221 97.8053 7.29642 95.0376 8.96596 92.218C11.0042 88.7947 12.794 85.2961 14.1046 81.994C14.7873 80.2689 15.3153 78.7093 15.6644 77.3314C15.7081 77.1769 15.7405 77.016 15.7931 76.8592C15.7907 76.8503 15.7996 76.8479 15.7972 76.8391C16.1197 76.9418 16.4576 77.0309 16.7351 77.1078L16.7954 77.1199C16.9836 77.183 17.1919 77.2501 17.418 77.3125C17.4493 77.323 17.4919 77.3399 17.5209 77.3416C17.3665 77.2979 17.2428 77.1223 17.1636 76.83C17.0916 76.5643 17.06 76.2021 17.0575 75.737C17.0623 75.2984 17.0849 74.7504 17.1414 74.1172C17.1904 73.6666 17.2492 73.1468 17.3338 72.582C17.5502 71.1355 17.8579 69.4645 18.2689 67.6134C18.8113 65.0898 19.528 62.2623 20.3488 59.2925C21.864 53.834 23.7639 47.9004 25.7126 42.6381C26.1927 41.3577 26.6646 40.1176 27.1309 38.9265C27.6399 37.6478 28.1246 36.4897 28.5898 35.4701C29.6793 33.0359 30.5955 31.2951 31.3077 30.275C31.5634 29.9205 31.794 29.6489 32.0043 29.4778C32.1792 29.3163 32.3402 29.2442 32.4626 29.2395L32.4803 29.2347C32.5406 29.2469 32.6033 29.2679 32.646 29.2849L32.6122 29.2655C32.6974 29.2995 32.7779 29.3157 32.8631 29.3496C33.4946 29.5398 34.1284 29.7387 34.7043 29.9344C34.7806 29.9707 34.8611 29.987 34.9351 30.0145L35.0203 30.0484C35.7016 30.2821 36.4841 30.5738 37.2667 30.8656C37.2755 30.8632 37.2779 30.872 37.2868 30.8696C37.3608 30.8971 37.4324 30.9157 37.4975 30.9456C37.5739 30.982 37.6455 31.0006 37.7195 31.0281C37.9817 31.1186 38.2463 31.218 38.4996 31.311C38.5849 31.3449 38.6613 31.3813 38.7329 31.3999C38.7891 31.4322 38.8294 31.4403 38.8808 31.4548C38.9034 31.4677 38.9371 31.4871 38.9572 31.4912C38.9685 31.4976 38.9773 31.4952 38.9886 31.5017C39.0111 31.5146 39.0401 31.5163 39.0626 31.5292C39.0964 31.5485 39.139 31.5655 39.1704 31.576L39.2041 31.5954C39.2041 31.5954 39.1064 31.831 38.9359 32.2194C38.8107 32.5291 38.6362 32.9376 38.4262 33.4603C37.8291 34.9055 36.9169 37.1871 35.6945 40.2182C35.4949 40.7096 35.3002 41.2187 35.0901 41.7414C33.9444 44.5996 32.6887 47.7538 31.4056 50.982C30.5936 53.0368 29.7621 55.1254 28.9412 57.1826C27.2153 61.548 25.5491 65.7831 24.1584 69.3161C23.4231 71.198 22.7686 72.8869 22.211 74.3024C22.0098 74.8227 21.8296 75.2803 21.6776 75.7018C21.453 76.276 21.2599 76.7561 21.1096 77.1486C20.7903 78.0051 20.6448 78.4153 20.6496 78.433C21.1297 78.6261 21.6951 78.8532 22.1599 79.0599C22.2363 79.0963 22.3038 79.135 22.3754 79.1536C22.3778 79.1625 22.3867 79.1601 22.3979 79.1665C22.4092 79.173 22.4293 79.177 22.4542 79.1988L22.4454 79.2012C22.1337 79.8751 21.7945 80.6229 21.4367 81.4424C21.0069 82.4525 20.5416 83.5768 20.0382 84.8064C19.5034 86.1302 18.97 87.5295 18.4374 88.9668C16.5429 94.0433 14.6572 99.6783 13.0772 104.898C12.1993 107.797 11.428 110.564 10.7979 113.044C10.2999 114.995 9.89386 116.759 9.60737 118.263C9.50431 118.795 9.41823 119.284 9.35556 119.719C9.23686 120.474 9.17552 121.089 9.15382 121.571C9.12773 122.281 9.19625 122.709 9.35698 122.846C9.37064 122.862 9.39075 122.866 9.40201 122.872C9.20494 122.812 9.00548 122.742 8.81967 122.688L8.39177 122.547L8.34029 122.532C6.92152 122.033 5.12726 121.34 3.60884 120.754C3.33299 120.648 3.06599 120.54 2.81264 120.447C2.81264 120.447 2.83035 120.442 2.82795 120.433C2.90451 120.365 3.06757 120.054 3.31787 119.54C3.53183 119.101 3.80075 118.515 4.12057 117.801C4.30391 117.39 4.50661 116.945 4.72628 116.458C5.41038 114.913 6.23022 113.027 7.1301 110.911C9.02836 106.48 11.3032 101.053 13.5274 95.6495L13.5678 95.553C15.1973 91.6035 16.8002 87.6613 18.2045 84.1436C18.3887 83.6658 18.5778 83.2058 18.7475 82.7796C19.4666 80.9781 20.0193 79.545 20.471 78.4054C20.2378 78.3165 20.0021 78.2187 19.7577 78.1234L19.0805 77.8696L18.6791 77.7217C18.6791 77.7217 18.6502 77.72 18.6301 77.716L18.536 77.6844C18.4418 77.6529 18.3566 77.619 18.2738 77.5939C18.2649 77.5963 18.2625 77.5874 18.2536 77.5898C18.0743 77.5243 17.8772 77.4637 17.689 77.4006C17.2544 78.9539 16.61 80.8206 15.7374 82.9679C15.2583 84.1815 14.7243 85.4384 14.1485 86.7163C11.0956 93.5517 6.93831 101.048 3.07433 106.819C1.32468 109.414 -0.347169 111.663 -1.84751 113.353C-2.23933 113.802 -2.61899 114.19 -2.96396 114.53C-3.64746 115.201 -4.23246 115.673 -4.74074 115.972C-5.24015 116.269 -5.64993 116.371 -5.96767 116.286C-5.98778 116.282 -6.01914 116.271 -6.04165 116.258C-6.06416 116.245 -6.09794 116.226 -6.11805 116.222L-6.15182 116.202L-6.18559 116.183L-6.98642 115.754L-7.0427 115.721L-7.07647 115.702C-7.21155 115.625 -7.35546 115.549 -7.4994 115.474C-8.0574 115.169 -8.65637 114.818 -9.23523 114.471C-9.3703 114.394 -9.49651 114.314 -9.63158 114.237C-9.96041 114.04 -10.2916 113.835 -10.6116 113.637L-10.659 113.602L-10.684 113.581L-10.7515 113.542C-11.0377 113.363 -11.3375 113.168 -11.6575 112.97L-11.5651 113.03C-11.5651 113.03 -11.6237 112.989 -11.6551 112.979C-11.7452 112.927 -11.8263 112.873 -11.9075 112.819C-11.9276 112.815 -11.9413 112.8 -11.9751 112.78C-12.0314 112.748 -12.0788 112.713 -12.1375 112.672C-12.086 112.687 -12.0587 112.717 -12.0249 112.737C-12.0137 112.743 -12.0024 112.75 -11.9935 112.747L-11.9315 112.73Z" fill="#B83856"/>
<path d="M84.8246 92.4889C84.8027 92.6184 84.7872 92.7367 84.7629 92.8573C84.728 93.0094 84.6996 93.1502 84.6712 93.2909C84.7597 92.8107 84.837 92.3239 84.9077 91.8484C84.8784 92.056 84.8515 92.2724 84.8222 92.48L84.8246 92.4889Z" fill="#B83856"/>
<path d="M35.0036 87.3767C35.0171 87.4966 35.0395 87.6141 35.0529 87.7341C35.0313 87.6544 35.0227 87.5521 35.0092 87.4322L34.9948 87.3791L35.0036 87.3767Z" fill="#B83856"/>
<path d="M-41.0015 74.8822L-41.0303 74.7759C-41.0479 74.6761 -41.0678 74.5674 -41.0829 74.4765C-41.1276 74.2414 -41.1747 73.9975 -41.2178 73.7335C-41.2625 73.4984 -41.3095 73.2545 -41.3454 73.017L-41.2591 73.4405C-41.1138 74.1521 -40.9997 74.7486 -40.8871 75.2694C-40.9908 74.7462 -41.1138 74.1521 -41.2591 73.4405C-40.1145 78.7866 -36.1982 85.5205 -24.1918 88.2558C-24.1622 88.3999 -24.1327 88.544 -24.1185 88.7018C-24.1392 88.5553 -24.1687 88.4112 -24.1829 88.2534C-22.257 88.6251 -20.3082 88.8004 -18.3784 88.8003C-15.5586 88.7871 -12.7639 88.4005 -10.1159 87.6829C-2.94254 85.7389 3.27064 81.3743 6.42814 75.5562C6.21891 75.5559 6.00561 75.5757 5.80764 75.5818L5.53641 75.5983L5.5187 75.6031L5.32073 75.6092C1.37092 81.2047 -5.68745 84.6956 -13.4773 85.1715C-15.7582 85.3143 -18.1063 85.2092 -20.449 84.8079C-21.7266 84.5837 -23.0145 84.2863 -24.2999 83.8931C-35.7739 80.3862 -42.7616 70.9482 -41.5957 61.5346C-41.4722 60.7976 -41.3819 60.1837 -41.2772 59.623C-41.2715 59.5739 -41.2569 59.5224 -41.2447 59.4621C-41.1634 58.9552 -41.0702 58.4927 -40.9745 58.0389C-40.8537 57.5024 -40.7418 56.9682 -40.5775 56.3818C-40.5063 56.1534 -40.4464 55.9185 -40.3865 55.6836C-40.2692 55.3096 -40.1567 54.9179 -40.0184 54.4811C-40.84 57.5177 -40.8161 60.6578 -40.0485 63.701C-39.4615 66.0421 -38.4327 68.3301 -37.0286 70.4593C-34.0671 74.9327 -29.4427 78.7369 -23.62 80.9996C-22.5367 81.419 -21.4436 81.7692 -20.3473 82.0615C-18.3403 82.5918 -16.3176 82.8992 -14.3188 83.0135C-6.71223 83.4047 0.344052 80.7129 4.63658 75.6805L4.68086 75.6685C4.45631 75.6818 4.21646 75.7088 3.98952 75.7133C-0.434919 79.6977 -6.9205 81.3032 -13.7267 80.0771C-15.4177 79.7654 -17.123 79.2959 -18.8232 78.6349C-19.7585 78.2704 -20.6881 77.8569 -21.6145 77.3855C-24.9241 75.6966 -27.8103 73.4653 -30.1802 70.8943C-35.9113 64.6902 -38.627 56.5282 -36.9416 49.3124C-36.743 48.4315 -36.4728 47.5692 -36.1287 46.7345C-35.5307 45.2225 -34.7407 43.8581 -33.7964 42.6421C-32.9602 41.5884 -31.7533 40.2536 -30.8472 39.2476L-30.8383 39.2452L-30.8254 39.2226C-30.4958 38.8956 -30.1685 38.5598 -29.8582 38.2666C-29.7228 38.1348 -29.5874 38.003 -29.4496 37.8801C-29.4036 37.8392 -29.3513 37.7869 -29.2965 37.7436C-29.0821 37.5524 -28.8613 37.3499 -28.638 37.1564L-28.5727 37.0816C-28.5727 37.0816 -28.5244 37.0495 -28.5091 37.0359C-28.4849 37.0198 -28.4543 36.9925 -28.4325 36.9676C-28.3648 36.9017 -28.3012 36.8559 -28.2246 36.7876C-28.2335 36.7901 -28.2399 36.8013 -28.2552 36.815L-28.2335 36.7901C-28.1722 36.7354 -28.111 36.6808 -28.0497 36.6262L-28.0957 36.6671C-28.0409 36.6238 -27.9796 36.5692 -27.9248 36.5258L-27.8983 36.5186C-27.7387 36.3708 -27.5679 36.2294 -27.3946 36.0969L-27.4035 36.0993C-27.7057 36.3523 -28.0167 36.6077 -28.3189 36.8607C-28.4785 37.0085 -28.638 37.1564 -28.8065 37.3066C-30.1388 38.5993 -31.2655 40.1595 -32.1271 41.9615C-32.3071 42.3145 -32.4735 42.6828 -32.6197 43.0552C-35.9204 51.3267 -33.1094 61.8395 -26.2917 69.4223C-24.3324 71.6006 -22.0372 73.5454 -19.4621 75.1196L-19.4444 75.1148C-18.606 75.648 -17.7737 76.088 -16.931 76.4965C-15.4523 77.2175 -13.9748 77.7583 -12.4956 78.1654C-6.45135 79.8071 -0.586527 78.8927 3.72475 75.7185C1.7588 75.6904 -0.244698 74.9975 -2.19794 73.578C-2.96319 73.0344 -3.70169 72.379 -4.42878 71.6254C-4.91965 71.1119 -5.40481 70.5495 -5.88186 69.9467C-5.85529 69.9395 -5.81747 69.9388 -5.7909 69.9316C-5.81987 69.9299 -5.85529 69.9395 -5.88426 69.9379C-6.96681 68.5391 -7.93721 66.9578 -8.76979 65.2537C-9.72032 63.3248 -10.5024 61.2457 -11.1306 59.0678C-11.5187 57.671 -11.852 56.2308 -12.1055 54.769C-13.1063 49.0416 -12.9847 43.0006 -11.6003 37.7961C-11.3168 36.7021 -10.9659 35.6469 -10.5587 34.6239C-10.4205 34.2918 -10.2735 33.9572 -10.133 33.6339C-9.31809 31.835 -8.35076 30.318 -7.27047 29.1127C-5.93136 27.5995 -4.42483 26.5638 -2.82413 26.0159C-2.41269 25.8854 -1.98761 25.7702 -1.57063 25.6952C-1.43539 25.6681 -1.29774 25.6498 -1.1601 25.6315L1.73017 25.3521L1.81468 25.3482C1.87022 25.3426 1.93461 25.3347 1.98129 25.3315C2.04568 25.3236 2.11007 25.3157 2.16561 25.3101C3.27947 25.2459 4.63875 25.2103 5.75096 25.175C5.26884 25.2201 4.78987 25.3119 4.31884 25.4681C2.82366 25.9493 1.36862 26.9996 0.0559085 28.6102C-0.88343 29.7393 -1.74357 31.1608 -2.52285 32.8454C-2.71504 33.2588 -2.90889 33.7011 -3.08263 34.1474C-3.35246 34.8004 -3.59258 35.4929 -3.82144 36.1919C-5.63224 41.7876 -6.19025 48.4982 -5.58074 54.8164C-5.45025 56.2451 -5.25131 57.6456 -4.99278 59.0206C-4.59299 61.1272 -4.07475 63.1447 -3.39694 65.0144C-2.8009 66.6876 -2.09122 68.254 -1.27824 69.6403C-0.909859 70.2629 -0.535772 70.8365 -0.147115 71.3586C0.422214 72.1264 1.01182 72.7937 1.61931 73.3516C3.21518 74.8204 4.92329 75.5458 6.62611 75.5501L6.65268 75.5429C6.65268 75.5429 6.71062 75.5462 6.73959 75.5479C6.911 75.549 7.10012 75.5453 7.30049 75.548C7.31175 75.5544 7.32061 75.552 7.32061 75.552C4.97688 80.7598 0.337738 85.1446 -5.31459 88.0359C-8.28733 89.5545 -11.5242 90.6598 -14.8712 91.2532C-17.6862 91.7403 -20.5618 91.8637 -23.3899 91.5654C-31.4799 90.4781 -36.6923 86.9948 -39.3197 80.9478L-39.4039 80.7425C-39.4039 80.7425 -39.4206 80.6805 -39.4367 80.6563C-39.5368 80.3222 -39.6481 79.9816 -39.7666 79.6144C-39.7954 79.5082 -39.8282 79.422 -39.8522 79.3334L-39.8714 79.2626C-40.0612 78.6676 -40.2069 78.1652 -40.3446 77.7272C-40.2085 78.1942 -40.0492 78.7119 -39.8611 79.3358L-39.8659 79.3181C-40.0621 78.7344 -40.2358 78.1635 -40.3952 77.6458C-40.6313 76.8447 -40.8678 75.7966 -41.0611 74.9078L-41.0015 74.8822Z" fill="#B83856"/>
<path d="M16.5805 120.175C16.4275 118.734 16.3907 117.09 16.4355 115.29C16.4953 113.126 16.6906 110.725 17.0045 108.234C17.2529 106.38 17.5449 104.476 17.9077 102.552C18.6495 98.6245 19.6257 94.6144 20.788 90.9056C21.2701 89.387 21.769 87.9304 22.2935 86.5334C22.4204 86.1948 22.5561 85.8538 22.6854 85.5241C23.4361 83.6285 24.1967 82.0154 24.9231 80.6968L25.0651 80.4492L24.9526 80.3846C25.2967 80.567 25.8491 80.3603 26.6025 79.7378C26.966 79.4302 27.381 79.0325 27.8365 78.5383C28.159 78.1848 28.5073 77.7862 28.8701 77.3361L28.879 77.3337C30.1828 75.7255 31.6226 73.6717 33.1385 71.3026C37.1013 65.1237 41.4819 56.8732 44.6499 49.5503C45.078 48.5692 45.4771 47.5865 45.8616 46.6552C47.0114 43.7769 47.8063 41.413 48.2453 39.6304C48.447 38.7962 48.5753 38.077 48.6261 37.4928C48.7112 36.6142 48.6019 36.0354 48.3367 35.7935C48.3231 35.7782 48.3207 35.7694 48.307 35.754L48.2057 35.6959C48.2709 35.7258 48.3159 35.7516 48.381 35.7815L49.2293 36.2456L50.3743 36.8574C50.5206 36.9414 50.6734 37.014 50.8221 37.1068C50.8221 37.1068 50.8288 37.1082 50.8422 37.1109C51.1686 37.2981 51.4951 37.4853 51.8126 37.675C52.4791 38.0647 53.1593 38.4698 53.7631 38.8385C53.9142 38.9402 54.0718 39.0306 54.2205 39.1233C54.2768 39.1556 54.3331 39.1879 54.3918 39.229C54.4255 39.2484 54.4617 39.2766 54.4866 39.2984C54.5067 39.3025 54.5204 39.3178 54.5429 39.3307C55.1899 39.8588 55.4803 40.9304 55.3908 42.4947C55.3476 43.3525 55.185 44.3662 54.9136 45.5045C54.5386 47.0321 53.9635 48.804 53.1572 50.8097C52.1052 53.4524 50.7624 56.25 49.2346 59.0311C47.0303 63.0698 44.4495 67.087 41.8059 70.6268C38.9348 74.485 35.968 77.7796 33.3565 79.8943L33.3476 79.8967C32.8174 80.3256 32.3348 80.6846 31.8603 81.0033C31.1836 81.4529 30.5666 81.7721 30.0054 81.9813C29.0552 82.3338 28.3117 82.3262 27.7666 81.9986L27.7577 82.001C27.7577 82.001 27.6878 81.9534 27.6653 81.9405C27.609 81.9082 27.564 81.8824 27.5077 81.8501L27.1226 81.6218L26.715 81.3805C26.0533 82.4819 25.4066 83.7789 24.7838 85.2691C24.703 85.4621 24.6246 85.664 24.5398 85.8771C24.122 86.9315 23.7299 88.0454 23.3628 89.1811C21.7273 94.3015 20.7015 100.198 20.3441 105.789C20.2533 107.173 20.2133 108.534 20.2039 109.868C20.2019 112.14 20.3295 114.33 20.5847 116.324C20.7943 118.045 21.1217 119.639 21.5347 121.057C21.6996 121.631 21.8902 122.159 22.089 122.647C22.4056 123.464 22.7618 124.147 23.1424 124.709C23.8649 125.797 24.6903 126.457 25.576 126.674C25.6049 126.675 25.6452 126.683 25.6765 126.694C25.8439 126.715 26.0313 126.74 26.2075 126.759C26.1118 126.757 25.9959 126.75 25.9002 126.747L24.6434 126.565L24.6346 126.567C24.6346 126.567 24.6322 126.559 24.6233 126.561C23.1542 126.332 21.2886 125.972 19.711 125.658C19.4407 125.608 19.2018 125.568 18.9604 125.519C18.8776 125.494 18.806 125.476 18.7207 125.442C18.1755 125.219 17.7169 124.649 17.3425 123.724C17.1318 123.192 16.9541 122.536 16.8073 121.749C16.7244 121.268 16.6496 120.746 16.5829 120.184L16.5805 120.175Z" fill="#B83856"/>
<path d="M24.3685 106.61C23.9076 100.489 24.5102 94.0131 26.2122 88.542C26.4759 87.691 26.771 86.8505 27.0958 86.0495C27.1224 86.0423 27.1425 86.0463 27.1714 86.048L27.2471 86.0465C27.2004 86.0497 27.1425 86.0463 27.0934 86.0406C27.2502 85.6369 27.4206 85.2485 27.587 84.8802C27.956 84.0672 28.3419 83.3162 28.7446 82.6271C28.8708 82.707 28.9882 82.7893 29.1031 82.8627L29.1369 82.8821L29.1956 82.9232L29.2205 82.945L29.2679 82.9797L29.3041 83.0079L29.3089 83.0256C29.5388 83.1724 29.767 83.3482 30.0018 83.5128C29.7742 83.9357 29.5513 84.3763 29.3357 84.8436C29.1694 85.2119 29.0054 85.589 28.8462 85.9839C28.8019 85.9959 28.744 85.9926 28.6973 85.9957L28.7416 85.9837C28.7416 85.9837 28.8084 85.9846 28.8374 85.9863C28.4939 86.8589 28.1778 87.7621 27.918 88.6976C26.3788 94.0676 26.1578 100.373 27.1276 106.337C27.3476 107.675 27.6183 108.99 27.9485 110.278C28.5268 112.517 29.2766 114.653 30.1924 116.629C30.992 118.352 31.9069 119.938 32.9475 121.358C32.8831 121.366 32.8276 121.372 32.7608 121.371C32.8252 121.363 32.892 121.364 32.9475 121.358C33.3844 121.953 33.8269 122.498 34.284 122.992C35.0415 123.823 35.8146 124.536 36.6095 125.119C38.5249 126.539 40.5236 127.214 42.4527 127.176L42.637 127.155C42.9791 127.119 43.3235 127.092 43.6567 127.059C43.466 127.092 43.2752 127.125 43.0796 127.14L43.053 127.147L41.5641 127.265C41.5641 127.265 41.4884 127.267 41.4506 127.267L41.3975 127.282L41.2929 127.282C41.115 127.292 40.9283 127.304 40.7303 127.31C40.2168 127.345 39.7033 127.38 39.1963 127.403C38.5758 127.428 37.9441 127.448 37.3832 127.447C37.2584 127.443 37.1361 127.448 37.0202 127.441C36.7909 127.437 36.5816 127.437 36.3612 127.43L36.2187 127.43C35.9894 127.426 35.7423 127.426 35.5041 127.424C35.4261 127.417 35.3593 127.416 35.2812 127.409L35.241 127.401C33.8201 127.244 32.4153 126.55 31.0927 125.283C30.4668 124.692 29.8628 123.972 29.2831 123.131C28.9507 122.641 28.6152 122.104 28.2991 121.534C28.3658 121.535 28.4326 121.536 28.4882 121.53C28.4214 121.53 28.3546 121.529 28.2967 121.525C27.5143 120.112 26.8489 118.533 26.2899 116.822C25.6501 114.846 25.145 112.702 24.8049 110.465C24.6066 109.207 24.4654 107.914 24.3661 106.601L24.3685 106.61Z" fill="#B83856"/>
<path d="M38.9741 120.267C37.5327 118.842 36.2525 117.24 35.1094 115.478C33.6588 113.247 32.4532 110.798 31.5278 108.225C30.8917 106.439 30.3748 104.602 29.9979 102.755C29.1709 98.6161 29.0545 94.3982 29.7262 90.5277C29.9635 89.123 30.3085 87.7651 30.7572 86.4743C30.8736 86.167 30.9746 85.8735 31.0958 85.5839C31.221 85.2743 31.3487 84.9736 31.4876 84.6792C31.4064 84.6252 31.3316 84.5599 31.2682 84.501L31.1211 84.3793C31.7271 84.8615 32.4766 85.1717 33.3689 85.2721C33.8195 85.3211 34.3047 85.3227 34.8271 85.2857C34.8802 85.2713 34.918 85.2706 34.9647 85.2675C35.4976 85.1991 36.0498 85.097 36.6496 84.9249C37.4289 84.7137 38.2575 84.4036 39.1353 83.9946C47.804 79.9912 58.2783 68.093 62.5428 57.4499C62.6956 57.0663 62.8354 56.7052 62.9639 56.3376C63.6033 54.5578 64.0123 52.9449 64.2069 51.5232C64.5849 48.6735 64.1224 46.5458 62.8963 45.319C62.8529 45.2642 62.7918 45.2142 62.7308 45.1642L64.2939 46.4422L64.3799 46.514C64.3799 46.514 64.4024 46.5269 64.4185 46.5511C64.4322 46.5664 64.4571 46.5882 64.4908 46.6075C64.7625 46.8381 65.0413 47.0953 65.3402 47.3565C65.7139 47.683 66.1149 48.0402 66.5135 48.3885C66.9418 48.7762 67.3548 49.1776 67.7678 49.5791C67.7927 49.6008 67.8088 49.625 67.8401 49.6355L67.906 49.7032C67.906 49.7032 67.9309 49.725 67.947 49.7492C67.9606 49.7645 67.988 49.7951 68.0105 49.808C68.0217 49.8145 68.0241 49.8233 68.033 49.8209C68.0627 49.8604 68.0787 49.8846 68.1149 49.9128C68.1238 49.9104 68.1262 49.9192 68.1262 49.9192C68.2081 50.0111 68.2852 50.0853 68.3583 50.1796C70.1585 52.1919 70.6401 55.5122 69.5324 59.7386C69.2798 60.7006 68.9474 61.6843 68.5297 62.7386C68.0376 63.9747 67.4498 65.2083 66.775 66.4368C61.6289 75.8264 51.6093 84.7019 42.8142 87.2565C41.5284 87.6335 40.3419 87.8505 39.2417 87.93C37.5523 88.0456 36.0945 87.8227 34.889 87.3033C34.8778 87.2969 34.8665 87.2904 34.8375 87.2888C34.8493 96.0315 41.5979 104.517 52.2086 107.925C53.5236 108.358 54.8566 108.681 56.1768 108.922C58.3345 109.307 60.4853 109.456 62.5963 109.388C72.1274 109.058 80.6317 104.168 83.778 96.3088C84.1109 95.4676 84.3746 94.6166 84.5715 93.7647C84.4847 94.216 84.3923 94.6118 84.3193 94.9738C84.1207 95.8547 83.9474 96.5481 83.7257 97.2736C83.4369 98.2075 83.0869 99.1959 82.551 100.691C82.5445 100.702 82.5469 100.711 82.5404 100.722C82.5275 100.745 82.5259 100.774 82.4977 100.81C82.3805 101.08 82.2553 101.389 82.1188 101.692C82.0356 101.876 81.946 102.072 81.8515 102.25C78.1426 109.681 69.4667 113.658 60.0582 112.861C58.2679 112.71 56.4561 112.374 54.639 111.877C53.5555 111.562 52.4689 111.201 51.3896 110.762C51.409 110.728 51.4236 110.676 51.4381 110.625C50.9944 110.812 50.4056 110.182 49.9721 109.986L48.9428 109.485L48.6011 109.312C48.4146 109.22 48.2433 109.114 48.0544 109.013C48.023 109.003 47.978 108.977 47.9442 108.957C47.7754 108.861 47.6089 108.773 47.4401 108.676L47.2938 108.592C47.1764 108.51 47.0437 108.441 46.9312 108.376C46.8636 108.338 46.7937 108.29 46.7463 108.255C46.645 108.197 46.5389 108.121 46.4287 108.066C46.3588 108.018 46.2912 107.979 46.2301 107.929C46.1377 107.869 46.0364 107.811 45.9391 107.733C45.8716 107.694 45.8017 107.646 45.7406 107.596C45.6481 107.536 45.5509 107.458 45.4584 107.397C45.3885 107.349 45.321 107.311 45.2599 107.261C45.2374 107.248 45.2213 107.224 45.1876 107.204C45.1088 107.159 45.0364 107.103 44.9753 107.053C44.9143 107.003 44.8556 106.961 44.7945 106.912C44.6908 106.845 44.5936 106.766 44.4963 106.688C44.4376 106.647 44.3878 106.603 44.3315 106.571C44.2094 106.471 44.0783 106.374 43.9562 106.274C43.9337 106.261 43.8975 106.232 43.8838 106.217C43.7593 106.108 43.6283 106.011 43.5037 105.902C43.4812 105.889 43.4474 105.87 43.4338 105.854C43.3952 105.817 43.3478 105.783 43.3092 105.745C43.2706 105.708 43.2345 105.68 43.1959 105.643C43.1846 105.637 43.171 105.621 43.1372 105.602C43.1123 105.58 43.0761 105.552 43.0601 105.528C43.0376 105.515 43.0215 105.491 43.0014 105.487C42.9403 105.437 42.8881 105.384 42.8383 105.341C42.7659 105.284 42.6936 105.228 42.639 105.167C42.6253 105.151 42.6093 105.127 42.5779 105.117C42.5779 105.117 42.5755 105.108 42.5667 105.11C42.5506 105.086 42.5233 105.055 42.4895 105.036L42.4035 104.964C42.3175 104.892 42.238 104.809 42.152 104.738C42.1383 104.722 42.111 104.692 42.0885 104.679C42.0885 104.679 42.0773 104.672 42.0749 104.664C42.05 104.642 42.0114 104.605 41.9841 104.574C41.8981 104.502 41.8185 104.419 41.7503 104.343C41.6892 104.293 41.6458 104.238 41.5847 104.188C41.5711 104.173 41.5462 104.151 41.5213 104.129C41.51 104.123 41.4963 104.107 41.4915 104.09C41.4666 104.068 41.4305 104.04 41.4007 104C41.3871 103.985 41.3598 103.954 41.3349 103.932C41.2738 103.882 41.2304 103.828 41.1782 103.775C41.1533 103.753 41.1372 103.729 41.1035 103.71C41.0898 103.695 41.0713 103.662 41.0577 103.646C41.0191 103.609 40.983 103.581 40.9532 103.542C40.942 103.535 40.9396 103.526 40.9283 103.52C40.8938 103.463 40.844 103.419 40.8054 103.382C40.7918 103.367 40.7733 103.334 40.742 103.323C40.6986 103.268 40.6464 103.216 40.603 103.161C40.5733 103.122 40.5347 103.085 40.4961 103.047C40.4913 103.03 40.4801 103.023 40.464 102.999C40.4616 102.99 40.4504 102.984 40.4391 102.977L40.3957 102.923C40.35 102.859 40.2954 102.798 40.252 102.743C40.2062 102.679 40.1427 102.62 40.0881 102.559C40.0881 102.559 40.0769 102.553 40.0745 102.544C40.0608 102.529 40.0495 102.522 40.0423 102.495L39.9034 102.334C39.9034 102.334 39.8689 102.276 39.8375 102.266C39.8143 102.215 39.7821 102.167 39.7371 102.141C39.7347 102.132 39.7211 102.117 39.7163 102.099C39.7026 102.084 39.7002 102.075 39.6865 102.06C39.6705 102.035 39.6544 102.011 39.6408 101.996C39.6159 101.974 39.5974 101.941 39.5725 101.919C39.5066 101.852 39.4608 101.788 39.4014 101.709C39.3854 101.685 39.3557 101.645 39.3283 101.615C39.2986 101.575 39.2826 101.551 39.2553 101.52C39.244 101.514 39.2328 101.508 39.2304 101.499C39.228 101.49 39.2256 101.481 39.2143 101.475C39.2006 101.459 39.1822 101.426 39.1685 101.411C39.1388 101.371 39.1204 101.338 39.0906 101.299C39.0794 101.292 39.077 101.284 39.0746 101.275C39.0497 101.253 39.0111 101.216 38.9903 101.174C38.9694 101.132 38.9445 101.11 38.9148 101.071C38.8803 101.014 38.828 100.961 38.7911 100.895C38.7662 100.873 38.7454 100.832 38.7156 100.792C38.6996 100.768 38.6747 100.746 38.6498 100.724C38.6337 100.7 38.6265 100.674 38.6104 100.65C38.5647 100.586 38.5189 100.522 38.4731 100.459C38.4386 100.401 38.3953 100.347 38.3584 100.281C38.3584 100.281 38.3538 100.275 38.3447 100.265C38.2668 100.153 38.1865 100.032 38.1175 99.918C38.083 99.8608 38.0573 99.8012 38.014 99.7465C38.0003 99.7311 37.9891 99.7247 37.9843 99.707C37.9265 99.5991 37.8647 99.5112 37.8093 99.4122L37.7587 99.3308C37.7587 99.3308 37.7355 99.2801 37.7194 99.2559C37.6391 99.1351 37.5565 99.0054 37.485 98.8821C37.4481 98.8161 37.4048 98.7613 37.3791 98.7017C37.278 98.539 37.1993 98.3892 37.1183 98.2305C37.0678 98.1491 37.0148 98.0589 36.9819 97.9728C36.8856 97.8277 36.8134 97.6667 36.7437 97.5145C36.7156 97.446 36.6787 97.38 36.6418 97.3139C36.6394 97.3051 36.637 97.2962 36.6209 97.272C36.5905 97.1947 36.5511 97.1198 36.5094 97.0361C36.422 96.8887 36.3562 96.7163 36.2929 96.5529C36.2769 96.5287 36.2673 96.4933 36.2601 96.4667C36.2136 96.3653 36.1807 96.2791 36.1342 96.1776C36.1294 96.1599 36.1198 96.1245 36.1061 96.1092C36.0989 96.0826 36.0805 96.0496 36.0733 96.023C36.0452 95.9546 36.0148 95.8773 35.9819 95.7911L35.8641 95.4618C35.8641 95.4618 35.8409 95.411 35.8337 95.3845C35.8337 95.3845 35.808 95.3249 35.8008 95.2983C35.796 95.2806 35.7888 95.254 35.7776 95.2476L35.7488 95.1413C35.7488 95.1413 35.7207 95.0729 35.7087 95.0286C35.6855 94.9778 35.6759 94.9424 35.6615 94.8893C35.6543 94.8627 35.6358 94.8297 35.6238 94.7854L35.5998 94.6968C35.5766 94.6461 35.5622 94.593 35.5526 94.5575L35.5382 94.5044C35.5382 94.5044 35.5101 94.436 35.5005 94.4005L35.4573 94.2411C35.4573 94.2411 35.4268 94.1638 35.4148 94.1195L35.3788 93.9867L35.3596 93.9159C35.3452 93.8627 35.3196 93.8031 35.3028 93.7411L35.166 93.2363C35.166 93.2363 35.1468 93.1655 35.1436 93.1188L35.0572 92.8C35.0572 92.8 35.0517 92.7445 35.0469 92.7268L35.0253 92.647C35.0109 92.5939 35.003 92.5295 34.9862 92.4675L34.9718 92.4144C34.9718 92.4144 34.9669 92.3967 34.9734 92.3854C34.9734 92.3854 34.9662 92.3589 34.959 92.3323L34.9302 92.226C34.9302 92.226 34.9182 92.1817 34.9223 92.1616C34.9079 92.1085 34.8983 92.0731 34.8927 92.0175C34.8783 91.9644 34.8687 91.929 34.8632 91.8734C34.8512 91.8291 34.8416 91.7937 34.836 91.7382L34.824 91.6939C34.824 91.6939 34.8209 91.6472 34.8161 91.6295L34.7993 91.5675C34.7993 91.5675 34.8009 91.5386 34.7913 91.5031C34.7865 91.4854 34.7793 91.4588 34.7834 91.4387L34.7786 91.421C34.7731 91.3655 34.7563 91.3035 34.7531 91.2568L34.7387 91.2037L34.7149 91.0105L34.6957 90.9397C34.6957 90.9397 34.6877 90.8753 34.6894 90.8463C34.6822 90.8197 34.675 90.7932 34.6766 90.7642C34.6718 90.7465 34.6646 90.7199 34.6687 90.6998C34.6543 90.6467 34.6464 90.5823 34.6432 90.5356C34.6408 90.5267 34.636 90.509 34.6401 90.4889C34.6297 90.4157 34.6218 90.3513 34.6114 90.278C34.6114 90.278 34.6083 90.2313 34.6035 90.2136L34.5987 90.1959C34.5987 90.1959 34.5924 90.1026 34.5869 90.047C34.5741 89.9649 34.5702 89.8804 34.5728 89.7847C34.5656 89.7581 34.5649 89.7203 34.5577 89.6937C34.5617 89.6736 34.5521 89.6382 34.5562 89.618C34.549 89.5915 34.5482 89.5537 34.541 89.5271C34.5395 89.4514 34.5316 89.387 34.539 89.309C34.5358 89.2623 34.5286 89.2357 34.5255 89.1891C34.5271 89.1601 34.5264 89.1223 34.5232 89.0756L34.5162 88.9444C34.5162 88.9444 34.5107 88.8889 34.5123 88.8599C34.5075 88.8422 34.5068 88.8044 34.502 88.7867C34.5029 88.7199 34.4949 88.6555 34.5047 88.5863L34.5091 88.3569C34.5091 88.3569 34.5043 88.3392 34.5108 88.328C34.5036 88.3014 34.5004 88.2547 34.4997 88.2169C34.5061 88.2056 34.5013 88.1879 34.5013 88.1879C34.4989 88.1791 34.4965 88.1702 34.503 88.159L34.5118 88.1566C34.5118 88.1566 34.4998 88.1123 34.5063 88.101C34.5017 87.9787 34.5107 87.8717 34.5238 87.7446L34.3961 87.589L33.8795 87.016C32.6352 94.1408 35.46 102.074 41.0924 108.124C43.3594 110.561 46.0833 112.684 49.1805 114.326C50.0932 114.782 50.9914 115.185 51.8889 115.551C53.4572 116.181 55.0047 116.664 56.5203 116.995C63.9961 118.658 70.7846 116.837 75.8218 111.641C75.85 111.605 75.8895 111.575 75.9177 111.539C75.8742 111.589 75.8307 111.638 75.7871 111.688C75.6436 111.86 75.5066 112.021 75.3695 112.182C75.313 112.254 75.2453 112.32 75.18 112.395C75.1518 112.431 75.1212 112.458 75.0841 112.497C75.0253 112.56 74.9664 112.624 74.9076 112.687C74.6657 112.952 74.4279 113.197 74.1966 113.431C74.1684 113.467 74.1289 113.497 74.1007 113.533C73.8387 113.794 73.5308 114.097 73.2229 114.399L73.1923 114.426C72.965 114.64 72.7377 114.853 72.508 115.058C72.0752 115.461 71.6683 115.818 71.1469 116.245C70.8576 116.475 70.5466 116.73 70.1719 117.032L70.093 117.091L70.1324 117.061C70.4153 116.842 70.6933 116.605 70.96 116.362C70.309 116.871 69.6007 117.415 68.9054 117.936C64.7245 120.609 59.2842 121.266 53.6946 119.653C52.2194 119.226 50.7324 118.649 49.2553 117.899C48.4504 117.49 47.6447 117.043 46.8513 116.536C46.869 116.531 46.8819 116.508 46.8972 116.495L46.8513 116.536C44.3245 114.929 42.0736 112.972 40.1562 110.773C36.8885 107.029 34.5691 102.61 33.4207 98.0918C33.1457 97.0065 32.9374 95.9222 32.8047 94.8364C32.4432 91.9589 32.5918 89.1047 33.2914 86.4244C33.1709 86.2954 33.0552 86.1842 32.9395 86.073C32.9194 86.0689 32.9146 86.0512 32.9009 86.0359C32.8398 85.9859 32.7876 85.9335 32.7354 85.8811L32.2958 85.4869C31.9758 86.3056 31.7169 87.1743 31.5136 88.0375C30.9124 90.5199 30.7151 93.1592 30.8926 95.8489C30.9329 96.3133 30.9708 96.7689 31.0135 97.2421C31.3467 100.26 32.1433 103.305 33.3313 106.216C34.4856 109.002 35.9959 111.663 37.8325 114.055C39.2418 115.888 40.8462 117.564 42.624 119.003C43.3184 119.565 44.0185 120.079 44.7131 120.537C45.9173 121.333 47.1298 121.983 48.3393 122.483C52.4577 124.209 56.5624 124.342 60.0742 122.953C59.3985 123.231 58.7141 123.512 58.0602 123.765L58.0336 123.772C57.9652 123.8 57.9056 123.826 57.8436 123.843C57.6978 123.901 57.5408 123.953 57.4063 124.018C57.3266 124.04 57.2493 124.07 57.1608 124.094C57.0633 124.121 56.9595 124.158 56.8556 124.196C56.9619 124.167 57.0657 124.129 57.1608 124.094C56.8049 124.219 56.4401 124.346 56.0665 124.476C55.622 124.625 55.1864 124.772 54.7903 124.889L54.7283 124.905C54.6575 124.925 54.5955 124.941 54.5246 124.961C54.4715 124.975 54.4184 124.989 54.3652 125.004C54.3032 125.021 54.2501 125.035 54.1881 125.052C54.0641 125.085 53.9313 125.121 53.8162 125.153C53.7276 125.177 53.639 125.201 53.5505 125.225L53.1431 125.335C52.904 125.4 52.6737 125.462 52.4363 125.498C49.6888 126.024 46.7097 125.519 43.7588 123.962C42.7465 123.418 41.7296 122.753 40.7233 121.951C40.1036 121.454 39.4962 120.896 38.8815 120.311L38.9741 120.267Z" fill="#B83856"/>
<path d="M84.6033 93.671L84.5886 93.7229L84.6213 93.5606L84.6033 93.671Z" fill="#B83856"/>
<path d="M-30.6195 94.1805C-28.0982 95.6266 -24.862 96.4132 -21.0441 96.3292L-21.0096 96.3864C-21.0096 96.3864 -21.0281 96.3534 -21.0441 96.3292C-16.2228 96.2299 -11.2213 94.7604 -6.6723 92.3584C-3.17192 90.5066 0.0637949 88.0992 2.72711 85.3335C5.27032 82.686 7.30627 79.7101 8.55785 76.576C8.68953 76.2552 8.80351 75.9391 8.91509 75.6141C9.14683 75.6274 9.40995 75.6512 9.731 75.6782C9.88709 75.693 10.0456 75.7166 10.2218 75.7353C10.0219 76.436 9.77772 77.1486 9.48281 77.8844L9.42579 77.8143C9.42579 77.8143 9.4579 77.8627 9.48281 77.8844C8.85905 79.4414 8.05262 80.9909 7.10061 82.4942C5.57418 84.8947 3.67854 87.1956 1.52492 89.2813C-4.16463 94.8064 -11.6272 98.9107 -18.5872 99.8177C-20.8007 100.104 -22.794 100.045 -24.5461 99.6834C-26.6804 99.2446 -28.4454 98.3445 -29.7768 97.0797C-29.8154 97.0426 -29.8515 97.0144 -29.8813 96.9749C-30.0219 96.8419 -30.156 96.6976 -30.2789 96.5598C-30.3175 96.5228 -30.3472 96.4833 -30.3858 96.4462C-30.4565 96.3608 -30.5271 96.2754 -30.5978 96.1899L-30.605 96.1634C-30.8925 95.804 -31.1808 95.4068 -31.4715 95.0007C-31.5196 94.9282 -31.5767 94.8581 -31.6248 94.7856C-32.5378 93.5215 -33.5181 92.1141 -34.3506 90.8662L-34.3828 90.8178L-34.3756 90.8444C-33.4056 92.1786 -32.1391 93.3089 -30.5994 94.1845L-30.6195 94.1805Z" fill="#B83856"/>
<path d="M66.348 103.237C63.6615 103.918 60.8459 104.262 58.0093 104.214C56.0989 104.18 54.1896 103.975 52.2942 103.576C42.9945 101.638 36.6515 95.6659 35.2078 88.5851C35.1656 88.3589 35.112 88.1262 35.0898 87.9041C35.1242 88.0659 35.1674 88.2253 35.2329 88.5022L35.2377 88.5199C36.6419 90.0882 38.5916 91.214 41.0266 91.7804C42.8222 92.1969 44.8854 92.3032 47.1599 92.0671L47.1688 92.0647C53.8791 91.3584 61.002 87.7549 66.6328 82.7496C69.3019 80.3912 71.6174 77.7103 73.3844 74.8643C74.2629 73.4759 75.0024 72.0302 75.5882 70.5786C77.5694 65.6117 77.3735 61.3108 75.4301 58.244C75.398 58.1957 75.3724 58.1361 75.3338 58.099C75.3314 58.0902 75.3201 58.0837 75.3177 58.0749C75.3153 58.066 75.3041 58.0595 75.3017 58.0507C75.178 57.8751 75.0568 57.7083 74.9267 57.5439C75.0247 57.6599 75.1162 57.7872 75.2142 57.9033C75.4061 58.1555 75.5916 58.4189 75.7811 58.6623C75.7948 58.6776 75.802 58.7041 75.8156 58.7195C75.8293 58.7348 75.8454 58.7589 75.8502 58.7766C76.0083 59.0095 76.1753 59.2399 76.3448 59.4792C76.4821 59.6701 76.6153 59.8812 76.7663 60.0874C76.8811 60.2655 77.0023 60.4322 77.1099 60.5837C77.6783 61.4183 78.359 62.5267 78.8934 63.4466C78.94 63.5481 79.0018 63.6359 79.0459 63.7285C79.0595 63.7438 79.0691 63.7793 79.0828 63.7946L79.0876 63.8123C79.0876 63.8123 79.1013 63.8276 79.1037 63.8365C82.5538 70.7443 79.3729 79.1069 72.7412 85.5052C70.0129 88.1364 66.7106 90.4383 63.0341 92.1666C58.8616 94.1339 54.2364 95.3779 49.472 95.5473L49.4632 95.5497C44.2412 95.5389 40.8556 94.0607 38.6781 92.4454C36.8053 91.0421 35.8187 89.5413 35.3001 88.7502C35.8613 90.5754 37.042 93.0028 39.5268 95.1909C42.0163 97.3967 45.8011 99.3655 51.5664 100.294L51.5752 100.291C54.2514 100.555 56.8766 100.49 59.4072 100.146C62.9038 99.6835 66.2072 98.6837 69.2047 97.2914C79.0638 92.6993 85.4454 83.6594 83.5226 74.2843C83.4883 74.1225 83.4403 73.9454 83.4011 73.7658L83.4539 73.9607C83.4683 74.0138 83.4916 74.0645 83.5036 74.1088L83.5276 74.1974C83.5725 74.3278 83.6085 74.4607 83.6445 74.5935L83.7654 74.9695C83.7822 75.0315 83.7877 75.087 83.7997 75.1313C83.8638 75.3326 83.919 75.5363 83.9742 75.74C84.0541 76.0701 84.1365 76.409 84.2011 76.7527C84.2162 76.8437 84.245 76.95 84.269 77.0385C84.2938 77.1649 84.325 77.28 84.3449 77.3887L84.3833 77.5304C84.4025 77.6012 84.4217 77.6721 84.4321 77.7453L84.4513 77.8162C84.476 77.9426 84.5072 78.0577 84.5296 78.1752C84.5543 78.3016 84.5814 78.4369 84.611 78.5809L84.6158 78.5987C84.6285 78.6808 84.6413 78.7629 84.6629 78.8426C84.678 78.9335 84.6956 79.0333 84.7107 79.1243C84.7259 79.2153 84.7458 79.3239 84.7609 79.4149L84.8184 79.7321C84.8184 79.7321 84.8167 79.761 84.8239 79.7876C84.8487 79.914 84.8645 80.0428 84.8804 80.1716C84.8956 80.2625 84.9155 80.3712 84.913 80.4669L84.925 80.5112L84.9161 80.5136C84.9312 80.6046 84.9416 80.6778 84.9567 80.7688C84.9687 80.8131 84.9671 80.842 84.9791 80.8863L84.9863 80.9129L85.0116 81.1817L85.0164 81.1994C85.0164 81.1994 85.0147 81.2284 85.0195 81.2461C85.3244 83.8443 84.9837 86.5509 83.9171 89.2451C81.178 96.081 74.3625 101.17 66.3497 103.208L66.348 103.237Z" fill="#B83856"/>
<path d="M-12.297 28.07L-12.5023 28.1542C-14.2313 28.8604 -15.8088 30.0199 -17.1713 31.587C-18.3509 32.9524 -19.3731 34.6173 -20.1642 36.6094C-20.2595 36.8539 -20.3565 37.1274 -20.4495 37.3807C-20.9393 38.7303 -21.303 40.1597 -21.5411 41.6312C-22.1865 45.5992 -21.997 49.9113 -21.0437 54.1305C-20.6634 55.8146 -20.1631 57.4853 -19.5525 59.107C-18.6037 61.6257 -17.3812 64.0323 -15.9201 66.2316C-14.707 68.0418 -13.3231 69.7106 -11.7787 71.1649C-11.1705 71.7605 -10.5412 72.2935 -9.90626 72.7774C-8.94577 73.5152 -7.96501 74.1526 -6.97762 74.674C-3.48717 76.504 0.0578545 76.9217 3.20911 75.9916C3.20911 75.9916 3.29287 75.9499 3.33715 75.9379L3.21797 75.9892L3.37738 75.946C3.31539 75.9628 3.23568 75.9844 3.18494 76.0077C-0.584099 77.7801 -5.15105 77.801 -9.71092 75.9186C-10.8955 75.4411 -12.0719 74.8187 -13.2392 74.0894C-13.9539 73.6271 -14.6604 73.1246 -15.3902 72.5714L-15.3991 72.5738C-17.3144 71.0489 -19.045 69.2934 -20.5612 67.3467C-22.5022 64.8497 -24.0815 62.074 -25.2429 59.1566C-27.4616 53.6357 -28.198 47.6561 -27.0846 42.3635C-26.8299 41.1632 -26.4812 39.9945 -26.0401 38.8863C-25.4357 37.3631 -24.6763 36.026 -23.7956 34.8557C-22.4028 33.0143 -20.7163 31.6256 -18.8075 30.671C-18.7833 30.6549 -18.7415 30.6341 -18.6996 30.6132L-18.1302 30.3639C-17.6736 30.1546 -17.2129 29.9251 -16.7539 29.7247C-16.522 29.6333 -16.3013 29.5355 -16.096 29.4513C-15.9833 29.4113 -15.8617 29.3688 -15.7489 29.3288C-15.1152 29.0715 -14.4767 28.8319 -13.8293 28.5899C-13.7165 28.5498 -13.5925 28.5162 -13.4887 28.4786C-13.3075 28.4104 -13.1239 28.3512 -12.9339 28.2807C-12.8896 28.2687 -12.8477 28.2478 -12.8034 28.2358L-12.6883 28.2046C-12.5313 28.1526 -12.3566 28.0957 -12.1819 28.0388C-12.0426 27.9916 -11.8832 27.9484 -11.7262 27.8963C-11.4782 27.8291 -11.2149 27.7483 -10.9581 27.6787C-11.1771 27.7475 -11.4138 27.8212 -11.6594 27.8972C-11.8606 27.9613 -12.0885 28.0326 -12.2986 28.099L-12.297 28.07Z" fill="#B83856"/>
</g>
</g>
</svg>
