<svg width="100" height="153" viewBox="0 0 100 153" fill="none" xmlns="http://www.w3.org/2000/svg">
<mask id="mask0_707_299" style="mask-type:alpha" maskUnits="userSpaceOnUse" x="0" y="0" width="100" height="153">
<rect width="100" height="153" fill="#D9D9D9"/>
</mask>
<g mask="url(#mask0_707_299)">
<path d="M61.5914 108.617C61.7691 108.637 61.9467 108.658 62.115 108.678C62.2551 108.69 62.3948 108.693 62.5441 108.705L62.4513 108.71C62.18 108.675 61.8906 108.651 61.5826 108.627L61.5914 108.617Z" fill="#C9EA32"/>
<path d="M71.5394 107.45C71.1637 107.579 70.7783 107.698 70.3921 107.799C70.6951 107.711 71.0713 107.592 71.5394 107.45Z" fill="#C9EA32"/>
<path d="M62.4621 107.91C62.1052 107.832 61.7475 107.737 61.3894 107.632C61.4355 107.834 61.472 108.028 61.5085 108.222C62.232 108.385 62.9534 108.502 63.6914 108.571C64.9706 108.682 66.2619 108.644 67.5276 108.448L67.9248 108.384C68.7279 108.246 69.0875 108.174 69.6848 108.008C69.887 107.953 70.1073 107.887 70.383 107.81C69.3163 108.09 68.2169 108.259 67.1125 108.318C65.563 108.405 63.9943 108.27 62.4532 107.919L62.4621 107.91Z" fill="#C9EA32"/>
<path d="M71.539 107.451L71.5576 107.45L71.6762 107.398L71.6306 107.419C71.6306 107.419 71.5664 107.44 71.539 107.451Z" fill="#C9EA32"/>
<path d="M60.8607 105.358C60.9501 105.698 61.04 106.047 61.1206 106.397C65.7189 108.147 71.7493 108.419 77.8519 104.019L77.8612 104.019L77.8603 104C78.3279 103.635 78.5703 103.438 78.8922 103.145C79.2137 102.842 79.6234 102.434 80.4156 101.627C80.6374 101.384 80.8753 101.085 81.1136 100.796L81.0781 100.834C76.5046 106.153 68.5586 108.626 60.8514 105.358L60.8607 105.358Z" fill="#C9EA32"/>
<path d="M81.7396 100.023C81.5372 100.283 81.3348 100.543 81.1134 100.795C81.334 100.524 81.5453 100.255 81.7396 100.023Z" fill="#C9EA32"/>
<path d="M84.6347 93.9695C84.2882 94.7569 83.8666 95.5291 83.3787 96.2762C82.8909 97.0234 82.3365 97.7363 81.7158 98.4242C80.1014 100.198 78.1718 101.576 76.0663 102.553C73.9608 103.53 71.6883 104.096 69.3787 104.245C67.0691 104.394 64.7229 104.135 62.4784 103.443C61.6204 103.184 60.7684 102.849 59.9515 102.467L59.9726 102.522C60.0041 102.604 60.0264 102.687 60.0579 102.769C60.1854 103.126 60.3027 103.465 60.42 103.804C61.0371 104.084 61.6617 104.326 62.2944 104.54C64.5317 105.278 66.8707 105.584 69.1726 105.472C71.4746 105.361 73.7391 104.824 75.8365 103.875C77.9339 102.926 79.8547 101.558 81.4783 99.7835C81.9042 99.3181 82.3014 98.8355 82.6607 98.3358C83.0199 97.8362 83.3509 97.3286 83.6532 96.8036C83.9556 96.2786 84.2203 95.7459 84.4564 95.196C84.6164 94.8168 84.767 94.4381 84.8987 94.0508C84.9563 93.8809 85.0135 93.7016 85.0711 93.5316C85.0868 93.4658 85.1113 93.3903 85.127 93.3245C85.2876 92.75 85.4521 92.0543 85.5857 91.4996L85.5845 91.4717L85.6006 91.4152C85.6601 91.0777 85.7268 90.6934 85.7842 90.3095C85.7098 90.7313 85.6165 91.1448 85.5046 91.559C85.2897 92.3778 85.0095 93.1902 84.6537 93.978L84.6347 93.9695Z" fill="#C9EA32"/>
<path d="M85.7561 90.3015C85.8151 89.9547 85.8645 89.599 85.905 89.2531C85.9114 89.1877 85.9178 89.1223 85.9242 89.0569L85.9271 89.1219C85.8684 89.4779 85.8123 89.8897 85.7468 90.3019L85.7561 90.3015Z" fill="#C9EA32"/>
<path d="M58.3509 98.6776C58.6068 99.2057 58.8652 99.7896 59.0937 100.328C70.6952 105.833 86.9707 98.4147 85.868 83.599L85.8392 83.3677C85.7438 82.6836 85.5857 81.8441 85.4402 81.0785C85.3919 80.8295 85.3441 80.5898 85.3064 80.3682C85.3416 80.5341 85.3672 80.6911 85.3932 80.8574C87.8152 95.01 71.6383 105.075 58.3513 98.6868L58.3509 98.6776Z" fill="#C9EA32"/>
<path d="M83.6398 81.1767C83.3555 82.5287 82.8666 83.8806 82.162 85.1954C81.4672 86.5192 80.5568 87.8059 79.4481 89.0271C77.8249 90.8105 75.9083 92.2721 73.8376 93.4056C71.7666 94.5299 69.5317 95.3172 67.2809 95.7424C65.0296 96.1584 62.7535 96.222 60.5896 95.8806C59.0349 95.6425 57.5358 95.188 56.1394 94.5336C56.462 95.096 56.8044 95.6855 57.0684 96.1854C57.0987 96.2399 57.1197 96.2947 57.15 96.3492C58.4806 96.9879 59.8966 97.4554 61.3601 97.7348C63.5555 98.1585 65.8632 98.1772 68.1452 97.825C70.4272 97.4728 72.6737 96.7408 74.765 95.6528C76.8563 94.5649 78.7737 93.1219 80.397 91.3385C81.4528 90.1848 82.3104 88.9654 82.9799 87.6986C83.6497 86.4411 84.1407 85.1357 84.4368 83.8389C84.7324 82.5329 84.8512 81.2253 84.7852 79.9446C84.7229 78.7474 84.5036 77.5757 84.1188 76.4486C84.0872 76.3663 84.065 76.2836 84.0334 76.2013C83.9598 76.0092 83.8756 75.7897 83.7919 75.5794C83.5723 75.031 83.3228 74.4375 83.104 73.9076C83.5133 74.9592 83.7762 76.0638 83.8727 77.1944C83.9957 78.5005 83.9064 79.844 83.6217 81.1868L83.6398 81.1767Z" fill="#C9EA32"/>
<path d="M80.9502 70.8404C81.1264 72.0884 81.0645 73.4213 80.7806 74.7826C80.4967 76.144 79.9727 77.5439 79.2251 78.9351C78.4774 80.3263 77.4968 81.7092 76.2813 83.0374C74.658 84.8208 72.7624 86.3373 70.7423 87.5616C68.7129 88.7863 66.5586 89.7096 64.3894 90.2986C62.2295 90.8873 60.0552 91.151 58.013 91.0368C56.3438 90.9433 54.7665 90.6132 53.3257 90.0072C53.4753 90.2332 53.6244 90.4498 53.7545 90.658C54.0039 91.0376 54.2933 91.4806 54.5827 91.9236C56.0153 92.5578 57.5766 92.9444 59.2022 93.105C61.3042 93.3096 63.5198 93.137 65.7294 92.6206C67.939 92.1042 70.1237 91.2353 72.1737 90.0562C74.2237 88.8771 76.1201 87.3792 77.7526 85.5954C78.9327 84.306 79.8774 82.9525 80.6077 81.59C81.3376 80.2182 81.8342 78.8288 82.1181 77.4675C82.4016 76.0968 82.463 74.7546 82.3038 73.4687C82.1713 72.3676 81.8641 71.3115 81.4015 70.3181C81.3291 70.1539 81.2478 69.9993 81.1666 69.8448C80.8015 69.1633 80.289 68.3023 79.8852 67.5854C79.9256 67.658 79.9563 67.7217 79.9967 67.7944C80.4847 68.7309 80.7996 69.7494 80.9494 70.8218L80.9502 70.8404Z" fill="#C9EA32"/>
<path d="M75.0523 72.3201C74.249 73.7138 73.2046 75.1274 71.927 76.5235C70.2944 78.3074 68.4389 79.8871 66.4887 81.22C64.5292 82.5532 62.4654 83.6306 60.4255 84.4093C58.3857 85.188 56.3605 85.6683 54.4784 85.8075C52.8001 85.9283 51.2398 85.7742 49.8711 85.3232C50.3842 85.9888 50.8982 86.673 51.373 87.3124C52.7822 87.836 54.374 88.0725 56.0564 88.0445C58.0085 88.0139 60.1027 87.6235 62.1927 86.9263C64.292 86.2287 66.3958 85.2146 68.3852 83.9266C70.3746 82.6385 72.2407 81.0862 73.8732 79.3023C75.1242 77.9353 76.1411 76.5322 76.9162 75.1305C77.701 73.7377 78.244 72.3462 78.5574 71.0208C78.8704 69.686 78.944 68.4084 78.7893 67.2246C78.6345 66.0408 78.2332 64.9609 77.6052 64.0121L76.1447 61.9094L76.0752 61.8101L75.9269 61.6121C75.9269 61.6121 75.9762 61.675 75.9964 61.7113C76.5731 62.5508 76.9327 63.5302 77.064 64.6034C77.2066 65.7227 77.1034 66.9644 76.7702 68.2628C76.4371 69.5612 75.8654 70.9353 75.0523 72.3201Z" fill="#C9EA32"/>
<path d="M69.8637 65.434C68.9937 66.7934 67.8933 68.2002 66.5894 69.6346C64.9569 71.4185 63.1506 73.0612 61.2703 74.5026C59.3993 75.9435 57.4543 77.1831 55.5721 78.1594C53.6805 79.1362 51.8424 79.8501 50.1579 80.2503C48.5839 80.627 47.1551 80.7089 45.9544 80.483C46.0231 80.5636 46.0918 80.6443 46.1601 80.7157C46.6202 81.2348 47.1706 81.8988 47.672 82.5091C48.9514 82.8339 50.4405 82.8516 52.057 82.594C53.8207 82.302 55.7469 81.6864 57.6978 80.7908C59.658 79.8947 61.6435 78.7277 63.5537 77.3316C65.4639 75.9354 67.2899 74.3197 68.9225 72.5358C70.2179 71.1204 71.29 69.7055 72.1314 68.3288C72.9727 66.952 73.5928 65.6223 73.9753 64.3868C74.3574 63.142 74.5111 61.9911 74.419 60.9626C74.3412 60.0452 74.0725 59.2292 73.6146 58.5519C73.5552 58.4708 73.5051 58.3893 73.4457 58.3082L72.8545 57.5623L72.3224 56.8882L71.5458 55.9459C72.0666 56.574 72.3353 57.39 72.3772 58.3369C72.4196 59.2931 72.2263 60.39 71.7953 61.5811C71.3741 62.7812 70.7151 64.0754 69.8447 65.4255L69.8637 65.434Z" fill="#C9EA32"/>
<path d="M66.0475 54.8591C65.5087 55.9248 64.7528 57.1303 63.8057 58.428C62.8585 59.7257 61.7108 61.116 60.3799 62.5702C58.7474 64.3541 56.9904 66.0598 55.2176 67.6173C53.4448 69.1748 51.6464 70.5753 49.9315 71.7582C48.2165 72.9411 46.5937 73.8966 45.1443 74.5654C43.7406 75.2136 42.5194 75.5747 41.5627 75.6077C41.6213 75.6703 41.6799 75.7328 41.7381 75.786C42.2552 76.3305 42.8806 77.0098 43.4478 77.6358C44.5119 77.7189 45.8313 77.4744 47.3147 76.9437C48.8623 76.3914 50.5824 75.5339 52.3757 74.4405C54.1691 73.3472 56.026 72.0092 57.8385 70.5057C59.6602 69.0019 61.4369 67.3232 63.0695 65.5394C64.3915 64.0948 65.5198 62.6868 66.4286 61.3629C67.3466 60.0386 68.0544 58.798 68.544 57.6693C69.0339 56.55 69.3056 55.5427 69.3424 54.6946C69.3817 53.9022 69.2133 53.2492 68.8383 52.7635C68.8185 52.7364 68.789 52.7005 68.7599 52.6739L68.3878 52.2532L68.0941 51.922L66.657 50.3485C67.0089 50.7329 67.1285 51.3323 67.0225 52.0904C66.917 52.8579 66.5859 53.7841 66.0475 54.8591Z" fill="#C9EA32"/>
<path d="M37.7526 71.7119C38.1122 72.0588 38.4725 72.4242 38.8228 72.7715C39.6231 72.5686 40.6968 72.028 41.9636 71.2278C43.2574 70.4077 44.7529 69.309 46.3507 68.001C47.949 66.7024 49.6593 65.2035 51.3735 63.5834C53.0877 61.9634 54.8059 60.2222 56.4477 58.438C57.7875 56.974 58.9639 55.6011 59.9591 54.3384C60.9543 53.0758 61.7691 51.9421 62.3859 50.9567C63.0027 49.9713 63.4215 49.1341 63.6252 48.4833C63.8289 47.8324 63.8176 47.3678 63.5837 47.127L63.486 47.0197L61.8511 45.3899L61.3061 44.8466C61.3061 44.8466 61.3162 44.8648 61.3259 44.8736C61.4447 45.0358 61.3582 45.3931 61.0938 45.935C60.8121 46.5056 60.3154 47.2625 59.6405 48.1947C58.9655 49.1268 58.1022 50.2162 57.0682 51.4433C56.0342 52.6705 54.8389 54.035 53.4991 55.4989C51.8665 57.2828 50.1682 59.0509 48.5024 60.7153C46.8366 62.3798 45.2039 63.9497 43.6841 65.3379C42.1735 66.7256 40.7754 67.9224 39.589 68.8586C38.4203 69.7754 37.4731 70.4406 36.7993 70.7681C36.8574 70.8214 36.916 70.8839 36.9742 70.9371C37.0614 71.017 37.1491 71.1061 37.2368 71.1953C37.2368 71.1953 37.2266 71.1771 37.217 71.1682L37.7619 71.7115L37.7526 71.7119Z" fill="#C9EA32"/>
<path d="M33.8479 67.9872C37.7351 63.9733 56.8258 43.2496 57.9859 41.7192L57.9277 41.666C57.2782 41.0715 56.5515 40.4154 55.9702 39.8923C55.8543 39.7951 55.7379 39.6886 55.6216 39.5822L55.5537 39.52C55.4572 39.4406 55.1481 39.6031 54.6717 39.9777C54.186 40.3527 53.5148 40.9498 52.6847 41.74C51.8546 42.5303 50.875 43.5131 49.763 44.66C48.651 45.8069 47.4076 47.1363 46.0679 48.6003C44.4353 50.3841 42.8048 52.2144 41.2558 53.9946C39.7068 55.7747 38.2482 57.4951 36.9416 59.0784C35.635 60.6618 34.4987 62.0981 33.5934 63.2917C32.7064 64.4751 32.0504 65.4157 31.6969 66.0453C31.7643 66.0981 31.8322 66.1603 31.8904 66.2135C32.4716 66.7366 33.1983 67.3927 33.8479 67.9872Z" fill="#C9EA32"/>
<path d="M42.0755 38.2571C40.886 39.333 39.603 40.6084 38.2628 42.0631C36.6303 43.8469 35.0672 45.73 33.6438 47.6162C32.2205 49.5025 30.9359 51.3732 29.8612 53.151C28.7861 54.9195 27.9107 56.5768 27.3051 58.0268C26.7165 59.4388 26.3881 60.6347 26.363 61.5381C26.4305 61.591 26.5076 61.6527 26.5654 61.6966C27.1822 62.1809 27.9448 62.8076 28.6121 63.3826C28.7725 62.5942 29.2354 61.4947 29.9492 60.1794C30.6804 58.8354 31.662 57.2664 32.8337 55.5774C34.0053 53.8884 35.3666 52.07 36.8385 50.2281C38.3103 48.3863 39.9025 46.5298 41.5443 44.7455C42.8841 43.2816 44.1477 41.9885 45.3081 40.886C46.4685 39.7835 47.5254 38.8623 48.4427 38.1519C49.36 37.4415 50.1379 36.942 50.7581 36.6634C51.369 36.3852 51.8138 36.3469 52.0646 36.5497L49.9901 34.8649L49.4981 34.4681C49.4981 34.4681 49.4404 34.4242 49.4117 34.4068C49.0575 34.1807 48.536 34.1665 47.8842 34.3628C47.1772 34.5709 46.3222 35.0087 45.3374 35.6663C44.3526 36.3238 43.2473 37.2006 42.0578 38.2765L42.0755 38.2571Z" fill="#C9EA32"/>
<path d="M27.9454 62.8356C27.9454 62.8356 27.9737 62.8436 27.9834 62.8525C27.9834 62.8525 27.9551 62.8444 27.9454 62.8356Z" fill="#C9EA32"/>
<path d="M21.7007 57.9207C22.1818 58.2808 22.6915 58.6582 23.1632 59.0187C22.9957 57.9657 23.1415 56.6384 23.5488 55.1227C23.9811 53.5408 24.6929 51.7606 25.6331 49.8864C26.5733 48.0123 27.7516 46.0532 29.0983 44.1146C30.4449 42.176 31.9692 40.2574 33.6018 38.4735C34.9238 37.029 36.227 35.7899 37.465 34.7584C38.703 33.7268 39.8761 32.9121 40.9478 32.3252C42.0194 31.7382 42.9895 31.379 43.8214 31.2584C44.6165 31.1488 45.2818 31.2588 45.7898 31.5991C45.8092 31.6169 45.8379 31.6342 45.8569 31.6427L45.6836 31.5108L43.3964 29.854L43.2041 29.7137C43.2041 29.7137 43.1181 29.6617 43.0797 29.6355C42.4768 29.2529 41.7258 29.1001 40.8633 29.1569C39.945 29.2162 38.8982 29.523 37.7688 30.066C36.6394 30.6091 35.4182 31.3887 34.1507 32.3843C32.8832 33.38 31.5796 34.6097 30.2567 36.0357C28.6242 37.8196 27.1286 39.7555 25.8393 41.7288C24.55 43.7021 23.4488 45.7229 22.6047 47.6671C21.7606 49.6114 21.1546 51.4708 20.8569 53.149C20.5736 54.7336 20.5614 56.1387 20.8445 57.2796C20.9022 57.3236 20.9693 57.3671 21.0177 57.4115C21.2003 57.5429 21.393 57.6925 21.5949 57.8417L21.7682 57.9736C21.7682 57.9736 21.7201 57.9385 21.7011 57.93L21.7007 57.9207Z" fill="#C9EA32"/>
<path d="M30.1188 25.354C28.8835 25.818 27.5936 26.5169 26.3043 27.4391C25.0149 28.3613 23.7173 29.5164 22.4477 30.8842C20.8147 32.6588 19.3866 34.6475 18.2217 36.699C17.0572 38.7598 16.1378 40.8935 15.5138 42.9768C14.8898 45.0602 14.5616 47.1026 14.5514 48.9727C14.5512 50.6471 14.8051 52.18 15.3559 53.4857C15.7679 53.7559 16.1701 54.0171 16.5159 54.2622C16.8515 54.4892 17.2255 54.7424 17.5999 55.0049C17.1443 53.7507 16.9946 52.2597 17.1071 50.599C17.2324 48.8075 17.6752 46.8344 18.3852 44.8031C19.0952 42.7717 20.091 40.6812 21.3035 38.6555C22.5254 36.6294 23.9733 34.6676 25.6059 32.8838C26.8928 31.4873 28.1985 30.3039 29.4862 29.3446C30.7743 28.3946 32.0347 27.6597 33.2316 27.1695C34.4284 26.6793 35.5706 26.4241 36.6023 26.4063C37.6345 26.3978 38.5655 26.6264 39.3498 27.1125L37.2545 25.8007L36.6326 25.4097C36.5563 25.3665 36.4707 25.3238 36.3943 25.2807C35.5669 24.8709 34.6367 24.6609 33.6316 24.6496C32.5244 24.6428 31.3346 24.8722 30.099 25.3269L30.1188 25.354Z" fill="#C9EA32"/>
<path d="M11.1619 47.0015C11.0102 45.0455 11.1949 42.9165 11.6949 40.7642C12.1949 38.6119 13.0094 36.4178 14.1165 34.3223C15.2144 32.2273 16.5953 30.222 18.2375 28.447C19.462 27.1092 20.7524 26.0009 22.0434 25.1158C23.3436 24.2304 24.6538 23.5677 25.9366 23.1295C27.2199 22.7006 28.4759 22.4962 29.6587 22.5275C30.8321 22.5593 31.9412 22.8171 32.9491 23.312L32.9769 23.3108L32.9204 23.2947L30.5782 22.0775L30.4163 21.9917C30.4163 21.9917 30.369 21.9751 30.3501 21.9667C29.2873 21.4928 28.1318 21.237 26.9212 21.2069C25.6824 21.1688 24.3981 21.3652 23.0861 21.7768C21.7839 22.1972 20.4632 22.8324 19.1621 23.6993C17.8703 24.5658 16.5977 25.6547 15.3902 26.9546C13.7572 28.7292 12.3953 30.7429 11.3451 32.8638C10.2948 34.9846 9.53735 37.2041 9.12336 39.4084C8.69968 41.6038 8.6098 43.7752 8.87582 45.7912C9.08991 47.4747 9.55941 49.0445 10.2907 50.4353C10.9777 50.8235 11.6751 51.2391 12.3439 51.6374L12.3718 51.6361C11.707 50.2796 11.3118 48.7065 11.1809 47.01L11.1619 47.0015Z" fill="#C9EA32"/>
<path d="M6.46998 48.3913C6.8217 48.5617 7.16414 48.7326 7.48801 48.9043C6.71995 47.5244 6.17782 45.995 5.86408 44.3718C5.4648 42.2872 5.43111 40.0562 5.74093 37.81C6.05074 35.5638 6.72261 33.3016 7.71589 31.1554C8.70917 29.0092 10.0336 26.9878 11.6665 25.2132C12.8381 23.9428 14.0846 22.8923 15.3683 22.054C16.6521 21.2158 17.9828 20.5988 19.3138 20.1957C20.6447 19.7926 21.9665 19.6038 23.2611 19.6395C24.5278 19.6764 25.7478 19.92 26.9031 20.3805C26.922 20.3889 26.9503 20.397 26.9693 20.4055L26.8748 20.3724L25.0283 19.6356L24.5272 19.4532C24.3855 19.4036 24.2438 19.3541 24.1024 19.3139C23.0175 18.9712 21.8746 18.7893 20.7202 18.766C19.4079 18.7497 18.0675 18.9393 16.7454 19.3327C15.4145 19.7358 14.1019 20.3428 12.8266 21.162C11.5513 21.9812 10.3315 23.0027 9.19537 24.2343C7.56239 26.0089 6.25699 28.0387 5.31095 30.2015C4.35563 32.3646 3.74956 34.6425 3.50638 36.923C3.26279 39.1941 3.38168 41.4586 3.87544 43.5761C4.24241 45.1412 4.81034 46.623 5.59532 47.9649C5.81378 48.0669 6.03265 48.1781 6.25152 48.2893C6.2705 48.2978 6.29876 48.3058 6.31774 48.3143L6.47968 48.4001L6.46998 48.3913Z" fill="#C9EA32"/>
<path d="M1.46857 46.1574C1.89456 46.3245 2.35851 46.5086 2.77604 46.6948L2.87052 46.7278C2.87052 46.7278 2.82328 46.7113 2.8043 46.7028C2.8992 46.7451 2.9844 46.7786 3.06959 46.812C-4.07632 34.7941 5.33839 15.0756 20.6871 18.2376C19.9721 18.0553 19.0423 17.8546 18.2724 17.6934C18.188 17.6785 18.1032 17.6543 18.0189 17.6395C17.9531 17.6238 17.878 17.6085 17.8033 17.6025C17.4379 17.5443 17.0076 17.4889 16.6713 17.4573C3.80473 16.3621 -6.42666 32.9727 1.46857 46.1574Z" fill="#C9EA32"/>
<path d="M-0.223006 22.4474C-1.85639 24.2126 -3.06813 26.2569 -3.8644 28.4409C-4.66066 30.625 -5.05115 32.9398 -5.02263 35.2641C-4.99453 37.579 -4.55671 39.9037 -3.70687 42.0799C-3.33918 43.0311 -2.87948 43.9595 -2.35643 44.8479C-2.17716 44.9051 -1.9983 44.953 -1.82832 45.0106C-1.50733 45.1173 -1.13909 45.2405 -0.761575 45.3633C-7.33885 34.2132 -1.30899 17.2492 13.6064 17.1374L13.5321 17.1407L12.7684 17.1187L12.722 17.1208C11.9223 17.1283 10.8737 17.184 10.0854 17.2375C9.1405 17.3259 8.20901 17.5067 7.28122 17.771C6.36271 18.0349 5.45719 18.382 4.58363 18.8207C3.71007 19.2593 2.86765 19.7711 2.0576 20.3836C1.25642 20.9865 0.487216 21.6811 -0.231877 22.4571L-0.223006 22.4474Z" fill="#C9EA32"/>
<path d="M-7.7772 36.0835C-7.66637 38.3762 -7.12807 40.6592 -6.16806 42.8026C-5.97235 43.2312 -5.75847 43.6496 -5.53532 44.0676C-5.10333 44.1601 -4.65278 44.2518 -4.2014 44.362C-9.67541 34.8095 -6.17088 22.785 4.38287 18.4945L4.42847 18.4738L4.36472 18.5046C3.49633 18.85 2.37416 19.3462 1.54537 19.7457C1.08177 19.9894 0.493541 20.3597 0.0311703 20.6313L-0.00514332 20.6515L-0.0321716 20.6713C-0.312567 20.8512 -0.592141 21.0496 -0.871714 21.248C-1.15088 21.4557 -1.42963 21.6727 -1.70797 21.899C-1.97702 22.1248 -2.24567 22.36 -2.50421 22.6133C-2.76316 22.8573 -3.02129 23.1199 -3.26044 23.3909C-4.88454 25.1558 -6.07812 27.19 -6.8292 29.3441C-7.57987 31.5075 -7.89691 33.8005 -7.78607 36.0932L-7.7772 36.0835Z" fill="#C9EA32"/>
<path d="M0.592264 115.83C0.55184 115.757 0.520289 115.675 0.49761 115.583C0.474931 115.491 0.461124 115.389 0.465063 115.268C0.469002 115.147 0.472941 115.026 0.494625 114.885C0.398087 114.806 0.291857 114.718 0.195319 114.638C0.137561 114.594 0.0793909 114.541 0.0216328 114.497C-0.00704075 114.48 -0.0268434 114.453 -0.0555169 114.435C-0.238898 114.285 -0.422689 114.126 -0.606069 113.976L-0.635153 113.949C-0.635153 113.949 -0.703018 113.887 -0.741386 113.861C-0.876704 113.746 -1.0213 113.632 -1.15703 113.507C-1.2051 113.472 -1.24429 113.428 -1.29235 113.393C-1.36021 113.33 -1.42767 113.278 -1.49553 113.215C-1.56339 113.153 -1.63085 113.101 -1.69871 113.038C-1.73979 113.161 -1.7724 113.265 -1.79614 113.359C-1.81988 113.453 -1.83475 113.537 -1.83146 113.612C-1.82817 113.686 -1.82529 113.751 -1.81395 113.797C-1.80261 113.843 -1.77311 113.879 -1.74362 113.915L-1.5885 114.057L-1.23061 114.366L0.00622083 115.409L0.730459 116.01C0.730459 116.01 0.691682 115.974 0.672292 115.957C0.642796 115.921 0.6133 115.885 0.583394 115.84L0.592264 115.83Z" fill="#C9EA32"/>
<path d="M6.51812 120.48C6.41065 120.363 6.32134 120.237 6.24049 120.092C6.15964 119.947 6.07839 119.792 6.01528 119.627C5.95218 119.463 5.89754 119.279 5.85136 119.077C5.6591 118.936 5.47613 118.795 5.28388 118.655L5.26449 118.637L5.16837 118.567C5.01448 118.453 4.86988 118.339 4.7164 118.234L4.5815 118.128C4.51405 118.075 4.44659 118.023 4.37914 117.97C4.3024 117.917 4.23454 117.855 4.1578 117.803C4.06168 117.733 3.97483 117.662 3.87871 117.592C3.81166 117.548 3.75349 117.495 3.69573 117.451L3.59961 117.381C3.60742 117.557 3.64226 117.714 3.67669 117.861C3.71112 118.009 3.76329 118.136 3.81547 118.264C3.86723 118.383 3.93715 118.492 4.00666 118.591C4.07576 118.681 4.15332 118.752 4.23088 118.823L4.25955 118.84L4.54793 119.051L5.08714 119.464L6.84815 120.79C6.77142 120.738 6.70355 120.676 6.64497 120.613C6.5965 120.569 6.55731 120.524 6.51812 120.48Z" fill="#C9EA32"/>
<path d="M13.0474 125.083C13.0474 125.083 13.1241 125.136 13.1625 125.162C13.1912 125.179 13.2106 125.197 13.2393 125.214L12.9133 124.996C12.9133 124.996 12.9998 125.057 13.0474 125.083Z" fill="#C9EA32"/>
<path d="M12.098 124.223C11.9312 124.025 11.7724 123.8 11.6224 123.565C11.4725 123.329 11.3403 123.075 11.2258 122.801C11.1777 122.766 11.1204 122.731 11.0727 122.705C10.977 122.644 10.8813 122.584 10.7856 122.523C10.7472 122.496 10.7093 122.48 10.6802 122.453C10.6321 122.418 10.5845 122.392 10.5364 122.357C10.4407 122.296 10.345 122.235 10.2489 122.165C10.2105 122.139 10.1721 122.113 10.1245 122.087L9.99038 122C9.89467 121.939 9.79854 121.869 9.70282 121.808C9.65517 121.782 9.61639 121.747 9.56874 121.721C9.53037 121.695 9.492 121.668 9.44435 121.643C9.34823 121.572 9.25251 121.512 9.15638 121.441C9.10832 121.406 9.06026 121.371 9.0126 121.345C9.09756 121.583 9.19098 121.803 9.30215 122.002C9.40403 122.202 9.52407 122.392 9.65298 122.573C9.78148 122.744 9.91886 122.905 10.0647 123.048C10.2105 123.19 10.3745 123.322 10.5373 123.427L12.9141 125.005C12.8179 124.935 12.7214 124.855 12.6346 124.785C12.4411 124.617 12.2657 124.438 12.0896 124.242L12.098 124.223Z" fill="#C9EA32"/>
<path d="M18.5517 128.374C18.2448 128.164 17.9459 127.926 17.6643 127.659C17.3828 127.393 17.119 127.107 16.8632 126.793C16.6167 126.478 16.3783 126.135 16.1572 125.763C16.1095 125.738 16.0619 125.712 16.0142 125.686C15.9282 125.634 15.8426 125.591 15.7566 125.539L15.671 125.497C15.671 125.497 15.5756 125.445 15.528 125.419C15.442 125.367 15.3564 125.325 15.2611 125.273C15.2324 125.256 15.1944 125.239 15.1658 125.221C15.1181 125.196 15.0797 125.169 15.0321 125.144C14.9461 125.092 14.86 125.04 14.7647 124.988C14.7268 124.971 14.6884 124.945 14.6597 124.927C14.6214 124.901 14.583 124.875 14.5358 124.859C14.4497 124.807 14.3544 124.755 14.2684 124.703C14.23 124.677 14.1921 124.66 14.1444 124.634C14.3171 124.961 14.5074 125.269 14.7151 125.548C14.9228 125.827 15.139 126.088 15.3729 126.328C15.6068 126.569 15.8488 126.782 16.1085 126.975C16.1663 127.019 16.2333 127.062 16.2911 127.106C16.4926 127.246 16.703 127.376 16.9126 127.488L18.7347 128.514L18.7153 128.497C18.658 128.462 18.5909 128.418 18.5332 128.374L18.5517 128.374Z" fill="#C9EA32"/>
<path d="M22.7839 130.271C22.3788 129.945 21.991 129.59 21.6201 129.197C21.2492 128.804 20.8957 128.382 20.5683 127.922C20.5211 127.906 20.4735 127.88 20.4262 127.864C20.3503 127.83 20.2744 127.796 20.1985 127.762L20.1322 127.737C20.1322 127.737 20.0466 127.694 19.9994 127.678C19.9235 127.644 19.8476 127.61 19.7717 127.576L19.6957 127.542C19.6957 127.542 19.6101 127.5 19.5722 127.483C19.4963 127.449 19.4203 127.415 19.3347 127.372L19.2491 127.33C19.2491 127.33 19.1732 127.296 19.1256 127.27C19.0496 127.236 18.964 127.194 18.8881 127.16C18.8595 127.142 18.8215 127.125 18.7932 127.117C19.0725 127.542 19.378 127.929 19.6919 128.296C20.0147 128.654 20.3456 128.983 20.7031 129.284C21.0512 129.585 21.4257 129.847 21.8085 130.091C21.9709 130.186 22.1332 130.281 22.2955 130.376C22.5241 130.496 22.7527 130.616 22.9897 130.717L23.1892 130.811L24.6033 131.446C24.4131 131.352 24.2225 131.249 24.0412 131.145C23.6022 130.895 23.1801 130.607 22.775 130.28L22.7839 130.271Z" fill="#C9EA32"/>
<path d="M24.9446 131.588C25.0871 131.656 25.2292 131.715 25.3714 131.774L25.4093 131.791L24.6215 131.435C24.7261 131.486 24.8404 131.546 24.9542 131.597L24.9446 131.588Z" fill="#C9EA32"/>
<path d="M31.475 133.904C31.2109 133.823 30.9186 133.734 30.6077 133.645C30.8912 133.744 31.1831 133.824 31.475 133.904Z" fill="#C9EA32"/>
<path d="M27.6613 132.231C27.0584 131.848 26.4901 131.408 25.9379 130.912C25.3857 130.415 24.8685 129.871 24.3768 129.269C24.3393 129.262 24.292 129.245 24.2545 129.237C24.1887 129.222 24.1224 129.197 24.0566 129.181L24.0094 129.165C24.0094 129.165 23.9246 129.14 23.8871 129.133C23.8213 129.117 23.755 129.092 23.6892 129.076L23.6327 129.06C23.6327 129.06 23.5572 129.036 23.5192 129.019C23.453 128.994 23.3872 128.978 23.321 128.953L23.2552 128.938C23.2552 128.938 23.1797 128.913 23.1417 128.896C23.0755 128.871 23.0097 128.855 22.9342 128.831L22.8587 128.806C23.2632 129.328 23.6939 129.811 24.1503 130.247C24.6068 130.682 25.0802 131.08 25.5706 131.44C26.0609 131.799 26.577 132.111 27.1096 132.376C27.5664 132.607 28.0311 132.81 28.5132 132.984C28.5887 133.008 28.6647 133.042 28.7402 133.067C28.9949 133.148 29.278 133.238 29.5707 133.337C29.9103 133.443 30.2684 133.548 30.6079 133.654C30.2397 133.53 29.8706 133.389 29.5197 133.237C28.8842 132.958 28.2647 132.623 27.6617 132.24L27.6613 132.231Z" fill="#C9EA32"/>
<path d="M32.6243 133.602C31.6935 133.168 30.7861 132.632 29.9302 132C29.0744 131.368 28.2511 130.633 27.4984 129.81C27.4613 129.812 27.4335 129.813 27.3959 129.805C27.3402 129.808 27.2841 129.801 27.228 129.794L27.2001 129.795C27.2001 129.795 27.1347 129.789 27.0972 129.781C27.0415 129.784 26.9854 129.777 26.9293 129.77L26.8921 129.772C26.8921 129.772 26.8263 129.756 26.7892 129.758C26.7335 129.76 26.677 129.744 26.6208 129.737L26.5744 129.739C26.5744 129.739 26.5086 129.724 26.4804 129.716C26.4242 129.709 26.3681 129.702 26.312 129.695L26.2656 129.697C26.8922 130.404 27.5527 131.036 28.2572 131.609C28.9612 132.173 29.6898 132.662 30.4526 133.084C31.2155 133.506 31.9932 133.843 32.7959 134.115C33.5985 134.386 34.4165 134.583 35.2502 134.713C35.8024 134.791 36.475 134.854 37.1197 134.919C36.5678 134.85 36.0236 134.744 35.4786 134.619C34.5007 134.384 33.5369 134.045 32.6061 133.612L32.6243 133.602Z" fill="#C9EA32"/>
<path d="M37.1283 134.909C37.4278 134.951 37.7265 134.975 38.0346 134.999C38.1746 135.011 38.3143 135.015 38.4637 135.027L38.3708 135.031C37.9877 134.992 37.5675 134.955 37.1287 134.918L37.1283 134.909Z" fill="#C9EA32"/>
<path d="M47.4494 133.773C47.0737 133.901 46.6883 134.021 46.3021 134.122C46.6052 134.034 46.9813 133.915 47.4494 133.773Z" fill="#C9EA32"/>
<path d="M38.3728 134.231C36.8318 133.881 35.3277 133.315 33.8885 132.532C32.4585 131.749 31.0929 130.74 29.8576 129.52C29.8297 129.521 29.8116 129.531 29.7841 129.542C29.7474 129.553 29.7018 129.574 29.6558 129.585L29.6372 129.586C29.6372 129.586 29.5823 129.607 29.5638 129.608C29.527 129.618 29.481 129.63 29.4443 129.641L29.4257 129.642C29.4257 129.642 29.3705 129.653 29.3523 129.663C29.3152 129.665 29.2696 129.686 29.2231 129.688L29.1953 129.689C29.1953 129.689 29.14 129.701 29.1218 129.711C29.0754 129.713 29.0387 129.724 28.9927 129.735L28.9648 129.736C29.9688 130.771 31.0589 131.653 32.2071 132.374C33.3553 133.095 34.5623 133.674 35.8083 134.084C37.0543 134.494 38.322 134.764 39.6013 134.874C40.8805 134.985 42.1718 134.947 43.4375 134.751L43.8347 134.687C44.6378 134.549 44.9974 134.477 45.5947 134.311C45.7969 134.256 46.0172 134.19 46.2929 134.113C45.2262 134.393 44.1268 134.562 43.0225 134.621C41.4729 134.708 39.9042 134.573 38.3631 134.222L38.3728 134.231Z" fill="#C9EA32"/>
<path d="M47.4493 133.773L47.4679 133.772L47.5865 133.72L47.5409 133.741C47.5409 133.741 47.4768 133.762 47.4493 133.773Z" fill="#C9EA32"/>
<path d="M31.4263 128.39C31.4263 128.39 31.4089 128.418 31.3912 128.438L31.3557 128.477L31.3117 128.534L31.2944 128.563L31.2851 128.563C31.2851 128.563 31.2234 128.641 31.1972 128.679C31.1706 128.708 31.1529 128.727 31.1262 128.757C31.1085 128.776 31.0903 128.786 31.0726 128.805L31.0548 128.825L31.0456 128.825C31.0456 128.825 30.9923 128.883 30.9653 128.903L30.9294 128.933L30.9117 128.952L30.8846 128.972C34.9109 132.719 44.2543 137.226 53.773 130.358L53.7823 130.358L53.7815 130.339C54.249 129.974 54.4915 129.778 54.8133 129.484C55.1348 129.182 55.5446 128.773 56.3367 127.966C56.5585 127.723 56.7965 127.424 57.0348 127.135L56.9993 127.174C51.3461 133.74 40.5522 135.967 31.4267 128.399L31.4263 128.39Z" fill="#C9EA32"/>
<path d="M57.6506 126.345C57.4482 126.605 57.2458 126.865 57.0244 127.117C57.2449 126.847 57.4562 126.577 57.6506 126.345Z" fill="#C9EA32"/>
<path d="M60.545 120.292C60.1985 121.079 59.7769 121.851 59.2891 122.598C58.8013 123.346 58.2468 124.059 57.6261 124.746C56.0117 126.52 54.0822 127.899 51.9767 128.876C49.8712 129.852 47.5987 130.418 45.2891 130.567C42.9795 130.716 40.6332 130.457 38.3887 129.766C36.1443 129.074 34.0024 127.969 32.0918 126.417L32.0931 126.445C32.0867 126.51 32.0803 126.575 32.0646 126.641L32.0654 126.66C32.0594 126.734 32.0441 126.81 32.0377 126.875L32.0402 126.931C32.0144 126.978 32.0076 127.034 31.9911 127.082L31.9927 127.119L31.975 127.138C31.9593 127.204 31.9436 127.27 31.9275 127.326C33.8219 128.935 35.9574 130.106 38.1854 130.844C40.4226 131.583 42.7616 131.888 45.0636 131.777C47.3656 131.666 49.63 131.128 51.7275 130.18C53.8249 129.231 55.7456 127.862 57.3693 126.088C57.7952 125.623 58.1924 125.14 58.5516 124.64C58.9109 124.141 59.2419 123.633 59.5442 123.108C59.8465 122.583 60.1113 122.05 60.3474 121.5C60.5073 121.121 60.658 120.743 60.7897 120.355C60.8473 120.185 60.9044 120.006 60.962 119.836C60.9777 119.77 61.0023 119.695 61.018 119.629C61.1786 119.054 61.3431 118.359 61.4767 117.804L61.4754 117.776L61.4915 117.72C61.551 117.382 61.6177 116.998 61.6751 116.614C61.6008 117.036 61.5075 117.449 61.3956 117.864C61.1807 118.682 60.9004 119.495 60.5446 120.283L60.545 120.292Z" fill="#C9EA32"/>
<path d="M61.6663 116.623C61.7253 116.276 61.7747 115.92 61.8152 115.575C61.8216 115.509 61.828 115.444 61.8344 115.378L61.8373 115.443C61.7786 115.799 61.7225 116.211 61.657 116.623L61.6663 116.623Z" fill="#C9EA32"/>
<path d="M61.3507 107.391C61.3025 107.142 61.2546 106.902 61.2169 106.68C61.2522 106.846 61.2777 107.003 61.3037 107.17C63.877 122.218 45.4279 132.644 31.7903 123.592L31.7916 123.62C31.8239 123.721 31.847 123.822 31.8701 123.924L31.8722 123.97C31.8944 124.053 31.9167 124.135 31.9297 124.219L31.9338 124.311C31.9649 124.384 31.9775 124.458 31.9897 124.523L31.993 124.597C32.0156 124.689 32.029 124.782 32.0424 124.874C43.5838 133.432 62.9961 126.061 61.7883 109.92L61.7594 109.689C61.664 109.005 61.5059 108.165 61.3604 107.4L61.3507 107.391Z" fill="#C9EA32"/>
<path d="M59.9411 102.459C59.8772 102.275 59.7943 102.084 59.7203 101.882C59.5006 101.334 59.2511 100.74 59.0323 100.211C59.4416 101.262 59.7045 102.367 59.8011 103.497C59.924 104.804 59.8347 106.147 59.55 107.49C59.2657 108.842 58.7767 110.194 58.0722 111.509C57.3774 112.832 56.467 114.119 55.3583 115.34C53.735 117.124 51.8184 118.585 49.7478 119.719C47.6767 120.843 45.4419 121.63 43.1911 122.056C40.9398 122.471 38.6637 122.535 36.4998 122.194C34.3363 121.862 32.2856 121.134 30.4771 119.995L30.4783 120.023C30.5394 120.141 30.5911 120.26 30.6429 120.379L30.6441 120.407L30.674 120.452C30.7157 120.552 30.7573 120.653 30.799 120.753L30.8196 120.799L30.8205 120.817C30.8722 120.936 30.9236 121.045 30.9656 121.155L30.9669 121.183L30.9968 121.228C31.0384 121.329 31.0704 121.42 31.1121 121.521L31.1327 121.566C32.9828 122.805 35.0748 123.624 37.2702 124.048C39.4657 124.472 41.7734 124.49 44.0554 124.138C46.3374 123.786 48.5839 123.054 50.6752 121.966C52.7665 120.878 54.6839 119.435 56.3071 117.652C57.363 116.498 58.2206 115.279 58.89 114.012C59.5599 112.754 60.0509 111.449 60.3469 110.152C60.6426 108.846 60.7614 107.538 60.6954 106.258C60.6331 105.06 60.4137 103.889 60.0289 102.762C59.9974 102.679 59.9751 102.597 59.9436 102.514L59.9225 102.459L59.9411 102.459Z" fill="#C9EA32"/>
<path d="M56.1485 94.5335C56.0277 94.3249 55.9068 94.1163 55.796 93.9259C55.8365 93.9985 55.8672 94.0623 55.9076 94.1349C56.3956 95.0714 56.7104 96.09 56.8603 97.1624C57.0365 98.4103 56.9746 99.7432 56.6907 101.105C56.4068 102.466 55.8828 103.866 55.1351 105.257C54.3874 106.648 53.4069 108.031 52.1913 109.359C50.568 111.143 48.6725 112.659 46.6524 113.884C44.623 115.108 42.4686 116.032 40.2994 116.621C38.1395 117.209 35.9653 117.473 33.9231 117.359C31.8813 117.254 29.9623 116.771 28.2865 115.897L28.3168 115.951C28.3871 116.069 28.457 116.178 28.5181 116.296L28.5484 116.35L28.5492 116.369C28.6385 116.495 28.7097 116.632 28.7897 116.758L28.8099 116.795L28.8402 116.849C28.9009 116.958 28.9712 117.076 29.0318 117.185L29.0617 117.23L29.0626 117.248C29.1426 117.375 29.2133 117.502 29.2841 117.629L29.3043 117.666C31.0412 118.658 33.0204 119.241 35.1224 119.445C37.2244 119.65 39.4399 119.477 41.6495 118.961C43.8591 118.444 46.0438 117.575 48.0938 116.396C50.1439 115.217 52.0402 113.719 53.6728 111.936C54.8529 110.646 55.7975 109.293 56.5279 107.93C57.2578 106.558 57.7544 105.169 58.0382 103.808C58.3217 102.437 58.3832 101.095 58.2239 99.8088C58.0914 98.7078 57.7842 97.6517 57.3216 96.6582C57.2707 96.5582 57.2193 96.4488 57.1684 96.3487C57.1381 96.2943 57.117 96.2394 57.0867 96.1849C56.8232 95.6943 56.4804 95.0955 56.1578 94.5331L56.1485 94.5335Z" fill="#C9EA32"/>
<path d="M25.5972 111.867L25.6465 111.93C25.7561 112.092 25.8745 112.245 25.984 112.408L26.0038 112.435C26.0038 112.435 26.0535 112.507 26.0733 112.534C26.1529 112.652 26.2321 112.76 26.3117 112.877C26.3416 112.922 26.3711 112.958 26.401 113.003C26.4406 113.057 26.4806 113.121 26.5203 113.175C26.5599 113.229 26.5999 113.292 26.6395 113.346C28.2058 114.058 30.025 114.387 31.9766 114.347C33.9287 114.316 36.0229 113.926 38.1129 113.229C40.2121 112.531 42.316 111.517 44.3054 110.229C46.2948 108.941 48.1608 107.389 49.7934 105.605C51.0444 104.238 52.0613 102.835 52.8364 101.433C53.6212 100.04 54.1642 98.6487 54.4776 97.3233C54.7905 95.9886 54.8642 94.7109 54.7094 93.5271C54.5547 92.3433 54.1534 91.2635 53.5254 90.3146L52.0648 88.2119L51.9953 88.1127L51.847 87.9146C51.847 87.9146 51.8963 87.9775 51.9165 88.0138C52.4932 88.8534 52.8529 89.8327 52.9841 90.906C53.1267 92.0252 53.0236 93.2669 52.6904 94.5653C52.3572 95.8638 51.7855 97.2379 50.9725 98.6227C50.1691 100.016 49.1248 101.43 47.8564 102.826C46.2238 104.609 44.3683 106.189 42.4181 107.522C40.4586 108.855 38.4041 109.932 36.3549 110.711C34.3151 111.49 32.2899 111.97 30.4078 112.11C28.5257 112.249 26.7861 112.037 25.3087 111.442C25.3685 111.533 25.4372 111.613 25.497 111.704C25.5366 111.758 25.5665 111.803 25.6061 111.857L25.5972 111.867Z" fill="#C9EA32"/>
<path d="M22.0543 107.28C22.0543 107.28 22.1128 107.343 22.133 107.379C22.2316 107.505 22.3395 107.63 22.4381 107.756C22.468 107.801 22.5068 107.837 22.5367 107.882L22.6846 108.071C22.7339 108.134 22.7832 108.197 22.8325 108.26C22.9012 108.34 22.9606 108.421 23.0293 108.502C23.0781 108.556 23.1182 108.619 23.167 108.673L23.226 108.745C24.575 109.169 26.186 109.209 27.959 108.916C29.7321 108.624 31.6489 108.009 33.5999 107.113C35.5601 106.217 37.5456 105.05 39.4557 103.654C41.3659 102.258 43.192 100.642 44.8245 98.8582C46.1199 97.4427 47.1921 96.0279 48.0334 94.6511C48.8748 93.2744 49.4949 91.9446 49.8774 90.7092C50.2595 89.4644 50.4131 88.3134 50.3211 87.285C50.2432 86.3675 49.9745 85.5516 49.5167 84.8742C49.4573 84.7931 49.4071 84.7116 49.3477 84.6305L48.7566 83.8846L48.2244 83.2106L47.4478 82.2682C47.9687 82.8963 48.2373 83.7123 48.2793 84.6592C48.3216 85.6155 48.1284 86.7123 47.6974 87.9035C47.2761 89.1035 46.6265 90.3973 45.7468 91.7479C44.8768 93.1073 43.7764 94.5141 42.4725 95.9485C40.84 97.7324 39.0337 99.3751 37.1534 100.816C35.2824 102.257 33.3374 103.497 31.4551 104.473C29.5636 105.45 27.7255 106.164 26.041 106.564C24.3657 106.964 22.8436 107.041 21.6029 106.751C21.7407 106.922 21.8781 107.083 22.0159 107.254L22.0357 107.281L22.0543 107.28Z" fill="#C9EA32"/>
<path d="M41.9587 81.1816C41.4199 82.2473 40.664 83.4528 39.7169 84.7505C38.7697 86.0483 37.622 87.4386 36.2912 88.8928C34.6586 90.6767 32.9016 92.3823 31.1288 93.9398C29.356 95.4974 27.5577 96.8979 25.8427 98.0808C24.1277 99.2636 22.5049 100.219 21.0556 100.888C19.6154 101.556 18.3483 101.929 17.3815 101.944L17.4009 101.961L17.4793 102.051C17.6062 102.185 17.7237 102.319 17.8506 102.453L17.958 102.569C18.0166 102.632 18.0752 102.694 18.1245 102.757C18.1831 102.82 18.2421 102.892 18.3007 102.954C18.3786 103.034 18.4473 103.115 18.5257 103.205C18.5746 103.258 18.6332 103.321 18.682 103.374L18.76 103.455C18.9071 103.625 19.0634 103.795 19.2101 103.956C20.3037 104.075 21.6691 103.819 23.2166 103.267C24.7642 102.714 26.4843 101.857 28.2777 100.764C30.071 99.6702 31.928 98.3322 33.7404 96.8287C35.5621 95.3248 37.3388 93.6462 38.9714 91.8624C40.2934 90.4178 41.4217 89.0098 42.3398 87.6854C43.2578 86.3611 43.9656 85.1205 44.4552 83.9919C44.9451 82.8726 45.2075 81.8656 45.2536 81.0171C45.293 80.2247 45.1245 79.5717 44.7495 79.086C44.7297 79.059 44.7002 79.0231 44.6711 78.9965L44.299 78.5758L44.0053 78.2446L42.5682 76.6711C42.9201 77.0555 43.0397 77.6548 42.9337 78.413C42.8282 79.1804 42.4971 80.1067 41.9587 81.1816Z" fill="#C9EA32"/>
<path d="M13.1705 97.609C13.2485 97.6892 13.3265 97.7695 13.404 97.8405C13.4626 97.903 13.5208 97.9562 13.5886 98.0183C13.6177 98.0449 13.6472 98.0809 13.6763 98.1075C13.8419 98.2769 14.0076 98.4463 14.1821 98.606L14.231 98.6596C14.3772 98.8113 14.5327 98.9625 14.679 99.1142C15.4797 98.9206 16.5715 98.3699 17.8654 97.5499C19.1592 96.7298 20.6547 95.6311 22.2525 94.3231C23.8508 93.0245 25.5611 91.5256 27.2753 89.9055C28.9895 88.2855 30.7077 86.5443 32.3495 84.7601C33.6893 83.2961 34.8657 81.9232 35.8609 80.6605C36.8561 79.3979 37.6709 78.2642 38.2877 77.2788C38.9045 76.2934 39.3233 75.4562 39.527 74.8054C39.7307 74.1545 39.7194 73.6899 39.4855 73.4491L39.3878 73.3418L37.7529 71.712L37.2079 71.1687C37.2079 71.1687 37.218 71.1869 37.2277 71.1957C37.3465 71.3579 37.26 71.7152 36.9956 72.2571C36.7139 72.8277 36.2172 73.5846 35.5423 74.5168C34.8673 75.4489 34.004 76.5383 32.97 77.7654C32.7312 78.0458 32.4929 78.3354 32.236 78.6258C31.3871 79.6215 30.439 80.6867 29.4009 81.821C28.833 82.4415 28.2559 83.0624 27.6691 83.6744C26.585 84.82 25.4819 85.9572 24.3949 87.0379C24.0295 87.3982 23.6734 87.7582 23.3168 88.1088C23.2636 88.167 23.2011 88.2256 23.1478 88.2837C22.6662 88.7516 22.1935 89.2097 21.7204 89.6585C20.9887 90.3607 20.2744 91.0341 19.5766 91.6604C19.3442 91.8753 19.1204 92.0713 18.8969 92.2765C18.5391 92.5993 18.1898 92.9031 17.8494 93.1973C16.9987 93.9419 16.2004 94.6098 15.4811 95.1718C14.9781 95.5755 14.5186 95.9121 14.0946 96.21C13.5261 96.6072 13.0376 96.9172 12.655 97.1016C12.6938 97.1371 12.7326 97.1726 12.7718 97.2173C12.8397 97.2794 12.8982 97.342 12.9661 97.4041C13.0344 97.4755 13.1022 97.5376 13.1705 97.609Z" fill="#C9EA32"/>
<path d="M8.02686 92.7861L8.13309 92.8744C8.31688 93.0337 8.49139 93.1934 8.67559 93.362L8.68488 93.3616C8.79193 93.4685 8.89858 93.5661 8.99594 93.6641C9.0638 93.7262 9.13167 93.7883 9.20882 93.85C9.24759 93.8855 9.27668 93.9121 9.31546 93.9476C9.38332 94.0097 9.44149 94.063 9.50935 94.1251L9.74203 94.338C13.5845 90.3633 32.7373 69.5717 33.9067 68.041L33.8582 67.9966C33.2082 67.3928 32.4815 66.7367 31.9002 66.2136C31.8421 66.1604 31.7742 66.0983 31.7067 66.0454C31.6583 66.0011 31.6005 65.9571 31.5516 65.9035L31.4838 65.8414C31.3872 65.7619 31.0782 65.9244 30.6017 66.299C30.116 66.674 29.4448 67.2711 28.6148 68.0614C27.7847 68.8516 26.805 69.8345 25.693 70.9813C24.5811 72.1282 23.3377 73.4576 21.9979 74.9216C20.3654 76.7054 18.7348 78.5357 17.1858 80.3159C15.6368 82.096 14.1782 83.8164 12.8716 85.3998C11.5651 86.9831 10.4287 88.4195 9.52348 89.613C8.61823 90.8065 7.96307 91.7657 7.60957 92.3953C7.69641 92.4659 7.77438 92.5461 7.86122 92.6167C7.92868 92.6695 7.98726 92.7321 8.05471 92.7849L8.02686 92.7861Z" fill="#C9EA32"/>
<path d="M8.75344 81.8884C9.9251 80.1994 11.2864 78.3811 12.7582 76.5392C13.0933 76.1244 13.4373 75.6999 13.7817 75.2846C14.6911 74.1839 15.6468 73.0812 16.6127 71.9966C16.8962 71.6771 17.1801 71.3668 17.4641 71.0566C18.8038 69.5927 20.0674 68.2995 21.2279 67.197C21.701 66.7482 22.1568 66.328 22.5957 65.9458C23.2314 65.3875 23.8231 64.8868 24.3625 64.463C24.659 64.2266 24.9385 64.0282 25.2092 63.8395C25.7595 63.4523 26.2582 63.1605 26.6686 62.9749C27.1153 62.769 27.4749 62.6973 27.7377 62.7508L27.7562 62.75C27.8313 62.7652 27.8887 62.7999 27.9464 62.8438C27.9557 62.8434 27.9747 62.8519 27.9844 62.8608L26.3631 61.5373L25.9192 61.1756L25.4272 60.7788C25.4272 60.7788 25.3694 60.7348 25.3407 60.7175C24.9866 60.4913 24.465 60.4772 23.8133 60.6735C23.1062 60.8815 22.2512 61.3194 21.2665 61.9769C20.2817 62.6345 19.1764 63.5113 17.9868 64.5872C16.7973 65.6631 15.5143 66.9385 14.1742 68.3931C12.5416 70.177 10.9785 72.0601 9.55516 73.9463C8.13177 75.8325 6.84723 77.7033 5.77252 79.481C4.6974 81.2495 3.82199 82.9068 3.21647 84.3568C2.61053 85.7976 2.27448 87.031 2.26835 87.9429C2.44203 88.084 2.625 88.2247 2.79869 88.3659L2.82777 88.3925L2.84716 88.4102C3.03054 88.5602 3.21351 88.701 3.38761 88.8514L3.49384 88.9397C3.5613 88.9925 3.62916 89.0546 3.69661 89.1075C3.78346 89.178 3.8703 89.2486 3.94786 89.3196C4.025 89.3813 4.10256 89.4523 4.17971 89.514C4.24717 89.5668 4.31503 89.6289 4.38248 89.6817C4.42126 89.7172 4.45963 89.7434 4.49841 89.7789C4.55065 89.4882 4.66541 89.139 4.80679 88.7606C5.04806 88.1174 5.38693 87.3676 5.85166 86.5191C5.91212 86.4141 5.98105 86.2901 6.04151 86.1851C6.52399 85.3173 7.09643 84.3803 7.75841 83.365C8.07248 82.8953 8.39501 82.4066 8.73611 81.9171L8.75344 81.8884Z" fill="#C9EA32"/>
<path d="M9.84158 64.938C11.1636 63.4935 12.4668 62.2544 13.7048 61.2229C14.9428 60.1913 16.116 59.3766 17.1876 58.7897C18.2592 58.2027 19.2293 57.8435 20.0612 57.7229C20.8563 57.6133 21.5216 57.7233 22.0297 58.0636C22.0491 58.0814 22.0777 58.0987 22.0967 58.1072L21.9234 57.9753L19.6362 56.3185L19.4439 56.1782C19.4439 56.1782 19.3579 56.1262 19.3196 56.1C18.7166 55.7174 17.9657 55.5646 17.1031 55.6214C16.1848 55.6807 15.138 55.9875 14.0086 56.5305C12.8792 57.0736 11.658 57.8532 10.3905 58.8488C9.123 59.8445 7.81937 61.0742 6.49653 62.5002C4.86397 64.2841 3.36838 66.22 2.07908 68.1933C0.789775 70.1666 -0.311381 72.1874 -1.15547 74.1317C-1.99956 76.0759 -2.60557 77.9353 -2.90332 79.6135C-3.20149 81.2824 -3.20998 82.7711 -2.86068 83.937C-2.66884 84.068 -2.47659 84.2084 -2.28433 84.3487C-2.24597 84.3749 -2.21688 84.4015 -2.17892 84.4184C-2.11147 84.4713 -2.04443 84.5148 -1.97698 84.5676C-1.89054 84.6289 -1.79442 84.6991 -1.70799 84.7603C-1.63125 84.8128 -1.5541 84.8745 -1.47736 84.9269C-1.40991 84.9797 -1.33317 85.0321 -1.26572 85.0849C-1.22694 85.1204 -1.17929 85.1462 -1.14051 85.1817C-0.986627 85.2958 -0.823046 85.4188 -0.669161 85.5329L-0.582729 85.5942L-0.564161 85.5934C-0.759571 84.5416 -0.616177 83.1586 -0.19321 81.5771C0.239041 79.9952 0.950863 78.2149 1.89108 76.3408C2.8313 74.4667 4.00961 72.5076 5.35625 70.569C6.7029 68.6304 8.22717 66.7118 9.85973 64.9279L9.84158 64.938Z" fill="#C9EA32"/>
<path d="M1.5262 59.2143C2.81314 57.8178 4.11881 56.6344 5.40651 55.6751C6.69462 54.7251 7.95504 53.9902 9.15189 53.5C10.3487 53.0098 11.4909 52.7546 12.5226 52.7368C13.5547 52.7283 14.4858 52.9568 15.2701 53.443L13.1748 52.1312L12.5529 51.7402C12.4858 51.6966 12.4099 51.6628 12.334 51.6289L12.3062 51.6302C11.4779 51.2017 10.5477 50.9918 9.54303 50.9898C8.43579 50.983 7.246 51.2124 6.01038 51.6671C4.77516 52.1311 3.48524 52.8301 2.1959 53.7523C0.906557 54.6744 -0.391072 55.8295 -1.66068 57.1973C-3.29365 58.9719 -4.72179 60.9607 -5.88671 63.0122C-7.05121 65.073 -7.97063 67.2066 -8.59461 69.29C-9.2186 71.3733 -9.54674 73.4157 -9.55694 75.2859C-9.55785 77.1556 -9.24124 78.8438 -8.55591 80.246C-8.49856 80.2806 -8.4505 80.3157 -8.39356 80.3411C-8.29785 80.402 -8.20213 80.4629 -8.10683 80.5144L-8.02081 80.5664C-7.97275 80.6015 -7.91581 80.6269 -7.86775 80.662C-7.77203 80.7229 -7.67632 80.7837 -7.5806 80.8446C-7.54264 80.8615 -7.51356 80.8882 -7.48488 80.9055C-7.43723 80.9313 -7.38917 80.9664 -7.34152 80.9922C-7.2458 81.053 -7.15008 81.1139 -7.05437 81.1748C-7.016 81.201 -6.97763 81.2272 -6.93968 81.2441C-6.89202 81.2699 -6.85365 81.2961 -6.80559 81.3312C-6.70988 81.3921 -6.61416 81.4529 -6.51803 81.5231C-6.47038 81.5489 -6.43201 81.5751 -6.39323 81.6106C-6.94448 80.2955 -7.12742 78.6851 -7.00212 76.8936C-6.87681 75.102 -6.43398 73.129 -5.72397 71.0977C-5.01396 69.0663 -4.01822 66.9758 -2.80565 64.9501C-1.58381 62.9239 -0.135862 60.9622 1.4967 59.1784L1.5262 59.2143Z" fill="#C9EA32"/>
<path d="M-13.1927 77.6334C-13.1071 77.6761 -13.0118 77.7277 -12.9262 77.7704L-12.8785 77.7962C-12.8309 77.822 -12.7739 77.8474 -12.7166 77.8821C-12.631 77.9248 -12.545 77.9768 -12.4501 78.0191L-12.3927 78.0538C-12.3451 78.0796 -12.2881 78.1049 -12.2405 78.1307C-12.1549 78.1734 -12.0689 78.2255 -11.974 78.2678L-11.8976 78.3109C-11.8976 78.3109 -11.8023 78.3625 -11.7547 78.3883C-11.6687 78.4403 -11.583 78.483 -11.4877 78.5346L-11.4017 78.5866C-12.2684 77.0808 -12.7667 75.2797 -12.9185 73.3237C-13.0702 71.3677 -12.8854 69.2387 -12.3854 67.0864C-11.8854 64.9341 -11.071 62.74 -9.96383 60.6445C-8.86596 58.5495 -7.48506 56.5442 -5.84281 54.7693C-4.61839 53.4314 -3.32798 52.3231 -2.037 51.438C-0.73673 50.5526 0.573402 49.8899 1.85627 49.4517C3.13955 49.0228 4.39556 48.8184 5.5783 48.8497C6.75175 48.8815 7.8608 49.1393 8.86872 49.6342L8.89657 49.633L8.84005 49.6169L6.49787 48.3997L6.33593 48.3139C6.33593 48.3139 6.28869 48.2973 6.26971 48.2889C5.20691 47.815 4.05144 47.5593 2.84085 47.5291C1.602 47.491 0.317728 47.6874 -0.994225 48.099C-2.29648 48.5194 -3.61714 49.1546 -4.91823 50.0215C-6.21003 50.888 -7.48269 51.9769 -8.69018 53.2768C-10.3232 55.0514 -11.6851 57.0651 -12.7353 59.186C-13.7855 61.3068 -14.543 63.5263 -14.957 65.7306C-15.3807 67.926 -15.4706 70.0974 -15.2045 72.1134C-14.9385 74.1294 -14.3259 75.9906 -13.3357 77.556C-13.2787 77.5814 -13.2311 77.6072 -13.1737 77.6418L-13.1927 77.6334Z" fill="#C9EA32"/>
<path d="M2.78617 46.694L0.939656 45.9572L0.43857 45.7748C0.296847 45.7252 0.155128 45.6757 0.0138154 45.6355C-1.07108 45.2928 -2.21398 45.1109 -3.36845 45.0876C-4.68075 45.0713 -6.02114 45.2609 -7.3432 45.6543C-8.67413 46.0574 -9.98673 46.6644 -11.262 47.4836C-12.528 48.3024 -13.7572 49.3243 -14.8933 50.5559C-16.5262 52.3305 -17.8316 54.3603 -18.7777 56.5231C-19.733 58.6862 -20.3391 60.9641 -20.5822 63.2446C-20.8258 65.5157 -20.7069 67.7802 -20.2132 69.8977C-19.7194 72.0153 -18.8415 73.9857 -17.5852 75.6788C-17.5569 75.6868 -17.5189 75.7038 -17.4907 75.7118C-17.3865 75.7537 -17.292 75.7867 -17.1878 75.8286L-17.1693 75.8278C-17.1693 75.8278 -17.0744 75.8701 -17.0364 75.887C-16.9512 75.9205 -16.866 75.9539 -16.7808 75.9873L-16.753 75.9861C-16.7049 76.0212 -16.6577 76.0377 -16.6104 76.0542C-16.5252 76.0876 -16.4493 76.1215 -16.3641 76.1549L-16.3262 76.1719C-16.2789 76.1884 -16.2313 76.2142 -16.184 76.2307C-16.1081 76.2645 -16.0229 76.298 -15.947 76.3318L-15.8994 76.3576C-17.0515 74.7064 -17.8253 72.7779 -18.2241 70.7026C-18.6234 68.6181 -18.6571 66.3871 -18.3473 64.1409C-18.0375 61.8947 -17.3656 59.6325 -16.3723 57.4863C-15.379 55.34 -14.0547 53.3187 -12.4217 51.5441C-11.2501 50.2737 -10.0036 49.2231 -8.71988 48.3849C-7.43613 47.5467 -6.10537 46.9297 -4.77444 46.5265C-3.44351 46.1234 -2.12169 45.9347 -0.827135 45.9704C0.439567 46.0073 1.65961 46.2509 2.81484 46.7114C2.83382 46.7198 2.86208 46.7279 2.88106 46.7363L2.78658 46.7033L2.78617 46.694Z" fill="#C9EA32"/>
</g>
</svg>
