<svg width="101" height="153" viewBox="0 0 101 153" fill="none" xmlns="http://www.w3.org/2000/svg">
<mask id="mask0_707_297" style="mask-type:alpha" maskUnits="userSpaceOnUse" x="0" y="-1" width="101" height="154">
<rect x="0.499451" y="-0.000366211" width="100" height="153" fill="#D9D9D9"/>
</mask>
<g mask="url(#mask0_707_297)">
<g opacity="0.9">
<path d="M89.1592 78.3411C89.1888 62.8526 60.369 50.2415 24.7885 50.1736C-10.792 50.1056 -39.6597 62.6064 -39.6893 78.0949C-39.7189 93.5834 -10.8992 106.194 24.6813 106.262C60.2619 106.33 89.1296 93.8296 89.1592 78.3411Z" stroke="#C9EA32" stroke-width="2" stroke-miterlimit="10"/>
<path d="M89.1372 86.6461C89.1668 71.1576 60.3471 58.5465 24.7665 58.4786C-10.814 58.4106 -39.6817 70.9114 -39.7113 86.3999C-39.7409 101.888 -10.9212 114.499 24.6594 114.567C60.2399 114.635 89.1076 102.135 89.1372 86.6461Z" stroke="#C9EA32" stroke-width="2" stroke-miterlimit="10"/>
<path d="M89.1616 74.1943C89.1912 58.7058 60.3715 46.0948 24.7909 46.0268C-10.7896 45.9588 -39.6573 58.4596 -39.6869 73.9481C-39.7165 89.4366 -10.8968 102.048 24.6838 102.116C60.2643 102.184 89.132 89.6828 89.1616 74.1943Z" stroke="#C9EA32" stroke-width="2" stroke-miterlimit="10"/>
<path d="M89.1835 65.8893C89.2131 50.4008 60.3934 37.7898 24.8129 37.7218C-10.7677 37.6538 -39.6354 50.1546 -39.665 65.6431C-39.6946 81.1316 -10.8748 93.7427 24.7057 93.8107C60.2862 93.8786 89.1539 81.3778 89.1835 65.8893Z" stroke="#C9EA32" stroke-width="2" stroke-miterlimit="10"/>
<path d="M89.1859 61.7424C89.2155 46.2539 60.3958 33.6428 24.8152 33.5749C-10.7653 33.5069 -39.633 46.0077 -39.6626 61.4962C-39.6922 76.9847 -10.8725 89.5958 24.7081 89.6637C60.2886 89.7317 89.1563 77.2309 89.1859 61.7424Z" stroke="#C9EA32" stroke-width="2" stroke-miterlimit="10"/>
<path d="M89.1739 70.0432C89.2035 54.5547 60.3838 41.9436 24.8033 41.8757C-10.7773 41.8077 -39.645 54.3085 -39.6746 69.797C-39.7042 85.2855 -10.8844 97.8965 24.6961 97.9645C60.2766 98.0325 89.1443 85.5317 89.1739 70.0432Z" stroke="#C9EA32" stroke-width="2" stroke-miterlimit="10"/>
<path d="M89.1496 82.4951C89.1792 67.0066 60.3595 54.3955 24.7789 54.3276C-10.8016 54.2596 -39.6693 66.7604 -39.6989 82.2489C-39.7285 97.7374 -10.9088 110.348 24.6717 110.416C60.2523 110.484 89.12 97.9836 89.1496 82.4951Z" stroke="#C9EA32" stroke-width="2" stroke-miterlimit="10"/>
<path d="M89.1128 99.1077C89.1424 83.6192 60.3227 71.0081 24.7422 70.9402C-10.8384 70.8722 -39.7061 83.373 -39.7357 98.8615C-39.7653 114.35 -10.9455 126.961 24.635 127.029C60.2155 127.097 89.0832 114.596 89.1128 99.1077Z" stroke="#C9EA32" stroke-width="2" stroke-miterlimit="10"/>
<path d="M89.1348 90.7929C89.1644 75.3044 60.3447 62.6933 24.7641 62.6253C-10.8164 62.5574 -39.6841 75.0582 -39.7137 90.5467C-39.7433 106.035 -10.9236 118.646 24.657 118.714C60.2375 118.782 89.1052 106.281 89.1348 90.7929Z" stroke="#C9EA32" stroke-width="2" stroke-miterlimit="10"/>
<path d="M89.1254 94.9469C89.1549 79.4584 60.3352 66.8473 24.7547 66.7793C-10.8258 66.7113 -39.6936 79.2122 -39.7231 94.7007C-39.7527 110.189 -10.933 122.8 24.6475 122.868C60.2281 122.936 89.0958 110.435 89.1254 94.9469Z" stroke="#C9EA32" stroke-width="2" stroke-miterlimit="10"/>
<path d="M89.1883 57.5915C89.2179 42.1029 60.3981 29.4919 24.8176 29.4239C-10.7629 29.3559 -39.6306 41.8568 -39.6602 57.3453C-39.6898 72.8338 -10.8701 85.4448 24.7104 85.5128C60.291 85.5808 89.1587 73.08 89.1883 57.5915Z" stroke="#C9EA32" stroke-width="2" stroke-miterlimit="10"/>
</g>
</g>
</svg>
