<svg width="100" height="153" viewBox="0 0 100 153" fill="none" xmlns="http://www.w3.org/2000/svg">
<mask id="mask0_707_305" style="mask-type:alpha" maskUnits="userSpaceOnUse" x="0" y="0" width="100" height="153">
<rect width="100" height="153" fill="#D9D9D9"/>
</mask>
<g mask="url(#mask0_707_305)">
<g opacity="0.9">
<path d="M10.7825 29.687C10.9886 29.5494 11.2001 29.4184 11.4062 29.2808C11.1947 29.4118 10.9886 29.5494 10.7825 29.687Z" fill="#B83856"/>
<path d="M25.8828 23.6681L24.3759 23.9673C24.3759 23.9673 24.2953 23.9899 24.2463 23.9974C24.0862 24.0306 23.9381 24.065 23.7835 24.1048C23.8826 24.0779 23.9817 24.051 24.0862 24.0306C23.8521 24.0811 23.618 24.1315 23.3719 24.1809L22.3624 24.4543C22.4549 24.4328 22.5475 24.4113 22.6281 24.3887C21.3964 24.7137 20.171 25.0997 18.9585 25.5412C14.1787 27.9115 9.72342 30.9399 2.52435 36.7048C16.2234 26.4495 22.3021 24.5815 24.3574 23.9716C24.8626 23.862 25.3613 23.758 25.8709 23.667L25.8828 23.6681Z" fill="#B83856"/>
<path d="M11.95 28.179C11.3365 28.4776 10.7099 28.787 10.19 29.0521L9.86633 29.2209C8.15267 30.2431 5.53228 33.2084 2.53711 36.6938C2.80566 36.4051 3.0742 36.1165 3.34162 35.8398C8.57338 30.3912 10.3346 29.1199 11.9446 28.1725L11.95 28.179Z" fill="#B83856"/>
<path d="M7.01182 30.8905C6.50487 31.2111 5.88777 31.6119 5.40587 31.9228L5.38624 31.9391C5.31742 32.0292 5.30432 32.04 2.54948 36.6949C6.1084 31.7051 6.54917 31.3179 7.14703 30.8005C7.10776 30.8331 7.05764 30.8525 7.01837 30.885L7.01182 30.8905Z" fill="#B83856"/>
<path d="M53.4801 126.622C53.6054 126.574 53.7427 126.526 53.8745 126.472C54.8136 126.114 55.95 125.647 56.8292 125.283C57.7227 124.896 58.8877 124.317 59.7551 123.885C48.3269 129.434 35.9136 130.943 22.8453 128.37L26.5365 129.109C26.9771 129.175 27.3697 129.236 27.7265 129.293C28.9808 129.435 30.457 129.592 31.9203 129.693C32.8038 129.734 33.893 129.77 35.3913 129.82C36.1346 129.811 36.989 129.777 37.851 129.725C45.2727 129.305 49.4564 127.947 53.4801 126.622Z" fill="#B83856"/>
<path d="M3.34646 33.4741C3.27128 33.5033 3.16563 33.5356 3.08391 33.5702L3.07082 33.5811C2.62913 33.9138 2.3619 34.1242 2.33572 34.1459C2.09355 34.3465 1.78163 34.5828 1.52637 34.7942C2.02697 34.4126 2.05091 34.4149 2.50546 34.524C2.68853 34.9315 2.70091 35.657 2.5426 36.7005C3.59078 34.0222 3.47619 33.764 3.353 33.4687L3.34646 33.4741Z" fill="#B83856"/>
<path d="M9.4003 123.185C31.7224 134.757 56.2863 125.92 63.9014 121.51L64.0104 121.442C64.4018 121.195 64.8848 120.872 65.2457 120.628L65.9949 120.107L66.0341 120.074C61.7958 122.978 28.0604 137.437 1.58081 117.875C1.94988 118.187 2.30811 118.487 2.65008 118.766C4.52221 120.107 7.07567 121.777 9.07983 122.998C9.18846 123.062 9.28625 123.114 9.39488 123.178L9.4003 123.185Z" fill="#B83856"/>
<path d="M0.306271 36.3455C1.535 35.9237 1.7489 36.0886 2.54258 36.7003C1.95457 34.6049 0.513709 35.7433 -0.764644 36.7581C-1.18148 37.1475 -1.73147 37.6693 -2.1483 38.0588L-2.53466 38.4451C-1.93119 37.8679 -0.666468 36.6768 0.300849 36.339L0.306271 36.3455Z" fill="#B83856"/>
<path d="M68.5133 118.231C68.6704 118.101 68.8329 117.977 68.99 117.847L69.0554 117.793C69.0554 117.793 69.1078 117.749 69.134 117.728C69.3107 117.581 69.4874 117.435 69.6641 117.288C69.8147 117.164 69.9652 117.039 70.0961 116.931L70.1223 116.909C66.9569 119.443 8.14136 139.557 -13.1721 99.1062C-12.6076 100.294 -11.7654 101.804 -11.167 102.952C-10.3343 104.371 -9.09909 106.195 -8.19013 107.572C16.6775 139.097 64.0907 121.232 68.5187 118.237L68.5133 118.231Z" fill="#B83856"/>
<path d="M-5.88795 42.1503C-5.95678 42.2405 -6.03102 42.324 -6.09984 42.4142C-1.78231 37.3808 1.35537 36.8786 2.54312 36.7003C-0.184954 36.3115 -2.63845 38.399 -5.88795 42.1503Z" fill="#B83856"/>
<path d="M-17.4058 85.8156C-6.5544 135.927 64.8786 118.493 72.2462 114.984L72.3706 114.881L72.6118 114.626C72.6511 114.593 72.6915 114.549 72.7319 114.504C73.0244 114.218 73.3584 113.875 73.6454 113.582C73.6847 113.549 73.7186 113.51 73.7524 113.471C61.9962 113.961 50.7468 118.247 38.9043 118.113C33.1098 118.046 19.5371 117.889 7.38942 112.71C-16.9113 102.347 -18.1653 83.9395 -18.216 75.6048C-18.2244 75.8877 -18.2263 76.1652 -18.2282 76.4427L-18.2377 77.8301C-18.0869 80.2105 -17.7664 83.3552 -17.4339 85.7285C-17.4307 85.759 -17.421 85.784 -17.4178 85.8145L-17.4058 85.8156Z" fill="#B83856"/>
<path d="M-7.4221 44.0825C-7.4221 44.0825 -7.38059 44.0261 -7.36637 44.0033C-7.42098 44.0706 -7.48213 44.1433 -7.52477 44.2117C-7.89506 44.684 -8.35512 45.341 -8.70372 45.8395C-9.41514 46.8592 -10.3246 48.2527 -10.9382 49.3239C-11.3145 49.9888 -11.8133 50.8655 -12.1668 51.5446C-12.5871 52.3562 -13.1072 53.4603 -13.4981 54.2808C-13.8978 55.1306 -14.38 56.2805 -14.6916 57.1566C-15.0722 58.1893 -15.5081 59.4885 -15.8848 60.6724C-19.4221 73.1492 -18.396 87.6177 -9.00875 97.1246C13.1292 119.533 54.2344 113.437 69.7089 111.147C73.2797 110.617 75.3681 110.576 75.974 111.023L76.0286 110.956C76.5048 110.385 77.0935 109.643 77.5588 109.059L77.6068 108.997C77.7555 108.764 77.6555 108.35 77.6629 108.079C76.4499 107.561 74.9903 107.677 67.3464 108.535C47.6783 110.745 26.896 111.771 8.13754 104.354C-34.2054 87.6246 -14.5981 44.586 2.54248 36.7C-1.0532 37.9017 -4.46264 40.5274 -7.4221 44.0825Z" fill="#B83856"/>
<path d="M66.0714 103.798C78.3655 102.852 81.3021 102.626 79.8507 105.87C79.8715 105.842 79.8922 105.814 79.9076 105.779C80.183 105.352 80.4957 104.851 80.8073 104.361C81.014 104.024 81.2141 103.693 81.4153 103.349C83.5516 98.8537 78.6778 99.1386 67.0321 99.802C54.1543 100.537 38.1201 101.458 20.7894 97.7369C-30.374 86.7472 -16.7293 49.0342 2.54308 36.7004C-20.8955 48.8543 -40.6815 111.995 66.0714 103.798Z" fill="#B83856"/>
<path d="M65.5257 93.8539C80.3182 93.2988 85.861 93.0887 83.5127 99.3934C83.5291 99.3466 83.5576 99.301 83.5795 99.2608C84.0339 98.2773 84.5633 97.0111 84.9742 96.0416C86.7788 91.0923 83.41 89.8767 79.5105 89.2994C63.1619 86.8835 46.6698 89.9833 30.3134 87.9711C-22.3378 81.5137 -15.7521 51.1601 2.54274 36.7004C-17.1335 50.1854 -32.9829 97.5607 65.5257 93.8539Z" fill="#B83856"/>
<path d="M67.7662 82.3297C82.1061 82.0942 88.25 83.2625 86.7392 90.8048C87.0637 89.5978 87.4199 87.9894 87.7 86.7421C87.8282 86.0841 87.9412 85.3945 88.0585 84.7234C88.9278 78.4851 85.4491 78.3759 43.8388 77.1198C-16.4783 75.291 -9.74734 51.4279 -0.254382 39.7456C-8.98092 50.2081 -29.5174 83.9181 67.7662 82.3297Z" fill="#B83856"/>
<path d="M2.11697 37.1192C1.33117 37.9026 0.529832 38.7871 -0.254311 39.7457C0.772197 38.5201 1.63019 37.6107 2.11697 37.1192Z" fill="#B83856"/>
<path d="M2.54315 36.7001C2.54315 36.7001 2.36419 36.8704 2.11752 37.1189C2.26376 36.9757 2.40346 36.8379 2.54315 36.7001Z" fill="#B83856"/>
<path d="M54.9552 70.141C78.7813 69.8061 88.5075 70.6225 88.5871 80.1913C88.5927 80.1315 88.5918 80.0771 88.5974 80.0172C88.6799 78.6246 88.6948 76.8574 88.726 75.4961L88.7285 75.4058C88.3808 66.6992 79.841 64.304 52.2525 65.173C-19.7225 67.4168 -1.7791 41.8477 2.54311 36.7001C-0.777607 40.2455 -27.5483 71.3059 54.9552 70.141Z" fill="#B83856"/>
<path d="M50.2846 58.4817C76.4728 57.1613 86.0417 59.6531 88.1295 68.342C88.0858 68.0361 88.0355 67.7356 87.9853 67.4351L87.9339 67.1466C87.8997 66.9321 87.8633 66.7416 87.8279 66.5391L87.2761 63.9943C87.1976 63.6731 87.1191 63.3518 87.0449 63.0491C83.7992 51.7766 61.8613 53.152 47.3006 54.0668C-0.10487 57.0596 -3.20288 46.2718 2.54263 36.7005C-2.88571 44.2433 -9.10201 61.4665 50.2846 58.4817Z" fill="#B83856"/>
<path d="M43.307 48.4466C65.6726 46.6949 79.6494 46.3409 84.7691 56.1052C84.621 55.7532 84.473 55.4013 84.3238 55.0614C83.7486 53.7941 83.0649 52.3959 82.5241 51.2767C76.8818 42.0007 63.1138 42.7666 41.1272 44.7893C26.5936 46.1232 -0.446898 48.6131 2.54253 36.7006C-4.77436 52.2089 31.4189 49.3769 43.307 48.4466Z" fill="#B83856"/>
<path d="M38.2796 40.2723C62.7476 37.4081 72.0359 37.616 78.2174 44.492C78.1101 44.3491 78.0039 44.1943 77.8966 44.0514L76.5122 42.2736L75.0795 40.624C74.9103 40.4331 74.7454 40.2607 74.5762 40.0698C67.7866 33.1125 52.7415 35.2013 33.7326 37.8475C20.3629 39.7072 5.20133 41.8151 2.55459 36.7015C2.03872 44.5122 23.8516 41.9602 38.2916 40.2734L38.2796 40.2723Z" fill="#B83856"/>
<path d="M31.7923 34.5326C53.3499 30.7131 62.2127 30.1809 69.0199 34.8279C67.9245 33.9585 66.465 32.9161 65.226 32.0332C64.9653 31.8517 64.7036 31.6823 64.4429 31.5009C56.926 27.2762 45.2476 29.4455 25.3451 33.6377C11.2681 36.602 6.37142 37.259 2.548 36.707C6.40319 39.0427 17.0535 37.1511 31.7977 34.5391L31.7923 34.5326Z" fill="#B83856"/>
<path d="M57.891 27.8676C57.729 27.7921 57.5671 27.7165 57.4052 27.6409L55.2077 26.6801L53.8315 26.1646C53.5804 26.0747 53.3239 25.9782 53.0728 25.8882C48.7523 24.5229 43.5248 25.167 36.5102 26.6514C24.931 29.1138 13.9003 33.4505 2.54947 36.6949C6.51419 36.1918 13.1073 34.4385 21.4473 32.2093C43.5759 26.2945 51.1644 25.3831 57.8975 27.8622L57.891 27.8676Z" fill="#B83856"/>
<path d="M46.2551 23.987C46.1006 23.9604 45.9593 23.923 45.7929 23.8953C45.6917 23.8797 45.5971 23.8588 45.4905 23.8367C45.372 23.8135 45.2415 23.7892 45.1164 23.7714C43.9221 23.5688 42.6125 23.3734 41.5596 23.2082C34.9312 22.5075 21.8051 27.046 2.53729 36.694C33.1506 23.7287 40.7531 23.2472 46.2497 23.9804L46.2551 23.987Z" fill="#B83856"/>
<path d="M33.9858 22.8712C33.0041 22.9118 31.9484 22.9697 31.0451 23.0116C30.8622 23.0307 30.6859 23.0443 30.503 23.0634C24.582 23.8295 15.1763 28.4094 2.54947 36.6949C10.6263 31.8032 25.4827 23.5579 34.8499 22.8617C34.5539 22.8641 34.2764 22.8622 33.9924 22.8658L33.9858 22.8712Z" fill="#B83856"/>
<path d="M11.661 29.1352C12.7316 28.4691 13.815 27.8586 14.9234 27.3046C16.8004 26.2132 17.0576 26.1106 18.6504 25.4754C18.6068 25.4894 18.5447 25.5078 18.5012 25.5218C17.6668 25.7936 16.5774 26.2104 15.7462 26.5127L15.7331 26.5235C13.8211 27.2796 11.9931 28.6835 9.8729 30.3074C9.96995 30.238 10.079 30.1698 10.176 30.1005C9.04747 30.8698 7.93724 31.7012 6.85729 32.5958C5.25989 34.0514 5.05362 34.2554 2.54903 36.6944C6.67007 32.9826 8.63454 31.4105 11.6675 29.1298L11.661 29.1352ZM10.7877 29.6931C10.9938 29.5555 11.2053 29.4244 11.4113 29.2868C11.1998 29.4179 10.9938 29.5555 10.7877 29.6931Z" fill="#B83856"/>
</g>
</g>
</svg>
