<svg width="150" height="80" viewBox="0 0 150 80" fill="none" xmlns="http://www.w3.org/2000/svg">
<path fill-rule="evenodd" clip-rule="evenodd" d="M122.671 39.6697C121.21 34.4519 116.332 29.7085 104.473 29.7085C94.6798 29.7085 89.9444 31.5686 88.5196 32.8123C87.5794 33.6228 87.1799 34.141 87.1799 35.6955V63.8239C87.1799 66.4375 89.2906 68.5567 91.894 68.5567H97.4643C100.069 68.5567 102.181 66.4375 102.181 63.8226V39.2312C102.181 37.193 108.043 36.4051 108.043 40.7459C108.043 42.0042 108.003 63.8253 108.003 63.8253C108.003 66.4401 110.11 68.5594 112.717 68.5594H118.283C120.888 68.5594 123 66.4428 123 63.8293V43.4737C123 41.5232 122.76 40.0231 122.658 39.6643L122.671 39.6697ZM43.3553 29.2793C31.7606 29.2793 28.0453 32.8601 27.4954 33.8154C26.5313 35.4976 27.9801 38.7808 30.465 38.9628C32.4757 39.109 39.3071 35.3142 47.1545 37.565C49.9057 38.3543 49.4796 41.7743 49.4796 42.8585C49.4796 43.9441 48.8004 44.3387 47.3223 44.3387C45.8442 44.3387 27 42.0693 27 56.4696C27 67.418 39.7439 68.9992 45.0039 68.9992C50.2639 68.9992 63.0078 69.1945 63.0078 63.4718V41.7743C63.0078 35.5932 56.7224 29.2806 43.3607 29.2806L43.3553 29.2793ZM49.1294 59.3808C49.1294 60.8756 48.2065 62.2773 45.3874 62.2773C43.2515 62.2773 41.4058 60.3773 41.4058 56.1587C41.4058 52.3799 43.2035 50.0401 45.3874 50.0401C47.9628 50.0401 49.1294 51.6478 49.1294 52.7241V59.3808Z" fill="#B8B8B8"/>
<path d="M84.5046 10H64.3834C62.2488 10 62.1129 12.2189 62.1129 12.2189V27.4457C62.1129 30.4432 65.1558 30.3755 65.1558 30.3755V33.4541C65.0998 35.7474 66.7085 35.8058 69.3798 34.2685L76.3257 30.329H84.3688C86.5927 30.329 86.9575 27.9294 86.9575 27.9294V12.7158C86.9575 10.2285 84.5046 10 84.5046 10ZM83.7776 27.16H77.873C75.6931 27.16 74.2856 28.0662 74.2856 28.0662L67.8617 31.8995V29.933C67.8617 26.9966 65.1558 27.0232 65.1558 27.0232V12.9896H83.7776V27.16Z" fill="#B8B8B8"/>
<path style="mix-blend-mode:overlay" d="M84.5046 10H64.3834C62.2488 10 62.1129 12.2189 62.1129 12.2189V27.4457C62.1129 30.4432 65.1558 30.3755 65.1558 30.3755V33.4541C65.0998 35.7474 66.7085 35.8058 69.3798 34.2685L76.3257 30.329H84.3688C86.5927 30.329 86.9575 27.9294 86.9575 27.9294V12.7158C86.9575 10.2285 84.5046 10 84.5046 10ZM83.7776 27.16H77.873C75.6931 27.16 74.2856 28.0662 74.2856 28.0662L67.8617 31.8995V29.933C67.8617 26.9966 65.1558 27.0232 65.1558 27.0232V12.9896H83.7776V27.16Z" fill="#B8B8B8"/>
<path d="M80.9172 21.6313H68.5168V23.9459H80.9172V21.6313Z" fill="#B8B8B8"/>
<path style="mix-blend-mode:overlay" d="M80.9172 21.6313H68.5168V23.9459H80.9172V21.6313Z" fill="#B8B8B8"/>
<path d="M80.9172 17.0514H68.5168V19.3633H80.9172V17.0514Z" fill="#B8B8B8"/>
<path style="mix-blend-mode:overlay" d="M80.9172 17.0514H68.5168V19.3633H80.9172V17.0514Z" fill="#B8B8B8"/>
<path fill-rule="evenodd" clip-rule="evenodd" d="M78.3152 34.1715C76.5614 34.1715 75.6146 34.6007 75.6146 34.6007C75.6146 34.6007 69.7686 37.7098 69.1561 38.038C67.5781 38.8778 67.658 40.3393 67.658 40.3393V63.8359C67.658 66.4508 69.77 68.57 72.3747 68.57H77.941C80.547 68.57 82.659 66.4574 82.659 63.8399V36.6137C82.659 35.2451 82.0198 34.1729 80.6882 34.1729H78.3152V34.1715Z" fill="#B8B8B8"/>
</svg>
