<svg width="150" height="80" viewBox="0 0 150 80" fill="none" xmlns="http://www.w3.org/2000/svg">
<g clip-path="url(#clip0_2_166)">
<path fill-rule="evenodd" clip-rule="evenodd" d="M11.058 34.3209H12.0569H15.7395V51.5847H11.058V38.2565H5.56483V51.5847H0.884859V38.2565H-1V34.3209H0.884859V33.5603C0.884859 28.5882 2.17673 27 5.98308 27C7.13687 27 9.96465 27.4488 9.96465 27.4488L9.89388 31.2116C9.89388 31.2116 8.35845 31.1426 7.24131 31.1426C5.91477 31.1426 5.56483 31.8336 5.56483 33.5946V34.3209H11.058ZM139.188 43.2626C137.059 43.4711 136.22 44.4725 136.22 46.372C136.22 48.3732 137.094 49.5484 138.874 49.5484C141.457 49.5484 144.355 48.477 144.355 48.477V42.78L139.188 43.2626ZM146.974 48.1667C147.045 49.1681 147.884 49.5484 149 49.6859L148.896 51.7226C147.045 51.7226 145.788 51.3779 144.74 50.3428C144.74 50.3428 141.597 51.7226 138.455 51.7226C135.277 51.7226 133.532 49.9277 133.532 46.441C133.532 43.1251 135.277 41.6749 138.874 41.3298L144.355 40.812V39.3271C144.355 36.9103 143.309 36.0469 141.214 36.0469C138.77 36.0469 134.614 36.4952 134.614 36.4952L134.508 34.5272C134.508 34.5272 138.35 33.7676 141.354 33.7676C145.298 33.7676 146.974 35.5643 146.974 39.3271V48.1667ZM130.056 34.114V51.3777H127.436V50.1698C127.436 50.1698 124.818 51.7228 122.267 51.7228C117.379 51.7228 116.367 49.4792 116.367 43.1249V34.114H118.986V43.0912C118.986 47.8558 119.405 49.4102 122.653 49.4102C125.236 49.4102 127.436 48.1328 127.436 48.1328V34.114H130.056ZM20.1041 51.5849V34.3211H24.7488V35.2868C24.7488 35.2868 27.1242 33.9051 29.114 33.9051C34.0024 33.9051 35.2597 36.944 35.2597 42.2274V51.5849H30.5798V42.3649C30.5798 39.7406 30.2317 38.0496 27.9604 38.0496C26.3205 38.0496 24.7825 38.6702 24.7825 38.6702V51.5849H20.1041ZM42.6642 46.1987C42.6642 44.955 43.3972 44.3682 44.6193 44.2644L47.7976 43.9884V47.6826C47.7976 47.6826 45.8765 48.2357 44.3742 48.2357C43.1175 48.2357 42.6642 47.4071 42.6642 46.1987ZM53.6291 48.5117C52.6863 48.3394 52.5467 47.9249 52.476 46.8893V39.7063C52.476 35.6671 50.6603 33.9051 46.121 33.9051C42.7681 33.9051 39.032 34.9075 39.032 34.9075L39.1719 38.1181C39.1719 38.1181 43.4327 37.8416 45.7369 37.8416C47.134 37.8416 47.7974 38.2214 47.7974 39.7063V40.7772L44.0613 41.0528C40.2188 41.3298 37.9498 42.4344 37.9498 46.3367C37.9498 49.9972 39.6956 52 43.3625 52C45.9819 52 48.4959 50.79 48.4959 50.79C49.9635 51.7582 51.1498 52 53.489 52L53.6291 48.5117ZM56.5313 51.5849V34.3211H61.176V35.2868C61.176 35.2868 63.5499 33.9051 65.5397 33.9051C70.4291 33.9051 71.6869 36.944 71.6869 42.2274V51.5849H67.007V42.3649C67.007 39.7406 66.6579 38.0496 64.3881 38.0496C62.7462 38.0496 61.2102 38.6702 61.2102 38.6702V51.5849H56.5313ZM87.5091 38.326L87.6497 34.6656C87.6497 34.6656 84.088 33.905 82.062 33.905C76.8599 33.905 74.6943 36.6688 74.6943 42.7799C74.6943 49.2712 76.7535 51.9998 81.9581 51.9998C83.9127 51.9998 87.6497 51.274 87.6497 51.274L87.5091 47.5802C87.5091 47.5802 84.7863 47.8558 83.4589 47.8558C80.1069 47.8558 79.4431 46.6474 79.4431 42.7799C79.4431 39.3269 80.0717 38.0495 83.4231 38.0495C84.7511 38.0495 87.5091 38.326 87.5091 38.326ZM100.442 41.399C100.442 38.6014 99.6391 37.7038 97.4385 37.7038C95.2047 37.7038 94.4365 38.7742 94.4008 41.399H100.442ZM104.423 47.6139L104.494 51.0326C104.494 51.0326 100.478 51.9998 97.231 51.9998C91.9574 51.9998 89.7211 49.4101 89.7211 43.1938C89.7211 37.048 92.3405 33.9048 97.4388 33.9048C102.573 33.9048 105.053 36.4949 105.053 41.7098L104.703 44.92H94.4367C94.473 46.9923 95.449 47.9251 97.9635 47.9251C100.827 47.9251 104.423 47.6139 104.423 47.6139ZM111.276 51.5848C112.288 51.5848 113.107 50.7738 113.107 49.7734C113.107 48.773 112.288 47.9611 111.276 47.9611C110.262 47.9611 109.443 48.773 109.443 49.7734C109.443 50.7738 110.262 51.5848 111.276 51.5848Z" fill="#B8B8B8"/>
</g>
<defs>
<clipPath id="clip0_2_166">
<rect width="150" height="80" fill="white"/>
</clipPath>
</defs>
</svg>
