<svg width="150" height="80" viewBox="0 0 150 80" fill="none" xmlns="http://www.w3.org/2000/svg">
<path d="M14.4806 23.6355H17.7656C19.7661 23.3427 21.8091 23.6001 23.6727 24.3797C26.0108 25.7771 27.7066 28.0268 28.3985 30.6488C28.8883 32.0228 28.8883 32.0228 30.0698 31.5362H30.9919V20.6584H0.0729034V22.5763H1.34078C1.89175 22.5725 2.43657 22.6914 2.93522 22.9242C3.43387 23.1571 3.87367 23.4979 4.22233 23.9217C5.40376 25.811 5.60547 27.9293 5.60547 38.9503C5.60547 50.6582 5.34613 53.5208 4.22233 54.9807C3.94489 55.356 3.5857 55.6643 3.17156 55.8824C2.75742 56.1005 2.29904 56.2228 1.83064 56.2403C0.0729035 56.5551 0.0729034 56.5265 0.0729034 57.2994C-0.0243011 57.5579 -0.0243011 57.8425 0.0729034 58.1009H19.5809C19.71 57.8481 19.7773 57.5686 19.7773 57.2851C19.7773 57.0016 19.71 56.7221 19.5809 56.4693C19.1085 56.3387 18.6269 56.243 18.1402 56.183C17.6137 56.1208 17.0932 56.0155 16.5841 55.8681C15.8552 55.3394 15.2777 54.6309 14.9088 53.8126C14.5398 52.9943 14.3923 52.0945 14.4806 51.2021C14.1925 49.3128 14.0484 45.8491 14.0484 42.9865V40.7251H15.201C16.637 40.6814 18.0722 40.8356 19.4657 41.1831C20.1332 41.5929 20.7015 42.1441 21.1299 42.7972C21.5582 43.4504 21.8362 44.1895 21.9438 44.9617L22.2032 45.8491H23.9609V33.1679H22.3472L22.0879 34.3988C21.9788 35.1885 21.6847 35.9417 21.2293 36.598C20.7739 37.2542 20.1698 37.7952 19.4657 38.1774C18.7838 38.379 18.0654 38.4279 17.3622 38.3205H14.0484V35.2289C14.0484 32.0228 14.2213 25.2671 14.3365 24.208L14.4806 23.6355ZM149.337 46.3357C147.975 44.1579 145.85 42.5572 143.372 41.8415C141.472 41.2515 139.716 40.2768 138.214 38.9789C137.876 38.6542 137.623 38.2523 137.478 37.8082C137.332 37.3641 137.298 36.8914 137.378 36.4312C137.381 35.5286 137.743 34.6638 138.387 34.0266C138.823 33.5728 139.375 33.2452 139.984 33.0788C140.593 32.9124 141.236 32.9135 141.845 33.082C143.105 33.4386 144.244 34.1271 145.142 35.0746C146.039 36.022 146.663 37.193 146.945 38.4636C147.406 39.7518 147.464 39.7518 148.299 39.4083L148.818 39.2079V32.0801L148.444 31.9083C145.607 30.9185 142.597 30.5096 139.597 30.706C137.014 30.7711 134.547 31.7919 132.682 33.5686C131.835 34.3555 131.173 35.3166 130.739 36.3847C130.306 37.4528 130.114 38.602 130.175 39.7518C130.191 41.5098 130.893 43.1929 132.134 44.4464C133.505 45.7861 135.188 46.7693 137.033 47.309C141.499 49.0552 142.796 50.1716 142.796 52.204C142.815 53.0611 142.54 53.8992 142.016 54.5806C141.493 55.2621 140.751 55.7464 139.914 55.954C138.908 56.1736 137.866 56.1736 136.86 55.954C135.542 55.4461 134.366 54.633 133.429 53.5825C132.492 52.5319 131.821 51.2742 131.471 49.914L131.097 48.9979H130.578C130.33 49.0162 130.087 49.0742 129.858 49.1697H129.569V57.2994H130.059C132.006 57.9428 134.015 58.384 136.053 58.6162H138.934C140.184 58.7073 141.44 58.5912 142.652 58.2727C144.189 57.9908 145.626 57.314 146.819 56.3097C148.012 55.3053 148.92 54.0083 149.452 52.5475C149.796 51.7316 149.972 50.8557 149.971 49.9712C150.084 48.7251 149.866 47.4713 149.337 46.3357ZM122.193 31.5362C120.466 30.816 118.605 30.4666 116.733 30.511C114.861 30.5554 113.019 30.9926 111.329 31.7938C109.741 32.5658 108.332 33.6602 107.196 35.0062C106.059 36.3523 105.219 37.9202 104.731 39.6087C104.107 41.4506 103.843 43.3937 103.953 45.3338C103.932 46.3894 104.019 47.4444 104.212 48.4827C104.677 51.0355 105.918 53.3858 107.767 55.2177C109.616 57.0497 111.986 58.2756 114.557 58.7307C116.231 58.9403 117.925 58.9403 119.599 58.7307C121.337 58.4265 122.999 57.7949 124.498 56.87C125.737 56.1797 126.787 55.1965 127.552 54.0075C127.503 53.8209 127.417 53.6461 127.298 53.4936C127.179 53.3411 127.03 53.2141 126.861 53.1201C126.532 53.2384 126.221 53.4022 125.939 53.6067C124.505 54.545 122.813 55.0154 121.098 54.9521C119.959 55.0286 118.818 54.8525 117.756 54.4366C116.695 54.0207 115.74 53.3754 114.96 52.5475C114.357 51.9911 113.859 51.3319 113.49 50.601C112.595 48.8214 112.113 46.865 112.078 44.8758V43.7594H128.042V43.1869C128.077 42.6149 128.077 42.0413 128.042 41.4694C128.036 39.4481 127.492 37.4644 126.465 35.7197C125.437 33.9751 123.963 32.5317 122.193 31.5362ZM114.153 41.4407H112.136V39.7518C112.799 35.4293 114.441 32.853 116.458 32.853C118.476 32.853 119.34 35.4007 119.715 40.0667V41.3835H117.986L114.153 41.4407ZM72.7166 30.5915C71.7209 30.5532 70.7311 30.7597 69.8351 31.1927C67.8875 32.1323 66.3145 33.695 65.3687 35.6297L64.9941 36.3167V30.5915H64.85C64.5042 30.5915 53.8425 32.7099 53.4967 32.853C53.1509 32.9961 53.2662 33.0247 53.2662 33.54C53.2662 34.0553 53.2662 34.1411 53.4967 34.1698L54.6205 34.3988C54.9353 34.4064 55.2441 34.4852 55.5237 34.629C55.8033 34.7728 56.0462 34.978 56.2342 35.2289C56.9546 36.1736 57.0986 37.8339 57.0986 44.9044C57.241 48.0875 57.106 51.2769 56.6952 54.4368C56.5985 54.9133 56.3553 55.3482 55.9992 55.6815C55.643 56.0148 55.1915 56.23 54.707 56.2975L53.7272 56.4979H53.3526V57.2994C53.2481 57.5664 53.2481 57.8626 53.3526 58.1296H69.4605V57.2994C69.5163 57.0255 69.5163 56.7432 69.4605 56.4693C68.4906 56.4317 67.5262 56.3072 66.5789 56.0971C66.0631 55.8291 65.6411 55.4121 65.3684 54.9011C65.0958 54.3901 64.9854 53.8091 65.0517 53.2346C64.8212 51.5743 64.7059 46.7079 64.7635 42.9865C64.8212 39.2652 64.7635 39.0362 65.0805 38.7785C66.0448 38.0441 67.2379 37.6692 68.4519 37.7194C69.5962 37.7442 70.7198 38.0281 71.7369 38.5495C72.0895 38.744 72.4678 38.8886 72.8607 38.9789C72.8607 38.9789 75.7422 32.0515 75.7422 31.7366C75.3735 31.3109 74.9037 30.9833 74.3754 30.7833C73.8471 30.5834 73.277 30.5175 72.7166 30.5915ZM53.295 42.6144C53.1944 40.5688 52.6033 38.5767 51.5707 36.8041C50.5382 35.0314 49.0942 33.5296 47.359 32.4236C45.297 31.3185 43.0028 30.7092 40.6608 30.6445C38.3187 30.5799 35.994 31.0618 33.8734 32.0515C30.8751 33.6221 28.6113 36.292 27.5628 39.4942C26.4798 43.0793 26.4798 46.9013 27.5628 50.4865C28.1306 52.4458 29.1917 54.2291 30.6461 55.6677C32.4574 57.4235 34.793 58.5485 37.3024 58.8738C38.9133 59.0077 40.5326 59.0077 42.1434 58.8738C42.7362 58.7842 43.3231 58.66 43.9012 58.5017C46.2466 57.8499 48.3568 56.548 49.9846 54.7484C51.6125 52.9487 52.6908 50.7257 53.0933 48.3395C53.381 46.4451 53.4487 44.5241 53.295 42.6144ZM41.3078 56.9273C38.4262 57.7861 36.2651 55.0094 35.5447 49.1697C35.2801 46.1124 35.2801 43.0381 35.5447 39.9808C36.121 35.2862 37.5906 32.9102 39.867 32.9102C40.3263 32.882 40.7857 32.9634 41.2068 33.1476C41.6279 33.3319 41.9985 33.6137 42.2875 33.9694C44.2181 35.8873 45.1691 39.6946 45.1691 45.4197C45.4088 48.6598 44.8962 51.9114 43.6707 54.9235C43.1295 55.802 42.2923 56.4613 41.3078 56.7842V56.9273ZM93.1756 31.1641C92.3625 31.0601 91.5393 31.0601 90.7262 31.1641C89.1655 31.1627 87.6226 31.4947 86.2022 32.1373L85.309 32.5095V26.2977C85.4651 24.2013 85.4651 22.0964 85.309 20C84.9632 20 73.9557 22.0897 73.7828 22.1756C73.6978 22.3869 73.6978 22.6226 73.7828 22.834C73.7828 23.4351 73.7828 23.4065 75.0795 23.6927C75.4436 23.7738 75.7933 23.9089 76.1168 24.0935C76.6793 24.6189 77.0537 25.3125 77.183 26.0687C77.5111 28.2472 77.6173 30.453 77.5 32.6526V57.7861L78.278 57.9578C79.4306 58.2154 82.6868 58.7593 83.7529 58.8738C85.8819 59.0421 88.021 59.0421 90.1499 58.8738C92.513 58.6341 94.7654 57.7583 96.6645 56.3408C98.5636 54.9234 100.037 53.018 100.927 50.83C101.457 49.4257 101.825 47.9659 102.022 46.4789C102.193 44.4646 102.126 42.4373 101.82 40.4388C101.511 38.1986 100.516 36.1071 98.9693 34.4479C97.4229 32.7888 95.4002 31.6423 93.1756 31.1641ZM85.6259 56.4406C85.6259 56.0685 85.3378 43.5304 85.3954 38.5209V34.5992L86.231 34.3988C86.7949 34.3185 87.3673 34.3185 87.9312 34.3988C88.5547 34.3358 89.1819 34.4765 89.7177 34.7995C90.7938 35.5373 91.6874 36.508 92.3313 37.6385C92.9752 38.769 93.3525 40.0299 93.4349 41.3262C93.6448 43.4107 93.6448 45.5108 93.4349 47.5953C93.2624 50.6249 92.0874 53.5131 90.0923 55.8109C89.5261 56.3452 88.8149 56.7034 88.0464 56.8414C87.4649 56.9419 86.8702 56.9419 86.2887 56.8414C85.7412 56.8414 85.7412 56.6697 85.7412 56.4406H85.6259Z" fill="#B8B8B8"/>
</svg>
