<svg width="75" height="101" viewBox="0 0 75 101" fill="none" xmlns="http://www.w3.org/2000/svg">
<g opacity="0.9">
<path d="M33.0446 9.68516C33.5317 9.23846 34.0483 8.81533 34.5961 8.43345C28.6504 3.84962 22.5241 3.15515 17.356 6.46625C16.3485 7.22032 15.0542 8.29186 14.0977 9.1029C18.7138 4.83366 26.5213 4.88773 33.0358 9.68613L33.0446 9.68516Z" fill="#B83856"/>
<path d="M37.0629 6.97396C37.6902 6.66378 38.3389 6.38699 39.0181 6.14261C34.8965 1.89463 29.8952 0.540412 25.8242 2.04202L25.7555 2.06744C24.6671 2.49082 23.236 3.13056 22.171 3.60498C26.5264 1.43765 32.2844 2.5211 37.0629 6.97396Z" fill="#B83856"/>
<path d="M41.9792 5.27222C42.7201 5.10149 43.4825 4.96414 44.2654 4.85134C41.4254 1.0435 37.8646 -0.620849 34.5934 -0.136481L33.2051 0.0785499L30.8884 0.547461C34.5132 -0.297459 38.6362 1.27832 41.988 5.27125L41.9792 5.27222Z" fill="#B83856"/>
<path d="M47.6371 4.55257C48.4651 4.52419 49.3136 4.52037 50.1739 4.54206C48.3546 1.15832 45.9131 -0.566406 43.4313 -0.624495L40.6954 -0.636801L39.7419 -0.612511C42.5437 -0.732553 45.4138 0.989775 47.6273 4.54471L47.6371 4.55257Z" fill="#B83856"/>
<path d="M53.8663 4.7979C54.7618 4.89616 55.67 5.02877 56.59 5.18689C55.6089 2.19366 54.0698 0.548562 52.3044 0.259872C51.203 0.0769908 49.7259 -0.109312 48.6186 -0.264733C50.6636 -0.0335652 52.5558 1.65318 53.8574 4.79887L53.8663 4.7979Z" fill="#B83856"/>
<path d="M60.4863 6.00094C61.4238 6.23757 62.3721 6.49089 63.3242 6.77952C63.0627 4.15409 62.2661 2.67768 61.1394 2.34566C60.0401 2.01956 58.5593 1.63706 57.4629 1.33744C58.8496 1.67666 59.9405 3.228 60.4863 6.00094Z" fill="#B83856"/>
<path d="M67.3423 8.13455C68.3022 8.49382 69.2651 8.8796 70.2318 9.30068C70.6251 7.02335 70.4707 5.78025 69.8991 5.53919L66.2615 4.07094C67.0626 4.36723 67.469 5.70777 67.3511 8.13358L67.3423 8.13455Z" fill="#B83856"/>
<path d="M77.1131 12.7186C78.1171 10.7942 78.5578 9.84322 78.4823 9.80683L77.8814 9.46175L74.9287 7.88254C75.2032 8.02218 75.0086 9.09807 74.2624 11.1729C75.2182 11.6577 76.177 12.169 77.121 12.7088L77.1131 12.7186Z" fill="#B83856"/>
<path d="M81.5906 63.4154C85.1988 70.2309 84.9121 81.2097 80.9414 87.9371C78.929 91.3395 76.3685 93.0059 73.8583 92.933L76.9346 92.9526L77.5408 92.9397C80.1229 92.8527 82.6481 91.1902 84.5622 87.9505C88.5329 81.2231 88.3457 70.2428 84.148 63.4294C83.3112 63.4588 82.4616 63.4538 81.6004 63.4233L81.5906 63.4154Z" fill="#B83856"/>
<path d="M71.8177 86.9639C69.6253 90.681 67.1374 92.3573 64.9885 91.9945C66.0909 92.1862 67.568 92.3725 68.6763 92.5368C76.5383 93.0049 82.2324 74.8729 77.8957 63.1329C76.9992 63.0258 76.0822 62.8942 75.1612 62.7272C77.2776 69.3848 75.7795 80.2375 71.8177 86.9639Z" fill="#B83856"/>
<path d="M62.2343 84.6565C59.9132 88.5843 57.7018 90.3375 56.1495 89.8735C57.2498 90.2084 58.7217 90.5919 59.8279 90.8993C61.647 91.3519 63.9967 89.6372 66.2725 85.7858C70.2433 79.0584 72.4739 68.3666 71.2549 61.9053C70.3085 61.6697 69.3681 61.4066 68.4062 61.1101C68.9622 67.3939 66.1972 77.9389 62.2255 84.6575L62.2343 84.6565Z" fill="#B83856"/>
<path d="M64.4028 59.7268C63.4419 59.3587 62.4781 58.9641 61.5124 58.5519C60.4751 64.2422 56.4148 74.3039 52.4441 81.0313C50.0561 85.0826 48.2379 86.9981 47.4026 86.6341L51.0421 88.12C52.1883 88.5482 54.1752 86.7035 56.5415 82.6992C60.5122 75.9718 64.0303 65.6927 64.4028 59.7268Z" fill="#B83856"/>
<path d="M57.4958 56.6421C56.539 56.1484 55.5891 55.6361 54.6353 55.0885C52 59.9802 46.6525 69.3879 42.6818 76.1153C40.2634 80.2147 38.9177 82.3643 38.8324 82.32L39.7666 82.8519L42.387 84.2531C42.784 84.4508 44.3287 82.4045 46.7403 78.3238C50.711 71.5963 55.5252 61.8898 57.4958 56.6421Z" fill="#B83856"/>
<path d="M50.7039 52.661C50.3569 52.431 50.0187 52.2 49.6708 51.9612C49.0906 51.5602 48.5192 51.1583 47.9645 50.7456C43.7884 54.6269 37.1823 63.2345 33.2106 69.953C30.8148 74.0142 29.922 76.4626 30.5169 76.9155L32.6495 78.4329L33.9335 79.3017C33.6052 79.0786 34.6823 76.7619 37.0928 72.6723C41.0636 65.9449 47.1492 56.9924 50.695 52.662L50.7039 52.661Z" fill="#B83856"/>
<path d="M44.3979 47.9653C43.5816 47.2864 42.7997 46.5948 42.0433 45.8914C36.4923 48.6458 28.776 56.3387 24.8131 63.0563C22.4773 67.0125 21.9647 69.7498 23.0611 70.7822L26.0301 73.4052L26.0497 73.4209C25.1246 72.6467 25.7833 70.0185 28.1574 66.0044C32.1282 59.277 39.4006 51.204 44.3979 47.9653Z" fill="#B83856"/>
<path d="M39.0519 42.9037C38.374 42.1828 37.7314 41.458 37.1143 40.7215C30.423 42.2875 21.777 49.0011 17.8151 55.7275C15.6001 59.4828 15.3099 62.4548 16.6489 64.0683C17.3894 64.9521 18.4336 66.0796 19.1987 66.9429C17.9222 65.5728 18.284 62.6823 20.5598 58.8309C24.5305 52.1035 32.8093 44.9745 39.0529 42.9125L39.0519 42.9037Z" fill="#B83856"/>
<path d="M34.7111 37.6347C34.1833 36.8973 33.681 36.1481 33.215 35.404C25.6199 35.7377 16.2482 41.4586 12.2765 48.1772C10.2356 51.6453 10.0168 54.6988 11.3375 56.7968C11.9328 57.7413 12.7905 58.9607 13.4103 59.8846C12.0561 57.969 12.2767 54.9332 14.4012 51.3308C18.3719 44.6034 27.4567 38.4671 34.7092 37.617L34.7111 37.6347Z" fill="#B83856"/>
<path d="M9.77278 43.7692C13.7435 37.0418 23.448 31.9099 31.4533 32.2997C31.0765 31.5547 30.7361 30.8146 30.4231 30.0804C22.1831 29.1802 12.2809 33.8959 8.31904 40.6224C6.52588 43.6611 6.24943 46.5959 7.25289 48.9789L7.3272 49.1674C7.73604 50.1234 8.34561 51.3612 8.7888 52.3045C7.63416 50.0095 7.87538 46.9982 9.78258 43.7771L9.77278 43.7692Z" fill="#B83856"/>
<path d="M6.75243 36.2904C10.7232 29.563 20.8217 25.4155 29.3189 27.0293C29.1059 26.3109 28.9283 25.5887 28.7791 24.8812C20.1561 22.7719 9.95108 26.52 5.98918 33.2465C4.54993 35.6834 4.1269 38.1784 4.58406 40.4696L4.93425 42.0308L5.49176 44.0964C4.79241 41.7157 5.15587 39.0038 6.7534 36.2993L6.75243 36.2904Z" fill="#B83856"/>
<path d="M5.42789 29.1078C9.39861 22.3804 19.6735 19.1876 28.3879 21.9661C28.3398 21.2832 28.3367 20.6044 28.363 19.9491C19.6414 16.6979 9.36105 19.5159 5.39033 26.2433C4.42591 27.8774 3.9254 29.5856 3.83592 31.2934C3.7955 32.2272 3.82433 33.4662 3.82902 34.4041L3.87506 35.2301C3.75109 33.2062 4.23639 31.1154 5.42003 29.1176L5.42789 29.1078Z" fill="#B83856"/>
<path d="M4.78484 24.8799C4.69225 25.176 4.61829 25.4791 4.55316 25.7811C4.6212 25.5056 4.70302 25.1927 4.78484 24.8799Z" fill="#B83856"/>
<path d="M28.7098 17.2482C28.8469 16.6255 29.0204 16.0077 29.2232 15.4135C20.7079 11.1119 10.5846 13.0815 6.61392 19.8089C6.23739 20.449 5.93344 21.099 5.69421 21.7687C5.39286 22.6866 5.06375 23.8398 4.79364 24.8793C5.04976 24.0379 5.41476 23.2114 5.88959 22.4086C9.86032 15.6812 20.0801 13.3702 28.7186 17.2473L28.7098 17.2482Z" fill="#B83856"/>
<path d="M30.3367 13.021L30.3593 12.9827C30.6759 12.4475 31.0307 11.9349 31.4227 11.4361C23.9529 6.5639 14.9985 7.29707 10.6074 12.8821C9.85178 13.8945 8.91512 15.2931 8.22709 16.3517L8.17401 16.438L8.18876 16.4096C12.1595 9.68215 22.0732 8.16443 30.3279 13.0219L30.3367 13.021Z" fill="#B83856"/>
</g>
</svg>
