<svg width="80" height="82" viewBox="0 0 80 82" fill="none" xmlns="http://www.w3.org/2000/svg">
<path d="M60.7106 68.5559C60.8393 68.5704 60.968 68.5849 61.09 68.5997C61.1915 68.6087 61.2927 68.611 61.4009 68.6196L61.3336 68.6226C61.1371 68.5976 60.9274 68.58 60.7042 68.5629L60.7106 68.5559Z" fill="#C9EA32"/>
<path d="M67.9185 67.7103C67.6463 67.8033 67.367 67.8898 67.0872 67.9628C67.3068 67.8992 67.5793 67.813 67.9185 67.7103Z" fill="#C9EA32"/>
<path d="M61.3415 68.043C61.0829 67.9871 60.8237 67.9177 60.5642 67.8416C60.5977 67.9883 60.6241 68.1287 60.6505 68.2691C61.1747 68.3874 61.6975 68.4721 62.2321 68.5225C63.159 68.6028 64.0946 68.5749 65.0117 68.4331L65.2995 68.3867C65.8814 68.2868 66.142 68.2348 66.5747 68.1146C66.7212 68.0744 66.8809 68.0269 67.0806 67.9708C66.3077 68.1736 65.5112 68.2965 64.711 68.3386C63.5882 68.4018 62.4516 68.3039 61.335 68.05L61.3415 68.043Z" fill="#C9EA32"/>
<path d="M67.9182 67.7108L67.9317 67.7102L68.0176 67.6727L67.9846 67.6876C67.9846 67.6876 67.9381 67.7031 67.9182 67.7108Z" fill="#C9EA32"/>
<path d="M60.1811 66.1939C60.246 66.4404 60.3111 66.6937 60.3695 66.9472C63.7012 68.215 68.0706 68.4124 72.4922 65.2241L72.499 65.2238L72.4984 65.2104C72.8371 64.946 73.0128 64.8034 73.246 64.5909C73.4789 64.3716 73.7758 64.0754 74.3498 63.4906C74.5105 63.315 74.6829 63.0984 74.8556 62.8886L74.8299 62.9167C71.516 66.7703 65.7587 68.562 60.1744 66.1942L60.1811 66.1939Z" fill="#C9EA32"/>
<path d="M75.3092 62.3286C75.1625 62.5171 75.0158 62.7055 74.8554 62.8879C75.0152 62.6921 75.1683 62.4966 75.3092 62.3286Z" fill="#C9EA32"/>
<path d="M77.4068 57.9425C77.1557 58.5131 76.8502 59.0725 76.4968 59.6139C76.1433 60.1552 75.7416 60.6718 75.2919 61.1702C74.1222 62.4554 72.7241 63.4541 71.1985 64.162C69.673 64.8698 68.0264 65.2797 66.353 65.3875C64.6795 65.4953 62.9795 65.3078 61.3533 64.8069C60.7316 64.6188 60.1143 64.3765 59.5224 64.0994L59.5376 64.1392C59.5605 64.1989 59.5766 64.2588 59.5995 64.3184C59.6918 64.5772 59.7769 64.8228 59.8619 65.0684C60.3089 65.271 60.7615 65.4464 61.22 65.6014C62.841 66.1362 64.5357 66.3577 66.2036 66.2771C67.8715 66.1965 69.5123 65.807 71.032 65.1197C72.5517 64.4323 73.9434 63.4406 75.1198 62.1551C75.4284 61.8179 75.7162 61.4682 75.9765 61.1062C76.2368 60.7442 76.4766 60.3764 76.6957 59.996C76.9147 59.6156 77.1066 59.2296 77.2776 58.8312C77.3935 58.5564 77.5027 58.282 77.5981 58.0015C77.6398 57.8783 77.6812 57.7484 77.723 57.6252C77.7343 57.5776 77.7521 57.5228 77.7635 57.4752C77.8799 57.0589 77.9991 56.5549 78.0959 56.1529L78.095 56.1327L78.1066 56.0918C78.1497 55.8472 78.198 55.5688 78.2396 55.2906C78.1858 55.5963 78.1182 55.8958 78.0371 56.196C77.8814 56.7892 77.6783 57.3778 77.4205 57.9487L77.4068 57.9425Z" fill="#C9EA32"/>
<path d="M78.2193 55.285C78.2621 55.0337 78.2979 54.776 78.3272 54.5253C78.3319 54.478 78.3365 54.4306 78.3412 54.3832L78.3432 54.4303C78.3007 54.6883 78.26 54.9866 78.2126 55.2853L78.2193 55.285Z" fill="#C9EA32"/>
<path d="M58.3627 61.3539C58.5481 61.7366 58.7353 62.1596 58.9009 62.55C67.3068 66.5384 79.0994 61.1635 78.3004 50.4286L78.2795 50.2611C78.2104 49.7654 78.0959 49.1571 77.9904 48.6024C77.9555 48.422 77.9208 48.2483 77.8935 48.0877C77.919 48.2079 77.9375 48.3217 77.9564 48.4421C79.7113 58.6965 67.9902 65.9891 58.363 61.3606L58.3627 61.3539Z" fill="#C9EA32"/>
<path d="M76.686 48.6735C76.48 49.6531 76.1257 50.6326 75.6152 51.5853C75.1118 52.5444 74.4521 53.4768 73.6488 54.3616C72.4727 55.6538 71.084 56.7128 69.5837 57.5341C68.0831 58.3486 66.4638 58.9191 64.833 59.2272C63.2018 59.5286 61.5526 59.5747 59.9847 59.3273C58.8583 59.1548 57.7721 58.8255 56.7603 58.3513C56.9941 58.7588 57.2421 59.1859 57.4334 59.5482C57.4554 59.5876 57.4706 59.6274 57.4926 59.6669C58.4566 60.1297 59.4826 60.4684 60.543 60.6708C62.1337 60.9778 63.8058 60.9914 65.4592 60.7362C67.1126 60.481 68.7404 59.9506 70.2556 59.1623C71.7709 58.374 73.1602 57.3285 74.3363 56.0363C75.1013 55.2004 75.7227 54.3169 76.2078 53.399C76.6931 52.4879 77.0489 51.542 77.2634 50.6024C77.4776 49.6561 77.5637 48.7087 77.5159 47.7808C77.4707 46.9133 77.3118 46.0644 77.033 45.2478C77.0101 45.1881 76.994 45.1282 76.9711 45.0685C76.9178 44.9293 76.8568 44.7703 76.7962 44.618C76.637 44.2206 76.4562 43.7905 76.2977 43.4066C76.5943 44.1686 76.7847 44.9689 76.8547 45.7881C76.9438 46.7345 76.8791 47.7079 76.6728 48.6808L76.686 48.6735Z" fill="#C9EA32"/>
<path d="M74.7372 41.1842C74.8648 42.0884 74.82 43.0542 74.6143 44.0406C74.4086 45.027 74.0289 46.0413 73.4872 47.0493C72.9455 48.0573 72.235 49.0593 71.3542 50.0216C70.1781 51.3139 68.8046 52.4126 67.341 53.2997C65.8705 54.1871 64.3096 54.856 62.7379 55.2829C61.1729 55.7094 59.5975 55.9004 58.1178 55.8177C56.9084 55.7499 55.7655 55.5107 54.7216 55.0717C54.83 55.2354 54.938 55.3924 55.0323 55.5432C55.213 55.8183 55.4227 56.1393 55.6323 56.4602C56.6704 56.9197 57.8016 57.1999 58.9795 57.3162C60.5025 57.4644 62.1078 57.3394 63.7088 56.9652C65.3098 56.591 66.8927 55.9615 68.3781 55.1072C69.8634 54.2529 71.2375 53.1676 72.4203 51.8751C73.2754 50.9408 73.9598 49.9602 74.489 48.9729C75.0179 47.979 75.3777 46.9723 75.5834 45.9859C75.7887 44.9928 75.8333 44.0203 75.7179 43.0886C75.6219 42.2908 75.3993 41.5256 75.0641 40.8058C75.0117 40.6868 74.9528 40.5748 74.8939 40.4629C74.6294 39.9691 74.2581 39.3453 73.9655 38.8258C73.9948 38.8784 74.017 38.9246 74.0463 38.9772C74.3999 39.6557 74.628 40.3938 74.7366 41.1708L74.7372 41.1842Z" fill="#C9EA32"/>
<path d="M70.4638 42.2563C69.8817 43.2661 69.1251 44.2903 68.1993 45.3019C67.0164 46.5944 65.672 47.739 64.259 48.7047C62.8392 49.6707 61.3438 50.4514 59.8658 51.0156C58.3879 51.5798 56.9205 51.9278 55.5568 52.0287C54.3408 52.1162 53.2103 52.0045 52.2185 51.6778C52.5904 52.16 52.9628 52.6558 53.3068 53.1191C54.3278 53.4985 55.4812 53.6698 56.7002 53.6495C58.1146 53.6273 59.632 53.3444 61.1463 52.8393C62.6673 52.3338 64.1917 51.5991 65.6331 50.6658C67.0745 49.7325 68.4266 48.6078 69.6095 47.3153C70.5159 46.3248 71.2527 45.3082 71.8143 44.2926C72.383 43.2834 72.7764 42.2752 73.0035 41.3148C73.2302 40.3477 73.2836 39.422 73.1715 38.5643C73.0593 37.7065 72.7686 36.9241 72.3135 36.2366L71.2553 34.7131L71.2049 34.6412L71.0975 34.4977C71.0975 34.4977 71.1332 34.5433 71.1479 34.5696C71.5657 35.1779 71.8263 35.8875 71.9214 36.6651C72.0247 37.476 71.95 38.3757 71.7086 39.3165C71.4671 40.2573 71.0529 41.2529 70.4638 42.2563Z" fill="#C9EA32"/>
<path d="M66.7044 37.267C66.074 38.252 65.2767 39.2713 64.332 40.3106C63.1491 41.6031 61.8404 42.7934 60.478 43.8377C59.1223 44.8818 57.7131 45.7799 56.3493 46.4873C54.9787 47.195 53.6469 47.7123 52.4264 48.0023C51.286 48.2752 50.2507 48.3345 49.3807 48.1709C49.4305 48.2293 49.4803 48.2878 49.5297 48.3395C49.8632 48.7156 50.2619 49.1967 50.6252 49.6389C51.5522 49.8742 52.6312 49.8871 53.8024 49.7004C55.0803 49.4888 56.4759 49.0428 57.8895 48.3939C59.3098 47.7446 60.7484 46.8991 62.1324 45.8875C63.5164 44.8759 64.8395 43.7052 66.0224 42.4127C66.961 41.3871 67.7378 40.362 68.3474 39.3645C68.957 38.3669 69.4064 37.4035 69.6835 36.5083C69.9603 35.6064 70.0717 34.7724 70.005 34.0273C69.9486 33.3625 69.7539 32.7713 69.4221 32.2805C69.3791 32.2217 69.3428 32.1627 69.2997 32.1039L68.8714 31.5635L68.4858 31.0751L67.9231 30.3923C68.3005 30.8474 68.4952 31.4386 68.5256 32.1248C68.5562 32.8176 68.4162 33.6124 68.104 34.4754C67.7987 35.3449 67.3213 36.2826 66.6906 37.2609L66.7044 37.267Z" fill="#C9EA32"/>
<path d="M63.9393 29.6048C63.5489 30.377 63.0012 31.2504 62.315 32.1907C61.6287 33.131 60.7971 34.1383 59.8328 35.192C58.65 36.4845 57.3769 37.7204 56.0924 38.8489C54.8079 39.9774 53.5049 40.9921 52.2623 41.8492C51.0197 42.7063 49.8439 43.3986 48.7938 43.8832C47.7766 44.3529 46.8918 44.6145 46.1987 44.6384C46.2411 44.6837 46.2836 44.729 46.3257 44.7676C46.7004 45.1621 47.1536 45.6543 47.5645 46.1079C48.3356 46.1681 49.2915 45.991 50.3663 45.6064C51.4876 45.2062 52.7339 44.5849 54.0333 43.7927C55.3327 43.0005 56.6782 42.0311 57.9914 40.9417C59.3113 39.8521 60.5987 38.6358 61.7816 37.3433C62.7394 36.2967 63.557 35.2765 64.2154 34.3172C64.8806 33.3576 65.3935 32.4588 65.7481 31.641C66.1031 30.83 66.3 30.1001 66.3267 29.4856C66.3552 28.9115 66.2331 28.4384 65.9614 28.0864C65.9471 28.0668 65.9257 28.0408 65.9046 28.0216L65.635 27.7167L65.4222 27.4768L64.381 26.3367C64.6359 26.6152 64.7225 27.0495 64.6458 27.5988C64.5693 28.1548 64.3294 28.826 63.9393 29.6048Z" fill="#C9EA32"/>
<path d="M43.438 41.8156C43.6985 42.067 43.9596 42.3317 44.2134 42.5833C44.7933 42.4363 45.5712 42.0447 46.4891 41.4648C47.4266 40.8707 48.5101 40.0746 49.6678 39.1269C50.8259 38.186 52.0651 37.0999 53.3071 35.9261C54.5492 34.7523 55.7941 33.4907 56.9837 32.1979C57.9544 31.1372 58.8068 30.1424 59.5279 29.2275C60.2489 28.3127 60.8394 27.4913 61.2863 26.7773C61.7332 26.0633 62.0366 25.4567 62.1842 24.9851C62.3318 24.5136 62.3236 24.1769 62.1541 24.0025L62.0833 23.9247L60.8987 22.7438L60.5039 22.3502C60.5039 22.3502 60.5112 22.3633 60.5182 22.3697C60.6043 22.4872 60.5416 22.7461 60.3501 23.1388C60.146 23.5522 59.7861 24.1006 59.297 24.776C58.808 25.4514 58.1824 26.2407 57.4332 27.1299C56.6841 28.019 55.818 29.0077 54.8472 30.0684C53.6644 31.3609 52.4338 32.642 51.2269 33.848C50.0199 35.0539 48.8369 36.1914 47.7357 37.1973C46.6412 38.2028 45.6282 39.0699 44.7686 39.7482C43.9218 40.4126 43.2355 40.8945 42.7472 41.1318C42.7894 41.1704 42.8318 41.2157 42.874 41.2543C42.9372 41.3121 43.0007 41.3767 43.0642 41.4413C43.0642 41.4413 43.0569 41.4281 43.0499 41.4217L43.4447 41.8153L43.438 41.8156Z" fill="#C9EA32"/>
<path d="M40.6088 39.1169C43.4253 36.2087 57.2577 21.1931 58.0982 20.0843L58.0561 20.0457C57.5854 19.615 57.0589 19.1395 56.6377 18.7605C56.5537 18.6901 56.4694 18.613 56.3851 18.5358L56.3359 18.4908C56.266 18.4333 56.0421 18.551 55.6969 18.8224C55.345 19.0941 54.8586 19.5268 54.2572 20.0993C53.6557 20.6719 52.9459 21.3841 52.1402 22.215C51.3345 23.046 50.4336 24.0093 49.4629 25.07C48.28 26.3625 47.0986 27.6886 45.9763 28.9785C44.8539 30.2683 43.7971 31.5148 42.8504 32.662C41.9037 33.8093 41.0804 34.85 40.4244 35.7148C39.7817 36.5722 39.3064 37.2538 39.0503 37.7099C39.0991 37.7482 39.1483 37.7932 39.1905 37.8318C39.6116 38.2108 40.1382 38.6862 40.6088 39.1169Z" fill="#C9EA32"/>
<path d="M46.5702 17.5758C45.7083 18.3553 44.7787 19.2794 43.8077 20.3334C42.6248 21.6259 41.4923 22.9903 40.461 24.357C39.4296 25.7237 38.4989 27.0791 37.7202 28.3672C36.9412 29.6486 36.307 30.8494 35.8682 31.9C35.4417 32.9232 35.2038 33.7896 35.1856 34.4442C35.2345 34.4825 35.2904 34.5272 35.3322 34.559C35.7791 34.9099 36.3317 35.364 36.8152 35.7807C36.9314 35.2094 37.2668 34.4127 37.784 33.4597C38.3138 32.4859 39.025 31.3491 39.874 30.1253C40.7229 28.9015 41.7092 27.584 42.7757 26.2495C43.8421 24.9149 44.9957 23.5698 46.1853 22.277C47.156 21.2163 48.0716 20.2794 48.9124 19.4805C49.7532 18.6817 50.5189 18.0142 51.1836 17.4995C51.8483 16.9848 52.4119 16.6229 52.8612 16.421C53.3039 16.2194 53.6262 16.1917 53.8079 16.3386L52.3048 15.1179L51.9483 14.8304C51.9483 14.8304 51.9065 14.7986 51.8857 14.786C51.6291 14.6221 51.2512 14.6119 50.779 14.7541C50.2667 14.9049 49.6472 15.2221 48.9336 15.6986C48.2201 16.175 47.4192 16.8103 46.5574 17.5898L46.5702 17.5758Z" fill="#C9EA32"/>
<path d="M36.3322 35.3843C36.3322 35.3843 36.3526 35.3901 36.3597 35.3966C36.3597 35.3966 36.3392 35.3907 36.3322 35.3843Z" fill="#C9EA32"/>
<path d="M31.8075 31.8232C32.156 32.0841 32.5254 32.3575 32.8672 32.6187C32.7458 31.8558 32.8514 30.894 33.1465 29.7959C33.4597 28.6497 33.9755 27.3598 34.6567 26.0019C35.338 24.644 36.1917 23.2245 37.1675 21.8198C38.1432 20.4152 39.2476 19.0251 40.4305 17.7325C41.3884 16.6859 42.3326 15.7881 43.2296 15.0407C44.1266 14.2933 44.9766 13.703 45.7531 13.2777C46.5296 12.8524 47.2325 12.5921 47.8352 12.5048C48.4113 12.4254 48.8933 12.5051 49.2615 12.7517C49.2755 12.7645 49.2963 12.7771 49.31 12.7832L49.1845 12.6877L47.5273 11.4872L47.388 11.3856C47.388 11.3856 47.3256 11.3479 47.2978 11.3289C46.8609 11.0517 46.3169 10.941 45.6919 10.9822C45.0265 11.0251 44.268 11.2474 43.4497 11.6409C42.6314 12.0343 41.7466 12.5992 40.8282 13.3206C39.9098 14.042 38.9653 14.933 38.0068 15.9662C36.8239 17.2587 35.7403 18.6614 34.8061 20.0912C33.8719 21.521 33.0741 22.9851 32.4625 24.3939C31.8509 25.8026 31.4118 27.1498 31.1961 28.3658C30.9908 29.5139 30.982 30.532 31.1871 31.3587C31.2289 31.3905 31.2775 31.4221 31.3126 31.4542C31.4449 31.5494 31.5845 31.6578 31.7308 31.7659L31.8564 31.8615C31.8564 31.8615 31.8215 31.836 31.8078 31.8299L31.8075 31.8232Z" fill="#C9EA32"/>
<path d="M37.9069 8.2267C37.0119 8.56289 36.0773 9.06933 35.1431 9.7375C34.2089 10.4057 33.2687 11.2426 32.3488 12.2337C31.1656 13.5194 30.1308 14.9604 29.2868 16.4468C28.443 17.94 27.7768 19.486 27.3247 20.9955C26.8726 22.505 26.6348 23.9848 26.6275 25.3398C26.6273 26.553 26.8113 27.6637 27.2104 28.6098C27.5088 28.8055 27.8003 28.9948 28.0508 29.1724C28.294 29.3369 28.5649 29.5203 28.8362 29.7105C28.5062 28.8018 28.3977 27.7215 28.4792 26.5182C28.57 25.2201 28.8908 23.7905 29.4053 22.3187C29.9197 20.8469 30.6412 19.3322 31.5198 17.8644C32.405 16.3964 33.4542 14.975 34.6371 13.6825C35.5695 12.6707 36.5156 11.8132 37.4486 11.1182C38.3819 10.4298 39.2951 9.89735 40.1623 9.54218C41.0295 9.187 41.857 9.00208 42.6046 8.98919C43.3524 8.98303 44.027 9.14861 44.5953 9.50088L43.0772 8.5504L42.6265 8.26706C42.5712 8.23581 42.5092 8.20486 42.4539 8.17361C41.8544 7.87665 41.1804 7.72452 40.4521 7.71634C39.6499 7.71142 38.7878 7.87766 37.8925 8.20712L37.9069 8.2267Z" fill="#C9EA32"/>
<path d="M24.1715 23.9116C24.0616 22.4944 24.1955 20.9518 24.5577 19.3923C24.92 17.8329 25.5101 16.2431 26.3123 14.7248C27.1078 13.2069 28.1083 11.7539 29.2982 10.4678C30.1854 9.49846 31.1204 8.69546 32.0558 8.05419C32.9979 7.41262 33.9472 6.9325 34.8767 6.615C35.8065 6.30423 36.7165 6.15609 37.5735 6.1788C38.4237 6.2018 39.2273 6.38863 39.9576 6.7472L39.9778 6.7463L39.9368 6.73464L38.2398 5.85274L38.1224 5.79054C38.1224 5.79054 38.0882 5.77857 38.0745 5.77244C37.3044 5.42912 36.4672 5.24378 35.5901 5.22197C34.6924 5.19432 33.7619 5.33663 32.8113 5.63484C31.8678 5.93948 30.9109 6.39972 29.9682 7.02783C29.0322 7.65565 28.1101 8.4446 27.2352 9.38648C26.052 10.6723 25.0652 12.1313 24.3042 13.668C23.5433 15.2047 22.9944 16.8128 22.6945 18.41C22.3875 20.0007 22.3224 21.5739 22.5151 23.0347C22.6702 24.2545 23.0104 25.3919 23.5403 26.3996C24.038 26.6809 24.5434 26.982 25.028 27.2706L25.0481 27.2697C24.5665 26.2868 24.2801 25.147 24.1853 23.9178L24.1715 23.9116Z" fill="#C9EA32"/>
<path d="M20.772 24.9185C21.0268 25.0421 21.2749 25.1659 21.5096 25.2903C20.9531 24.2905 20.5603 23.1823 20.333 22.0062C20.0437 20.4958 20.0193 18.8793 20.2437 17.2518C20.4682 15.6243 20.955 13.9852 21.6747 12.4301C22.3944 10.8751 23.354 9.41048 24.5372 8.1247C25.3861 7.20419 26.2892 6.44303 27.2193 5.8357C28.1495 5.22836 29.1137 4.78127 30.078 4.48919C31.0424 4.19711 32.0001 4.06034 32.9381 4.0862C33.8559 4.11295 34.7399 4.28948 35.5769 4.6231C35.5907 4.62923 35.6111 4.63506 35.6249 4.64119L35.5564 4.61726L34.2185 4.08341L33.8555 3.95121C33.7528 3.91532 33.6501 3.87943 33.5477 3.85027C32.7616 3.60201 31.9335 3.47019 31.0971 3.45331C30.1462 3.4415 29.175 3.57887 28.2171 3.86392C27.2528 4.156 26.3017 4.59577 25.3777 5.18936C24.4537 5.78294 23.5698 6.52302 22.7467 7.41543C21.5635 8.70122 20.6177 10.1719 19.9322 11.739C19.24 13.3063 18.8009 14.9568 18.6247 16.6091C18.4482 18.2547 18.5343 19.8954 18.8921 21.4297C19.158 22.5637 19.5695 23.6373 20.1382 24.6096C20.2965 24.6835 20.4551 24.7641 20.6137 24.8447C20.6274 24.8508 20.6479 24.8566 20.6617 24.8628L20.779 24.925L20.772 24.9185Z" fill="#C9EA32"/>
<path d="M17.1482 23.2999C17.4568 23.4211 17.793 23.5544 18.0955 23.6893L18.164 23.7132C18.164 23.7132 18.1297 23.7013 18.116 23.6952C18.1847 23.7258 18.2465 23.75 18.3082 23.7743C13.1306 15.0666 19.9521 0.779375 31.0731 3.07041C30.555 2.93834 29.8814 2.79294 29.3235 2.67611C29.2624 2.66533 29.2009 2.64783 29.1398 2.63706C29.0921 2.62569 29.0377 2.61462 28.9836 2.61028C28.7189 2.56809 28.4071 2.52798 28.1634 2.50507C18.8408 1.7115 11.4276 13.7468 17.1482 23.2999Z" fill="#C9EA32"/>
<path d="M15.9225 6.12072C14.739 7.39978 13.861 8.88098 13.2841 10.4634C12.7071 12.0459 12.4242 13.7231 12.4449 15.4072C12.4652 17.0845 12.7825 18.7689 13.3982 20.3457C13.6646 21.0348 13.9977 21.7075 14.3767 22.3512C14.5066 22.3927 14.6362 22.4274 14.7593 22.4691C14.9919 22.5464 15.2587 22.6357 15.5323 22.7247C10.7666 14.6458 15.1356 2.35432 25.9427 2.27336L25.8889 2.27575L25.3355 2.25982L25.3019 2.26131C24.7225 2.26674 23.9627 2.30713 23.3915 2.34591C22.7069 2.40993 22.032 2.54091 21.3597 2.73244C20.6942 2.92367 20.0381 3.17514 19.4052 3.49298C18.7722 3.81082 18.1618 4.18158 17.5749 4.62544C16.9944 5.06228 16.4371 5.56549 15.9161 6.12775L15.9225 6.12072Z" fill="#C9EA32"/>
<path d="M10.4491 16.0009C10.5294 17.662 10.9194 19.3162 11.615 20.8693C11.7568 21.1798 11.9117 21.483 12.0734 21.7858C12.3864 21.8528 12.7129 21.9193 13.0399 21.9991C9.07369 15.0778 11.6129 6.36532 19.2597 3.25662L19.2928 3.24167L19.2466 3.26394C18.6174 3.51422 17.8043 3.87374 17.2038 4.16318C16.8679 4.33981 16.4417 4.60806 16.1067 4.80487L16.0804 4.81952L16.0608 4.83386C15.8576 4.96418 15.655 5.10794 15.4525 5.25171C15.2502 5.4022 15.0482 5.55942 14.8466 5.72337C14.6516 5.88702 14.457 6.0574 14.2696 6.24093C14.082 6.41773 13.895 6.60799 13.7217 6.80438C12.545 8.08314 11.6801 9.55701 11.1359 11.1178C10.592 12.6853 10.3623 14.3467 10.4426 16.0079L10.4491 16.0009Z" fill="#C9EA32"/>
<path d="M10.2944 21.4871C10.5316 21.517 10.7688 21.547 10.9929 21.5842C8.93612 17.4495 9.2315 12.705 12.035 8.5909L11.4838 9.38366L11.402 9.51533C11.1876 9.84834 11.0684 10.0491 10.9063 10.3461C10.7635 10.622 10.584 10.9804 10.2821 11.6206L10.283 11.6408L10.2578 11.6823L10.1419 11.957C9.65535 13.1446 9.36711 14.3975 9.28155 15.6616C9.196 16.9257 9.30671 18.2081 9.60458 19.4553C9.77009 20.1489 10.009 20.8258 10.2944 21.4871Z" fill="#C9EA32"/>
<path d="M9.27279 21.3908L9.30642 21.3893C9.39447 21.3989 9.49596 21.4078 9.584 21.4174C9.36646 20.7666 9.20214 20.0999 9.09836 19.4305C8.96576 18.5669 8.93376 17.6922 8.99653 16.8267C9.00611 16.7386 9.00896 16.6509 9.01854 16.5629L9.00057 16.7658C8.96672 17.2189 8.94262 17.4356 8.94466 17.786C8.94342 18.0624 8.95278 18.4259 8.97375 19.0518C8.97882 19.1662 8.98418 19.2873 8.99014 19.4218C9.00384 19.7312 9.03713 20.0263 9.07714 20.3211C9.12746 20.6963 9.20378 21.0501 9.28654 21.3969L9.27279 21.3908Z" fill="#C9EA32"/>
<path d="M0.315991 56.1002C0.287297 56.061 0.258305 56.0151 0.229611 55.976C0.207942 55.9432 0.186571 55.9172 0.164901 55.8845C0.11424 55.8058 0.0568523 55.7275 0.00619151 55.6489C-0.0151801 55.6229 -0.0368492 55.5901 -0.051494 55.5638L-0.0520899 55.5504L-0.0875103 55.5115C-0.145196 55.4264 -0.202881 55.3414 -0.260567 55.2563L-0.289261 55.2171L-0.303905 55.1908C-0.368913 55.0926 -0.433921 54.9944 -0.491905 54.9026L-0.506252 54.883C-0.774845 54.7534 -1.02386 54.6094 -1.26001 54.4513C-1.49616 54.2933 -1.71243 54.1277 -1.91584 53.9479C-2.11926 53.7682 -2.30951 53.5812 -2.48019 53.3798C-2.60782 53.2372 -2.72259 53.0805 -2.83035 52.9303L-1.87809 54.3439L-1.79873 54.4617C-1.79873 54.4617 -1.76974 54.5076 -1.74867 54.5269C-1.63359 54.6903 -1.50566 54.8397 -1.37101 54.9887C-1.21528 55.157 -1.04669 55.3113 -0.864943 55.4583C-0.6832 55.6053 -0.481574 55.7446 -0.273818 55.8702C-0.0660616 55.9958 0.161576 56.1138 0.402072 56.2177C0.373378 56.1785 0.344685 56.1394 0.322718 56.0999L0.315991 56.1002Z" fill="#C9EA32"/>
<path d="M2.65178 59.2246L2.63041 59.1986C2.5376 59.0813 2.4448 58.9641 2.35199 58.8469L2.32329 58.8078C2.2949 58.7753 2.27323 58.7426 2.24483 58.7101C2.18774 58.6385 2.13738 58.5666 2.08059 58.5017C2.05189 58.4626 2.0232 58.4234 1.9948 58.391C1.95909 58.3454 1.93039 58.3062 1.89467 58.2606C1.86628 58.2282 1.83758 58.189 1.81592 58.1563C1.61054 58.0845 1.41803 57.9986 1.23867 57.9055C1.05931 57.8123 0.886374 57.7122 0.733026 57.5976C0.572952 57.4834 0.433057 57.3683 0.299294 57.2394C0.186604 57.1298 0.0873677 57.0196 -0.0054404 56.9024C-0.0268118 56.8764 -0.0481833 56.8504 -0.0628281 56.8241L0.00860818 56.9153L1.25845 58.5045C1.35828 58.6281 1.46425 58.738 1.58337 58.8405C1.70249 58.9431 1.82833 59.0454 1.96703 59.1336C2.10574 59.2218 2.25759 59.3027 2.41588 59.3766C2.57417 59.4504 2.74531 59.5102 2.92961 59.5627C2.8655 59.4847 2.80109 59.3999 2.73697 59.3219C2.7156 59.2959 2.69393 59.2631 2.66583 59.2374L2.65178 59.2246Z" fill="#C9EA32"/>
<path d="M5.48928 62.5834C5.46088 62.5509 5.43248 62.5185 5.39706 62.4796C5.33325 62.4083 5.26241 62.3306 5.19829 62.2525C5.16287 62.2137 5.13448 62.1812 5.09906 62.1424C5.05661 62.0971 5.02089 62.0515 4.97845 62.0062C4.94303 61.9673 4.91433 61.9281 4.87891 61.8893C4.8151 61.8179 4.75128 61.7466 4.68717 61.6686C4.65877 61.6361 4.63008 61.597 4.60168 61.5645L4.56626 61.5257C4.41006 61.4989 4.26701 61.4648 4.1301 61.4169C3.99318 61.3691 3.86972 61.3206 3.75239 61.2584C3.63506 61.1962 3.53088 61.1267 3.43313 61.0501C3.38426 61.0119 3.33539 60.9736 3.29294 60.9283C3.25079 60.8897 3.20835 60.8444 3.17263 60.7988L3.69078 61.3892L4.62052 62.4466L4.63457 62.4595C4.99491 62.8344 5.30701 62.8813 5.82973 62.9659C5.72317 62.8426 5.61018 62.7263 5.50362 62.603L5.47523 62.5705L5.48928 62.5834Z" fill="#C9EA32"/>
<path d="M9.00426 66.3162C8.92669 66.2387 8.84913 66.1613 8.77156 66.0838C8.73614 66.045 8.70102 66.0128 8.6656 65.974L8.53153 65.8384C8.48939 65.7998 8.45397 65.7609 8.41182 65.7223C8.34128 65.6513 8.27746 65.58 8.20692 65.509C8.17179 65.4769 8.13637 65.438 8.10125 65.4058L8.05881 65.3605C7.94552 65.2375 7.82581 65.1215 7.71252 64.9984C7.59847 65.0102 7.49757 65.0147 7.4031 65.0122C7.30862 65.0096 7.22058 65 7.1454 64.9764C7.07051 64.9595 6.99503 64.9291 6.933 64.8982C6.88472 64.8734 6.84287 64.8415 6.80775 64.8094C6.7937 64.7965 6.77965 64.7837 6.77263 64.7772L7.9871 66.0242L8.36791 66.405C8.40304 66.4372 8.43786 66.4626 8.48584 66.4807C8.53382 66.4988 8.58823 66.5098 8.64907 66.5139C8.7099 66.5179 8.7836 66.5079 8.85759 66.5046C8.93159 66.5014 9.01784 66.4706 9.11784 66.4459L9.08272 66.4138C9.08272 66.4138 9.0195 66.3559 8.99111 66.3235L9.00426 66.3162Z" fill="#C9EA32"/>
<path d="M12.4324 69.6089C12.3903 69.5704 12.3481 69.5318 12.299 69.4868C12.2287 69.4225 12.1585 69.3582 12.0879 69.2872C12.0458 69.2486 12.0106 69.2165 11.9685 69.1779L11.9193 69.1329C11.7929 69.0172 11.6664 68.9015 11.5397 68.779L11.5183 68.753C11.5183 68.753 11.4621 68.7016 11.434 68.6759C11.3427 68.5923 11.2514 68.5087 11.1665 68.4181C11.0946 68.4685 11.0359 68.5115 10.9765 68.5411C10.9242 68.5771 10.8713 68.5997 10.8318 68.6217C10.792 68.6369 10.759 68.6519 10.7321 68.6531C10.7119 68.6539 10.6985 68.6545 10.6917 68.6548C10.6917 68.6548 10.6783 68.6554 10.678 68.6487L11.5007 69.4211L12.3788 70.2246C12.3788 70.2246 12.3782 70.2112 12.3911 70.1971C12.4039 70.1831 12.4229 70.1553 12.4416 70.1208C12.467 70.0859 12.4989 70.0441 12.5374 70.0019C12.5757 69.9531 12.6204 69.8972 12.6783 69.8339C12.6432 69.8018 12.608 69.7697 12.5729 69.7375L12.4324 69.6089Z" fill="#C9EA32"/>
<path d="M16.5132 73.7818C16.4839 73.7292 16.4611 73.6695 16.4446 73.6029C16.4282 73.5362 16.4182 73.4625 16.421 73.3747C16.4239 73.287 16.4267 73.1993 16.4425 73.0975C16.3725 73.0399 16.2955 72.9759 16.2256 72.9184C16.1837 72.8865 16.1416 72.8479 16.0997 72.8161C16.079 72.8035 16.0646 72.7839 16.0439 72.7714C15.911 72.6627 15.7778 72.5473 15.6449 72.4386L15.6239 72.4193C15.6239 72.4193 15.5747 72.3743 15.5469 72.3553C15.4489 72.272 15.3441 72.1891 15.2457 72.0991C15.2109 72.0736 15.1825 72.0412 15.1477 72.0158C15.0985 71.9708 15.0496 71.9325 15.0005 71.8875C14.9513 71.8425 14.9024 71.8042 14.8533 71.7592C14.8235 71.8482 14.7999 71.9233 14.7827 71.9915C14.7655 72.0597 14.7547 72.1208 14.7571 72.1746C14.7595 72.2284 14.7615 72.2755 14.7698 72.3088C14.778 72.3422 14.7994 72.3682 14.8207 72.3942L14.9331 72.4971L15.1924 72.7215L16.0886 73.4771L16.6133 73.9122C16.6133 73.9122 16.5852 73.8864 16.5712 73.8736C16.5498 73.8476 16.5284 73.8216 16.5068 73.7888L16.5132 73.7818Z" fill="#C9EA32"/>
<path d="M20.8068 77.1506C20.729 77.0664 20.6643 76.9749 20.6057 76.8697C20.5471 76.7644 20.4882 76.6525 20.4425 76.5332C20.3968 76.4139 20.3572 76.2808 20.3237 76.134C20.1844 76.0324 20.0519 75.9304 19.9126 75.8287L19.8985 75.8159L19.8289 75.7651C19.7174 75.6824 19.6126 75.5994 19.5014 75.5234L19.4037 75.4469C19.3548 75.4086 19.3059 75.3703 19.257 75.3321C19.2014 75.2941 19.1523 75.2491 19.0967 75.2111C19.027 75.1603 18.9641 75.1091 18.8944 75.0583C18.8459 75.0268 18.8037 74.9882 18.7619 74.9563L18.6922 74.9055C18.6979 75.0333 18.7231 75.1468 18.7481 75.2535C18.773 75.3602 18.8108 75.4529 18.8486 75.5456C18.8861 75.6316 18.9368 75.7102 18.9871 75.7821C19.0372 75.8473 19.0934 75.8987 19.1496 75.9501L19.1704 75.9627L19.3793 76.1152L19.77 76.4147L21.046 77.3759C20.9904 77.3379 20.9412 77.2929 20.8988 77.2476C20.8636 77.2155 20.8352 77.183 20.8068 77.1506Z" fill="#C9EA32"/>
<path d="M25.5377 80.4862C25.5377 80.4862 25.5933 80.5242 25.6211 80.5432C25.6418 80.5557 25.6559 80.5686 25.6767 80.5811L25.4405 80.4231C25.4405 80.4231 25.5031 80.4675 25.5377 80.4862Z" fill="#C9EA32"/>
<path d="M24.8498 79.8628C24.7289 79.7198 24.6138 79.5564 24.5052 79.386C24.3965 79.2156 24.3007 79.0311 24.2178 78.8326C24.183 78.8072 24.1414 78.7821 24.1069 78.7634C24.0375 78.7193 23.9682 78.6752 23.8988 78.6311C23.871 78.6121 23.8435 78.5998 23.8225 78.5805C23.7876 78.5551 23.7531 78.5364 23.7183 78.511C23.6489 78.4669 23.5796 78.4228 23.5099 78.372C23.4821 78.353 23.4543 78.334 23.4198 78.3153L23.3227 78.2522C23.2533 78.2081 23.1837 78.1572 23.1143 78.1131C23.0798 78.0944 23.0517 78.0687 23.0171 78.05C22.9893 78.0311 22.9616 78.0121 22.927 77.9934C22.8574 77.9425 22.788 77.8984 22.7184 77.8476C22.6835 77.8222 22.6487 77.7968 22.6142 77.7781C22.6758 77.9506 22.7434 78.1093 22.824 78.2541C22.8978 78.3991 22.9848 78.5367 23.0782 78.6674C23.1713 78.7913 23.2708 78.9082 23.3765 79.0114C23.4822 79.1146 23.601 79.2104 23.7189 79.286L25.441 80.4297C25.3714 80.3789 25.3014 80.3213 25.2385 80.2702C25.0983 80.1483 24.9713 80.0191 24.8436 79.8765L24.8498 79.8628Z" fill="#C9EA32"/>
<path d="M29.5259 82.8704C29.3035 82.7185 29.0869 82.5461 28.8829 82.353C28.6789 82.1598 28.4877 81.9526 28.3024 81.7249C28.1238 81.4969 27.9511 81.2485 27.7909 80.9792C27.7563 80.9605 27.7218 80.9418 27.6873 80.9231C27.625 80.8855 27.5629 80.8545 27.5006 80.8168L27.4386 80.7859C27.4386 80.7859 27.3695 80.7485 27.335 80.7298C27.2727 80.6921 27.2106 80.6612 27.1416 80.6238C27.1208 80.6112 27.0933 80.599 27.0725 80.5864C27.038 80.5677 27.0102 80.5487 26.9757 80.5301C26.9133 80.4924 26.851 80.4547 26.782 80.4173C26.7545 80.4051 26.7267 80.3861 26.7059 80.3735C26.6781 80.3545 26.6503 80.3355 26.6161 80.3236C26.5537 80.2859 26.4847 80.2485 26.4223 80.2108C26.3945 80.1918 26.367 80.1796 26.3325 80.1609C26.4576 80.398 26.5955 80.621 26.746 80.8233C26.8965 81.0256 27.0531 81.2141 27.2226 81.3886C27.3921 81.563 27.5674 81.717 27.7556 81.857C27.7974 81.8888 27.846 81.9204 27.8879 81.9522C28.0339 82.0536 28.1863 82.1479 28.3382 82.2288L29.6584 82.9724L29.6444 82.9595C29.6028 82.9344 29.5543 82.9028 29.5124 82.871L29.5259 82.8704Z" fill="#C9EA32"/>
<path d="M32.5923 84.2449C32.2987 84.0085 32.0178 83.7514 31.749 83.4667C31.4803 83.1821 31.2242 82.8766 30.987 82.5434C30.9528 82.5314 30.9182 82.5128 30.884 82.5008C30.829 82.4763 30.774 82.4517 30.719 82.4272L30.671 82.4091C30.671 82.4091 30.609 82.3782 30.5748 82.3662C30.5198 82.3417 30.4648 82.3172 30.4098 82.2926L30.3547 82.2681C30.3547 82.2681 30.2927 82.2372 30.2652 82.2249C30.2102 82.2004 30.1552 82.1759 30.0932 82.1449L30.0311 82.1139C30.0311 82.1139 29.9761 82.0894 29.9416 82.0707C29.8866 82.0462 29.8246 82.0153 29.7696 81.9907C29.7488 81.9782 29.7213 81.9659 29.7008 81.9601C29.9032 82.2679 30.1245 82.5479 30.352 82.8142C30.5859 83.0734 30.8256 83.3122 31.0846 83.5298C31.3369 83.7478 31.6082 83.938 31.8856 84.1144C32.0032 84.1834 32.1208 84.2523 32.2385 84.3212C32.4041 84.4082 32.5697 84.4953 32.7414 84.5685L32.886 84.6363L33.9106 85.0964C33.7727 85.0283 33.6346 84.9536 33.5033 84.8785C33.1852 84.6972 32.8794 84.4883 32.5859 84.2519L32.5923 84.2449Z" fill="#C9EA32"/>
<path d="M38.8542 82.882C38.8542 82.882 38.8417 82.9028 38.8288 82.9168L38.8031 82.9449L38.7713 82.9868L38.7587 83.0076L38.752 83.0079C38.752 83.0079 38.7073 83.0638 38.6883 83.0916C38.669 83.1126 38.6561 83.1267 38.6369 83.1478C38.624 83.1618 38.6108 83.1691 38.598 83.1832L38.5851 83.1972L38.5784 83.1975C38.5784 83.1975 38.5398 83.2397 38.5202 83.254L38.4942 83.2754L38.4814 83.2894L38.4618 83.3038C41.3791 86.0188 48.1489 89.2843 55.0458 84.3082L55.0525 84.3079L55.0519 84.2945C55.3907 84.0301 55.5663 83.8875 55.7995 83.675C56.0325 83.4557 56.3294 83.1595 56.9033 82.5747C57.064 82.3991 57.2364 82.1825 57.4091 81.9727L57.3834 82.0008C53.2873 86.7585 45.4665 88.3719 38.8545 82.8887L38.8542 82.882Z" fill="#C9EA32"/>
<path d="M57.8553 81.4006C57.7086 81.5891 57.5619 81.7775 57.4015 81.9599C57.5613 81.7641 57.7144 81.5686 57.8553 81.4006Z" fill="#C9EA32"/>
<path d="M59.9524 77.0146C59.7014 77.5851 59.3959 78.1445 59.0425 78.6859C58.689 79.2272 58.2873 79.7438 57.8376 80.2422C56.6678 81.5274 55.2697 82.5262 53.7442 83.234C52.2186 83.9418 50.5721 84.3518 48.8986 84.4596C47.2252 84.5674 45.5252 84.3798 43.8989 83.8789C42.2727 83.3781 40.7208 82.5774 39.3365 81.4525L39.3374 81.4727C39.3327 81.52 39.3281 81.5674 39.3167 81.6151L39.3173 81.6286C39.313 81.6827 39.3019 81.7371 39.2973 81.7845L39.299 81.8248C39.2803 81.8593 39.2754 81.9 39.2634 81.9342L39.2646 81.9611L39.2518 81.9752C39.2404 82.0229 39.229 82.0706 39.2174 82.1115C40.59 83.2774 42.1373 84.1255 43.7516 84.6605C45.3726 85.1953 47.0674 85.4168 48.7353 85.3362C50.4032 85.2556 52.0439 84.8662 53.5636 84.1788C55.0833 83.4915 56.475 82.4997 57.6515 81.2143C57.96 80.8771 58.2478 80.5273 58.5081 80.1653C58.7684 79.8034 59.0083 79.4355 59.2273 79.0551C59.4463 78.6747 59.6382 78.2888 59.8093 77.8903C59.9251 77.6156 60.0343 77.3412 60.1297 77.0606C60.1714 76.9375 60.2129 76.8076 60.2546 76.6844C60.266 76.6367 60.2838 76.582 60.2951 76.5343C60.4115 76.118 60.5307 75.614 60.6275 75.2121L60.6266 75.1919L60.6383 75.151C60.6813 74.9064 60.7297 74.6279 60.7713 74.3498C60.7174 74.6554 60.6498 74.955 60.5687 75.2551C60.413 75.8484 60.2099 76.437 59.9521 77.0078L59.9524 77.0146Z" fill="#C9EA32"/>
<path d="M60.7649 74.3564C60.8077 74.1051 60.8434 73.8474 60.8728 73.5967C60.8774 73.5494 60.882 73.502 60.8867 73.4546L60.8888 73.5017C60.8463 73.7597 60.8056 74.058 60.7581 74.3567L60.7649 74.3564Z" fill="#C9EA32"/>
<path d="M60.5362 67.667C60.5013 67.4865 60.4666 67.3128 60.4393 67.1523C60.4648 67.2725 60.4833 67.3862 60.5021 67.5067C62.3667 78.41 48.9992 85.9642 39.118 79.4059L39.1189 79.4261C39.1424 79.4992 39.1591 79.5726 39.1758 79.646L39.1773 79.6796C39.1934 79.7396 39.2096 79.7995 39.219 79.8597L39.222 79.927C39.2445 79.9799 39.2536 80.0334 39.2624 80.0802L39.2648 80.134C39.2813 80.2007 39.291 80.2677 39.3007 80.3347C47.663 86.5356 61.7284 81.1949 60.8533 69.4996L60.8324 69.3321C60.7632 68.8364 60.6487 68.2281 60.5432 67.6734L60.5362 67.667Z" fill="#C9EA32"/>
<path d="M59.5149 64.0935C59.4685 63.9608 59.4085 63.8219 59.3548 63.676C59.1957 63.2787 59.0149 62.8486 58.8564 62.4647C59.153 63.2266 59.3434 64.027 59.4134 64.8461C59.5025 65.7925 59.4378 66.7659 59.2315 67.7388C59.0255 68.7185 58.6712 69.698 58.1607 70.6507C57.6573 71.6098 56.9976 72.5421 56.1944 73.4269C55.0182 74.7191 53.6295 75.7781 52.1292 76.5994C50.6286 77.414 49.0094 77.9845 47.3785 78.2926C45.7473 78.594 44.0981 78.64 42.5303 78.3927C40.9627 78.1521 39.4768 77.6248 38.1665 76.7999L38.1674 76.8201C38.2116 76.9057 38.2491 76.9917 38.2866 77.0777L38.2875 77.0978L38.3092 77.1306C38.3394 77.2034 38.3695 77.2762 38.3997 77.349L38.4147 77.382L38.4153 77.3955C38.4528 77.4814 38.49 77.5607 38.5205 77.6402L38.5214 77.6604L38.543 77.6931C38.5732 77.7659 38.5964 77.8323 38.6265 77.9051L38.6415 77.9381C39.982 78.8358 41.4978 79.4292 43.0885 79.7362C44.6792 80.0431 46.3513 80.0567 48.0047 79.8015C49.6582 79.5463 51.2859 79.0159 52.8012 78.2277C54.3164 77.4394 55.7057 76.3939 56.8818 75.1016C57.6469 74.2657 58.2682 73.3823 58.7533 72.4644C59.2386 71.5532 59.5944 70.6074 59.8089 69.6678C60.0231 68.7215 60.1092 67.7741 60.0614 66.8461C60.0162 65.9787 59.8573 65.1298 59.5785 64.3131C59.5556 64.2535 59.5395 64.1935 59.5167 64.1339L59.5014 64.0941L59.5149 64.0935Z" fill="#C9EA32"/>
<path d="M56.7669 58.3512C56.6793 58.2001 56.5918 58.0489 56.5115 57.911C56.5408 57.9636 56.5631 58.0098 56.5924 58.0624C56.9459 58.7409 57.1741 59.479 57.2826 60.256C57.4103 61.1602 57.3654 62.126 57.1597 63.1124C56.954 64.0987 56.5744 65.113 56.0326 66.121C55.4909 67.129 54.7804 68.131 53.8997 69.0934C52.7235 70.3856 51.3501 71.4844 49.8864 72.3714C48.416 73.2588 46.855 73.9278 45.2833 74.3546C43.7184 74.7811 42.143 74.9722 40.6633 74.8895C39.1839 74.8134 37.7935 74.4639 36.5792 73.8302L36.6012 73.8697C36.6522 73.955 36.7028 74.0337 36.7471 74.1193L36.769 74.1588L36.7696 74.1722C36.8343 74.2637 36.8859 74.3625 36.9439 74.4543L36.9585 74.4806L36.9805 74.5201C37.0244 74.599 37.0754 74.6844 37.1193 74.7633L37.141 74.7961L37.1416 74.8095C37.1996 74.9013 37.2508 74.9934 37.3021 75.0855L37.3167 75.1118C38.5752 75.8311 40.0092 76.2529 41.5323 76.4011C43.0553 76.5493 44.6606 76.4243 46.2615 76.0501C47.8625 75.676 49.4455 75.0464 50.9308 74.1921C52.4162 73.3378 53.7902 72.2525 54.9731 70.96C55.8281 70.0257 56.5126 69.0451 57.0418 68.0579C57.5706 67.0639 57.9304 66.0572 58.1361 65.0708C58.3415 64.0777 58.3861 63.1052 58.2707 62.1735C58.1747 61.3757 57.9521 60.6105 57.6169 59.8907C57.58 59.8182 57.5428 59.739 57.5059 59.6665C57.4839 59.627 57.4687 59.5872 57.4467 59.5478C57.2557 59.1923 57.0074 58.7584 56.7736 58.3509L56.7669 58.3512Z" fill="#C9EA32"/>
<path d="M34.6308 70.9103L34.6665 70.9559C34.7458 71.0737 34.8316 71.1845 34.911 71.3023L34.9253 71.3219C34.9253 71.3219 34.9613 71.3742 34.9757 71.3938C35.0334 71.4788 35.0908 71.5572 35.1485 71.6422C35.1701 71.675 35.1915 71.701 35.2132 71.7337C35.2419 71.7729 35.2708 71.8188 35.2995 71.8579C35.3282 71.8971 35.3572 71.943 35.3859 71.9822C36.5208 72.4981 37.8389 72.7362 39.253 72.7073C40.6674 72.6851 42.1848 72.4022 43.6991 71.8971C45.2201 71.3916 46.7445 70.6569 48.1859 69.7236C49.6273 68.7904 50.9794 67.6656 52.1623 66.3731C53.0687 65.3826 53.8055 64.366 54.3671 63.3504C54.9357 62.3412 55.3292 61.333 55.5562 60.3726C55.783 59.4055 55.8364 58.4798 55.7242 57.6221C55.6121 56.7643 55.3214 55.9819 54.8663 55.2944L53.8081 53.7709L53.7577 53.699L53.6503 53.5555C53.6503 53.5555 53.686 53.6011 53.7006 53.6274C54.1185 54.2357 54.3791 54.9453 54.4742 55.7229C54.5775 56.5338 54.5027 57.4335 54.2613 58.3743C54.0199 59.3151 53.6057 60.3107 53.0166 61.3141C52.4345 62.3239 51.6778 63.3481 50.7588 64.3594C49.5759 65.6519 48.2315 66.7965 46.8185 67.7622C45.3987 68.7282 43.9101 69.5086 42.4254 70.0731C40.9474 70.6373 39.48 70.9853 38.1163 71.0862C36.7526 71.187 35.4922 71.0339 34.4217 70.6028C34.465 70.6683 34.5148 70.7267 34.5581 70.7922C34.5868 70.8314 34.6085 70.8641 34.6372 70.9033L34.6308 70.9103Z" fill="#C9EA32"/>
<path d="M32.0636 67.587C32.0636 67.587 32.1061 67.6323 32.1207 67.6586C32.1922 67.7498 32.2703 67.8407 32.3418 67.9319C32.3634 67.9647 32.3915 67.9904 32.4132 68.0231L32.5204 68.1599C32.5561 68.2055 32.5918 68.2511 32.6275 68.2967C32.6773 68.3551 32.7203 68.4139 32.7701 68.4724C32.8055 68.5112 32.8345 68.5571 32.8699 68.596L32.9127 68.648C33.8901 68.9552 35.0573 68.9844 36.342 68.7725C37.6267 68.5606 39.0155 68.1149 40.4291 67.4659C41.8494 66.8167 43.288 65.9711 44.672 64.9595C46.0561 63.9479 47.3792 62.7773 48.562 61.4847C49.5006 60.4592 50.2775 59.434 50.8871 58.4365C51.4967 57.439 51.946 56.4755 52.2231 55.5803C52.4999 54.6784 52.6113 53.8445 52.5446 53.0993C52.4882 52.4346 52.2935 51.8433 51.9618 51.3525C51.9187 51.2938 51.8824 51.2347 51.8394 51.176L51.411 50.6356L51.0255 50.1471L50.4628 49.4644C50.8401 49.9195 51.0348 50.5107 51.0652 51.1968C51.0959 51.8896 50.9558 52.6844 50.6436 53.5474C50.3384 54.4169 49.8677 55.3544 49.2303 56.3329C48.5999 57.3179 47.8026 58.3372 46.8579 59.3765C45.675 60.669 44.3662 61.8593 43.0039 62.9036C41.6482 63.9477 40.2389 64.8458 38.8751 65.5532C37.5046 66.261 36.1728 66.7782 34.9523 67.0682C33.7384 67.3578 32.6356 67.4134 31.7366 67.2039C31.8365 67.3275 31.936 67.4444 32.0358 67.568L32.0502 67.5876L32.0636 67.587Z" fill="#C9EA32"/>
<path d="M46.4856 48.677C46.0952 49.4492 45.5475 50.3227 44.8612 51.2629C44.175 52.2032 43.3434 53.2106 42.3791 54.2642C41.1962 55.5567 39.9232 56.7926 38.6387 57.9211C37.3542 59.0496 36.0512 60.0644 34.8086 60.9214C33.566 61.7785 32.3902 62.4709 31.34 62.9554C30.2966 63.4397 29.3785 63.7096 28.678 63.7204L28.692 63.7332L28.7488 63.7981C28.8407 63.8951 28.9259 63.9924 29.0178 64.0895L29.0957 64.1736C29.1382 64.2189 29.1806 64.2642 29.2163 64.3098C29.2588 64.3551 29.3015 64.4072 29.344 64.4525C29.4004 64.5106 29.4502 64.5691 29.507 64.634C29.5424 64.6728 29.5849 64.7181 29.6203 64.757L29.6768 64.8152C29.7833 64.9385 29.8966 65.0615 30.0029 65.1781C30.7953 65.2644 31.7846 65.079 32.9059 64.6789C34.0272 64.2788 35.2735 63.6574 36.5729 62.8652C37.8723 62.0731 39.2177 61.1036 40.5309 60.0143C41.8509 58.9246 43.1382 57.7083 44.3211 56.4158C45.279 55.3692 46.0965 54.349 46.7617 53.3894C47.4269 52.4299 47.9397 51.531 48.2944 50.7132C48.6494 49.9022 48.8395 49.1726 48.8729 48.5578C48.9014 47.9837 48.7794 47.5106 48.5077 47.1587C48.4933 47.1391 48.472 47.1131 48.4509 47.0938L48.1813 46.7889L47.9685 46.549L46.9272 45.4089C47.1822 45.6874 47.2688 46.1217 47.192 46.671C47.1156 47.227 46.8757 47.8982 46.4856 48.677Z" fill="#C9EA32"/>
<path d="M25.6269 60.5795C25.6833 60.6377 25.7398 60.6958 25.796 60.7473C25.8385 60.7926 25.8806 60.8311 25.9298 60.8761C25.9509 60.8954 25.9722 60.9214 25.9933 60.9407C26.1133 61.0635 26.2333 61.1862 26.3598 61.3019L26.3952 61.3408C26.5012 61.4507 26.6139 61.5603 26.7198 61.6702C27.3 61.5299 28.0911 61.1309 29.0286 60.5367C29.966 59.9425 31.0496 59.1464 32.2073 58.1988C33.3653 57.2578 34.6045 56.1718 35.8466 54.9979C37.0886 53.8241 38.3336 52.5626 39.5232 51.2698C40.4939 50.2091 41.3462 49.2143 42.0673 48.2994C42.7884 47.3846 43.3788 46.5631 43.8257 45.8491C44.2726 45.1351 44.576 44.5286 44.7236 44.057C44.8713 43.5854 44.8631 43.2488 44.6936 43.0743L44.6228 42.9966L43.4382 41.8157L43.0433 41.422C43.0433 41.422 43.0506 41.4352 43.0577 41.4416C43.1438 41.5591 43.0811 41.818 42.8895 42.2107C42.6854 42.6241 42.3255 43.1725 41.8365 43.8479C41.3474 44.5233 40.7219 45.3126 39.9727 46.2017C39.7997 46.4049 39.627 46.6147 39.4409 46.8251C38.8258 47.5466 38.1389 48.3184 37.3867 49.1402C36.9753 49.5898 36.5571 50.0397 36.1319 50.4831C35.3464 51.3132 34.5472 52.1372 33.7596 52.9202C33.4948 53.1813 33.2368 53.4421 32.9784 53.6961C32.9399 53.7383 32.8946 53.7807 32.856 53.8229C32.5071 54.1618 32.1645 54.4938 31.8217 54.819C31.2916 55.3277 30.774 55.8157 30.2684 56.2694C30.1001 56.4252 29.9379 56.5671 29.776 56.7158C29.5167 56.9497 29.2636 57.1699 29.017 57.383C28.4006 57.9225 27.8222 58.4064 27.301 58.8137C26.9365 59.1062 26.6036 59.3501 26.2964 59.5659C25.8845 59.8537 25.5305 60.0783 25.2534 60.2119C25.2815 60.2376 25.3096 60.2633 25.338 60.2958C25.3871 60.3408 25.4296 60.3861 25.4787 60.4311C25.5282 60.4828 25.5774 60.5278 25.6269 60.5795Z" fill="#C9EA32"/>
<path d="M21.9 57.0852L21.977 57.1492C22.1101 57.2646 22.2366 57.3803 22.37 57.5024L22.3768 57.5021C22.4543 57.5796 22.5316 57.6503 22.6021 57.7213C22.6513 57.7663 22.7005 57.8113 22.7564 57.856C22.7845 57.8817 22.8056 57.901 22.8337 57.9267C22.8828 57.9717 22.925 58.0103 22.9741 58.0553L23.1427 58.2096C25.9268 55.3297 39.8041 40.265 40.6514 39.1559L40.6163 39.1237C40.1453 38.6863 39.6188 38.2108 39.1976 37.8318C39.1555 37.7933 39.1063 37.7483 39.0574 37.71C39.0223 37.6779 38.9805 37.646 38.9451 37.6071L38.8959 37.5621C38.8259 37.5046 38.602 37.6223 38.2568 37.8937C37.9049 38.1654 37.4186 38.5981 36.8171 39.1707C36.2157 39.7432 35.5058 40.4554 34.7002 41.2863C33.8945 42.1173 32.9936 43.0806 32.0228 44.1413C30.8399 45.4338 29.6585 46.7599 28.5362 48.0498C27.4139 49.3396 26.357 50.5861 25.4103 51.7333C24.4636 52.8806 23.6403 53.9213 22.9844 54.7861C22.3285 55.6508 21.8538 56.3458 21.5976 56.802C21.6606 56.8531 21.7171 56.9113 21.78 56.9624C21.8289 57.0007 21.8713 57.046 21.9202 57.0843L21.9 57.0852Z" fill="#C9EA32"/>
<path d="M22.4264 49.1892C23.2754 47.9654 24.2617 46.6479 25.3281 45.3133C25.5709 45.0128 25.8202 44.7052 26.0697 44.4043C26.7286 43.6068 27.4211 42.8078 28.1209 42.0219C28.3264 41.7904 28.5321 41.5656 28.7378 41.3409C29.7085 40.2802 30.6241 39.3432 31.4649 38.5444C31.8077 38.2192 32.1379 37.9147 32.4559 37.6378C32.9165 37.2332 33.3453 36.8705 33.7361 36.5634C33.9509 36.3921 34.1535 36.2484 34.3496 36.1116C34.7483 35.8311 35.1097 35.6196 35.407 35.4852C35.7306 35.336 35.9912 35.2841 36.1816 35.3228L36.1951 35.3222C36.2495 35.3333 36.291 35.3584 36.3329 35.3902C36.3396 35.3899 36.3534 35.3961 36.3604 35.4025L35.1856 34.4436L34.864 34.1815L34.5075 33.894C34.5075 33.894 34.4657 33.8621 34.4449 33.8496C34.1883 33.6857 33.8104 33.6755 33.3382 33.8177C32.8259 33.9684 32.2064 34.2857 31.4928 34.7621C30.7793 35.2385 29.9784 35.8738 29.1166 36.6534C28.2547 37.4329 27.3251 38.357 26.3541 39.411C25.1712 40.7035 24.0387 42.0679 23.0073 43.4346C21.976 44.8013 21.0453 46.1568 20.2666 47.4448C19.4876 48.7262 18.8533 49.927 18.4146 50.9776C17.9755 52.0215 17.7321 52.9152 17.7276 53.5759C17.8535 53.6782 17.986 53.7802 18.1119 53.8824L18.1329 53.9017L18.147 53.9146C18.2799 54.0233 18.4124 54.1252 18.5386 54.2342L18.6156 54.2982C18.6644 54.3365 18.7136 54.3815 18.7625 54.4198C18.8254 54.4709 18.8883 54.522 18.9445 54.5735C19.0004 54.6182 19.0566 54.6696 19.1125 54.7143C19.1614 54.7526 19.2105 54.7976 19.2594 54.8358C19.2875 54.8615 19.3153 54.8805 19.3434 54.9063C19.3813 54.6956 19.4644 54.4426 19.5669 54.1685C19.7417 53.7024 19.9872 53.1591 20.3239 52.5443C20.3677 52.4683 20.4177 52.3784 20.4615 52.3023C20.8111 51.6735 21.2258 50.9947 21.7055 50.259C21.933 49.9187 22.1667 49.5646 22.4139 49.2099L22.4264 49.1892Z" fill="#C9EA32"/>
<path d="M23.2149 36.9076C24.1728 35.861 25.117 34.9632 26.014 34.2158C26.911 33.4684 27.761 32.8781 28.5375 32.4528C29.314 32.0275 30.0168 31.7672 30.6196 31.6798C31.1957 31.6004 31.6777 31.6802 32.0458 31.9267C32.0599 31.9396 32.0807 31.9521 32.0944 31.9583L31.9689 31.8627L30.3116 30.6623L30.1723 30.5606C30.1723 30.5606 30.11 30.5229 30.0822 30.504C29.6453 30.2268 29.1012 30.1161 28.4763 30.1572C27.8109 30.2002 27.0524 30.4225 26.2341 30.8159C25.4158 31.2094 24.531 31.7742 23.6126 32.4956C22.6942 33.217 21.7497 34.1081 20.7912 35.1413C19.6083 36.4338 18.5247 37.8365 17.5905 39.2662C16.6563 40.696 15.8585 42.1602 15.2469 43.5689C14.6353 44.9777 14.1962 46.3249 13.9805 47.5408C13.7644 48.7501 13.7583 49.8287 14.0114 50.6735C14.1504 50.7684 14.2896 50.8701 14.4289 50.9718C14.4567 50.9908 14.4778 51.01 14.5053 51.0223C14.5542 51.0606 14.6028 51.0921 14.6516 51.1304C14.7143 51.1748 14.7839 51.2256 14.8465 51.27C14.9021 51.308 14.958 51.3527 15.0136 51.3907C15.0625 51.429 15.1181 51.4669 15.167 51.5052C15.1951 51.5309 15.2296 51.5496 15.2577 51.5753C15.3692 51.658 15.4877 51.7471 15.5992 51.8298L15.6619 51.8742L15.6753 51.8736C15.5337 51.1116 15.6376 50.1095 15.9441 48.9636C16.2573 47.8174 16.773 46.5275 17.4543 45.1696C18.1355 43.8117 18.9893 42.3922 19.965 40.9876C20.9407 39.5829 22.0451 38.1928 23.228 36.9003L23.2149 36.9076Z" fill="#C9EA32"/>
<path d="M17.1899 32.7604C18.1223 31.7486 19.0684 30.8912 20.0014 30.1961C20.9347 29.5077 21.848 28.9753 22.7151 28.6201C23.5823 28.2649 24.4099 28.08 25.1574 28.0671C25.9053 28.061 26.5798 28.2266 27.1481 28.5788L25.63 27.6283L25.1794 27.345C25.1308 27.3135 25.0758 27.2889 25.0208 27.2644L25.0006 27.2653C24.4005 26.9549 23.7265 26.8028 22.9985 26.8013C22.1963 26.7964 21.3342 26.9626 20.4389 27.2921C19.5439 27.6283 18.6093 28.1347 17.6751 28.8029C16.7409 29.4711 15.8007 30.308 14.8808 31.299C13.6976 32.5848 12.6629 34.0258 11.8188 35.5122C10.9751 37.0054 10.3089 38.5514 9.85677 40.0609C9.40466 41.5704 9.1669 43.0502 9.15951 44.4052C9.15885 45.76 9.38826 46.9832 9.88481 47.9991C9.92637 48.0242 9.96119 48.0497 10.0024 48.0681C10.0718 48.1122 10.1411 48.1563 10.2102 48.1936L10.2725 48.2313C10.3074 48.2567 10.3486 48.2751 10.3834 48.3006C10.4528 48.3447 10.5221 48.3888 10.5915 48.4329C10.619 48.4451 10.6401 48.4644 10.6608 48.477C10.6954 48.4957 10.7302 48.5211 10.7647 48.5398C10.8341 48.5839 10.9034 48.628 10.9728 48.6721C11.0006 48.6911 11.0284 48.7101 11.0559 48.7223C11.0904 48.741 11.1182 48.76 11.153 48.7854C11.2224 48.8295 11.2917 48.8736 11.3614 48.9245C11.3959 48.9432 11.4237 48.9622 11.4518 48.9879C11.0524 48.035 10.9198 46.8682 11.0106 45.5701C11.1014 44.2721 11.4223 42.8425 11.9367 41.3706C12.4512 39.8988 13.1726 38.3841 14.0512 36.9163C14.9365 35.4483 15.9856 34.0269 17.1685 32.7344L17.1899 32.7604Z" fill="#C9EA32"/>
<path d="M6.52519 46.1061C6.58722 46.1371 6.65627 46.1745 6.7183 46.2054L6.75283 46.2241C6.78736 46.2428 6.82861 46.2612 6.87016 46.2863C6.93219 46.3173 6.99452 46.3549 7.06327 46.3856L7.10482 46.4107C7.13935 46.4294 7.1806 46.4478 7.21513 46.4665C7.27716 46.4974 7.33949 46.5351 7.40824 46.5658L7.46355 46.597C7.46355 46.597 7.5326 46.6344 7.56713 46.6531C7.62945 46.6908 7.69148 46.7217 7.76053 46.7591L7.82286 46.7968C7.19492 45.7058 6.83384 44.4008 6.7239 42.9835C6.61395 41.5663 6.74783 40.0237 7.11012 38.4642C7.4724 36.9048 8.0625 35.315 8.8647 33.7967C9.66017 32.2788 10.6607 30.8258 11.8506 29.5397C12.7378 28.5704 13.6728 27.7674 14.6081 27.1261C15.5503 26.4845 16.4995 26.0044 17.429 25.6869C18.3589 25.3761 19.2689 25.228 20.1259 25.2507C20.9761 25.2737 21.7797 25.4605 22.51 25.8191L22.5302 25.8182L22.4892 25.8065L20.7922 24.9246L20.6748 24.8624C20.6748 24.8624 20.6406 24.8505 20.6268 24.8443C19.8568 24.501 19.0196 24.3157 18.1424 24.2939C17.2448 24.2662 16.3143 24.4085 15.3637 24.7067C14.4201 25.0114 13.4632 25.4716 12.5205 26.0997C11.5845 26.7275 10.6624 27.5165 9.78753 28.4584C8.60435 29.7442 7.61755 31.2032 6.85661 32.7399C6.09567 34.2766 5.54682 35.8847 5.24686 37.4819C4.93988 39.0726 4.87476 40.6458 5.06751 42.1066C5.26025 43.5673 5.70414 44.9158 6.42161 46.0501C6.46287 46.0685 6.49739 46.0871 6.53894 46.1123L6.52519 46.1061Z" fill="#C9EA32"/>
<path d="M18.1028 23.6888L16.7649 23.1549L16.4018 23.0227C16.2991 22.9869 16.1965 22.951 16.0941 22.9218C15.308 22.6735 14.4799 22.5417 13.6434 22.5248C12.6926 22.513 11.7214 22.6504 10.7635 22.9355C9.79915 23.2275 8.84809 23.6673 7.92407 24.2609C7.00677 24.8542 6.1162 25.5946 5.29303 26.487C4.10985 27.7728 3.16401 29.2435 2.47855 30.8105C1.78636 32.3778 1.34723 34.0283 1.17103 35.6806C0.994534 37.3262 1.08067 38.9669 1.43843 40.5012C1.79619 42.0355 2.4323 43.4632 3.34259 44.6899C3.36306 44.6958 3.39057 44.708 3.41104 44.7139C3.48653 44.7442 3.55498 44.7682 3.63047 44.7985L3.64392 44.7979C3.64392 44.7979 3.71268 44.8286 3.74018 44.8408C3.80191 44.8651 3.86364 44.8893 3.92537 44.9135L3.94555 44.9126C3.98037 44.938 4.0146 44.95 4.04883 44.962C4.11056 44.9862 4.16557 45.0107 4.2273 45.0349L4.2548 45.0472C4.28903 45.0592 4.32356 45.0778 4.35779 45.0898C4.41279 45.1143 4.47452 45.1386 4.52953 45.1631L4.56405 45.1818C3.72925 43.9854 3.16863 42.5881 2.87962 41.0844C2.59032 39.574 2.56591 37.9576 2.79039 36.3301C3.01486 34.7026 3.50168 33.0635 4.22137 31.5084C4.94106 29.9533 5.90065 28.4887 7.08383 27.203C7.93272 26.2824 8.83584 25.5213 9.766 24.914C10.6962 24.3066 11.6604 23.8595 12.6247 23.5675C13.589 23.2754 14.5468 23.1386 15.4848 23.1645C16.4026 23.1912 17.2865 23.3677 18.1236 23.7014C18.1373 23.7075 18.1578 23.7133 18.1716 23.7195L18.1031 23.6955L18.1028 23.6888Z" fill="#C9EA32"/>
<path d="M13.6192 22.1418C13.1012 22.0097 12.4275 21.8643 11.8696 21.7475C11.8085 21.7367 11.7471 21.7192 11.6859 21.7084C11.6383 21.6971 11.5839 21.686 11.5297 21.6817C11.265 21.6395 10.9532 21.5994 10.7096 21.5764C0.873065 20.745 -6.84234 34.1754 0.739952 43.9156L0.753405 43.915C0.807813 43.9261 0.86252 43.9439 0.916929 43.9549C0.937108 43.954 0.964611 43.9663 0.985089 43.9721C1.0667 43.9887 1.14861 44.0121 1.23023 44.0287L1.25713 44.0275C1.33232 44.0511 1.4075 44.0747 1.48239 44.0916L1.48911 44.0913C1.48911 44.0913 1.54382 44.1091 1.57102 44.1147C1.62573 44.1325 1.68014 44.1435 1.74157 44.161L1.75503 44.1604C1.60483 43.9649 1.39784 43.7045 1.25378 43.4952C-4.67515 34.8679 2.20597 19.7963 13.6058 22.1424L13.6192 22.1418Z" fill="#C9EA32"/>
<path d="M-1.53138 25.1915C-2.71486 26.4706 -3.59284 27.9518 -4.16978 29.5342C-4.74672 31.1167 -5.02965 32.7939 -5.00899 34.478C-4.98863 36.1553 -4.6714 37.8397 -4.05565 39.4165C-3.4396 41 -2.52502 42.476 -1.31578 43.7569L-1.2956 43.756C-1.26197 43.7545 -1.22161 43.7527 -1.18798 43.7512C-1.1678 43.7503 -1.14762 43.7494 -1.12744 43.7485L-1.11398 43.7479C-1.07362 43.7462 -1.03999 43.7447 -0.999632 43.7429C-0.979452 43.742 -0.952545 43.7408 -0.932365 43.7399L-0.918913 43.7393C-0.878553 43.7375 -0.831466 43.7354 -0.790809 43.7404C-0.770629 43.7395 -0.750449 43.7386 -0.730269 43.7377C-0.669729 43.735 -0.608892 43.7391 -0.554782 43.7434L-0.527875 43.7422C-7.39267 35.8978 -3.23485 21.4253 8.48882 21.3442L8.435 21.3465L7.88163 21.3306L7.848 21.3321C7.27535 21.3372 6.51554 21.3776 5.93764 21.4167L5.93092 21.417C5.24659 21.4878 4.57137 21.612 3.90586 21.8032C3.24035 21.9945 2.58425 22.2459 1.9513 22.5638C1.31835 22.8816 0.707972 23.2524 0.121047 23.6962C-0.45945 24.1331 -1.01679 24.6363 -1.53781 25.1985L-1.53138 25.1915Z" fill="#C9EA32"/>
<path d="M-7.00459 35.0724C-6.92428 36.7336 -6.53425 38.3878 -5.83867 39.9408C-5.14309 41.4939 -4.14196 42.9458 -2.83302 44.1953L-2.81343 44.181C-2.81343 44.181 -2.76754 44.152 -2.74766 44.1444C-2.7342 44.1438 -2.72135 44.1297 -2.70819 44.1224L-2.68801 44.1215C-2.68801 44.1215 -2.64241 44.0858 -2.61581 44.0779C-2.60235 44.0773 -2.5895 44.0632 -2.57634 44.0559L-2.55616 44.055C-2.55616 44.055 -2.50354 44.0257 -2.47693 44.0178C-2.46348 44.0172 -2.44389 44.0029 -2.43074 43.9955L-2.41728 43.9949C-2.41728 43.9949 -2.35764 43.9721 -2.33133 43.9574C-2.31115 43.9565 -2.29829 43.9425 -2.27811 43.9416C-9.00459 36.7853 -6.93946 25.8899 1.81282 22.3279L1.84586 22.3129L1.79294 22.3355C1.16374 22.5858 0.350664 22.9453 -0.24984 23.2347C-0.585748 23.4113 -1.01196 23.6796 -1.34697 23.8764L-1.37328 23.8911L-1.39286 23.9054C-1.59603 24.0357 -1.79859 24.1795 -2.00116 24.3232C-2.20343 24.4737 -2.4054 24.631 -2.60708 24.7949C-2.80202 24.9586 -2.99667 25.1289 -3.184 25.3125C-3.37162 25.4893 -3.55865 25.6795 -3.73193 25.8759C-4.90868 27.1547 -5.7735 28.6285 -6.3177 30.1893C-6.86161 31.7568 -7.09132 33.4183 -7.01102 35.0794L-7.00459 35.0724Z" fill="#C9EA32"/>
</svg>
