<svg width="96" height="40" viewBox="0 0 96 40" fill="none" xmlns="http://www.w3.org/2000/svg">
<g clip-path="url(#clip0_588_271)">
<path d="M85.9524 39.2308H58.2495C53.5362 39.2308 49.6787 35.3865 49.6787 30.6896C49.6787 25.9927 53.5362 22.1484 58.2495 22.1484H85.9524C90.6656 22.1484 94.5232 25.9927 94.5232 30.6896C94.5232 35.3865 90.6656 39.2308 85.9524 39.2308Z" fill="#FF3900"/>
<path d="M8.92422 0C11.3946 0 13.5723 0.902137 15.1598 2.41243V7.06675C14.4009 4.33788 11.9801 2.43489 8.92422 2.43489C5.23112 2.43489 2.44333 5.21312 2.44333 8.89348C2.44333 12.5738 5.23112 15.352 8.92422 15.352C11.7368 15.352 14.0113 13.743 14.9414 11.3553H6.47871V8.91812H15.162V15.3767C13.5721 16.887 11.3946 17.7892 8.92652 17.7892C3.83951 17.7892 9.90061e-07 13.9629 9.90061e-07 8.89348C-0.0022509 3.82626 3.8372 0 8.92422 0Z" fill="#F9F9F9"/>
<path d="M17.3613 0.366211H30.5687V2.80329H19.8069V7.67753H30.5687V10.1147H19.8069V14.9889H30.5687V17.4259H17.3613V0.366211Z" fill="#F9F9F9"/>
<path d="M32.7696 0.365845H37.9062L45.5852 17.4256V0.365845H48.031V17.4256H42.8941L35.2151 0.365845V17.4256H32.7696V0.365845Z" fill="#F9F9F9"/>
<path d="M49.7423 14.9885H55.9777V2.80292H49.7423V0.365845H64.6611V2.80292H58.4257V14.9885H64.6611V17.4256H49.7423V14.9885Z" fill="#F9F9F9"/>
<path d="M65.8828 9.43244V0.366211H68.3285V9.48183C68.3285 12.9422 70.9205 15.478 74.395 15.478C77.8177 15.478 80.5584 12.9445 80.5584 9.48183V0.366211H83.004V9.43244C83.004 14.2349 79.1894 17.9152 74.395 17.9152C69.6005 17.9152 65.8828 14.2101 65.8828 9.43244Z" fill="#F9F9F9"/>
<path d="M84.1066 16.2317V11.7704C84.3521 13.8663 86.478 15.2555 88.4843 15.2555C89.928 15.2555 91.4432 14.4521 91.4432 12.8431C91.4432 9.40731 84.1066 10.3566 84.1066 5.02006C84.1066 1.92543 86.5273 0.0964355 89.4863 0.0964355C90.8556 0.0964355 92.2024 0.511608 93.3013 1.33969V5.82342C93.0807 3.84861 91.4658 2.53358 89.5112 2.53358C88.0679 2.53358 86.5523 3.21578 86.5523 4.87417C86.5523 8.45806 93.8889 7.7736 93.8889 12.9171C93.8889 15.9871 91.3938 17.6949 88.5092 17.6949C86.9418 17.6949 85.3541 17.2057 84.1066 16.2317Z" fill="#F9F9F9"/>
<path d="M59.7392 32.3506C59.7392 32.0452 59.6229 31.809 59.3898 31.642C59.1609 31.4709 58.7584 31.3243 58.182 31.2021C57.6101 31.08 57.1541 30.9333 56.8153 30.7622C56.4798 30.5913 56.2306 30.3876 56.0672 30.1514C55.908 29.9151 55.8281 29.6342 55.8281 29.3083C55.8281 28.7666 56.057 28.3084 56.5149 27.9338C56.9764 27.559 57.5649 27.3717 58.2803 27.3717C59.0321 27.3717 59.6413 27.5652 60.107 27.9521C60.5769 28.339 60.8118 28.8338 60.8118 29.4366H59.6718C59.6718 29.1271 59.5389 28.8603 59.2735 28.6364C59.0118 28.4123 58.6809 28.3003 58.2803 28.3003C57.8677 28.3003 57.5446 28.39 57.3115 28.5691C57.0789 28.7483 56.9621 28.9825 56.9621 29.2716C56.9621 29.5445 57.0706 29.7502 57.287 29.8887C57.5035 30.0271 57.894 30.1595 58.458 30.2857C59.0261 30.412 59.4858 30.5627 59.8375 30.7378C60.1887 30.9129 60.4486 31.1247 60.6157 31.3732C60.7873 31.6175 60.8732 31.9169 60.8732 32.2713C60.8732 32.8617 60.6364 33.3362 60.162 33.6947C59.688 34.049 59.0732 34.2262 58.3172 34.2262C57.786 34.2262 57.3157 34.1324 56.9072 33.9452C56.4983 33.7578 56.1775 33.4972 55.9444 33.1631C55.716 32.8251 55.6015 32.4605 55.6015 32.0696H56.7355C56.7558 32.4484 56.9072 32.7498 57.1892 32.9738C57.4749 33.1936 57.851 33.3037 58.3172 33.3037C58.746 33.3037 59.0893 33.2182 59.3469 33.0471C59.6086 32.8719 59.7392 32.6398 59.7392 32.3506ZM67.9537 30.8722C67.9537 31.8782 67.7229 32.6886 67.2609 33.3037C66.7993 33.9186 66.174 34.2262 65.3852 34.2262C64.5803 34.2262 63.9466 33.9716 63.485 33.4625V36.6454H62.3506V27.4939H63.3867L63.4421 28.227C63.9037 27.6568 64.5452 27.3717 65.3667 27.3717C66.1638 27.3717 66.7933 27.6711 67.2549 28.2698C67.721 28.8684 67.9537 29.7013 67.9537 30.7683V30.8722ZM66.8197 30.7439C66.8197 29.9986 66.6604 29.4101 66.3415 28.9784C66.0226 28.5467 65.5855 28.3308 65.0298 28.3308C64.343 28.3308 63.828 28.6343 63.485 29.2411V32.3995C63.8243 33.0023 64.343 33.3037 65.0418 33.3037C65.5855 33.3037 66.0166 33.0898 66.3355 32.6622C66.6581 32.2304 66.8197 31.5911 66.8197 30.7439ZM73.4953 34.1039C73.4303 33.9736 73.3772 33.7415 73.3361 33.4075C72.809 33.9533 72.1795 34.2262 71.448 34.2262C70.794 34.2262 70.2567 34.0428 69.8358 33.6763C69.419 33.3057 69.2104 32.8373 69.2104 32.2713C69.2104 31.583 69.4721 31.0494 69.995 30.6706C70.5221 30.2878 71.262 30.0964 72.2141 30.0964H73.3177V29.5771C73.3177 29.1821 73.199 28.8684 72.9623 28.6364C72.725 28.4002 72.3757 28.282 71.9141 28.282C71.5093 28.282 71.1701 28.3838 70.8964 28.5874C70.6227 28.791 70.4857 29.0374 70.4857 29.3266H69.3452C69.3452 28.9967 69.462 28.6791 69.6946 28.3736C69.9318 28.0641 70.2507 27.8197 70.6509 27.6405C71.0557 27.4613 71.4992 27.3717 71.9815 27.3717C72.7458 27.3717 73.3444 27.5632 73.7773 27.946C74.2107 28.3247 74.4355 28.848 74.4521 29.516V32.5583C74.4521 33.1651 74.5297 33.6478 74.6847 34.0062V34.1039H73.4953ZM71.6137 33.2426C71.969 33.2426 72.3064 33.1509 72.6249 32.9677C72.9438 32.7844 73.1746 32.5462 73.3177 32.2529V30.8967H72.4287C71.0395 30.8967 70.3444 31.3019 70.3444 32.1124C70.3444 32.4667 70.463 32.7437 70.7003 32.9432C70.937 33.1427 71.2417 33.2426 71.6137 33.2426ZM78.8903 33.3037C79.2946 33.3037 79.6481 33.1814 79.9504 32.9371C80.2532 32.6927 80.4207 32.3873 80.4535 32.0208H81.5261C81.5058 32.3995 81.3747 32.76 81.1338 33.102C80.8929 33.4442 80.5698 33.7171 80.165 33.9206C79.7649 34.1242 79.3398 34.2262 78.8903 34.2262C77.987 34.2262 77.2675 33.9268 76.7321 33.3281C76.2009 32.7254 75.9355 31.9026 75.9355 30.86V30.6706C75.9355 30.0271 76.0537 29.4549 76.2909 28.954C76.5281 28.453 76.8673 28.0641 77.3086 27.7871C77.754 27.5102 78.2792 27.3717 78.8838 27.3717C79.6278 27.3717 80.2449 27.5937 80.7355 28.0376C81.2298 28.4816 81.4933 29.0578 81.5261 29.7664H80.4535C80.4207 29.3388 80.2573 28.9886 79.9629 28.7158C79.6726 28.4388 79.313 28.3003 78.8838 28.3003C78.3078 28.3003 77.8601 28.508 77.5417 28.9234C77.2269 29.3347 77.0695 29.9314 77.0695 30.7134V30.9272C77.0695 31.6888 77.2269 32.2753 77.5417 32.6866C77.8564 33.098 78.306 33.3037 78.8903 33.3037ZM85.554 34.2262C84.6544 34.2262 83.9229 33.9329 83.3589 33.3464C82.7949 32.7559 82.5133 31.9678 82.5133 30.9822V30.7744C82.5133 30.1188 82.638 29.5343 82.8872 29.0212C83.1406 28.504 83.4918 28.1007 83.9413 27.8116C84.395 27.5183 84.8857 27.3717 85.4127 27.3717C86.2749 27.3717 86.9455 27.6547 87.4237 28.2209C87.9018 28.787 88.1409 29.5975 88.1409 30.6523V31.1227H83.6473C83.6635 31.7744 83.8536 32.3018 84.2173 32.7049C84.5852 33.1041 85.0509 33.3037 85.6149 33.3037C86.0155 33.3037 86.3547 33.2222 86.6326 33.0593C86.9104 32.8964 87.1537 32.6805 87.3623 32.4117L88.055 32.9493C87.4989 33.8005 86.6653 34.2262 85.554 34.2262ZM85.4127 28.3003C84.9549 28.3003 84.5709 28.4673 84.2603 28.8012C83.9497 29.1312 83.7577 29.5955 83.6838 30.1941H87.0064V30.1086C86.9737 29.5343 86.8186 29.0904 86.5407 28.7768C86.2629 28.4592 85.8867 28.3003 85.4127 28.3003Z" fill="#F9F9F9"/>
<path d="M52.651 28.9166C52.5777 28.9177 52.5043 28.9227 52.4309 28.9223C52.2047 28.9208 51.9795 28.9129 51.7543 28.8986C51.5295 28.8843 51.3047 28.8636 51.0809 28.8375C50.857 28.8115 50.6341 28.7801 50.4117 28.7435C50.1892 28.7068 49.9672 28.6653 49.7461 28.6192C49.525 28.5731 49.3049 28.5227 49.0852 28.4684C48.8655 28.4141 48.6467 28.356 48.4294 28.2946C48.2115 28.2332 47.9941 28.1687 47.7781 28.1014C47.5626 28.0341 47.348 27.9644 47.1338 27.8924C46.7064 27.7485 46.2795 27.5953 45.8534 27.4385C45.4271 27.2817 45.0011 27.1209 44.5749 26.9602C44.1488 26.7995 43.7224 26.6389 43.2951 26.4833C42.8678 26.3277 42.4398 26.1766 42.0101 26.0352C41.7952 25.9644 41.58 25.896 41.3643 25.8305C41.1486 25.7649 40.9324 25.7029 40.7157 25.6437C40.499 25.5846 40.2819 25.5288 40.0641 25.4771C39.8462 25.4254 39.6272 25.3773 39.4081 25.3342C39.1889 25.2911 38.9691 25.2526 38.7484 25.2193C38.5278 25.1859 38.3067 25.1577 38.0844 25.1353C37.8622 25.1127 37.6393 25.0962 37.4153 25.0857C37.1913 25.0752 36.9663 25.0709 36.7403 25.0735C36.5077 25.076 36.2754 25.0867 36.0435 25.1044C35.8116 25.122 35.5798 25.1468 35.3495 25.1791C35.1193 25.2114 34.8899 25.2509 34.6622 25.2976C34.4344 25.3443 34.2085 25.3983 33.9843 25.4592C33.76 25.52 33.5379 25.5876 33.3181 25.6624C33.2701 25.6787 33.2236 25.6993 33.1758 25.7163C34.0637 28.5382 36.4516 31.4603 40.72 35.0449C42.2526 36.332 43.5912 37.3848 43.695 37.3848C44.2002 37.3848 48.1243 34.0913 50.1167 31.9947C51.1173 30.9424 51.961 29.9136 52.651 28.9166V28.9166Z" fill="#FECB00"/>
<path d="M38.0104 17.5388C37.0049 17.5474 36.0237 17.7696 35.2865 18.2254C33.3823 19.4027 32.7407 20.6775 32.7705 23.224C32.7803 24.0556 32.9129 24.8816 33.1755 25.7162C33.2232 25.6992 33.2698 25.6787 33.3178 25.6623C33.5376 25.5875 33.7597 25.5199 33.984 25.4591C34.2083 25.3982 34.4342 25.3442 34.6619 25.2975C34.8896 25.2508 35.119 25.2113 35.3492 25.179C35.5795 25.1467 35.8113 25.1219 36.0432 25.1043C36.2751 25.0866 36.5074 25.0761 36.74 25.0734C36.966 25.0708 37.191 25.0752 37.415 25.0856C37.639 25.0961 37.8619 25.1126 38.0841 25.1352C38.3063 25.1576 38.5275 25.1858 38.7481 25.2192C38.9687 25.2525 39.1886 25.291 39.4078 25.3341C39.6269 25.3772 39.8459 25.4253 40.0637 25.477C40.2816 25.5287 40.4987 25.5845 40.7153 25.6436C40.932 25.7028 41.1484 25.7648 41.364 25.8304C41.5798 25.8959 41.795 25.9643 42.0098 26.0351C42.4396 26.1765 42.8675 26.3276 43.2948 26.4832C43.7221 26.6388 44.1485 26.7994 44.5747 26.9601C45.0009 27.1208 45.4268 27.2816 45.8531 27.4384C46.2792 27.5952 46.7062 27.7484 47.1335 27.8923C47.3477 27.9642 47.5623 28.034 47.7779 28.1013C47.9939 28.1686 48.2112 28.2331 48.4291 28.2945C48.6465 28.3559 48.8652 28.414 49.0849 28.4683C49.3042 28.5226 49.5248 28.573 49.7459 28.6191C49.9669 28.6652 50.1889 28.7067 50.4114 28.7434C50.6339 28.78 50.8568 28.8114 51.0806 28.8374C51.3045 28.8635 51.5292 28.8842 51.754 28.8985C51.9792 28.9128 52.2045 28.9209 52.4306 28.9222C52.504 28.9226 52.5774 28.9176 52.6508 28.9165C55.4897 24.816 55.6937 21.2557 53.122 18.8309C52.2479 18.0064 51.5615 17.7381 49.9997 17.6106C47.5591 17.4114 45.9828 18.1116 44.7892 19.9254C43.8387 21.3698 43.5338 21.4883 43.2262 20.5344C43.1073 20.1655 42.5077 19.3903 41.8938 18.8115C41.0022 17.9707 39.48 17.5263 38.0104 17.5388V17.5388Z" fill="#0068C2"/>
<path opacity="0.217903" d="M46.4364 34.5634C51.2336 29.5442 53.0465 26.4305 53.0525 23.1994C53.0567 20.6338 52.2582 19.1973 50.3225 18.2918L48.7598 17.5605L50.389 17.7396C53.3853 18.0689 55.285 20.9714 54.7238 24.3622C54.3005 26.9192 52.6644 29.4054 49.0888 32.9264C44.9471 37.0046 42.8895 38.2745 46.4364 34.5634ZM41.7411 20.8898C40.9609 19.4978 40.3062 18.857 39.126 18.3296C37.5945 17.6453 37.5821 17.6259 38.6724 17.6194C40.7623 17.6069 43.9243 20.3979 43.6265 21.9921C43.4236 23.0786 42.7461 22.6825 41.7411 20.8898Z" fill="#F9F9F9"/>
<path opacity="0.367623" d="M36.8294 19.231C36.3712 19.2282 35.8815 19.5141 35.2869 20.0993C33.6267 21.5725 34.6241 27.4276 35.3651 23.7063C35.5021 23.0927 36.4109 22.239 36.9995 21.8107C38.3612 20.8198 38.5941 20.4651 37.8766 19.7589C37.5231 19.4109 37.1858 19.2335 36.8294 19.231ZM47.9353 19.3122C47.2855 19.308 46.5987 19.7916 46.1344 20.6753C45.4031 22.0674 45.8152 22.1383 46.8863 22.1383C47.3884 22.1383 47.8763 21.7348 48.4527 21.2419C49.4252 20.4103 49.457 20.3021 48.8889 19.7337C48.606 19.4507 48.2755 19.3144 47.9353 19.3122Z" fill="#F9F9F9"/>
</g>
<defs>
<clipPath id="clip0_588_271">
<rect width="96" height="39.6923" fill="white"/>
</clipPath>
</defs>
</svg>
