<?xml version="1.0" encoding="UTF-8"?>
<svg xmlns="http://www.w3.org/2000/svg" viewBox="0 0 429.04 173.83">
  <defs>
    <style>.d{fill:#fff;}.e{fill:#ff3900;}</style>
  </defs>
  <g id="a"></g>
  <g id="b">
    <g id="c">
      <g>
        <rect class="e" x="229.91" y="97.71" width="199.14" height="76.12" rx="38.06" ry="38.06"></rect>
        <g>
          <path class="d" d="M39.64,0c10.97,0,20.64,4.02,27.69,10.75V31.5c-3.37-12.16-14.12-20.64-27.69-20.64-16.4,0-28.78,12.38-28.78,28.78s12.38,28.78,28.78,28.78c12.49,0,22.59-7.17,26.72-17.81H28.78v-10.86h38.56v28.78c-7.06,6.73-16.73,10.75-27.69,10.75C17.05,79.28,0,62.23,0,39.64S17.05,0,39.64,0Z"></path>
          <path class="d" d="M79.11,1.63h58.65V12.49h-47.79v21.72h47.79v10.86h-47.79v21.72h47.79v10.86h-58.65V1.63Z"></path>
          <path class="d" d="M149.53,1.63h22.81l34.1,76.02V1.63h10.86V77.65h-22.81L160.39,1.63V77.65h-10.86V1.63Z"></path>
          <path class="d" d="M226.91,66.79h27.69V12.49h-27.69V1.63h66.25V12.49h-27.69v54.3h27.69v10.86h-66.25v-10.86Z"></path>
          <path class="d" d="M301.59,42.03V1.63h10.86V42.25c0,15.42,11.51,26.72,26.93,26.72s27.37-11.29,27.37-26.72V1.63h10.86V42.03c0,21.4-16.94,37.8-38.23,37.8s-37.8-16.51-37.8-37.8Z"></path>
          <path class="d" d="M382.5,72.33v-19.88c1.09,9.34,10.53,15.53,19.44,15.53,6.41,0,13.14-3.58,13.14-10.75,0-15.31-32.58-11.08-32.58-34.86,0-13.79,10.75-21.94,23.89-21.94,6.08,0,12.06,1.85,16.94,5.54V25.96c-.98-8.8-8.15-14.66-16.83-14.66-6.41,0-13.14,3.04-13.14,10.43,0,15.97,32.58,12.92,32.58,35.84,0,13.68-11.08,21.29-23.89,21.29-6.95,0-14.01-2.17-19.55-6.52Z"></path>
        </g>
        <g>
          <path class="d" d="M254.58,140.43v-.31h4.31v.31c0,2.25,2.88,3.33,8.72,3.33,5.17,0,7.91-.99,7.91-2.88v-.31c0-1.48-1.48-2.11-5.71-2.56l-5.17-.54c-6.38-.67-9.21-2.47-9.21-6.07v-.45c0-4.13,4.49-6.61,12.04-6.61s12.4,2.7,12.4,7.19v.31h-4.27v-.31c0-2.16-2.79-3.33-8.31-3.33-4.72,0-7.41,.99-7.41,2.65v.31c0,1.48,1.35,2.2,4.81,2.52l5.26,.49c7.01,.67,10.02,2.56,10.02,6.29v.45c0,4.18-4.72,6.74-12.45,6.74s-12.94-2.74-12.94-7.23Z"></path>
          <path class="d" d="M312.55,135.62v.72c0,6.88-5.17,11.32-13.26,11.32-3.33,0-6.25-1.03-8.4-2.97v10.07h-4.31v-29.88h4l.18,2.56c2.2-1.98,5.21-3.1,8.54-3.1,8.09,0,13.26,4.4,13.26,11.28Zm-4.45,0c0-4.58-3.37-7.32-8.85-7.32-3.55,0-6.7,1.35-8.36,3.5v8.36c1.66,2.16,4.81,3.55,8.36,3.55,5.48,0,8.85-2.79,8.85-7.37v-.72Z"></path>
          <path class="d" d="M346.61,143.3v3.82h-2.97c-2.97,0-4.99-1.17-5.75-3.28-2.38,2.61-5.71,3.82-10.25,3.82-6.43,0-10.02-2.34-10.02-6.52,0-3.55,2.74-5.8,7.95-6.34l12-1.26c-.18-3.37-2.83-5.12-7.77-5.12s-7.77,1.75-7.77,4.45v.18h-4.27v-.18c0-5.12,4.81-8.54,12.09-8.54s12,3.55,12,9.57v6.92c0,1.57,.99,2.47,2.79,2.47h1.98Zm-9.03-3.86v-2.38l-11.05,1.17c-3.15,.31-4.63,1.26-4.63,2.92,0,1.8,1.93,2.7,5.66,2.7,4.85,0,8.45-1.62,10.02-4.4Z"></path>
          <path class="d" d="M348.95,136.47v-.81c0-6.96,5.12-11.32,13.26-11.32,7.37,0,12.76,4,12.76,9.57v.18h-4.45v-.18c0-3.28-3.46-5.62-8.31-5.62-5.53,0-8.81,2.74-8.81,7.41v.72c0,4.54,3.28,7.28,8.81,7.28,4.9,0,8.31-2.34,8.31-5.57v-.18h4.45v.18c0,5.62-5.21,9.53-12.76,9.53-8.09,0-13.26-4.36-13.26-11.19Z"></path>
          <path class="d" d="M404.99,137.42h-21.44c.27,3.91,3.51,6.29,8.63,6.29,4.76,0,7.95-1.75,8.18-4.36h4.63c-.49,5.21-5.26,8.31-12.81,8.31-8.04,0-13.12-4.31-13.12-11.14v-.94c0-6.88,5.08-11.23,13.12-11.23s12.81,4.18,12.81,11.05v2.02Zm-21.35-3.59h16.76c-.54-3.46-3.55-5.53-8.22-5.53s-7.91,2.07-8.54,5.53Z"></path>
        </g>
      </g>
    </g>
  </g>
</svg>
