<svg xmlns="http://www.w3.org/2000/svg" width="940" height="160" viewBox="0 0 940 160">
  <g fill="#04040C" transform="translate(3 4)">
    <ellipse cx="344.573" cy="19.157" rx="20.691" ry="19.157" fill="#B8B8B8"/>
    <path d="M362.577 143.46C362.573 134.629 362.566 43.054 362.568 39.755 362.576 39.321 362.201 39.172 361.978 39.286 340.19 50.361 326.815 57.896 326.815 57.896 326.815 57.896 326.013 57.979 326.009 59.9 326.013 67.699 325.991 130.496 325.991 143.289 325.991 144.535 325.989 145.342 325.989 145.617 325.988 148.719 324.685 151.185 324.413 151.957 324.381 152.044 324.497 152.106 324.497 152.106L354.347 152.108 364.07 152.108C364.07 152.108 364.185 152.044 364.156 151.958 363.859 151.111 362.576 148.76 362.578 145.617 362.58 145.418 362.58 144.662 362.577 143.46zM247.571 137.129C242.754 138.164 240.397 134.445 238.162 124.416 233.515 103.562 231.846 93.952 230.381 86.987 225.066 61.733 219.45 53.311 209.787 47.768 196.941 40.399 176.034 39.781 161.583 47.053 161.583 47.053 161.057 47.245 161.058 47.938 161.064 50.82 161.036 61.552 161.012 62.619 160.992 63.492 161.59 62.839 161.59 62.839 173.15 58.285 190.975 55.304 193.761 81.765 193.778 81.928 194.171 83.064 193.699 83.186 183.3 85.827 166.96 91.22 159.891 98.87 144.048 116.017 150.874 143.638 168.266 150.787 177.969 154.778 198.032 157.94 212.415 143.66 221.55 152.829 228.599 152.825 234.381 152.864 234.381 152.864 247.063 152.833 247.674 152.85 248.164 152.864 248.164 152.864 248.17 151.213 248.172 150.665 248.164 142.715 248.174141 137.955 248.176 137.359 248.165 137.001 247.571 137.129zM203.516 132.694C183.53 145.73 176.288 107.127 195.737 99.672 196.521 99.426 196.985 99.887 196.985 99.887L204.838 130.873C205.051 131.608 204.125 132.349 203.516 132.694zM420.482 40.934C390.971 39.828 371.284 59.474 369.536 95.817 368.438 118.631 381.233 139.57 395.279 147.498 411.982 156.928 433.501 155.297 449.913 148.437 453.139 147.088 452.989 146.333 452.989 144.24 452.989 142.143 452.989 132.25 452.989 131.202 452.989 130.155 453.377 128.366 450.922 129.843 448.466 131.32 441.52 135.045 435.316 135.446 423.323 136.219 414.339 133.598 408.095 114.334 407.11 111.298 407.962 111.648 408.634 111.226 409.306 110.807 462.772 93.798 462.772 93.798 463.749 93.141 463.776 91.313 463.686 90.115 461.516 61.362 443.75 41.805 420.482 40.934zM407.06 96.501C405.131 97.025 404.776 96.907 404.662 94.464 404.298 86.651 404.827 74.908 407.46 68.478 411.986 57.42 420.763 57.682 425.546 65.146 428.089 69.116 430.252 75.898 430.766 85.852 430.969 89.764 428.556 89.688 427.951 89.894 423.838 91.306 407.06 96.501 407.06 96.501zM143.247 143.816L143.204 138.649 143.196 87.575C143.2 70.34 147.327 42.367 118.723 42.367 104.108 42.367 96.987 47.877 89.895 58.784 89.652 59.157 89.263 59.19 89.168 58.784 83.522 34.701 47.695 37.945 36.18 58.062 35.901 58.451 35.677 58.764 35.498 58.984 35.177 59.383 34.75 59.127 34.751 58.66 34.75 58.065 34.749 51.78 34.748 50.341 34.749 48.048 34.749 43.965 34.751 40.658 34.759 40.222 34.397 40.073 34.182 40.187 13.214 51.296.393 57.899.393 57.899.393 57.899-.197 58.187.069 58.868.515 60.211 1.444 62.623 1.43 65.997 1.44 71.2 1.447 127.51 1.447 140.342L1.447 143.817C1.434 147.762.598 150.176.178 151.525-.031 152.194.662 152.171.662 152.171L28.743 152.172 35.477 152.172C35.477 152.172 36.342 152.27 36.041 151.526 35.707 150.698 34.702 148.79 34.717 143.816L34.753 140.867C34.749 132.01 34.75 101.674 34.75 89.305 34.75 86.356 34.75 84.574 34.75 84.574 34.751 75.823 40.414 69.506 46.477 69.442 53.815 69.463 55.698 76.929 55.707 80.399L55.707 89.646 55.703 141.06C55.703 141.06 55.709 143.539 55.708 143.816 55.694 147.762 54.858 150.175 54.438 151.526 54.229 152.194 54.923 152.172 54.923 152.172L83.004 152.174 89.738 152.172C89.738 152.172 90.603 152.27 90.302 151.526 89.968 150.698 88.963 148.79 88.978 143.816 88.979 143.62 88.976 139.408 88.976 139.408L88.981 102.85C88.981 99.898 88.987 84.525 88.987 84.525 88.988 75.773 94.651 69.458 100.715 69.394 108.053 69.414 109.935 76.878 109.944 80.35L109.943 89.571 109.941 138.645 109.979 143.816C109.966 147.761 109.131 150.175 108.71 151.524 108.501 152.193 109.194 152.17 109.194 152.17L137.274 152.171 144.008 152.171C144.008 152.171 144.874 152.269 144.572 151.525 144.237 150.698 143.231 148.79 143.247 143.816zM321.843 42.049C312.41 40.459 300.032 39.902 292.232 57.182 291.956 57.564 291.732 57.87 291.553 58.088 291.234 58.478 290.807 58.226 290.81 57.77 290.808 57.186 290.679 52.717 290.678 51.307 290.68 49.062 290.68 43.944 290.68 40.705 290.688 40.276 290.328 40.131 290.115 40.242 269.224 51.126 254.06 59.87 254.06 59.87 254.06 59.87 253.354 60.073 253.582 60.575 253.893 61.537 255.593 66.841 255.589 69.685 255.599 74.784 255.606 128.47 255.606 141.039L255.595 143.955C255.583 147.837 254.747 150.208 254.325 151.533 254.117 152.194 254.81 152.172 254.81 152.172L282.891 152.174 291.419 152.172C291.419 152.172 292.286 152.268 291.983 151.535 291.648 150.723 290.644 148.847 290.659 143.955L290.689 141.068C290.686 132.394 290.687 102.753 290.687 90.635 290.687 88.838 290.687 88.349 290.687 88.236 290.685 71.587 303.735 67.255 315.574 70.051 316.856 70.353 317.139 69.833 317.44 68.627 317.793 67.208 321.943 47.887 322.555 44.481 322.877 42.697 323.048 42.253 321.843 42.049zM541.744 127.502C534.291 116.929 530.615 107.661 530.629 92.484 530.662 58.02 552.111 53.511 568.395 63.647L568.395 45.927C559.198 40.726 547.071 39.817 537.975 40.899 510.821 44.135 494.965 69.498 494.949987 98.372 494.932 129.824 512.958 167.472 570.2 149.977L570.202 131.809C561.794 136.592 549.236 138.135 541.744 127.502zM615.121.745C615.121.745 589.81 14.032 576.57 21.199 577.886 22.43 580.664 27.792 580.664 45.459 580.664 64.855 580.666 83.892 580.67 90.162 580.676 102.945 580.664 127.468 580.504 146.867 580.484 149.015 579.287 151.966 579.287 152.174 579.287 152.174 617.621 152.171 617.537138 152.171 617.158 152.171 615.191 139.344 615.191 139.344 615.191 139.344 615.082.032 615.121.745z" fill="#B8B8B8"/>
    <ellipse cx="748.779" cy="19.222" rx="20.689" ry="19.157" fill="#B8B8B8"/>
    <path d="M765.128 143.465C765.122 134.573 765.116 42.371 765.118 39.05 765.126 38.614 764.751 38.463 764.526 38.578 742.739 49.73 729.364 57.317 729.364 57.317 729.364 57.317 728.561 57.399 728.559 59.333 728.561 67.187 728.539 130.414 728.539 143.293 728.539 144.549 728.539 145.359 728.539 145.639 728.537 148.76 727.234 151.244 726.961 152.019 726.932 152.109 727.047 152.172 727.047 152.172L756.897 152.174 766.622 152.174C766.622 152.174 766.735 152.109 766.706 152.023 766.409 151.169 765.128 148.803 765.13 145.639 765.13 145.438 765.13 144.676 765.128 143.465zM839.814 67.242C840.173 65.802 844.201 47.354 844.822 43.9 845.146 42.088 845.32 41.648 844.099 41.433 837.003 40.181 823.068 37.912 814.523 55.772 814.242 56.16 814.015 56.471 813.835 56.69 813.511 57.086 813.081 56.833 813.081 56.369 813.081 55.776 812.948 51.244 812.948 49.813 812.95 47.535 812.95 43.478 812.95 40.191 812.958 39.757 812.593 39.61 812.378 39.722 791.21 50.762 776.345 58.499 776.345 58.499 776.345 58.499 775.632 58.705 775.865 59.216 776.156 60.122 777.203 63.629 777.396 66.545 777.406 71.717 777.412 130.631 777.412 143.384 777.412 144.625 777.412 145.43 777.412 145.705 777.412 148.795 776.144 151.253 775.881 152.022 775.85 152.111 775.963 152.171 775.963 152.171L804.967 152.173 814.412 152.171C814.412 152.171 814.523 152.11 814.496 152.023 814.207 151.179 812.963 148.837 812.965 145.705 812.965 145.507 812.963 144.752 812.963 143.553 812.957 134.752 812.959 101.998 812.959 89.706 812.959 86.775 812.959 85.009 812.959 85.009 813.068 77.274 816.969 72.186 822.619 69.751 827.158 67.927 829.316 68.526 837.924 68.686 839.251 68.71 839.511 68.465 839.814 67.242zM933.712 90.113C931.544 61.362 913.776 41.804 890.509 40.933 860.999 39.827 841.312 59.473 839.564 95.816 838.468 118.63 851.263 139.567 865.308 147.497 882.009 156.925 903.529 155.296 919.941 148.436 923.168 147.086 923.017 146.332 923.017 144.237 923.017 142.142 923.017 132.249 923.017 131.202 923.017 130.154 923.404 128.364 920.951 129.842 918.494 131.319 911.547 135.044 905.344 135.443 893.352 136.217 884.367 133.596 878.123 114.331 877.139 111.297 877.99 111.647 878.66 111.225 879.334 110.806 932.799 93.794 932.799 93.794 933.777 93.139 933.804 91.311 933.712 90.113zM877.087 96.5C875.157 97.025 874.804 96.907 874.691 94.464 874.326 86.651 874.855 74.908 877.488 68.478 882.015 57.419 890.791 57.681 895.576 65.145 898.117 69.115 900.281 75.898 900.797 85.849 900.996 89.764 898.584 89.686 897.979 89.896 893.867 91.306 877.087 96.5 877.087 96.5zM719.078 136.693C714.262 137.727 711.906 134.007 709.672 123.979 705.024 103.127 703.354 93.515 701.889 86.55 696.575 61.295 690.959 52.875 681.297 47.33 668.449 39.962 647.545 39.345 633.092 46.617 633.092 46.617 632.567 46.809 632.567 47.501 632.573 50.384 632.547 61.117 632.522 62.182 632.502 63.055 633.1 62.401 633.1 62.401 644.659 57.848 662.487 54.867 665.27 81.33 665.286 81.493 665.68 82.629 665.207 82.749 654.811 85.391 638.469 90.783 631.4 98.435 615.556 115.581 622.384 143.203 639.775 150.351 649.476 154.341 669.541 157.503 683.923 143.224 693.06 152.393 700.107 152.388 705.892 152.427 705.892 152.427 718.574 152.396 719.185 152.415 719.673 152.427 719.673 152.427 719.679 150.775 719.679 150.227 719.673 142.278 719.683 137.517 719.683 136.923 719.673 136.566 719.078 136.693zM675.025 132.26C655.039 145.296 647.796 106.692 667.246 99.238 668.031 98.99 668.494 99.451 668.494 99.451L676.348 130.437C676.558 131.173 675.634 131.912 675.025 132.26z" fill="#B8B8B8"/>
  </g>
</svg>
