<svg width="150" height="80" viewBox="0 0 150 80" fill="none" xmlns="http://www.w3.org/2000/svg">
<path d="M23.6508 24L17.7156 54.5908L49.7225 56V30.44L23.6508 24Z" fill="#ECECEC"/>
<path d="M108.139 43.222V43.78H106.565V44.9037H108.015V45.4618H106.565V47.2729H106.022V43.222H108.139Z" fill="#B8B8B8"/>
<path d="M111.051 47.3528C110.763 47.3562 110.478 47.3026 110.212 47.1952C109.955 47.0916 109.718 46.9439 109.514 46.759C109.302 46.5661 109.135 46.3321 109.022 46.072C108.908 45.8119 108.851 45.5314 108.854 45.2485C108.851 44.9578 108.911 44.6697 109.03 44.4034C109.142 44.1518 109.306 43.9254 109.511 43.738C109.715 43.5527 109.952 43.4049 110.21 43.3018C110.479 43.1945 110.767 43.1409 111.058 43.1443C111.348 43.1411 111.636 43.1946 111.904 43.3018C112.162 43.4049 112.398 43.5527 112.602 43.738C112.813 43.931 112.98 44.1651 113.093 44.4252C113.206 44.6853 113.263 44.9658 113.259 45.2485H113.247C113.251 45.5313 113.194 45.8116 113.081 46.0717C112.968 46.3317 112.801 46.5659 112.591 46.759C112.386 46.9443 112.149 47.0921 111.892 47.1952C111.625 47.303 111.34 47.3566 111.051 47.3528ZM111.037 43.7305C110.813 43.7272 110.59 43.766 110.379 43.8447C110.185 43.918 110.007 44.0274 109.854 44.1667C109.707 44.3056 109.589 44.4707 109.505 44.6532C109.417 44.8423 109.373 45.0473 109.373 45.2546C109.373 45.462 109.417 45.6669 109.505 45.8561C109.588 46.039 109.707 46.2044 109.854 46.3433C110.007 46.4826 110.185 46.5919 110.379 46.6654C110.59 46.744 110.813 46.7827 111.037 46.7796C111.262 46.7798 111.485 46.7385 111.694 46.6577C111.889 46.5847 112.067 46.4754 112.219 46.3357C112.366 46.197 112.485 46.0318 112.569 45.8492C112.657 45.663 112.702 45.4604 112.7 45.2554V45.2493C112.7 45.0464 112.655 44.846 112.569 44.6616C112.485 44.479 112.366 44.3139 112.219 44.175C112.067 44.0354 111.889 43.926 111.694 43.853C111.485 43.772 111.262 43.7304 111.037 43.7305Z" fill="#B8B8B8"/>
<path d="M114.784 47.2745H114.241V43.2227H115.56C115.725 43.2212 115.888 43.2504 116.041 43.3088C116.185 43.3632 116.316 43.4435 116.429 43.5455C116.54 43.6466 116.628 43.7703 116.685 43.9079C116.744 44.0587 116.774 44.2191 116.772 44.3807C116.781 44.6529 116.69 44.9192 116.517 45.1321C116.346 45.3358 116.105 45.4712 115.838 45.5128L116.896 47.2722H116.232L115.203 45.5341H114.784V47.2737V47.2745ZM114.784 43.7807V44.9738H115.62V44.9806C115.698 44.9831 115.776 44.9683 115.848 44.9373C115.92 44.9064 115.984 44.8601 116.036 44.8017C116.144 44.6843 116.204 44.5315 116.203 44.373C116.205 44.2169 116.145 44.0661 116.036 43.9528C115.982 43.8969 115.918 43.8526 115.846 43.8229C115.775 43.7933 115.698 43.7789 115.62 43.7807H114.784Z" fill="#B8B8B8"/>
<path d="M123.311 46.5938C123.153 46.8397 122.925 47.034 122.654 47.1519C122.331 47.2952 121.98 47.3659 121.626 47.3589C121.341 47.3598 121.059 47.3081 120.794 47.2066C120.538 47.1102 120.305 46.9641 120.108 46.7773C119.901 46.5793 119.738 46.3423 119.627 46.0806C119.517 45.8188 119.462 45.5378 119.465 45.2546C119.462 44.9714 119.517 44.6904 119.627 44.4287C119.738 44.167 119.901 43.9299 120.108 43.732C120.305 43.5455 120.537 43.3997 120.793 43.3034C121.061 43.2014 121.345 43.1497 121.632 43.1511C121.994 43.1487 122.351 43.2296 122.675 43.3871C122.81 43.4505 122.936 43.5325 123.048 43.6307C123.142 43.7136 123.223 43.8102 123.289 43.917L123.122 44.4111C123.048 44.3124 122.962 44.2234 122.866 44.1461C122.76 44.0599 122.645 43.9856 122.523 43.9246C122.396 43.8579 122.261 43.8067 122.122 43.7723C121.976 43.7357 121.826 43.717 121.676 43.7168C121.445 43.7138 121.216 43.7498 120.998 43.8233C120.803 43.8874 120.624 43.9912 120.472 44.1278C120.327 44.2629 120.213 44.4263 120.136 44.6075C120.054 44.8101 120.015 45.0268 120.02 45.2447C120.018 45.4653 120.06 45.6841 120.144 45.8888C120.219 46.0724 120.336 46.2366 120.487 46.3684C120.64 46.5018 120.819 46.604 121.012 46.6692C121.23 46.7431 121.46 46.7794 121.691 46.7765C122.002 46.7834 122.309 46.7149 122.587 46.5771C122.821 46.4664 123.024 46.3018 123.178 46.0974L123.34 46.5839L123.311 46.5938Z" fill="#B8B8B8"/>
<path d="M124.84 47.2745H124.297V43.2227H125.616C125.781 43.2212 125.944 43.2504 126.097 43.3088C126.241 43.3632 126.372 43.4435 126.485 43.5455C126.596 43.6466 126.684 43.7703 126.741 43.9079C126.8 44.0587 126.83 44.2191 126.828 44.3807C126.837 44.6529 126.746 44.9192 126.573 45.1321C126.402 45.3358 126.161 45.4712 125.894 45.5128L126.952 47.2722H126.289L125.259 45.5341H124.84V47.2737V47.2745ZM124.84 43.7807V44.9738H125.676V44.9806C125.754 44.9831 125.832 44.9683 125.904 44.9373C125.976 44.9064 126.04 44.8601 126.092 44.8017C126.2 44.6843 126.26 44.5315 126.259 44.373C126.261 44.2169 126.201 44.0661 126.092 43.9528C126.038 43.8969 125.974 43.8526 125.902 43.8229C125.831 43.7933 125.754 43.7789 125.676 43.7807H124.84Z" fill="#B8B8B8"/>
<path d="M130.23 43.2227V43.7808H128.445V44.9045H130.047V45.4626H128.445V46.7149H130.23V47.273H127.902V43.2227H130.23Z" fill="#B8B8B8"/>
<path d="M131.427 47.2737H130.843L132.543 43.2227H133.141L134.841 47.2722H134.258L133.87 46.329H131.821L131.427 47.2737ZM132.842 43.9026L132.055 45.7709H133.63L132.842 43.9026Z" fill="#B8B8B8"/>
<path d="M138.168 43.2227V43.7808H136.772V47.2737H136.228V43.7808H134.812V43.2227H138.168Z" fill="#B8B8B8"/>
<path d="M140.869 47.3528C140.582 47.3562 140.296 47.3026 140.031 47.1952C139.773 47.0919 139.536 46.9442 139.332 46.759C139.121 46.5663 138.953 46.3324 138.839 46.0722C138.726 45.812 138.669 45.5315 138.673 45.2485C138.669 44.9579 138.729 44.6698 138.848 44.4034C138.96 44.1518 139.125 43.9254 139.33 43.738C139.534 43.5524 139.77 43.4046 140.028 43.3018C140.298 43.1944 140.586 43.1409 140.876 43.1443C141.167 43.1411 141.454 43.1947 141.722 43.3018C141.98 43.4047 142.217 43.5525 142.421 43.738C142.626 43.9254 142.789 44.1518 142.902 44.4034C143.021 44.6697 143.081 44.9578 143.078 45.2485H143.065C143.069 45.5313 143.012 45.8116 142.899 46.0717C142.786 46.3318 142.619 46.5659 142.409 46.759C142.204 46.944 141.967 47.0917 141.71 47.1952C141.443 47.3028 141.158 47.3564 140.869 47.3528ZM140.855 43.7305C140.631 43.7273 140.408 43.766 140.198 43.8447C140.005 43.9157 139.828 44.0239 139.677 44.1629C139.526 44.3018 139.405 44.4687 139.322 44.654C139.235 44.8431 139.191 45.0481 139.191 45.2554C139.191 45.4628 139.235 45.6677 139.322 45.8568C139.406 46.0396 139.525 46.205 139.672 46.3441C139.825 46.4834 140.004 46.5927 140.198 46.6661C140.408 46.7448 140.631 46.7835 140.855 46.7803C141.079 46.7806 141.302 46.7393 141.511 46.6585C141.705 46.5873 141.881 46.4791 142.032 46.3402C142.182 46.2013 142.303 46.0344 142.387 45.8493C142.474 45.6628 142.518 45.4603 142.518 45.2554V45.2493C142.517 45.0465 142.473 44.8461 142.387 44.6616C142.303 44.4766 142.182 44.3098 142.032 44.171C141.881 44.0322 141.704 43.9241 141.511 43.853C141.302 43.772 141.079 43.7304 140.855 43.7305Z" fill="#B8B8B8"/>
<path d="M144.601 47.2745H144.058V43.2227H145.377C145.542 43.2211 145.705 43.2503 145.859 43.3087C146.002 43.3632 146.134 43.4435 146.247 43.5455C146.358 43.6464 146.446 43.7702 146.502 43.9079C146.563 44.0586 146.592 44.219 146.59 44.3807C146.598 44.6529 146.508 44.9191 146.335 45.1321C146.163 45.336 145.922 45.4714 145.656 45.5128L146.714 47.2722H146.05L145.021 45.5341H144.601V47.2737V47.2745ZM144.601 43.7807V44.9738H145.437V44.9806C145.516 44.9832 145.594 44.9684 145.666 44.9375C145.738 44.9065 145.802 44.8601 145.853 44.8017C145.962 44.6845 146.021 44.5315 146.021 44.373C146.023 44.2169 145.963 44.066 145.853 43.9528C145.8 43.8968 145.736 43.8526 145.664 43.8229C145.593 43.7932 145.515 43.7789 145.437 43.7807H144.601Z" fill="#B8B8B8"/>
<path d="M149.401 45.327C149.489 45.4031 149.568 45.4792 149.642 45.5485C149.713 45.6177 149.777 45.6943 149.831 45.7769C149.884 45.857 149.926 45.9435 149.956 46.0342C149.985 46.133 150.001 46.2357 149.999 46.3387C150.005 46.4845 149.977 46.6296 149.917 46.7633C149.858 46.897 149.769 47.016 149.656 47.1115C149.399 47.3157 149.075 47.42 148.744 47.4046C148.587 47.4056 148.43 47.3837 148.279 47.3399C148.14 47.3015 148.008 47.2481 147.882 47.1808C147.775 47.123 147.677 47.0507 147.59 46.9661C147.52 46.8993 147.461 46.822 147.416 46.7369L147.576 46.2215C147.705 46.4024 147.875 46.5517 148.072 46.6578C148.281 46.7739 148.518 46.8332 148.758 46.8298C148.937 46.8446 149.116 46.7962 149.262 46.6936C149.315 46.6521 149.356 46.5997 149.385 46.5401C149.415 46.4806 149.43 46.4154 149.43 46.3494C149.432 46.2316 149.391 46.1169 149.313 46.0274C149.227 45.9279 149.132 45.8369 149.029 45.7556C148.873 45.6406 148.75 45.5409 148.649 45.4625C148.547 45.3841 148.46 45.3102 148.386 45.2546C148.312 45.1991 148.247 45.1473 148.189 45.1024C148.133 45.0585 148.078 45.0107 148.029 44.9593C147.912 44.8489 147.808 44.7263 147.718 44.5938C147.624 44.4543 147.575 44.2894 147.579 44.1218C147.576 43.9832 147.605 43.8455 147.664 43.7198C147.722 43.6072 147.803 43.5084 147.905 43.4305C148.012 43.3498 148.133 43.289 148.262 43.2508C148.406 43.2072 148.556 43.1857 148.707 43.1869C148.944 43.1835 149.177 43.2401 149.385 43.3513C149.559 43.439 149.708 43.5652 149.822 43.7198L149.698 44.2276C149.582 44.0892 149.44 43.974 149.279 43.888C149.107 43.7946 148.912 43.7454 148.715 43.7449C148.571 43.7398 148.428 43.7693 148.299 43.831C148.248 43.8559 148.207 43.8946 148.178 43.9424C148.149 43.9902 148.136 44.0451 148.138 44.1005C148.139 44.1553 148.151 44.2093 148.176 44.2587C148.199 44.3082 148.234 44.3519 148.277 44.3867C148.363 44.4672 148.453 44.5435 148.547 44.6151C148.773 44.7796 148.948 44.9082 149.079 45.0011C149.212 45.094 149.327 45.18 149.422 45.2592L149.401 45.327Z" fill="#B8B8B8"/>
<path d="M110.35 36.3068L110.934 40.3578H110.391L109.91 37.2729L108.665 40.3578H108.121L106.843 37.2729L106.402 40.3578H105.834L106.425 36.3068H107.023L108.381 39.563L109.744 36.3068H110.35Z" fill="#B8B8B8"/>
<path d="M114.373 36.3068V36.8648H112.587V37.9886H114.189V38.5466H112.587V39.799H114.373V40.357H112.044V36.3068H114.373Z" fill="#B8B8B8"/>
<path d="M116.846 40.3586H115.474V36.3076H116.846L116.838 36.3145C117.16 36.3103 117.48 36.356 117.786 36.45C118.06 36.5319 118.315 36.6645 118.538 36.8406C118.75 37.0132 118.92 37.2311 119.034 37.4778C119.155 37.7484 119.214 38.0412 119.209 38.3365C119.215 38.6336 119.156 38.9284 119.034 39.2007C118.923 39.4448 118.755 39.6603 118.545 39.8303C118.323 40.0074 118.068 40.141 117.794 40.2239C117.488 40.3176 117.167 40.3631 116.846 40.3586ZM116.006 36.8733V39.8097H117.042L117.034 39.8242H117.045C117.266 39.8284 117.486 39.7898 117.691 39.7107C117.879 39.6361 118.052 39.5297 118.202 39.3963C118.347 39.2665 118.461 39.1079 118.538 38.9312C118.62 38.7486 118.663 38.5513 118.662 38.3518C118.665 38.1524 118.626 37.9548 118.545 37.7716C118.468 37.5952 118.354 37.4369 118.21 37.3072C118.06 37.1717 117.887 37.0635 117.699 36.9875C117.49 36.9076 117.267 36.8688 117.042 36.8733H116.006Z" fill="#B8B8B8"/>
<path d="M120.188 40.3586H120.732V36.3076H120.188V40.3586Z" fill="#B8B8B8"/>
<path d="M122.122 40.3578H121.538L123.239 36.3068H123.837L125.537 40.3563H124.954L124.565 39.413H122.516L122.122 40.3578ZM123.537 36.9867L122.75 38.855H124.326L123.537 36.9867Z" fill="#B8B8B8"/>
<path d="M14.2471 34.766L16.0586 47.4801H13.2722L12.2368 40.2255L9.36509 47.4831H6.86974L4.04221 40.2255L2.93774 47.4801H0L1.78903 34.766H4.61656L8.0402 43.0424L11.4638 34.766H14.2471Z" fill="#B8B8B8"/>
<path d="M30.2412 45.7504C29.768 46.4418 29.1005 46.9837 28.3195 47.3103C27.3181 47.7429 26.231 47.951 25.1373 47.9194C24.2359 47.9158 23.3434 47.7447 22.5069 47.4154C21.6822 47.102 20.9252 46.6389 20.2754 46.0504C19.6277 45.4547 19.1028 44.7424 18.7293 43.9522C18.3271 43.1044 18.1235 42.1791 18.1333 41.2441C18.1235 40.3092 18.3272 39.3838 18.7293 38.5361C19.1099 37.7372 19.642 37.0166 20.2972 36.4128C20.9471 35.8245 21.7041 35.3614 22.5286 35.0477C23.3649 34.7202 24.2569 34.551 25.1574 34.549C25.7217 34.5497 26.2843 34.6078 26.8362 34.7227C27.3315 34.819 27.8135 34.9724 28.2721 35.1794C28.6736 35.3668 29.0516 35.5993 29.3983 35.8722C29.7085 36.1095 29.977 36.3949 30.1931 36.7173L29.3099 39.0987C28.888 38.6235 28.3689 38.2406 27.7863 37.975C27.0453 37.6158 26.2267 37.4373 25.4003 37.455C24.8082 37.4483 24.2189 37.5362 23.6556 37.7154C23.147 37.881 22.6749 38.1393 22.264 38.4767C21.8651 38.7997 21.545 39.2062 21.3271 39.6664C21.1093 40.1266 20.9993 40.6287 21.005 41.136C20.9983 41.6442 21.108 42.1475 21.3258 42.6087C21.5437 43.0698 21.8643 43.4771 22.264 43.8006C22.6749 44.138 23.147 44.3963 23.6556 44.562C24.2189 44.7411 24.8082 44.8291 25.4003 44.8223C26.2417 44.8472 27.0762 44.6687 27.8305 44.3024C28.4116 44.0235 28.924 43.6243 29.3324 43.1322L30.2412 45.5989V45.7504Z" fill="#B8B8B8"/>
<path d="M33.3784 44.5367C33.5598 44.3583 33.7765 44.2182 34.0152 44.1251C34.2538 44.032 34.5094 43.9879 34.7662 43.9955C35.023 43.9883 35.2786 44.0327 35.5173 44.1257C35.756 44.2189 35.9728 44.3588 36.1545 44.537C36.3361 44.7152 36.4788 44.9279 36.5737 45.162C36.6686 45.3962 36.7138 45.6469 36.7066 45.8987C36.7138 46.1506 36.6686 46.4013 36.5737 46.6355C36.4788 46.8696 36.3361 47.0823 36.1545 47.2605C35.9728 47.4387 35.756 47.5787 35.5173 47.6717C35.2786 47.7649 35.023 47.8092 34.7662 47.8021C34.5094 47.8091 34.2539 47.7647 34.0152 47.6715C33.7766 47.5783 33.5598 47.4384 33.3781 47.2603C33.1966 47.0821 33.0539 46.8694 32.9589 46.6354C32.8639 46.4013 32.8187 46.1506 32.8258 45.8987C32.8181 45.6467 32.8631 45.3958 32.9582 45.1616C33.0532 44.9273 33.1963 44.7147 33.3784 44.5367Z" fill="#B8B8B8"/>
<path d="M45.8746 46.5087C45.5826 46.9004 45.1955 47.2145 44.7484 47.4223C44.2182 47.6731 43.6357 47.799 43.0471 47.79C42.5339 47.8311 42.0177 47.7632 41.5337 47.5906C41.0497 47.4181 40.6094 47.1451 40.2429 46.7904C39.5802 46.0009 39.2473 44.9942 39.3115 43.9734V39.2532H37.3711V38.3625L41.2806 33.5091H42.1422V36.326H45.7427V39.251H42.1196V43.3675C42.0945 43.5776 42.1194 43.7907 42.1922 43.9898C42.265 44.189 42.3839 44.369 42.5396 44.5155C42.8238 44.7313 43.1744 44.8459 43.5338 44.8406C43.8687 44.8498 44.2012 44.7831 44.5055 44.6457C44.8044 44.4893 45.0683 44.2757 45.2816 44.0176L45.8777 46.4874L45.8746 46.5087Z" fill="#B8B8B8"/>
<path d="M53.7176 47.8089C52.921 47.8118 52.1321 47.6565 51.3985 47.3522C50.6865 47.0589 50.0351 46.6404 49.4767 46.1173C48.9178 45.5851 48.4673 44.9534 48.1495 44.2559C47.8186 43.5189 47.6528 42.7207 47.6636 41.9155C47.6527 41.1106 47.8184 40.3127 48.1495 39.576C48.4666 38.8777 48.9165 38.2452 49.4752 37.7123C50.0338 37.1897 50.6851 36.7718 51.3969 36.4789C52.1317 36.1786 52.9199 36.024 53.7161 36.024C54.5121 36.024 55.3003 36.1786 56.0352 36.4789C56.7471 36.7715 57.3985 37.1895 57.957 37.7123C58.5157 38.2451 58.9656 38.8777 59.2826 39.576C59.6147 40.3124 59.7815 41.1103 59.7716 41.9155V41.9376C59.7847 42.7428 59.6189 43.5412 59.2857 44.2772C58.969 44.9692 58.5189 45.5945 57.96 46.1188C57.4018 46.6421 56.7504 47.0607 56.0383 47.3536C55.304 47.6576 54.5146 47.8125 53.7176 47.8089ZM53.7595 38.9913C53.3297 38.985 52.9026 39.0584 52.5006 39.2075C52.1257 39.3456 51.7809 39.5523 51.4846 39.8165C51.1966 40.0733 50.9702 40.3895 50.8217 40.7423C50.6606 41.1209 50.5782 41.5273 50.5796 41.9376V41.981C50.5788 42.3902 50.6611 42.7955 50.8217 43.1732C50.9697 43.5279 51.1961 43.846 51.4846 44.1043C51.7807 44.3689 52.1255 44.5757 52.5006 44.7134C52.9026 44.8627 53.3297 44.9361 53.7595 44.9296C54.5834 44.946 55.3821 44.6514 55.9909 44.1066C56.279 43.8432 56.5115 43.5268 56.6755 43.1756C56.8542 42.8027 56.945 42.3952 56.9409 41.9833C56.9452 41.5645 56.8545 41.15 56.6755 40.7697C56.5129 40.4113 56.2803 40.0875 55.9909 39.8165C55.6994 39.5567 55.3627 39.3504 54.9967 39.2075C54.6026 39.0572 54.1823 38.9837 53.7595 38.9913Z" fill="#B8B8B8"/>
<path d="M67.4095 47.8089C66.6515 47.8081 65.9009 47.6609 65.2007 47.3757C64.5055 47.0976 63.8746 46.6849 63.3457 46.1622C62.8078 45.6264 62.3808 44.9935 62.0883 44.2985C61.771 43.5431 61.6126 42.7325 61.6226 41.9155L61.6443 41.981C61.6349 41.1641 61.7932 40.3536 62.11 39.5981C62.4028 38.9029 62.8298 38.2698 63.3674 37.7336C63.8921 37.216 64.5149 36.804 65.2007 36.5208C65.8858 36.2361 66.6218 36.0889 67.3659 36.0876C68.1099 36.065 68.85 36.2057 69.5319 36.4995C70.0381 36.7028 70.4584 37.07 70.7227 37.5402V31.7541H73.5291V47.5273H70.8126V46.3579C70.5456 46.8345 70.1154 47.2029 69.5974 47.3979C68.9075 47.6905 68.1608 47.8308 67.4095 47.8089ZM67.7405 39.0347C67.2892 39.0247 66.8399 39.0981 66.4163 39.2509C66.034 39.3875 65.6818 39.5942 65.3784 39.86C65.0896 40.1184 64.8632 40.4367 64.7156 40.7919C64.5548 41.1692 64.4722 41.5743 64.4726 41.9833V42.0054C64.472 42.4144 64.5546 42.8195 64.7156 43.1969C64.8632 43.5519 65.0896 43.8703 65.3784 44.1287C65.682 44.3941 66.0342 44.6008 66.4163 44.7378C66.8399 44.8903 67.2892 44.9637 67.7405 44.954C68.3934 44.9631 69.0383 44.8143 69.6185 44.5208C70.0956 44.3121 70.4808 43.9422 70.7035 43.4785V40.5094C70.4802 40.0456 70.0949 39.6758 69.6172 39.4671C69.037 39.1742 68.3927 39.0257 67.7405 39.0347Z" fill="#B8B8B8"/>
<path d="M81.8986 47.8112C81.1407 47.8106 80.39 47.6634 79.6896 47.3781C78.9951 47.0996 78.3641 46.6869 77.8348 46.1645C77.2969 45.6279 76.87 44.9942 76.5773 44.2985C76.2641 43.5536 76.1061 42.7548 76.1121 41.949C76.1055 41.1425 76.2641 40.3429 76.5773 39.5973C76.87 38.9024 77.2969 38.2695 77.8341 37.7336C78.3634 37.2108 78.9945 36.7981 79.6896 36.52C80.39 36.2347 81.1407 36.0875 81.8986 36.0868C82.65 36.065 83.3967 36.2056 84.0859 36.4987C84.6039 36.6933 85.0341 37.0619 85.3004 37.5387V36.3685H88.0169V47.5265H85.3004V46.3564C85.0341 46.8332 84.6033 47.2018 84.0859 47.3971C83.3967 47.6907 82.65 47.832 81.8986 47.8112ZM82.2092 39.0362C81.7579 39.0263 81.3086 39.0999 80.885 39.2532C80.503 39.3898 80.1502 39.5965 79.8469 39.8622C79.5581 40.1207 79.3315 40.439 79.1841 40.7941C79.0229 41.1715 78.9403 41.5765 78.9409 41.9856V42.0069C78.9403 42.4162 79.0229 42.8215 79.1841 43.1991C79.3315 43.5541 79.5581 43.8724 79.8469 44.131C80.1508 44.3964 80.503 44.6031 80.885 44.7401C81.3086 44.8927 81.7579 44.9661 82.2092 44.9563C82.8621 44.9652 83.507 44.8161 84.0865 44.5223C84.5643 44.3105 84.9482 43.9377 85.1689 43.4717V40.5025C84.9449 40.0421 84.561 39.675 84.0859 39.4671C83.5057 39.1732 82.8608 39.0242 82.2079 39.0332L82.2092 39.0362Z" fill="#B8B8B8"/>
<path d="M93.0753 36.3259L96.0568 43.2593L99.0376 36.3259H102.157L95.3498 52.099H92.2791L94.5984 46.7903L90.0482 36.3259H93.0753Z" fill="#B8B8B8"/>
</svg>
