<svg width="383" height="475" viewBox="0 0 383 475" fill="none" xmlns="http://www.w3.org/2000/svg">
<path d="M345.646 132.482C345.895 132.51 346.143 132.538 346.379 132.567C346.575 132.584 346.771 132.588 346.98 132.605L346.85 132.611C346.47 132.563 346.065 132.528 345.633 132.495L345.646 132.482Z" fill="#C9EA32"/>
<path d="M359.575 130.848C359.049 131.027 358.509 131.195 357.968 131.336C358.393 131.213 358.919 131.046 359.575 130.848Z" fill="#C9EA32"/>
<path d="M346.865 131.491C346.365 131.383 345.864 131.248 345.363 131.101C345.428 131.385 345.479 131.656 345.53 131.927C346.543 132.156 347.553 132.32 348.586 132.417C350.377 132.572 352.185 132.518 353.958 132.245L354.514 132.155C355.638 131.962 356.142 131.861 356.978 131.629C357.261 131.551 357.57 131.459 357.956 131.351C356.462 131.743 354.923 131.98 353.376 132.062C351.207 132.184 349.01 131.995 346.853 131.504L346.865 131.491Z" fill="#C9EA32"/>
<path d="M359.574 130.848L359.6 130.847L359.766 130.775L359.703 130.804C359.703 130.804 359.613 130.834 359.574 130.848Z" fill="#C9EA32"/>
<path d="M344.623 127.917C344.748 128.394 344.874 128.883 344.987 129.373C351.425 131.823 359.869 132.204 368.413 126.043L368.426 126.043L368.425 126.017C369.08 125.506 369.419 125.23 369.87 124.819C370.32 124.396 370.894 123.823 372.003 122.693C372.314 122.354 372.647 121.935 372.981 121.53L372.931 121.584C366.527 129.031 355.401 132.493 344.61 127.918L344.623 127.917Z" fill="#C9EA32"/>
<path d="M373.857 120.448C373.574 120.812 373.29 121.176 372.98 121.529C373.289 121.15 373.585 120.772 373.857 120.448Z" fill="#C9EA32"/>
<path d="M377.911 111.972C377.426 113.075 376.835 114.156 376.152 115.202C375.469 116.248 374.693 117.246 373.824 118.209C371.563 120.693 368.861 122.623 365.913 123.991C362.965 125.359 359.783 126.151 356.55 126.359C353.316 126.568 350.031 126.205 346.888 125.237C345.687 124.874 344.494 124.406 343.35 123.87L343.379 123.947C343.423 124.062 343.455 124.178 343.499 124.293C343.677 124.793 343.841 125.268 344.006 125.743C344.87 126.134 345.744 126.473 346.63 126.773C349.763 127.806 353.038 128.234 356.261 128.078C359.484 127.922 362.655 127.17 365.592 125.842C368.528 124.513 371.218 122.597 373.491 120.113C374.088 119.461 374.644 118.785 375.147 118.086C375.65 117.386 376.113 116.675 376.537 115.94C376.96 115.205 377.331 114.459 377.661 113.689C377.885 113.158 378.096 112.628 378.28 112.086C378.361 111.848 378.441 111.597 378.522 111.359C378.544 111.267 378.578 111.161 378.6 111.069C378.825 110.264 379.055 109.29 379.242 108.514L379.241 108.475L379.263 108.396C379.346 107.923 379.44 107.385 379.52 106.847C379.416 107.438 379.285 108.017 379.129 108.597C378.828 109.743 378.435 110.881 377.937 111.984L377.911 111.972Z" fill="#C9EA32"/>
<path d="M379.481 106.836C379.563 106.35 379.633 105.852 379.689 105.368C379.698 105.276 379.707 105.185 379.716 105.093L379.72 105.184C379.638 105.683 379.559 106.259 379.468 106.837L379.481 106.836Z" fill="#C9EA32"/>
<path d="M341.109 118.564C341.467 119.304 341.829 120.121 342.149 120.875C358.393 128.583 381.181 118.196 379.638 97.4513L379.597 97.1275C379.464 96.1696 379.242 94.9942 379.038 93.9222C378.971 93.5735 378.904 93.2379 378.851 92.9276C378.901 93.1599 378.936 93.3797 378.973 93.6125C382.364 113.429 359.713 127.521 341.109 118.577L341.109 118.564Z" fill="#C9EA32"/>
<path d="M376.518 94.0596C376.12 95.9528 375.435 97.8456 374.449 99.6867C373.476 101.54 372.201 103.342 370.649 105.052C368.376 107.549 365.692 109.595 362.793 111.182C359.893 112.757 356.764 113.859 353.612 114.454C350.46 115.037 347.273 115.126 344.243 114.648C342.066 114.315 339.967 113.678 338.012 112.762C338.464 113.549 338.943 114.375 339.313 115.075C339.355 115.151 339.385 115.228 339.427 115.304C341.29 116.198 343.273 116.853 345.322 117.244C348.396 117.837 351.627 117.864 354.822 117.37C358.018 116.877 361.163 115.852 364.091 114.329C367.019 112.806 369.704 110.785 371.977 108.288C373.455 106.673 374.656 104.965 375.594 103.192C376.532 101.431 377.219 99.6031 377.634 97.7873C378.047 95.9586 378.214 94.1278 378.121 92.3345C378.034 90.6582 377.727 89.0177 377.188 87.4396C377.144 87.3243 377.113 87.2085 377.069 87.0932C376.966 86.8243 376.848 86.5169 376.731 86.2225C376.423 85.4547 376.074 84.6236 375.767 83.8817C376.341 85.3541 376.709 86.9008 376.844 88.4838C377.016 90.3126 376.891 92.1936 376.492 94.0738L376.518 94.0596Z" fill="#C9EA32"/>
<path d="M372.752 79.587C372.998 81.3344 372.912 83.2007 372.514 85.1068C372.117 87.013 371.383 88.9731 370.336 90.921C369.289 92.869 367.916 94.8053 366.214 96.665C363.941 99.1622 361.287 101.285 358.459 103C355.617 104.715 352.601 106.007 349.564 106.832C346.539 107.656 343.495 108.026 340.635 107.866C338.298 107.735 336.09 107.273 334.072 106.424C334.282 106.74 334.491 107.044 334.673 107.335C335.022 107.867 335.427 108.487 335.832 109.107C337.838 109.995 340.024 110.537 342.301 110.762C345.244 111.048 348.346 110.806 351.44 110.083C354.534 109.36 357.593 108.144 360.463 106.493C363.333 104.842 365.989 102.744 368.275 100.247C369.927 98.4413 371.25 96.5462 372.272 94.6384C373.294 92.7177 373.989 90.7723 374.387 88.8661C374.784 86.947 374.87 85.0676 374.647 83.2671C374.461 81.7254 374.031 80.2467 373.384 78.8557C373.282 78.6257 373.168 78.4094 373.055 78.193C372.544 77.2388 371.826 76.0332 371.26 75.0294C371.317 75.131 371.36 75.2203 371.417 75.322C372.1 76.6333 372.541 78.0594 372.751 79.561L372.752 79.587Z" fill="#C9EA32"/>
<path d="M364.494 81.6589C363.369 83.6103 361.907 85.5896 360.118 87.5444C357.832 90.0421 355.234 92.2541 352.503 94.1203C349.759 95.9871 346.87 97.4957 344.013 98.5859C341.157 99.6762 338.322 100.349 335.686 100.544C333.336 100.713 331.152 100.497 329.235 99.8656C329.954 100.798 330.673 101.756 331.338 102.651C333.311 103.384 335.54 103.715 337.896 103.676C340.629 103.633 343.561 103.086 346.488 102.11C349.427 101.133 352.373 99.7136 355.158 97.91C357.944 96.1065 360.557 93.933 362.843 91.4352C364.594 89.5212 366.018 87.5566 367.103 85.5939C368.202 83.6437 368.963 81.6954 369.401 79.8395C369.84 77.9707 369.943 76.1818 369.726 74.5242C369.509 72.8667 368.948 71.3547 368.068 70.0261L366.023 67.0819L365.926 66.943L365.718 66.6656C365.718 66.6656 365.787 66.7537 365.815 66.8046C366.623 67.9801 367.127 69.3514 367.31 70.8541C367.51 72.4212 367.366 74.1599 366.899 75.9779C366.433 77.7959 365.632 79.7199 364.494 81.6589Z" fill="#C9EA32"/>
<path d="M357.229 72.017C356.01 73.9204 354.47 75.8902 352.644 77.8987C350.358 80.3964 347.829 82.6965 345.196 84.7147C342.577 86.7323 339.853 88.4679 337.218 89.835C334.569 91.2026 331.995 92.2023 329.637 92.7626C327.433 93.29 325.432 93.4046 323.751 93.0884C323.847 93.2013 323.944 93.3143 324.039 93.4142C324.683 94.1411 325.454 95.0708 326.156 95.9254C327.948 96.38 330.033 96.4049 332.296 96.0442C334.765 95.6353 337.462 94.7734 340.194 93.5193C342.939 92.2647 345.719 90.6307 348.393 88.6758C351.068 86.7209 353.625 84.4587 355.911 81.9609C357.724 79.979 359.226 77.998 360.404 76.0703C361.582 74.1426 362.45 72.2807 362.986 70.5508C363.521 68.8079 363.736 67.1963 363.607 65.7563C363.498 64.4717 363.122 63.3292 362.481 62.3808C362.397 62.2672 362.327 62.1531 362.244 62.0396L361.416 60.9952L360.671 60.0514L359.584 58.732C360.313 59.6114 360.689 60.7539 360.748 62.0798C360.807 63.4187 360.537 64.9545 359.933 66.6223C359.343 68.3026 358.421 70.1147 357.202 72.0052L357.229 72.017Z" fill="#C9EA32"/>
<path d="M351.885 57.2102C351.131 58.7024 350.072 60.3903 348.746 62.2074C347.42 64.0244 345.813 65.9711 343.95 68.0073C341.664 70.505 339.204 72.8932 336.721 75.0741C334.239 77.2549 331.721 79.2158 329.32 80.8721C326.918 82.5284 324.646 83.8663 322.617 84.8028C320.651 85.7104 318.942 86.2159 317.602 86.2622C317.684 86.3497 317.766 86.4373 317.848 86.5118C318.572 87.2742 319.447 88.2253 320.242 89.1018C321.731 89.2182 323.579 88.8759 325.656 88.1327C327.823 87.3595 330.231 86.1587 332.742 84.6279C335.253 83.097 337.853 81.2236 340.391 79.1184C342.942 77.0127 345.43 74.6624 347.715 72.1646C349.566 70.142 351.146 68.1705 352.419 66.3167C353.704 64.4624 354.695 62.7254 355.381 61.1451C356.067 59.5779 356.447 58.1674 356.499 56.9799C356.554 55.8704 356.318 54.9561 355.793 54.276C355.765 54.2382 355.724 54.1879 355.683 54.1506L355.162 53.5615L354.751 53.0979L352.739 50.8947C353.231 51.4329 353.399 52.2721 353.25 53.3336C353.103 54.4082 352.639 55.7051 351.885 57.2102Z" fill="#C9EA32"/>
<path d="M312.267 80.8073C312.771 81.293 313.275 81.8046 313.766 82.2908C314.886 82.0068 316.39 81.2499 318.163 80.1294C319.975 78.9812 322.069 77.4427 324.306 75.6114C326.544 73.7931 328.939 71.6943 331.339 69.4259C333.739 67.1576 336.145 64.7196 338.444 62.2213C340.32 60.1716 341.967 58.2491 343.36 56.4812C344.754 54.7133 345.895 53.1259 346.758 51.7461C347.622 50.3664 348.208 49.1943 348.494 48.2829C348.779 47.3716 348.763 46.7211 348.435 46.384L348.299 46.2337L346.009 43.9516L345.246 43.1909C345.246 43.1909 345.261 43.2163 345.274 43.2288C345.44 43.4558 345.319 43.9561 344.949 44.7149C344.555 45.5139 343.859 46.5736 342.914 47.8788C341.969 49.184 340.76 50.7093 339.313 52.4276C337.865 54.1458 336.191 56.0563 334.315 58.1061C332.029 60.6038 329.651 63.0796 327.319 65.4101C324.987 67.7405 322.7 69.9387 320.572 71.8824C318.457 73.8256 316.5 75.5012 314.838 76.8121C313.202 78.0959 311.876 79.0273 310.932 79.4858C311.014 79.5604 311.096 79.6479 311.177 79.7224C311.299 79.8342 311.422 79.9591 311.545 80.0839C311.545 80.0839 311.531 80.0584 311.517 80.046L312.28 80.8067L312.267 80.8073Z" fill="#C9EA32"/>
<path d="M306.8 75.592C312.243 69.9718 338.973 40.9548 340.598 38.812L340.516 38.7375C339.607 37.9051 338.589 36.9863 337.775 36.254C337.613 36.1179 337.45 35.9688 337.287 35.8197L337.192 35.7327C337.057 35.6215 336.624 35.8491 335.957 36.3735C335.277 36.8986 334.337 37.7347 333.175 38.8412C332.013 39.9476 330.641 41.3238 329.084 42.9297C327.527 44.5355 325.786 46.3969 323.91 48.4467C321.624 50.9444 319.341 53.5072 317.172 55.9997C315.003 58.4923 312.961 60.9011 311.132 63.1181C309.302 65.3351 307.711 67.3462 306.444 69.0174C305.202 70.6744 304.283 71.9915 303.788 72.873C303.882 72.947 303.978 73.0339 304.059 73.1085C304.873 73.8409 305.89 74.7596 306.8 75.592Z" fill="#C9EA32"/>
<path d="M318.32 33.9645C316.655 35.4709 314.858 37.2567 312.982 39.2935C310.696 41.7912 308.507 44.4279 306.514 47.0689C304.521 49.71 302.723 52.3294 301.218 54.8186C299.712 57.2948 298.487 59.6153 297.639 61.6456C296.815 63.6228 296.355 65.2972 296.32 66.5622C296.414 66.6361 296.522 66.7225 296.603 66.784C297.467 67.4621 298.534 68.3396 299.469 69.1448C299.693 68.0408 300.342 66.5013 301.341 64.6596C302.365 62.7778 303.739 60.581 305.38 58.216C307.02 55.8511 308.926 53.305 310.987 50.7261C313.048 48.1471 315.277 45.5477 317.576 43.0494C319.452 40.9997 321.221 39.1891 322.846 37.6453C324.471 36.1016 325.951 34.8118 327.235 33.8171C328.52 32.8225 329.609 32.123 330.477 31.7329C331.333 31.3434 331.955 31.2898 332.307 31.5738L329.402 29.2147L328.713 28.6591C328.713 28.6591 328.632 28.5976 328.592 28.5733C328.096 28.2567 327.366 28.2369 326.453 28.5118C325.463 28.8031 324.266 29.4161 322.887 30.3368C321.508 31.2575 319.961 32.4852 318.295 33.9916L318.32 33.9645Z" fill="#C9EA32"/>
<path d="M298.535 68.3788C298.535 68.3788 298.575 68.39 298.588 68.4024C298.588 68.4024 298.549 68.3912 298.535 68.3788Z" fill="#C9EA32"/>
<path d="M289.792 61.4972C290.465 62.0014 291.179 62.5298 291.839 63.0346C291.605 61.5602 291.809 59.7017 292.379 57.5795C292.985 55.3646 293.981 52.8718 295.298 50.2477C296.614 47.6236 298.264 44.8805 300.15 42.1661C302.035 39.4516 304.169 36.7653 306.455 34.2675C308.306 32.2449 310.131 30.51 311.864 29.0657C313.598 27.6213 315.241 26.4806 316.741 25.6587C318.242 24.8368 319.6 24.3339 320.765 24.1651C321.878 24.0116 322.809 24.1657 323.521 24.6421C323.548 24.667 323.588 24.6912 323.615 24.7031L323.372 24.5185L320.17 22.1987L319.9 22.0022C319.9 22.0022 319.78 21.9294 319.726 21.8927C318.882 21.357 317.83 21.1431 316.623 21.2226C315.337 21.3056 313.871 21.7352 312.29 22.4955C310.708 23.2559 308.999 24.3475 307.224 25.7416C305.449 27.1356 303.624 28.8575 301.772 30.8542C299.486 33.3519 297.392 36.0625 295.586 38.8255C293.781 41.5885 292.239 44.418 291.057 47.1403C289.875 49.8627 289.027 52.4661 288.61 54.8159C288.213 57.0346 288.196 59.002 288.593 60.5995C288.674 60.6611 288.767 60.722 288.835 60.7841C289.091 60.9682 289.361 61.1777 289.643 61.3866L289.886 61.5712C289.886 61.5712 289.819 61.5221 289.792 61.5102L289.792 61.4972Z" fill="#C9EA32"/>
<path d="M301.578 15.8977C299.849 16.5474 298.043 17.526 296.237 18.8173C294.432 20.1085 292.615 21.7258 290.837 23.641C288.551 26.1257 286.551 28.9103 284.92 31.7828C283.29 34.6683 282.002 37.6558 281.129 40.5729C280.255 43.49 279.796 46.3497 279.781 48.9682C279.781 51.3127 280.136 53.459 280.908 55.2873C281.484 55.6655 282.048 56.0313 282.532 56.3746C283.002 56.6924 283.525 57.0469 284.05 57.4144C283.412 55.6583 283.202 53.5707 283.36 51.2453C283.535 48.7369 284.155 45.9743 285.149 43.13C286.143 40.2857 287.538 37.3586 289.235 34.5222C290.946 31.6853 292.974 28.9385 295.26 26.4408C297.061 24.4855 298.89 22.8285 300.693 21.4853C302.496 20.1551 304.261 19.1262 305.937 18.4398C307.613 17.7534 309.212 17.3961 310.657 17.3712C312.102 17.3593 313.405 17.6792 314.503 18.36L311.57 16.5232L310.699 15.9757C310.592 15.9153 310.472 15.8555 310.365 15.7951C309.207 15.2212 307.904 14.9272 306.497 14.9114C304.947 14.9019 303.281 15.2232 301.551 15.8598L301.578 15.8977Z" fill="#C9EA32"/>
<path d="M275.035 46.2082C274.823 43.4695 275.082 40.4885 275.782 37.4749C276.482 34.4613 277.622 31.3891 279.172 28.4551C280.71 25.5216 282.643 22.7139 284.943 20.2286C286.657 18.3553 288.464 16.8035 290.271 15.5643C292.092 14.3245 293.926 13.3966 295.723 12.7831C297.519 12.1825 299.278 11.8962 300.934 11.9401C302.577 11.9846 304.13 12.3456 305.541 13.0385L305.58 13.0368L305.501 13.0143L302.222 11.31L301.995 11.1898C301.995 11.1898 301.929 11.1667 301.902 11.1549C300.414 10.4914 298.796 10.1332 297.101 10.0911C295.367 10.0377 293.568 10.3127 291.731 10.8889C289.908 11.4776 288.059 12.3671 286.237 13.5809C284.428 14.7941 282.646 16.3187 280.956 18.1389C278.669 20.6236 276.762 23.4432 275.292 26.4128C273.821 29.3823 272.761 32.49 272.181 35.5765C271.588 38.6504 271.462 41.6907 271.834 44.5136C272.134 46.8707 272.792 49.0688 273.816 51.0162C274.777 51.5597 275.754 52.1416 276.69 52.6993L276.729 52.6975C275.799 50.7981 275.245 48.5954 275.062 46.2201L275.035 46.2082Z" fill="#C9EA32"/>
<path d="M268.466 48.1542C268.958 48.3929 269.438 48.6321 269.891 48.8726C268.816 46.9405 268.057 44.799 267.617 42.5262C267.058 39.6074 267.011 36.4836 267.445 33.3385C267.879 30.1935 268.819 27.0259 270.21 24.0208C271.601 21.0157 273.455 18.1854 275.742 15.7007C277.382 13.9218 279.128 12.4509 280.925 11.2773C282.723 10.1036 284.586 9.23963 286.449 8.6752C288.313 8.11077 290.164 7.84646 291.976 7.89643C293.75 7.94813 295.458 8.28926 297.076 8.93397C297.102 8.94582 297.142 8.95709 297.169 8.96894L297.036 8.9227L294.451 7.89105L293.749 7.63558C293.551 7.56622 293.352 7.49686 293.154 7.4405C291.635 6.96075 290.035 6.70601 288.419 6.6734C286.581 6.65058 284.704 6.91603 282.853 7.46689C280.99 8.03133 279.152 8.88116 277.366 10.0282C275.581 11.1753 273.873 12.6055 272.282 14.3301C269.995 16.8148 268.168 19.6569 266.843 22.6852C265.505 25.714 264.657 28.9035 264.316 32.0965C263.975 35.2766 264.142 38.4471 264.833 41.4121C265.347 43.6035 266.142 45.6783 267.241 47.5572C267.547 47.7 267.853 47.8557 268.16 48.0115C268.186 48.0233 268.226 48.0346 268.253 48.0464L268.479 48.1666L268.466 48.1542Z" fill="#C9EA32"/>
<path d="M261.463 45.0261C262.059 45.2602 262.709 45.5179 263.294 45.7786L263.426 45.8248C263.426 45.8248 263.36 45.8017 263.333 45.7899C263.466 45.8491 263.585 45.8959 263.705 45.9427C253.699 29.1154 266.881 1.50591 288.372 5.93325C287.371 5.67803 286.069 5.39705 284.991 5.17128C284.873 5.15046 284.754 5.11664 284.636 5.09583C284.544 5.07386 284.439 5.05247 284.334 5.04407C283.823 4.96253 283.22 4.88502 282.749 4.84075C264.734 3.30721 250.408 26.5651 261.463 45.0261Z" fill="#C9EA32"/>
<path d="M259.094 11.8279C256.807 14.2997 255.111 17.162 253.996 20.2201C252.881 23.2781 252.334 26.5193 252.374 29.7737C252.413 33.015 253.026 36.27 254.216 39.3171C254.731 40.6489 255.375 41.9489 256.107 43.1928C256.358 43.2729 256.609 43.3399 256.847 43.4206C257.296 43.57 257.812 43.7425 258.34 43.9145C249.131 28.3023 257.574 4.54949 278.458 4.39305L278.354 4.39766L277.285 4.36687L277.22 4.36975C276.1 4.38026 274.632 4.45831 273.528 4.53324C272.205 4.65695 270.901 4.91008 269.602 5.2802C268.316 5.64974 267.048 6.1357 265.825 6.74991C264.601 7.36413 263.422 8.08062 262.288 8.93836C261.166 9.78253 260.089 10.755 259.082 11.8415L259.094 11.8279Z" fill="#C9EA32"/>
<path d="M248.517 30.9208C248.672 34.131 249.426 37.3277 250.77 40.3289C251.044 40.9289 251.344 41.5148 251.656 42.1001C252.261 42.2296 252.892 42.3579 253.524 42.5123C245.859 29.137 250.766 12.3005 265.543 6.29301L265.607 6.26414L265.518 6.30716C264.302 6.79082 262.731 7.48558 261.57 8.04492C260.921 8.38625 260.098 8.90463 259.45 9.28497L259.399 9.31327L259.362 9.34099C258.969 9.59282 258.577 9.87064 258.186 10.1485C257.795 10.4393 257.405 10.7431 257.015 11.0599C256.638 11.3762 256.262 11.7054 255.9 12.0601C255.538 12.4018 255.176 12.7694 254.841 13.1489C252.567 15.6201 250.896 18.4683 249.844 21.4845C248.793 24.5136 248.349 27.7243 248.505 30.9344L248.517 30.9208Z" fill="#C9EA32"/>
<path d="M248.218 41.5229C248.677 41.5808 249.135 41.6386 249.568 41.7106C245.593 33.7203 246.164 24.5519 251.582 16.6015L250.517 18.1334L250.359 18.3879C249.944 19.0314 249.714 19.4193 249.401 19.9933C249.125 20.5264 248.778 21.2191 248.194 22.4562L248.196 22.4952L248.148 22.5755L247.924 23.1064C246.983 25.4013 246.426 27.8224 246.261 30.2653C246.096 32.7082 246.31 35.1864 246.885 37.5965C247.205 38.9369 247.667 40.2449 248.218 41.5229Z" fill="#C9EA32"/>
<path d="M246.244 41.3368L246.309 41.3339C246.479 41.3525 246.675 41.3698 246.845 41.3883C246.425 40.1305 246.108 38.8422 245.907 37.5486C245.651 35.8798 245.589 34.1894 245.71 32.5169C245.729 32.3467 245.734 32.1772 245.753 32.007L245.718 32.3993C245.653 33.2748 245.606 33.6937 245.61 34.3708C245.608 34.9049 245.626 35.6074 245.666 36.8169C245.676 37.0379 245.686 37.2718 245.698 37.5318C245.724 38.1298 245.789 38.7 245.866 39.2696C245.963 39.9947 246.111 40.6785 246.271 41.3487L246.244 41.3368Z" fill="#C9EA32"/>
<path d="M222.427 97.029L222.424 96.977C222.353 96.8369 222.295 96.6962 222.237 96.5555L222.208 96.4917L222.205 96.4397C222.12 96.2871 222.062 96.1335 222.003 95.9798L222.001 95.9408C221.943 95.8001 221.884 95.6594 221.839 95.5181L221.81 95.4543L221.808 95.4023C221.736 95.2492 221.69 95.0949 221.632 94.9542C220.704 94.305 219.852 93.6004 219.078 92.8662C218.302 92.1191 217.603 91.3295 216.98 90.4975C216.357 89.6655 215.811 88.804 215.328 87.9006C214.916 87.1244 214.568 86.3323 214.285 85.5243C214.657 86.5628 215.141 87.8047 215.51 88.7652C215.597 88.9698 215.67 89.1619 215.757 89.3534C217.651 93.5937 220.611 95.7418 222.414 97.0426L222.427 97.029Z" fill="#C9EA32"/>
<path d="M225.198 102.572L225.17 102.521C225.071 102.343 224.972 102.165 224.873 101.987L224.872 101.961L224.83 101.898C224.745 101.745 224.66 101.593 224.575 101.44L224.533 101.364L224.504 101.313C224.405 101.135 224.32 100.97 224.221 100.792L224.22 100.766L224.178 100.702C224.093 100.55 224.022 100.41 223.95 100.257L223.907 100.18C220.194 97.805 219.082 95.9136 217.925 93.92L217.897 93.8691C218.425 94.9008 219.188 96.2476 219.741 97.265C219.91 97.5571 220.078 97.8362 220.273 98.1141C220.426 98.3417 220.593 98.5818 220.773 98.8083C221.146 99.2997 221.571 99.7758 222.02 100.212C222.47 100.661 222.97 101.081 223.496 101.475C224.021 101.868 224.597 102.234 225.199 102.585L225.198 102.572Z" fill="#C9EA32"/>
<path d="M228.935 108.412C228.88 108.336 228.824 108.247 228.768 108.172C228.727 108.108 228.685 108.058 228.643 107.995C228.545 107.843 228.435 107.691 228.337 107.54C228.295 107.489 228.253 107.426 228.225 107.375L228.224 107.349L228.156 107.274C228.044 107.11 227.933 106.945 227.821 106.781L227.766 106.705L227.737 106.654C227.612 106.465 227.486 106.275 227.374 106.097L227.346 106.06C226.827 105.809 226.346 105.531 225.89 105.225C225.433 104.92 225.015 104.6 224.622 104.253C224.229 103.905 223.862 103.544 223.532 103.155C223.285 102.879 223.063 102.576 222.855 102.286L224.695 105.018L224.849 105.245C224.849 105.245 224.905 105.334 224.945 105.371C225.168 105.687 225.415 105.976 225.675 106.264C225.976 106.589 226.302 106.887 226.653 107.171C227.004 107.455 227.394 107.725 227.796 107.967C228.197 108.21 228.637 108.438 229.102 108.639C229.046 108.563 228.991 108.487 228.948 108.411L228.935 108.412Z" fill="#C9EA32"/>
<path d="M233.449 114.45L233.408 114.399C233.229 114.173 233.049 113.946 232.87 113.72L232.814 113.644C232.76 113.581 232.718 113.518 232.663 113.455C232.552 113.317 232.455 113.178 232.345 113.053C232.29 112.977 232.234 112.901 232.18 112.839C232.111 112.751 232.055 112.675 231.986 112.587C231.931 112.524 231.876 112.448 231.834 112.385C231.437 112.246 231.065 112.08 230.718 111.9C230.372 111.72 230.038 111.527 229.741 111.306C229.432 111.085 229.162 110.862 228.903 110.613C228.685 110.402 228.494 110.189 228.314 109.962C228.273 109.912 228.232 109.862 228.203 109.811L228.341 109.987L230.757 113.058C230.95 113.297 231.154 113.509 231.385 113.707C231.615 113.906 231.858 114.103 232.126 114.274C232.394 114.444 232.687 114.601 232.993 114.743C233.299 114.886 233.63 115.002 233.986 115.103C233.862 114.952 233.738 114.788 233.614 114.638C233.573 114.587 233.531 114.524 233.476 114.474L233.449 114.45Z" fill="#C9EA32"/>
<path d="M238.932 120.94C238.878 120.877 238.823 120.815 238.754 120.74C238.631 120.602 238.494 120.452 238.37 120.301C238.302 120.226 238.247 120.163 238.178 120.088C238.096 120 238.027 119.912 237.945 119.825C237.877 119.749 237.821 119.674 237.753 119.599C237.63 119.461 237.506 119.323 237.382 119.172C237.328 119.11 237.272 119.034 237.217 118.971L237.149 118.896C236.847 118.844 236.57 118.778 236.306 118.686C236.041 118.593 235.803 118.5 235.576 118.38C235.349 118.259 235.148 118.125 234.959 117.977C234.865 117.903 234.77 117.829 234.688 117.742C234.607 117.667 234.525 117.58 234.456 117.491L235.457 118.632L237.254 120.676L237.281 120.701C237.977 121.425 238.58 121.516 239.59 121.679C239.384 121.441 239.166 121.216 238.96 120.978L238.905 120.915L238.932 120.94Z" fill="#C9EA32"/>
<path d="M245.725 128.154C245.575 128.004 245.425 127.854 245.275 127.705C245.207 127.629 245.139 127.567 245.071 127.492L244.812 127.23C244.73 127.156 244.662 127.081 244.58 127.006C244.444 126.869 244.321 126.731 244.184 126.594C244.116 126.532 244.048 126.457 243.98 126.394L243.898 126.307C243.679 126.069 243.448 125.845 243.229 125.607C243.008 125.63 242.814 125.639 242.631 125.634C242.448 125.629 242.278 125.61 242.133 125.565C241.988 125.532 241.842 125.473 241.723 125.413C241.629 125.365 241.548 125.304 241.48 125.242C241.453 125.217 241.426 125.192 241.413 125.18L243.76 127.589L244.495 128.325C244.563 128.387 244.631 128.436 244.723 128.471C244.816 128.506 244.921 128.528 245.039 128.536C245.156 128.543 245.299 128.524 245.442 128.518C245.585 128.511 245.751 128.452 245.945 128.404L245.877 128.342C245.877 128.342 245.755 128.23 245.7 128.168L245.725 128.154Z" fill="#C9EA32"/>
<path d="M252.35 134.517C252.268 134.442 252.187 134.368 252.092 134.281C251.956 134.157 251.82 134.032 251.684 133.895C251.603 133.821 251.535 133.758 251.453 133.684L251.358 133.597C251.114 133.373 250.87 133.15 250.625 132.913L250.583 132.863C250.583 132.863 250.475 132.763 250.421 132.714C250.244 132.552 250.068 132.391 249.904 132.216C249.765 132.313 249.651 132.396 249.536 132.453C249.435 132.523 249.333 132.567 249.257 132.609C249.18 132.638 249.116 132.667 249.064 132.67C249.025 132.671 248.999 132.673 248.986 132.673C248.986 132.673 248.96 132.674 248.959 132.661L250.549 134.154L252.246 135.707C252.246 135.707 252.245 135.681 252.27 135.654C252.295 135.626 252.332 135.573 252.368 135.506C252.417 135.439 252.478 135.358 252.553 135.276C252.627 135.182 252.713 135.074 252.825 134.952C252.757 134.89 252.689 134.827 252.621 134.765L252.35 134.517Z" fill="#C9EA32"/>
<path d="M260.236 142.581C260.179 142.479 260.135 142.364 260.103 142.235C260.072 142.106 260.052 141.964 260.058 141.794C260.063 141.624 260.069 141.455 260.099 141.258C259.964 141.147 259.815 141.023 259.68 140.912C259.599 140.85 259.518 140.776 259.437 140.714C259.397 140.69 259.369 140.652 259.329 140.628C259.072 140.418 258.815 140.195 258.558 139.985L258.517 139.948C258.517 139.948 258.422 139.861 258.368 139.824C258.179 139.663 257.977 139.503 257.787 139.329C257.719 139.28 257.664 139.217 257.597 139.168C257.502 139.081 257.408 139.007 257.313 138.92C257.218 138.833 257.123 138.759 257.028 138.672C256.971 138.844 256.925 138.989 256.892 139.121C256.858 139.253 256.838 139.371 256.842 139.475C256.847 139.579 256.851 139.67 256.867 139.734C256.883 139.799 256.924 139.849 256.965 139.899L257.182 140.098L257.683 140.532L259.415 141.992L260.429 142.833C260.429 142.833 260.375 142.783 260.348 142.758C260.307 142.708 260.265 142.657 260.223 142.594L260.236 142.581Z" fill="#C9EA32"/>
<path d="M268.533 149.091C268.383 148.928 268.258 148.751 268.144 148.548C268.031 148.345 267.917 148.128 267.829 147.898C267.741 147.667 267.664 147.41 267.6 147.127C267.33 146.93 267.074 146.733 266.805 146.537L266.778 146.512L266.643 146.413C266.428 146.254 266.225 146.093 266.01 145.947L265.822 145.799C265.727 145.725 265.633 145.651 265.538 145.577C265.431 145.503 265.336 145.416 265.228 145.343C265.094 145.245 264.972 145.146 264.838 145.048C264.744 144.987 264.662 144.912 264.581 144.851L264.447 144.752C264.458 144.999 264.506 145.219 264.555 145.425C264.603 145.631 264.676 145.81 264.749 145.989C264.821 146.156 264.919 146.307 265.017 146.446C265.113 146.572 265.222 146.672 265.331 146.771L265.371 146.795L265.775 147.09L266.53 147.669L268.995 149.526C268.888 149.453 268.793 149.366 268.711 149.278C268.643 149.216 268.588 149.154 268.533 149.091Z" fill="#C9EA32"/>
<path d="M277.675 155.537C277.675 155.537 277.783 155.61 277.837 155.647C277.877 155.671 277.904 155.696 277.944 155.72L277.488 155.415C277.488 155.415 277.609 155.501 277.675 155.537Z" fill="#C9EA32"/>
<path d="M276.346 154.332C276.112 154.056 275.89 153.74 275.68 153.411C275.47 153.081 275.285 152.725 275.125 152.341C275.057 152.292 274.977 152.243 274.91 152.207C274.776 152.122 274.642 152.037 274.508 151.952C274.455 151.915 274.402 151.891 274.361 151.854C274.294 151.805 274.227 151.769 274.159 151.72C274.025 151.634 273.891 151.549 273.757 151.451C273.703 151.414 273.649 151.378 273.583 151.341L273.395 151.219C273.261 151.134 273.126 151.036 272.992 150.951C272.926 150.915 272.871 150.865 272.805 150.829C272.751 150.792 272.697 150.755 272.63 150.719C272.496 150.621 272.362 150.536 272.227 150.438C272.16 150.389 272.093 150.339 272.026 150.303C272.145 150.637 272.276 150.943 272.431 151.223C272.574 151.503 272.742 151.769 272.923 152.022C273.102 152.261 273.295 152.487 273.499 152.687C273.703 152.886 273.933 153.071 274.161 153.217L277.489 155.427C277.354 155.329 277.219 155.218 277.097 155.119C276.826 154.884 276.581 154.634 276.334 154.358L276.346 154.332Z" fill="#C9EA32"/>
<path d="M285.382 160.144C284.953 159.851 284.534 159.517 284.14 159.144C283.746 158.771 283.376 158.37 283.018 157.93C282.673 157.49 282.339 157.01 282.03 156.489C281.963 156.453 281.896 156.417 281.829 156.381C281.709 156.308 281.589 156.248 281.469 156.176L281.349 156.116C281.349 156.116 281.215 156.044 281.149 156.007C281.028 155.935 280.908 155.875 280.775 155.803C280.735 155.778 280.682 155.755 280.641 155.73C280.575 155.694 280.521 155.658 280.454 155.621C280.334 155.549 280.213 155.476 280.08 155.404C280.027 155.38 279.973 155.343 279.933 155.319C279.879 155.282 279.825 155.246 279.759 155.222C279.639 155.15 279.505 155.077 279.385 155.005C279.331 154.968 279.278 154.944 279.211 154.908C279.453 155.366 279.72 155.797 280.011 156.188C280.301 156.579 280.604 156.943 280.932 157.28C281.259 157.618 281.598 157.915 281.961 158.186C282.042 158.247 282.136 158.308 282.217 158.37C282.499 158.566 282.794 158.748 283.087 158.904L285.639 160.341L285.611 160.316C285.531 160.268 285.437 160.207 285.356 160.145L285.382 160.144Z" fill="#C9EA32"/>
<path d="M291.308 162.8C290.741 162.344 290.198 161.847 289.679 161.297C289.159 160.746 288.664 160.156 288.206 159.512C288.14 159.489 288.073 159.453 288.007 159.43C287.901 159.383 287.794 159.335 287.688 159.288L287.595 159.253C287.595 159.253 287.476 159.193 287.409 159.17C287.303 159.123 287.197 159.075 287.091 159.028L286.984 158.98C286.984 158.98 286.864 158.921 286.811 158.897C286.705 158.849 286.599 158.802 286.479 158.742L286.359 158.682C286.359 158.682 286.253 158.635 286.186 158.599C286.08 158.552 285.96 158.492 285.853 158.444C285.813 158.42 285.76 158.396 285.721 158.385C286.112 158.98 286.539 159.521 286.979 160.036C287.431 160.537 287.894 160.998 288.395 161.419C288.882 161.84 289.406 162.207 289.943 162.548C290.17 162.681 290.397 162.815 290.624 162.948C290.945 163.116 291.265 163.284 291.596 163.426L291.876 163.557L293.856 164.446C293.589 164.314 293.323 164.17 293.069 164.025C292.454 163.674 291.863 163.271 291.296 162.814L291.308 162.8Z" fill="#C9EA32"/>
<path d="M294.334 164.645C294.533 164.741 294.732 164.823 294.931 164.905L294.984 164.929L293.881 164.431C294.028 164.503 294.188 164.587 294.347 164.658L294.334 164.645Z" fill="#C9EA32"/>
<path d="M303.477 167.888C303.108 167.774 302.698 167.649 302.263 167.525C302.66 167.664 303.069 167.776 303.477 167.888Z" fill="#C9EA32"/>
<path d="M298.138 165.545C297.293 165.009 296.498 164.393 295.724 163.698C294.951 163.003 294.227 162.24 293.539 161.398C293.486 161.387 293.42 161.364 293.367 161.354C293.275 161.332 293.182 161.297 293.09 161.275L293.024 161.252C293.024 161.252 292.905 161.218 292.853 161.207C292.761 161.185 292.668 161.15 292.576 161.128L292.497 161.106C292.497 161.106 292.391 161.071 292.338 161.048C292.245 161.013 292.153 160.991 292.06 160.956L291.968 160.934C291.968 160.934 291.862 160.899 291.809 160.876C291.717 160.841 291.624 160.819 291.519 160.784L291.413 160.75C291.979 161.48 292.582 162.157 293.222 162.767C293.861 163.377 294.524 163.933 295.21 164.437C295.897 164.941 296.619 165.377 297.365 165.748C298.005 166.072 298.655 166.355 299.33 166.599C299.436 166.633 299.542 166.681 299.648 166.715C300.005 166.83 300.401 166.955 300.811 167.093C301.286 167.242 301.788 167.389 302.263 167.537C301.748 167.365 301.231 167.166 300.74 166.953C299.85 166.563 298.982 166.093 298.138 165.558L298.138 165.545Z" fill="#C9EA32"/>
<path d="M305.087 167.464C303.783 166.857 302.513 166.106 301.314 165.222C300.116 164.337 298.963 163.307 297.909 162.155C297.857 162.158 297.818 162.159 297.766 162.149C297.688 162.152 297.609 162.143 297.531 162.133L297.492 162.135C297.492 162.135 297.4 162.126 297.348 162.115C297.27 162.119 297.191 162.109 297.112 162.099L297.06 162.102C297.06 162.102 296.968 162.08 296.916 162.082C296.838 162.086 296.759 162.063 296.681 162.053L296.616 162.056C296.616 162.056 296.524 162.034 296.484 162.023C296.405 162.014 296.327 162.004 296.248 161.994L296.183 161.997C297.061 162.987 297.985 163.871 298.972 164.674C299.958 165.464 300.978 166.148 302.046 166.739C303.114 167.33 304.203 167.803 305.327 168.183C306.451 168.563 307.596 168.838 308.763 169.02C309.537 169.129 310.478 169.218 311.381 169.308C310.608 169.212 309.846 169.064 309.083 168.889C307.714 168.559 306.364 168.085 305.061 167.478L305.087 167.464Z" fill="#C9EA32"/>
<path d="M311.393 169.295C311.812 169.354 312.231 169.388 312.662 169.421C312.858 169.438 313.054 169.442 313.263 169.459L313.133 169.465C312.596 169.411 312.008 169.359 311.394 169.308L311.393 169.295Z" fill="#C9EA32"/>
<path d="M325.844 167.704C325.318 167.884 324.779 168.051 324.238 168.192C324.662 168.069 325.189 167.903 325.844 167.704Z" fill="#C9EA32"/>
<path d="M313.136 168.346C310.978 167.855 308.872 167.063 306.857 165.967C304.854 164.87 302.942 163.457 301.213 161.749C301.174 161.751 301.148 161.765 301.11 161.78C301.058 161.795 300.995 161.824 300.93 161.84L300.904 161.841C300.904 161.841 300.827 161.871 300.801 161.872C300.75 161.887 300.685 161.903 300.634 161.918L300.608 161.919C300.608 161.919 300.531 161.936 300.505 161.95C300.453 161.952 300.389 161.981 300.324 161.984L300.285 161.986C300.285 161.986 300.208 162.002 300.182 162.016C300.118 162.019 300.066 162.035 300.002 162.05L299.963 162.052C301.368 163.501 302.895 164.736 304.502 165.745C306.11 166.755 307.8 167.566 309.545 168.14C311.289 168.714 313.064 169.091 314.856 169.246C316.647 169.402 318.455 169.348 320.227 169.074L320.783 168.984C321.908 168.791 322.411 168.69 323.248 168.458C323.531 168.38 323.839 168.289 324.225 168.18C322.732 168.572 321.192 168.809 319.646 168.891C317.476 169.013 315.28 168.824 313.122 168.333L313.136 168.346Z" fill="#C9EA32"/>
<path d="M325.844 167.704L325.87 167.703L326.036 167.63L325.973 167.659C325.973 167.659 325.883 167.689 325.844 167.704Z" fill="#C9EA32"/>
<path d="M303.409 160.167C303.409 160.167 303.385 160.207 303.36 160.234L303.31 160.288L303.249 160.369L303.224 160.409L303.211 160.41C303.211 160.41 303.125 160.518 303.088 160.572C303.051 160.612 303.026 160.639 302.989 160.68C302.964 160.707 302.939 160.721 302.914 160.749L302.889 160.776L302.876 160.776C302.876 160.776 302.802 160.858 302.764 160.886L302.713 160.927L302.689 160.954L302.651 160.982C308.288 166.228 321.371 172.539 334.699 162.923L334.712 162.922L334.711 162.896C335.365 162.385 335.705 162.11 336.155 161.699C336.605 161.275 337.179 160.703 338.288 159.573C338.599 159.233 338.932 158.815 339.266 158.409L339.216 158.464C331.301 167.658 316.187 170.776 303.41 160.18L303.409 160.167Z" fill="#C9EA32"/>
<path d="M340.128 157.304C339.845 157.668 339.561 158.032 339.251 158.385C339.56 158.006 339.856 157.628 340.128 157.304Z" fill="#C9EA32"/>
<path d="M344.181 148.828C343.696 149.931 343.105 151.012 342.422 152.058C341.739 153.104 340.963 154.102 340.094 155.065C337.833 157.549 335.132 159.479 332.183 160.847C329.235 162.215 326.053 163.007 322.82 163.215C319.586 163.424 316.301 163.061 313.158 162.093C310.015 161.125 307.016 159.578 304.341 157.404L304.343 157.443C304.334 157.535 304.325 157.626 304.303 157.718L304.304 157.744C304.296 157.849 304.274 157.954 304.265 158.046L304.269 158.124C304.233 158.19 304.223 158.269 304.2 158.335L304.202 158.387L304.177 158.414C304.155 158.506 304.133 158.599 304.111 158.678C306.763 160.931 309.754 162.57 312.873 163.604C316.006 164.637 319.281 165.065 322.504 164.909C325.727 164.754 328.898 164.001 331.835 162.673C334.771 161.344 337.461 159.428 339.734 156.944C340.33 156.292 340.887 155.616 341.39 154.917C341.893 154.217 342.356 153.506 342.779 152.771C343.203 152.036 343.573 151.29 343.904 150.52C344.128 149.99 344.339 149.459 344.523 148.917C344.604 148.679 344.684 148.428 344.765 148.19C344.787 148.098 344.821 147.992 344.843 147.9C345.068 147.096 345.298 146.122 345.485 145.345L345.483 145.306L345.506 145.227C345.589 144.754 345.683 144.216 345.763 143.678C345.659 144.269 345.528 144.848 345.372 145.428C345.071 146.574 344.678 147.712 344.18 148.815L344.181 148.828Z" fill="#C9EA32"/>
<path d="M345.751 143.691C345.833 143.205 345.903 142.707 345.959 142.223C345.968 142.131 345.977 142.04 345.986 141.948L345.99 142.039C345.908 142.538 345.829 143.114 345.738 143.692L345.751 143.691Z" fill="#C9EA32"/>
<path d="M345.309 130.764C345.241 130.415 345.174 130.08 345.121 129.77C345.171 130.002 345.207 130.222 345.243 130.454C348.846 151.525 323.014 166.123 303.919 153.449L303.921 153.488C303.966 153.63 303.998 153.771 304.031 153.913L304.033 153.978C304.065 154.094 304.096 154.21 304.114 154.326L304.12 154.456C304.163 154.559 304.181 154.662 304.198 154.752L304.203 154.856C304.234 154.985 304.253 155.115 304.272 155.244C320.432 167.227 347.613 156.906 345.921 134.306L345.881 133.982C345.748 133.024 345.526 131.849 345.322 130.777L345.309 130.764Z" fill="#C9EA32"/>
<path d="M343.335 123.858C343.246 123.602 343.13 123.334 343.026 123.052C342.718 122.284 342.369 121.453 342.063 120.711C342.636 122.183 343.004 123.73 343.139 125.313C343.311 127.142 343.186 129.023 342.788 130.903C342.389 132.796 341.705 134.689 340.718 136.53C339.745 138.383 338.471 140.185 336.918 141.895C334.645 144.392 331.962 146.439 329.063 148.026C326.163 149.6 323.034 150.702 319.882 151.298C316.73 151.88 313.543 151.969 310.513 151.491C307.484 151.026 304.612 150.007 302.08 148.413L302.082 148.452C302.167 148.618 302.24 148.784 302.312 148.95L302.314 148.989L302.356 149.052C302.414 149.193 302.473 149.334 302.531 149.474L302.56 149.538L302.561 149.564C302.633 149.73 302.705 149.883 302.764 150.037L302.766 150.076L302.808 150.139C302.866 150.28 302.911 150.408 302.969 150.549L302.998 150.613C305.589 152.347 308.518 153.494 311.592 154.087C314.666 154.681 317.897 154.707 321.092 154.214C324.287 153.72 327.433 152.695 330.361 151.172C333.289 149.649 335.974 147.628 338.247 145.131C339.725 143.516 340.926 141.809 341.863 140.035C342.801 138.274 343.489 136.446 343.903 134.631C344.317 132.802 344.484 130.971 344.391 129.178C344.304 127.501 343.997 125.861 343.458 124.283C343.414 124.168 343.383 124.052 343.339 123.936L343.309 123.86L343.335 123.858Z" fill="#C9EA32"/>
<path d="M338.025 112.762C337.856 112.47 337.686 112.178 337.531 111.911C337.588 112.013 337.631 112.102 337.688 112.204C338.371 113.515 338.812 114.941 339.021 116.443C339.268 118.19 339.181 120.056 338.784 121.963C338.386 123.869 337.653 125.829 336.606 127.777C335.559 129.725 334.186 131.661 332.484 133.521C330.211 136.018 327.557 138.141 324.728 139.855C321.887 141.57 318.87 142.863 315.833 143.688C312.809 144.512 309.765 144.881 306.905 144.721C304.046 144.574 301.359 143.899 299.013 142.674L299.055 142.751C299.154 142.916 299.252 143.068 299.337 143.233L299.38 143.309L299.381 143.335C299.506 143.512 299.605 143.703 299.717 143.881L299.746 143.931L299.788 144.008C299.873 144.16 299.972 144.325 300.057 144.478L300.098 144.541L300.1 144.567C300.212 144.744 300.311 144.922 300.41 145.1L300.438 145.151C302.87 146.541 305.641 147.356 308.584 147.643C311.528 147.929 314.63 147.688 317.724 146.964C320.817 146.241 323.876 145.025 326.747 143.374C329.617 141.723 332.272 139.626 334.558 137.128C336.211 135.322 337.533 133.427 338.556 131.52C339.578 129.599 340.273 127.653 340.671 125.747C341.068 123.828 341.154 121.949 340.931 120.148C340.745 118.607 340.315 117.128 339.667 115.737C339.596 115.597 339.524 115.444 339.453 115.303C339.41 115.227 339.381 115.15 339.339 115.074C338.969 114.387 338.489 113.549 338.038 112.761L338.025 112.762Z" fill="#C9EA32"/>
<path d="M295.247 137.032L295.316 137.12C295.47 137.347 295.636 137.561 295.789 137.789L295.817 137.827C295.817 137.827 295.886 137.928 295.914 137.966C296.025 138.13 296.136 138.282 296.248 138.446C296.29 138.509 296.331 138.56 296.373 138.623C296.428 138.699 296.484 138.787 296.54 138.863C296.595 138.939 296.651 139.027 296.707 139.103C298.9 140.1 301.447 140.56 304.18 140.504C306.913 140.461 309.845 139.915 312.772 138.939C315.711 137.962 318.657 136.542 321.442 134.738C324.228 132.935 326.841 130.761 329.126 128.264C330.878 126.35 332.302 124.385 333.387 122.422C334.486 120.472 335.246 118.524 335.685 116.668C336.123 114.799 336.227 113.01 336.01 111.353C335.793 109.695 335.231 108.183 334.352 106.854L332.307 103.91L332.21 103.771L332.002 103.494C332.002 103.494 332.071 103.582 332.099 103.633C332.907 104.808 333.41 106.18 333.594 107.682C333.794 109.25 333.649 110.988 333.183 112.806C332.716 114.624 331.916 116.548 330.777 118.487C329.653 120.439 328.19 122.418 326.414 124.372C324.128 126.87 321.53 129.082 318.8 130.948C316.056 132.815 313.179 134.323 310.31 135.414C307.454 136.504 304.618 137.177 301.983 137.372C299.348 137.566 296.912 137.27 294.843 136.437C294.927 136.564 295.023 136.677 295.107 136.803C295.163 136.879 295.204 136.942 295.26 137.018L295.247 137.032Z" fill="#C9EA32"/>
<path d="M290.287 130.61C290.287 130.61 290.369 130.697 290.397 130.748C290.535 130.924 290.686 131.1 290.824 131.276C290.866 131.339 290.92 131.389 290.962 131.452L291.169 131.717C291.238 131.805 291.307 131.893 291.376 131.981C291.472 132.094 291.556 132.207 291.652 132.32C291.72 132.396 291.776 132.484 291.845 132.559L291.927 132.66C293.816 133.254 296.072 133.31 298.554 132.9C301.037 132.491 303.721 131.63 306.453 130.376C309.197 129.121 311.977 127.487 314.652 125.532C317.326 123.577 319.883 121.315 322.169 118.817C323.983 116.835 325.484 114.854 326.662 112.926C327.84 110.999 328.709 109.137 329.244 107.407C329.779 105.664 329.994 104.053 329.865 102.613C329.756 101.328 329.38 100.185 328.739 99.237C328.656 99.1235 328.586 99.0093 328.502 98.8958L327.675 97.8514L326.93 96.9076L325.842 95.5882C326.572 96.4676 326.948 97.6101 327.006 98.936C327.066 100.275 326.795 101.811 326.192 103.479C325.602 105.159 324.692 106.97 323.461 108.861C322.242 110.765 320.702 112.735 318.876 114.743C316.59 117.241 314.061 119.541 311.428 121.559C308.808 123.577 306.085 125.312 303.45 126.679C300.801 128.047 298.227 129.047 295.869 129.607C293.523 130.167 291.392 130.274 289.655 129.869C289.848 130.108 290.04 130.334 290.233 130.573L290.261 130.611L290.287 130.61Z" fill="#C9EA32"/>
<path d="M318.156 94.0666C317.402 95.5588 316.344 97.2467 315.017 99.0637C313.691 100.881 312.084 102.827 310.221 104.864C307.935 107.361 305.475 109.75 302.993 111.93C300.51 114.111 297.992 116.072 295.591 117.728C293.19 119.385 290.918 120.723 288.888 121.659C286.872 122.595 285.098 123.116 283.744 123.137L283.771 123.162L283.881 123.288C284.058 123.475 284.223 123.663 284.401 123.851L284.551 124.013C284.633 124.101 284.715 124.188 284.784 124.276C284.866 124.364 284.949 124.465 285.031 124.552C285.14 124.664 285.236 124.777 285.346 124.903C285.414 124.978 285.496 125.065 285.565 125.141L285.674 125.253C285.88 125.491 286.099 125.729 286.304 125.954C287.835 126.121 289.747 125.763 291.914 124.99C294.081 124.216 296.489 123.016 299.001 121.485C301.512 119.954 304.112 118.08 306.649 115.975C309.2 113.87 311.688 111.519 313.974 109.022C315.825 106.999 317.405 105.027 318.69 103.173C319.975 101.319 320.967 99.5817 321.652 98.0015C322.338 96.4342 322.705 95.0243 322.77 93.8363C322.825 92.7267 322.589 91.8124 322.064 91.1324C322.036 91.0945 321.995 91.0443 321.954 91.007L321.433 90.4179L321.022 89.9542L319.01 87.751C319.503 88.2893 319.67 89.1284 319.522 90.19C319.374 91.2645 318.91 92.5615 318.156 94.0666Z" fill="#C9EA32"/>
<path d="M277.848 117.068C277.957 117.18 278.066 117.293 278.175 117.392C278.257 117.48 278.338 117.554 278.433 117.641C278.474 117.678 278.515 117.729 278.556 117.766C278.788 118.003 279.02 118.24 279.264 118.464L279.333 118.539C279.537 118.751 279.755 118.963 279.96 119.175C281.081 118.904 282.61 118.133 284.421 116.985C286.233 115.837 288.327 114.298 290.564 112.467C292.802 110.649 295.197 108.55 297.597 106.282C299.997 104.013 302.403 101.575 304.702 99.077C306.578 97.0273 308.225 95.1049 309.618 93.3369C311.012 91.569 312.153 89.9816 313.016 88.6019C313.88 87.2221 314.466 86.05 314.752 85.1387C315.037 84.2273 315.021 83.5768 314.694 83.2396L314.557 83.0894L312.267 80.8073L311.504 80.0466C311.504 80.0466 311.519 80.072 311.532 80.0845C311.698 80.3115 311.577 80.8118 311.207 81.5706C310.813 82.3696 310.117 83.4293 309.172 84.7345C308.227 86.0397 307.018 87.565 305.571 89.2833C305.236 89.6758 304.903 90.0813 304.543 90.4879C303.354 91.8821 302.027 93.3736 300.573 94.9618C299.778 95.8306 298.97 96.6999 298.148 97.5569C296.63 99.161 295.086 100.753 293.564 102.266C293.052 102.771 292.554 103.275 292.054 103.766C291.98 103.847 291.892 103.929 291.818 104.011C291.143 104.666 290.482 105.307 289.819 105.936C288.795 106.919 287.794 107.862 286.817 108.739C286.492 109.04 286.179 109.314 285.866 109.601C285.365 110.053 284.876 110.479 284.399 110.891C283.208 111.933 282.09 112.868 281.083 113.655C280.379 114.221 279.735 114.692 279.142 115.109C278.346 115.665 277.662 116.099 277.126 116.357C277.18 116.407 277.235 116.457 277.289 116.519C277.384 116.606 277.466 116.694 277.561 116.781C277.657 116.881 277.752 116.968 277.848 117.068Z" fill="#C9EA32"/>
<path d="M270.646 110.315L270.794 110.439C271.052 110.662 271.296 110.885 271.554 111.121L271.567 111.121C271.717 111.27 271.866 111.407 272.003 111.544C272.098 111.631 272.193 111.718 272.301 111.805C272.355 111.854 272.396 111.892 272.45 111.941C272.545 112.028 272.626 112.103 272.721 112.19L273.047 112.488C278.427 106.923 305.245 77.8107 306.882 75.6673L306.814 75.6051C305.904 74.7598 304.887 73.841 304.073 73.1086C303.991 73.0341 303.896 72.9471 303.802 72.8732C303.734 72.8111 303.653 72.7495 303.585 72.6744L303.49 72.5874C303.354 72.4762 302.922 72.7038 302.255 73.2282C301.575 73.7533 300.635 74.5894 299.472 75.6958C298.31 76.8023 296.938 78.1785 295.382 79.7843C293.825 81.3902 292.084 83.2516 290.208 85.3014C287.922 87.7991 285.639 90.3618 283.47 92.8544C281.301 95.3469 279.259 97.7557 277.429 99.9728C275.6 102.19 274.009 104.201 272.741 105.872C271.474 107.543 270.556 108.886 270.061 109.768C270.183 109.867 270.292 109.979 270.414 110.078C270.508 110.152 270.59 110.239 270.685 110.313L270.646 110.315Z" fill="#C9EA32"/>
<path d="M271.663 95.0563C273.304 92.6913 275.21 90.1453 277.27 87.5664C277.74 86.9855 278.221 86.3911 278.703 85.8097C279.977 84.2685 281.315 82.7245 282.667 81.2059C283.064 80.7585 283.462 80.3241 283.859 79.8897C285.735 77.8399 287.505 76.0293 289.13 74.4856C289.792 73.8571 290.43 73.2688 291.045 72.7337C291.935 71.9519 292.763 71.2509 293.519 70.6574C293.934 70.3265 294.325 70.0486 294.704 69.7844C295.475 69.2423 296.173 68.8337 296.747 68.5738C297.373 68.2856 297.876 68.1852 298.244 68.26L298.27 68.2589C298.376 68.2803 298.456 68.3288 298.537 68.3903C298.55 68.3898 298.576 68.4016 298.59 68.414L296.32 66.5609L295.698 66.0544L295.009 65.4988C295.009 65.4988 294.928 65.4373 294.888 65.413C294.392 65.0964 293.662 65.0766 292.75 65.3515C291.76 65.6428 290.562 66.2558 289.184 67.1765C287.805 68.0972 286.257 69.3249 284.591 70.8313C282.926 72.3378 281.129 74.1236 279.253 76.1603C276.967 78.6581 274.779 81.2947 272.786 83.9358C270.793 86.5768 268.994 89.1963 267.489 91.6855C265.984 94.1616 264.758 96.4822 263.91 98.5125C263.062 100.53 262.591 102.257 262.583 103.534C262.826 103.731 263.082 103.928 263.325 104.126L263.366 104.163L263.393 104.188C263.65 104.398 263.906 104.595 264.15 104.806L264.299 104.929C264.393 105.003 264.488 105.09 264.583 105.164C264.704 105.263 264.826 105.362 264.934 105.461C265.042 105.548 265.151 105.647 265.259 105.733C265.353 105.807 265.448 105.894 265.543 105.968C265.597 106.018 265.651 106.055 265.705 106.104C265.778 105.697 265.939 105.208 266.137 104.679C266.475 103.778 266.949 102.728 267.6 101.54C267.685 101.393 267.781 101.219 267.866 101.072C268.541 99.8573 269.343 98.5454 270.27 97.1237C270.71 96.4661 271.161 95.7818 271.639 95.0964L271.663 95.0563Z" fill="#C9EA32"/>
<path d="M273.187 71.3225C275.038 69.2999 276.862 67.565 278.596 66.1207C280.329 64.6764 281.972 63.5356 283.472 62.7137C284.973 61.8919 286.331 61.3889 287.496 61.2201C288.609 61.0666 289.541 61.2207 290.252 61.6971C290.279 61.722 290.319 61.7463 290.346 61.7581L290.103 61.5735L286.901 59.2537L286.632 59.0572C286.632 59.0572 286.511 58.9844 286.458 58.9477C285.613 58.412 284.562 58.1981 283.354 58.2776C282.068 58.3606 280.603 58.7902 279.021 59.5506C277.44 60.3109 275.73 61.4025 273.955 62.7966C272.18 64.1906 270.355 65.9126 268.503 67.9092C266.217 70.4069 264.123 73.1176 262.318 75.8805C260.512 78.6435 258.971 81.473 257.789 84.1953C256.607 86.9177 255.758 89.5211 255.341 91.8709C254.924 94.2078 254.912 96.2922 255.401 97.9246C255.67 98.1081 255.939 98.3046 256.208 98.5011C256.262 98.5377 256.303 98.575 256.356 98.5987C256.45 98.6727 256.544 98.7336 256.638 98.8076C256.759 98.8934 256.894 98.9916 257.015 99.0775C257.123 99.1508 257.231 99.2372 257.338 99.3106C257.432 99.3846 257.54 99.458 257.634 99.5319C257.689 99.5816 257.755 99.6178 257.81 99.6674C258.025 99.8272 258.254 99.9994 258.47 100.159L258.591 100.245L258.617 100.244C258.343 98.7712 258.544 96.8347 259.136 94.6203C259.741 92.4054 260.738 89.9127 262.054 87.2886C263.371 84.6645 265.021 81.9214 266.906 79.2069C268.792 76.4925 270.926 73.8061 273.212 71.3084L273.187 71.3225Z" fill="#C9EA32"/>
<path d="M261.544 63.3084C263.346 61.3531 265.174 59.6961 266.977 58.3529C268.78 57.0227 270.545 55.9937 272.221 55.3074C273.897 54.621 275.496 54.2637 276.941 54.2388C278.386 54.2269 279.689 54.5468 280.787 55.2276L277.854 53.3908L276.983 52.8433C276.889 52.7823 276.783 52.7349 276.676 52.6875L276.637 52.6892C275.478 52.0894 274.175 51.7954 272.769 51.7926C271.218 51.7831 269.552 52.1043 267.822 52.741C266.093 53.3907 264.287 54.3693 262.481 55.6606C260.676 56.9518 258.859 58.5691 257.081 60.4843C254.795 62.969 252.795 65.7537 251.164 68.6262C249.534 71.5116 248.246 74.4991 247.373 77.4162C246.499 80.3333 246.039 83.193 246.025 85.8116C246.024 88.4295 246.467 90.7934 247.427 92.7566C247.507 92.8052 247.574 92.8543 247.654 92.8898C247.788 92.9751 247.922 93.0603 248.056 93.1325L248.176 93.2054C248.243 93.2545 248.323 93.29 248.39 93.3391C248.524 93.4244 248.658 93.5096 248.792 93.5948C248.846 93.6185 248.886 93.6558 248.926 93.6801C248.993 93.7162 249.06 93.7653 249.127 93.8014C249.261 93.8867 249.395 93.9719 249.529 94.0571C249.583 94.0938 249.637 94.1305 249.69 94.1542C249.756 94.1903 249.81 94.227 249.878 94.2762C250.012 94.3614 250.146 94.4466 250.28 94.5449C250.347 94.581 250.401 94.6177 250.455 94.6674C249.683 92.826 249.427 90.5711 249.602 88.0627C249.778 85.5542 250.398 82.7916 251.392 79.9473C252.386 77.103 253.78 74.1759 255.478 71.3395C257.189 68.5026 259.216 65.7558 261.502 63.2581L261.544 63.3084Z" fill="#C9EA32"/>
<path d="M240.934 89.0985C241.054 89.1583 241.188 89.2305 241.308 89.2904L241.374 89.3265C241.441 89.3626 241.521 89.3981 241.601 89.4467C241.721 89.5065 241.841 89.5793 241.974 89.6385L242.055 89.6871C242.121 89.7232 242.201 89.7587 242.268 89.7949C242.388 89.8547 242.508 89.9275 242.641 89.9867L242.748 90.0471C242.748 90.0471 242.881 90.1194 242.948 90.1555C243.068 90.2283 243.188 90.2881 243.322 90.3603L243.442 90.4331C242.229 88.3248 241.531 85.8029 241.318 83.0642C241.106 80.3254 241.365 77.3444 242.065 74.3308C242.765 71.3172 243.905 68.245 245.455 65.311C246.993 62.3776 248.926 59.5698 251.226 57.0845C252.94 55.2112 254.747 53.6594 256.554 52.4202C258.375 51.1804 260.209 50.2526 262.006 49.639C263.803 49.0385 265.561 48.7522 267.217 48.7961C268.86 48.8405 270.413 49.2016 271.824 49.8945L271.863 49.8928L271.784 49.8702L268.505 48.166L268.278 48.0458C268.278 48.0458 268.212 48.0227 268.185 48.0108C266.697 47.3473 265.079 46.9892 263.384 46.947C261.65 46.8936 259.851 47.1686 258.014 47.7449C256.191 48.3336 254.342 49.223 252.52 50.4368C250.711 51.65 248.929 53.1747 247.239 54.9948C244.952 57.4796 243.045 60.2991 241.575 63.2687C240.104 66.2383 239.044 69.346 238.464 72.4324C237.871 75.5064 237.745 78.5467 238.117 81.3695C238.49 84.1923 239.348 86.7983 240.734 88.9901C240.814 89.0257 240.881 89.0618 240.961 89.1103L240.934 89.0985Z" fill="#C9EA32"/>
<path d="M263.308 45.7777L260.722 44.746L260.021 44.4906C259.822 44.4212 259.624 44.3518 259.426 44.2955C257.907 43.8157 256.307 43.561 254.69 43.5284C252.853 43.5056 250.976 43.771 249.125 44.3219C247.261 44.8863 245.423 45.7361 243.638 46.8832C241.865 48.0297 240.144 49.4605 238.553 51.185C236.267 53.6698 234.439 56.5119 233.114 59.5401C231.777 62.569 230.928 65.7584 230.588 68.9515C230.247 72.1315 230.413 75.3021 231.104 78.2671C231.796 81.2321 233.025 83.991 234.784 86.3617C234.824 86.3729 234.877 86.3966 234.916 86.4079C235.062 86.4666 235.195 86.5128 235.34 86.5715L235.366 86.5703C235.366 86.5703 235.499 86.6296 235.552 86.6533C235.672 86.7001 235.791 86.7469 235.91 86.7937L235.949 86.792C236.017 86.8411 236.083 86.8642 236.149 86.8873C236.268 86.9341 236.375 86.9815 236.494 87.0284L236.547 87.052C236.613 87.0752 236.68 87.1113 236.746 87.1344C236.852 87.1818 236.972 87.2286 237.078 87.276L237.145 87.3121C235.531 85.0001 234.448 82.2999 233.889 79.3941C233.33 76.4754 233.283 73.3516 233.717 70.2065C234.151 67.0614 235.092 63.8939 236.482 60.8888C237.873 57.8837 239.727 55.0534 242.014 52.5687C243.654 50.7898 245.4 49.3189 247.197 48.1453C248.995 46.9716 250.858 46.1076 252.721 45.5432C254.585 44.9787 256.436 44.7144 258.248 44.7644C260.022 44.8161 261.73 45.1572 263.348 45.802C263.374 45.8138 263.414 45.8251 263.441 45.8369L263.308 45.7907L263.308 45.7777Z" fill="#C9EA32"/>
<path d="M254.643 42.7881C253.642 42.5329 252.34 42.2519 251.262 42.0261C251.144 42.0053 251.025 41.9715 250.907 41.9507C250.815 41.9287 250.71 41.9073 250.605 41.8989C250.094 41.8174 249.491 41.7399 249.021 41.6956C230.012 40.0888 215.102 66.0426 229.755 84.8652L229.781 84.8641C229.886 84.8855 229.991 84.9199 230.097 84.9413C230.136 84.9395 230.189 84.9632 230.228 84.9745C230.386 85.0066 230.544 85.0517 230.702 85.0838L230.754 85.0815C230.899 85.1271 231.045 85.1728 231.189 85.2055L231.202 85.2049C231.202 85.2049 231.308 85.2393 231.361 85.25C231.466 85.2844 231.571 85.3058 231.69 85.3396L231.716 85.3384C231.426 84.9605 231.026 84.4573 230.748 84.0528C219.29 67.381 232.588 38.2555 254.617 42.7893L254.643 42.7881Z" fill="#C9EA32"/>
<path d="M225.365 48.6818C223.078 51.1535 221.382 54.0159 220.267 57.0739C219.152 60.1319 218.605 63.3732 218.645 66.6275C218.684 69.8688 219.297 73.1239 220.487 76.171C221.678 79.2311 223.445 82.0833 225.782 84.5587L225.821 84.5569C225.886 84.5541 225.964 84.5506 226.029 84.5477C226.068 84.546 226.107 84.5443 226.146 84.5426L226.172 84.5414C226.25 84.5379 226.315 84.5351 226.393 84.5316C226.432 84.5299 226.484 84.5276 226.523 84.5259L226.549 84.5247C226.627 84.5213 226.718 84.5172 226.797 84.5268C226.835 84.525 226.874 84.5233 226.913 84.5216C227.03 84.5164 227.148 84.5242 227.253 84.5326L227.305 84.5303C214.039 69.3713 222.073 41.4036 244.729 41.2469L244.625 41.2515L243.556 41.2207L243.491 41.2236C242.384 41.2335 240.916 41.3116 239.799 41.3871L239.786 41.3876C238.464 41.5243 237.159 41.7645 235.873 42.134C234.587 42.5036 233.319 42.9895 232.096 43.6037C230.872 44.218 229.693 44.9344 228.559 45.7922C227.437 46.6364 226.36 47.6088 225.353 48.6953L225.365 48.6818Z" fill="#C9EA32"/>
<path d="M214.789 67.776C214.944 70.9862 215.697 74.1829 217.042 77.1841C218.386 80.1853 220.32 82.991 222.85 85.4058L222.888 85.378C222.888 85.378 222.977 85.322 223.015 85.3073C223.041 85.3061 223.066 85.279 223.091 85.2648L223.13 85.2631C223.13 85.2631 223.218 85.1941 223.27 85.1788C223.296 85.1776 223.321 85.1505 223.346 85.1363L223.385 85.1346C223.385 85.1346 223.487 85.078 223.538 85.0627C223.564 85.0615 223.602 85.0338 223.627 85.0197L223.653 85.0185C223.653 85.0185 223.769 84.9743 223.819 84.946C223.858 84.9443 223.883 84.9172 223.922 84.9154C210.924 71.0861 214.914 50.0311 231.828 43.1476L231.892 43.1187L231.789 43.1623C230.574 43.646 229.002 44.3407 227.842 44.9001C227.193 45.2414 226.369 45.7598 225.722 46.1401L225.671 46.1684L225.633 46.1962C225.24 46.448 224.849 46.7258 224.458 47.0036C224.067 47.2945 223.676 47.5983 223.287 47.9151C222.91 48.2313 222.534 48.5606 222.172 48.9153C221.809 49.2569 221.448 49.6246 221.113 50.0041C218.839 52.4753 217.168 55.3235 216.116 58.3396C215.065 61.3688 214.621 64.5794 214.776 67.7896L214.789 67.776Z" fill="#C9EA32"/>
<path d="M216.043 81.3955C217.378 83.5896 219.083 85.624 221.143 87.4344L221.167 87.3942C221.167 87.3942 221.226 87.2614 221.25 87.2082L221.248 87.1692L221.286 87.1285C221.286 87.1285 221.345 87.0086 221.382 86.9549L221.406 86.9148C221.454 86.8215 221.49 86.7547 221.54 86.6874L221.564 86.6473C221.564 86.6473 221.65 86.5263 221.686 86.4725L221.711 86.4454C212.08 77.1818 210.558 64.2898 217.793 53.5629C217.818 53.5227 217.842 53.4826 217.867 53.4554L217.695 53.6975L216.924 54.8126L216.801 54.9874C216.74 55.0813 216.692 55.1615 216.643 55.2418C216.229 55.8854 215.999 56.2733 215.686 56.8472C215.41 57.3804 215.063 58.073 214.479 59.3101L214.481 59.3491L214.432 59.4294L214.208 59.9603C213.268 62.2552 212.711 64.6764 212.546 67.1193C212.38 69.5622 212.594 72.0404 213.17 74.4504C213.759 76.8599 214.722 79.2008 216.056 81.3949L216.043 81.3955Z" fill="#C9EA32"/>
<path d="M220.711 90.6315C220.711 90.6315 220.709 90.5925 220.708 90.5795C220.704 90.4885 220.7 90.3975 220.696 90.3065C220.695 90.2805 220.694 90.2675 220.693 90.2415L220.692 90.2155C220.687 90.0985 220.682 89.9945 220.677 89.8775L220.674 89.7995C220.67 89.7085 220.679 89.63 220.688 89.5384L220.684 89.4344C220.693 89.3559 220.703 89.2773 220.712 89.1987L220.709 89.1337C219.101 87.8113 217.721 86.3486 216.544 84.7727C215.367 83.1967 214.42 81.5194 213.691 79.7674C212.962 78.0153 212.453 76.2144 212.176 74.3772C211.92 72.7084 211.858 71.018 211.979 69.3455C211.998 69.1753 212.003 69.0058 212.022 68.8356L211.987 69.2279C211.922 70.1034 211.875 70.5223 211.879 71.1994C211.877 71.7335 211.895 72.436 211.935 73.6455L211.967 74.3604C211.993 74.9584 212.045 75.5292 212.122 76.0988C213.224 84.2164 218.801 88.9708 220.722 90.6049L220.711 90.6315Z" fill="#C9EA32"/>
<path d="M212.897 80.6756L212.9 80.7406C213.012 81.2045 213.137 81.6679 213.274 82.1177C213.304 82.2205 213.334 82.3103 213.365 82.4132C213.195 81.8086 213.038 81.2034 212.897 80.6756Z" fill="#C9EA32"/>
<path d="M216.979 90.4841C217.602 91.3161 218.301 92.1057 219.077 92.8528C219.852 93.5999 220.704 94.3046 221.631 94.9408C221.585 94.7865 221.526 94.6329 221.481 94.4916L221.479 94.4396L221.436 94.3503C221.405 94.2475 221.374 94.1447 221.343 94.0288L221.314 93.952L221.311 93.887C221.267 93.7717 221.235 93.6559 221.205 93.553L221.201 93.475L221.174 93.4502C221.142 93.3084 221.097 93.1671 221.065 93.0383L221.064 93.0123C219.96 92.2015 218.957 91.3212 218.069 90.3837C217.181 89.4462 216.381 88.4397 215.697 87.402C215.012 86.3513 214.43 85.27 213.963 84.1315C213.729 83.5687 213.509 82.9924 213.326 82.4014C213.589 83.3405 213.879 84.3045 214.11 85.1018C214.14 85.1916 214.169 85.2685 214.199 85.3583C214.215 85.4097 214.229 85.4482 214.245 85.4996C214.541 86.307 214.889 87.1121 215.288 87.8759C215.757 88.7669 216.304 89.6413 216.94 90.4728L216.979 90.4841Z" fill="#C9EA32"/>
<g opacity="0.9">
<path d="M71.8005 244.647C57.3222 266.102 82.1688 308.406 127.297 339.135C172.425 369.863 220.745 377.381 235.224 355.925C249.702 334.47 224.855 292.166 179.727 261.437C134.599 230.709 86.2788 223.191 71.8005 244.647Z" stroke="#C9EA32" stroke-width="0.8" stroke-miterlimit="10"/>
<path d="M72.2435 251.127C59.0061 272.634 85.0095 312.764 130.324 340.761C175.638 368.758 223.104 374.019 236.341 352.512C249.579 331.005 223.575 290.875 178.261 262.878C132.947 234.882 85.4809 229.62 72.2435 251.127Z" stroke="#C9EA32" stroke-width="0.8" stroke-miterlimit="10"/>
<path d="M176.774 264.277C131.282 239.016 84.676 236.017 72.6771 257.577C60.6782 279.138 87.8301 317.094 133.323 342.355C178.815 367.616 225.421 370.616 237.42 349.056C249.419 327.495 222.267 289.538 176.774 264.277Z" stroke="#C9EA32" stroke-width="0.8" stroke-miterlimit="10"/>
<path d="M175.302 265.704C129.626 243.176 83.8755 242.436 73.1155 264.051C62.3556 285.666 90.6608 321.45 136.337 343.977C182.013 366.505 227.763 367.245 238.523 345.63C249.283 324.015 220.978 288.231 175.302 265.704Z" stroke="#C9EA32" stroke-width="0.8" stroke-miterlimit="10"/>
<path d="M173.842 267.129C127.979 247.329 83.0815 248.841 73.5604 270.506C64.0393 292.171 93.5004 325.784 139.363 345.584C185.227 365.384 230.124 363.872 239.645 342.207C249.166 320.542 219.705 286.929 173.842 267.129Z" stroke="#C9EA32" stroke-width="0.8" stroke-miterlimit="10"/>
<path d="M172.4 268.546C126.357 251.48 82.3158 255.255 74.0315 276.978C65.7471 298.7 96.3567 330.145 142.4 347.211C188.443 364.277 232.484 360.502 240.768 338.779C249.053 317.056 218.443 285.612 172.4 268.546Z" stroke="#C9EA32" stroke-width="0.8" stroke-miterlimit="10"/>
<path d="M170.921 269.971C124.691 255.639 81.5048 261.67 74.4617 283.442C67.4187 305.213 99.1859 334.481 145.416 348.813C191.646 363.145 234.832 357.114 241.875 335.342C248.918 313.571 217.151 284.303 170.921 269.971Z" stroke="#C9EA32" stroke-width="0.8" stroke-miterlimit="10"/>
<path d="M169.464 271.388C123.055 259.788 80.7267 268.08 74.9204 289.909C69.114 311.738 102.028 338.837 148.437 350.436C194.845 362.036 237.174 353.744 242.98 331.915C248.787 310.087 215.872 282.988 169.464 271.388Z" stroke="#C9EA32" stroke-width="0.8" stroke-miterlimit="10"/>
<path d="M167.978 272.824C121.387 263.964 79.9174 274.519 75.3538 296.398C70.7902 318.276 104.86 343.195 151.452 352.054C198.043 360.913 239.512 350.359 244.076 328.48C248.639 306.601 214.569 281.683 167.978 272.824Z" stroke="#C9EA32" stroke-width="0.8" stroke-miterlimit="10"/>
<path d="M166.511 274.238C119.734 268.109 79.1174 280.921 75.7913 302.854C72.4651 324.787 107.689 347.535 154.466 353.664C201.243 359.793 241.859 346.981 245.186 325.049C248.512 303.116 213.288 280.367 166.511 274.238Z" stroke="#C9EA32" stroke-width="0.8" stroke-miterlimit="10"/>
<path d="M165.054 275.646C118.096 272.247 78.3348 287.319 76.2453 309.309C74.1557 331.3 110.529 351.883 157.487 355.282C204.445 358.681 244.206 343.609 246.295 321.618C248.385 299.627 212.012 279.045 165.054 275.646Z" stroke="#C9EA32" stroke-width="0.8" stroke-miterlimit="10"/>
<path d="M163.573 277.076C116.432 276.414 77.5291 293.748 76.6803 315.793C75.8315 337.837 113.359 356.244 160.499 356.905C207.64 357.567 246.543 340.233 247.392 318.188C248.241 296.144 210.714 277.737 163.573 277.076Z" stroke="#C9EA32" stroke-width="0.8" stroke-miterlimit="10"/>
<path d="M162.115 278.499C114.791 280.567 76.7421 300.154 77.1305 322.247C77.5189 344.34 116.197 360.574 163.521 358.505C210.845 356.437 248.894 336.85 248.506 314.757C248.117 292.664 209.439 276.43 162.115 278.499Z" stroke="#C9EA32" stroke-width="0.8" stroke-miterlimit="10"/>
<path d="M160.63 279.931C113.12 284.739 75.9277 306.589 77.5575 328.734C79.1872 350.88 119.022 364.935 166.532 360.127C214.041 355.318 251.234 333.468 249.604 311.323C247.974 289.177 208.139 275.122 160.63 279.931Z" stroke="#C9EA32" stroke-width="0.8" stroke-miterlimit="10"/>
<path d="M159.169 281.372C111.476 288.913 75.1385 313.024 78.0068 335.227C80.8751 357.43 121.863 369.316 169.556 361.776C217.249 354.235 253.586 330.123 250.718 307.92C247.85 285.717 206.862 273.831 159.169 281.372Z" stroke="#C9EA32" stroke-width="0.8" stroke-miterlimit="10"/>
<path d="M157.723 282.79C109.844 293.063 74.3586 319.43 78.464 341.683C82.5695 363.935 124.711 373.647 172.59 363.374C220.469 353.101 255.954 326.733 251.849 304.481C247.743 282.229 205.602 272.517 157.723 282.79Z" stroke="#C9EA32" stroke-width="0.8" stroke-miterlimit="10"/>
<path d="M156.251 284.217C108.194 297.225 73.569 325.851 78.9134 348.154C84.2578 370.458 127.548 377.994 175.605 364.986C223.662 351.978 258.287 323.353 252.943 301.049C247.599 278.746 204.308 271.21 156.251 284.217Z" stroke="#C9EA32" stroke-width="0.8" stroke-miterlimit="10"/>
<path d="M154.782 285.637C106.54 301.378 72.7696 332.265 79.353 354.625C85.9365 376.985 130.381 382.35 178.622 366.608C226.864 350.866 260.635 319.979 254.051 297.62C247.468 275.26 203.023 269.895 154.782 285.637Z" stroke="#C9EA32" stroke-width="0.8" stroke-miterlimit="10"/>
<path d="M153.32 287.067C104.894 305.539 71.9767 338.681 79.7961 361.091C87.6155 383.5 133.211 386.691 181.636 368.219C230.062 349.746 262.979 316.604 255.16 294.195C247.341 271.785 201.745 268.594 153.32 287.067Z" stroke="#C9EA32" stroke-width="0.8" stroke-miterlimit="10"/>
<path d="M151.847 288.499C103.241 309.706 71.1806 345.108 80.2387 367.57C89.2969 390.033 136.043 391.051 184.65 369.843C233.256 348.636 265.316 313.235 256.258 290.773C247.2 268.31 200.454 267.292 151.847 288.499Z" stroke="#C9EA32" stroke-width="0.8" stroke-miterlimit="10"/>
<path d="M150.379 289.923C101.593 313.863 70.3907 351.522 80.6871 374.038C90.9835 396.554 138.88 395.399 187.666 371.46C236.452 347.52 267.655 309.86 257.358 287.345C247.062 264.829 199.166 265.983 150.379 289.923Z" stroke="#C9EA32" stroke-width="0.8" stroke-miterlimit="10"/>
<path d="M148.925 291.315C99.9499 317.983 69.5966 357.9 81.1293 380.474C92.6621 403.048 141.714 399.73 190.689 373.062C239.665 346.395 270.018 306.477 258.485 283.903C246.953 261.33 197.901 264.648 148.925 291.315Z" stroke="#C9EA32" stroke-width="0.8" stroke-miterlimit="10"/>
</g>
</svg>
