<svg width="435" height="420" viewBox="0 0 435 420" fill="none" xmlns="http://www.w3.org/2000/svg">
<g opacity="0.9">
<path d="M314.536 94.9097C314.582 94.9733 314.643 95.0233 314.707 95.0822L314.711 95.0999C315.202 95.5087 315.764 95.8604 316.388 96.1286C317.636 96.665 319.143 96.9314 320.887 96.8392C321.992 96.7774 323.197 96.5934 324.477 96.2655C332.584 94.154 341.645 86.8977 347.152 78.6652C348.493 76.6668 349.61 74.6149 350.46 72.5593C350.511 72.4314 350.564 72.3124 350.621 72.1733C351.075 71.0425 351.428 69.9583 351.673 68.9319L351.353 68.8758C351.085 68.8343 350.793 68.8089 350.496 68.7658C350.421 68.7673 350.34 68.7511 350.269 68.7324C349.171 68.6116 348.136 67.913 347.223 66.6489C347.024 66.3701 346.835 66.06 346.642 65.7322C346.628 65.7169 346.621 65.6903 346.607 65.675C346.447 65.3665 346.285 65.0492 346.123 64.694C345.897 64.1754 345.679 63.6166 345.466 63.0086C344.995 61.5867 344.625 59.9758 344.364 58.2404C344.054 56.29 343.884 54.1877 343.827 51.9786C343.799 50.6459 343.807 49.2746 343.858 47.8825C344.091 42.1821 345.068 36.1755 346.701 30.9794C347.056 29.8662 347.446 28.7813 347.86 27.747C347.959 27.4824 348.068 27.2154 348.172 26.9685C348.944 25.1527 349.76 23.6387 350.597 22.4136C351.811 20.6491 353.057 19.4939 354.276 18.9736C354.695 18.8028 355.096 18.7037 355.487 18.6737L355.514 18.6665C355.886 18.7082 356.25 18.7522 356.611 18.7874C356.551 18.7752 356.488 18.7542 356.428 18.742C356.379 18.7363 356.327 18.7218 356.278 18.716L356.426 18.7332C357.095 18.818 357.753 18.8963 358.387 18.9906L358.762 19.0411C358.762 19.0411 358.771 19.0387 358.773 19.0476L358.8 19.0404C360.061 19.2404 361.728 19.5682 363.015 19.7899C362.816 19.7582 362.607 19.7579 362.401 19.8042C362.075 19.8641 361.732 20.0043 361.376 20.2339C360.396 20.8609 359.311 22.1531 358.224 24.0731C357.447 25.415 356.658 27.0643 355.875 29.0161C355.829 29.1239 355.795 29.2469 355.749 29.3547C355.252 30.6109 354.791 31.9243 354.341 33.282C352.911 37.7573 351.761 42.7368 351.018 47.5391C350.794 49.0259 350.605 50.5031 350.455 51.9506C350.201 54.4151 350.067 56.7616 350.078 58.907C350.086 60.692 350.181 62.3394 350.401 63.7819C350.488 64.3856 350.588 64.9289 350.707 65.4385C350.881 66.1518 351.076 66.7645 351.299 67.2743C351.798 68.413 352.425 69.0417 353.158 69.1853C353.16 69.1942 353.169 69.1918 353.178 69.1894C353.209 69.1999 353.252 69.2169 353.281 69.2185C352.992 70.504 352.555 71.906 351.952 73.4002C351.88 73.5908 351.799 73.7838 351.731 73.9543C347.317 84.4669 336.839 95.8243 328.056 99.545C327.162 99.9298 326.317 100.216 325.522 100.403C324.107 100.758 322.868 100.818 321.813 100.609C321.152 100.484 320.564 100.244 320.054 99.9071C319.951 99.8402 319.842 99.7555 319.734 99.6708C319.722 99.6644 319.709 99.6491 319.695 99.6338L319.252 99.2597L319.218 99.2403C319.148 99.1927 319.091 99.1226 319.03 99.0726C319.018 99.0661 319.01 99.0685 319.007 99.0597C318.638 98.7509 318.24 98.4026 317.83 98.0478C317.352 97.6165 316.858 97.1611 316.379 96.6919L315.975 96.3259C315.909 96.2582 315.846 96.1994 315.782 96.1405C315.708 96.0752 315.653 96.014 315.581 95.9575L315.031 95.403C314.866 95.2482 314.718 95.0886 314.566 94.9492C314.4 94.7944 314.253 94.6348 314.098 94.4865C314.057 94.4406 314.014 94.3858 313.975 94.3487C314.014 94.3858 314.048 94.4051 314.078 94.4446C314.132 94.5059 314.193 94.5559 314.248 94.6171L313.882 94.2504L313.877 94.2326L314.311 94.6759C314.38 94.7525 314.454 94.8178 314.52 94.8855L314.536 94.9097Z" fill="#B83856"/>
<path d="M328.068 105.73C328.491 105.92 329.008 105.97 329.616 105.862C330.35 105.73 331.195 105.377 332.179 104.797C332.669 104.502 333.201 104.149 333.754 103.733C336.796 101.454 340.244 97.725 343.519 93.3581C345.432 90.8053 347.296 88.0376 348.966 85.218C351.004 81.7947 352.794 78.2961 354.105 74.994C354.787 73.2689 355.315 71.7093 355.664 70.3314C355.708 70.1769 355.741 70.016 355.793 69.8592C355.791 69.8503 355.8 69.8479 355.797 69.8391C356.12 69.9418 356.458 70.0309 356.735 70.1078L356.795 70.1199C356.984 70.183 357.192 70.2501 357.418 70.3125C357.449 70.323 357.492 70.3399 357.521 70.3416C357.366 70.2979 357.243 70.1223 357.164 69.83C357.092 69.5643 357.06 69.2021 357.058 68.737C357.062 68.2984 357.085 67.7504 357.141 67.1172C357.19 66.6666 357.249 66.1468 357.334 65.582C357.55 64.1355 357.858 62.4645 358.269 60.6134C358.811 58.0898 359.528 55.2623 360.349 52.2925C361.864 46.834 363.764 40.9004 365.713 35.6381C366.193 34.3578 366.665 33.1176 367.131 31.9265C367.64 30.6478 368.125 29.4897 368.59 28.4701C369.679 26.0359 370.595 24.2951 371.308 23.275C371.563 22.9205 371.794 22.6489 372.004 22.4778C372.179 22.3163 372.34 22.2442 372.463 22.2395L372.48 22.2347C372.541 22.2469 372.603 22.2679 372.646 22.2849L372.612 22.2655C372.697 22.2995 372.778 22.3157 372.863 22.3496C373.495 22.5398 374.128 22.7387 374.704 22.9344C374.781 22.9707 374.861 22.987 374.935 23.0145L375.02 23.0484C375.702 23.2821 376.484 23.5738 377.267 23.8656C377.275 23.8632 377.278 23.872 377.287 23.8696C377.361 23.8971 377.432 23.9157 377.497 23.9456C377.574 23.982 377.645 24.0006 377.719 24.0281C377.982 24.1186 378.246 24.218 378.5 24.311C378.585 24.3449 378.661 24.3813 378.733 24.3999C378.789 24.4322 378.829 24.4403 378.881 24.4548C378.903 24.4677 378.937 24.4871 378.957 24.4912C378.968 24.4976 378.977 24.4952 378.989 24.5017C379.011 24.5146 379.04 24.5163 379.063 24.5292C379.096 24.5485 379.139 24.5655 379.17 24.576L379.204 24.5954C379.204 24.5954 379.106 24.831 378.936 25.2194C378.811 25.5291 378.636 25.9376 378.426 26.4603C377.829 27.9055 376.917 30.1871 375.694 33.2182C375.495 33.7096 375.3 34.2187 375.09 34.7414C373.944 37.5996 372.689 40.7538 371.406 43.982C370.594 46.0368 369.762 48.1254 368.941 50.1826C367.215 54.548 365.549 58.7831 364.158 62.3161C363.423 64.198 362.769 65.8869 362.211 67.3024C362.01 67.8227 361.83 68.2803 361.678 68.7018C361.453 69.276 361.26 69.7561 361.11 70.1486C360.79 71.0051 360.645 71.4153 360.65 71.433C361.13 71.6261 361.695 71.8532 362.16 72.0599C362.236 72.0963 362.304 72.135 362.375 72.1536C362.378 72.1625 362.387 72.1601 362.398 72.1665C362.409 72.173 362.429 72.177 362.454 72.1988L362.445 72.2012C362.134 72.8751 361.794 73.6229 361.437 74.4424C361.007 75.4525 360.542 76.5768 360.038 77.8064C359.503 79.1302 358.97 80.5295 358.437 81.9668C356.543 87.0433 354.657 92.6783 353.077 97.8977C352.199 100.797 351.428 103.564 350.798 106.044C350.3 107.995 349.894 109.759 349.607 111.263C349.504 111.795 349.418 112.284 349.356 112.719C349.237 113.474 349.175 114.089 349.154 114.571C349.128 115.281 349.196 115.709 349.357 115.846C349.371 115.862 349.391 115.866 349.402 115.872C349.205 115.812 349.005 115.742 348.82 115.688L348.392 115.547L348.34 115.532C346.921 115.033 345.127 114.34 343.609 113.754C343.333 113.648 343.066 113.54 342.813 113.447C342.813 113.447 342.83 113.442 342.828 113.433C342.904 113.365 343.068 113.054 343.318 112.54C343.532 112.101 343.801 111.515 344.121 110.801C344.304 110.39 344.507 109.945 344.726 109.458C345.41 107.913 346.23 106.027 347.13 103.911C349.028 99.4798 351.303 94.053 353.527 88.6495L353.568 88.553C355.197 84.6035 356.8 80.6613 358.204 77.1436C358.389 76.6658 358.578 76.2058 358.747 75.7796C359.467 73.9781 360.019 72.545 360.471 71.4054C360.238 71.3165 360.002 71.2187 359.758 71.1234L359.08 70.8696L358.679 70.7217C358.679 70.7217 358.65 70.72 358.63 70.716L358.536 70.6844C358.442 70.6529 358.357 70.619 358.274 70.5939C358.265 70.5963 358.262 70.5874 358.254 70.5898C358.074 70.5243 357.877 70.4637 357.689 70.4006C357.254 71.9539 356.61 73.8206 355.737 75.9679C355.258 77.1815 354.724 78.4384 354.148 79.7163C351.096 86.5517 346.938 94.0476 343.074 99.8195C341.325 102.414 339.653 104.663 338.152 106.353C337.761 106.802 337.381 107.19 337.036 107.53C336.352 108.201 335.767 108.673 335.259 108.972C334.76 109.269 334.35 109.371 334.032 109.286C334.012 109.282 333.981 109.271 333.958 109.258C333.936 109.245 333.902 109.226 333.882 109.222L333.848 109.202L333.814 109.183L333.014 108.754L332.957 108.721L332.923 108.702C332.788 108.625 332.644 108.549 332.501 108.474C331.943 108.169 331.344 107.818 330.765 107.471C330.63 107.394 330.503 107.314 330.368 107.236C330.04 107.04 329.708 106.835 329.388 106.637L329.341 106.602L329.316 106.581L329.248 106.542C328.962 106.363 328.662 106.168 328.342 105.97L328.435 106.03C328.435 106.03 328.376 105.989 328.345 105.979C328.255 105.927 328.174 105.873 328.092 105.819C328.072 105.815 328.059 105.8 328.025 105.78C327.969 105.748 327.921 105.713 327.863 105.672C327.914 105.687 327.941 105.717 327.975 105.737C327.986 105.743 327.998 105.75 328.006 105.747L328.068 105.73Z" fill="#B83856"/>
<path d="M327.688 105.52C327.688 105.52 327.65 105.483 327.627 105.47C327.719 105.53 327.821 105.588 327.907 105.66C327.828 105.615 327.758 105.567 327.679 105.522L327.688 105.52Z" fill="#B83856"/>
<path d="M424.825 85.4889C424.803 85.6184 424.787 85.7367 424.763 85.8574C424.728 86.0094 424.7 86.1502 424.671 86.291C424.76 85.8107 424.837 85.3239 424.908 84.8484C424.878 85.056 424.852 85.2725 424.822 85.48L424.825 85.4889Z" fill="#B83856"/>
<path d="M375.004 80.3766C375.017 80.4966 375.039 80.6141 375.053 80.734C375.031 80.6543 375.023 80.5521 375.009 80.4322L374.995 80.379L375.004 80.3766Z" fill="#B83856"/>
<path d="M298.998 67.8822L298.97 67.7759C298.952 67.6761 298.932 67.5674 298.917 67.4765C298.872 67.2414 298.825 66.9975 298.782 66.7335C298.738 66.4984 298.69 66.2545 298.655 66.017L298.741 66.4405C298.886 67.1521 299 67.7486 299.113 68.2694C299.009 67.7462 298.886 67.1521 298.741 66.4405C299.885 71.7866 303.802 78.5205 315.808 81.2558C315.838 81.3999 315.867 81.544 315.882 81.7018C315.861 81.5553 315.831 81.4112 315.817 81.2534C317.743 81.6251 319.692 81.8004 321.622 81.8003C324.441 81.7871 327.236 81.4005 329.884 80.6829C337.057 78.7389 343.271 74.3743 346.428 68.5562C346.219 68.5559 346.006 68.5757 345.808 68.5818L345.536 68.5983L345.519 68.6031L345.321 68.6092C341.371 74.2047 334.313 77.6956 326.523 78.1715C324.242 78.3143 321.894 78.2092 319.551 77.8079C318.273 77.5837 316.985 77.2863 315.7 76.8931C304.226 73.3862 297.238 63.9482 298.404 54.5346C298.528 53.7976 298.618 53.1837 298.723 52.623C298.729 52.5739 298.743 52.5224 298.755 52.4621C298.837 51.9552 298.93 51.4927 299.026 51.0389C299.146 50.5024 299.258 49.9682 299.422 49.3818C299.494 49.1534 299.554 48.9185 299.614 48.6836C299.731 48.3096 299.843 47.9179 299.982 47.4811C299.16 50.5177 299.184 53.6578 299.952 56.701C300.538 59.0421 301.567 61.3301 302.971 63.4592C305.933 67.9327 310.557 71.7369 316.38 73.9996C317.463 74.419 318.556 74.7692 319.653 75.0615C321.66 75.5918 323.682 75.8992 325.681 76.0135C333.288 76.4047 340.344 73.7129 344.637 68.6805L344.681 68.6685C344.456 68.6818 344.216 68.7088 343.989 68.7133C339.565 72.6977 333.079 74.3032 326.273 73.0771C324.582 72.7654 322.877 72.2959 321.177 71.6349C320.241 71.2705 319.312 70.8569 318.386 70.3855C315.076 68.6966 312.19 66.4653 309.82 63.8943C304.089 57.6902 301.373 49.5282 303.058 42.3124C303.257 41.4315 303.527 40.5692 303.871 39.7345C304.469 38.2225 305.259 36.8581 306.204 35.6421C307.04 34.5884 308.247 33.2536 309.153 32.2476L309.162 32.2452L309.175 32.2227C309.504 31.8956 309.831 31.5598 310.142 31.2666C310.277 31.1348 310.413 31.003 310.55 30.8801C310.596 30.8392 310.649 30.7869 310.704 30.7436C310.918 30.5524 311.139 30.3499 311.362 30.1564L311.427 30.0816C311.427 30.0816 311.476 30.0495 311.491 30.0359C311.515 30.0198 311.546 29.9925 311.567 29.9676C311.635 29.9017 311.699 29.8559 311.775 29.7876C311.767 29.79 311.76 29.8013 311.745 29.815L311.767 29.7901C311.828 29.7354 311.889 29.6808 311.95 29.6262L311.904 29.6671C311.959 29.6238 312.02 29.5692 312.075 29.5258L312.102 29.5186C312.261 29.3708 312.432 29.2294 312.605 29.0969L312.596 29.0993C312.294 29.3523 311.983 29.6077 311.681 29.8607C311.522 30.0085 311.362 30.1564 311.194 30.3066C309.861 31.5993 308.734 33.1595 307.873 34.9615C307.693 35.3145 307.527 35.6828 307.38 36.0552C304.08 44.3267 306.891 54.8395 313.708 62.4223C315.668 64.6006 317.963 66.5454 320.538 68.1196L320.556 68.1148C321.394 68.648 322.226 69.088 323.069 69.4965C324.548 70.2175 326.025 70.7583 327.504 71.1654C333.549 72.8071 339.413 71.8927 343.725 68.7185C341.759 68.6904 339.755 67.9975 337.802 66.578C337.037 66.0344 336.298 65.379 335.571 64.6254C335.08 64.1119 334.595 63.5495 334.118 62.9467C334.145 62.9395 334.183 62.9388 334.209 62.9316C334.18 62.9299 334.145 62.9395 334.116 62.9379C333.033 61.5391 332.063 59.9578 331.23 58.2537C330.28 56.3248 329.498 54.2457 328.869 52.0678C328.481 50.671 328.148 49.2308 327.894 47.769C326.894 42.0416 327.015 36.0006 328.4 30.7961C328.683 29.7021 329.034 28.6469 329.441 27.6239C329.579 27.2918 329.726 26.9572 329.867 26.6339C330.682 24.835 331.649 23.318 332.73 22.1127C334.069 20.5995 335.575 19.5638 337.176 19.0159C337.587 18.8854 338.012 18.7702 338.429 18.6952C338.565 18.6681 338.702 18.6498 338.84 18.6315L341.73 18.3521L341.815 18.3482C341.87 18.3426 341.935 18.3347 341.981 18.3315C342.046 18.3236 342.11 18.3157 342.166 18.3101C343.279 18.2459 344.639 18.2103 345.751 18.175C345.269 18.2201 344.79 18.3119 344.319 18.4681C342.824 18.9493 341.369 19.9996 340.056 21.6102C339.117 22.7393 338.256 24.1608 337.477 25.8454C337.285 26.2588 337.091 26.7011 336.917 27.1474C336.648 27.8004 336.407 28.4929 336.179 29.1919C334.368 34.7876 333.81 41.4982 334.419 47.8164C334.55 49.2451 334.749 50.6456 335.007 52.0206C335.407 54.1272 335.925 56.1447 336.603 58.0144C337.199 59.6876 337.909 61.254 338.722 62.6403C339.09 63.2629 339.464 63.8365 339.853 64.3586C340.422 65.1264 341.012 65.7937 341.619 66.3516C343.215 67.8204 344.923 68.5458 346.626 68.5501L346.653 68.5429C346.653 68.5429 346.711 68.5462 346.74 68.5479C346.911 68.549 347.1 68.5453 347.3 68.548C347.312 68.5544 347.321 68.552 347.321 68.552C344.977 73.7598 340.338 78.1446 334.685 81.0359C331.713 82.5545 328.476 83.6598 325.129 84.2532C322.314 84.7403 319.438 84.8637 316.61 84.5654C308.52 83.4781 303.308 79.9948 300.68 73.9478L300.596 73.7425C300.596 73.7425 300.579 73.6805 300.563 73.6563C300.463 73.3222 300.352 72.9816 300.233 72.6144C300.205 72.5082 300.172 72.422 300.148 72.3334L300.129 72.2626C299.939 71.6676 299.793 71.1652 299.655 70.7272C299.791 71.1942 299.951 71.7119 300.139 72.3358L300.134 72.3181C299.938 71.7344 299.764 71.1635 299.605 70.6458C299.369 69.8447 299.132 68.7966 298.939 67.9078L298.998 67.8822Z" fill="#B83856"/>
<path d="M356.58 113.175C356.427 111.734 356.391 110.09 356.435 108.29C356.495 106.126 356.691 103.725 357.004 101.234C357.253 99.3799 357.545 97.4756 357.908 95.552C358.649 91.6245 359.626 87.6144 360.788 83.9056C361.27 82.387 361.769 80.9304 362.293 79.5334C362.42 79.1948 362.556 78.8538 362.685 78.5241C363.436 76.6285 364.197 75.0154 364.923 73.6968L365.065 73.4492L364.953 73.3846C365.297 73.567 365.849 73.3603 366.602 72.7378C366.966 72.4302 367.381 72.0325 367.836 71.5383C368.159 71.1848 368.507 70.7862 368.87 70.3361L368.879 70.3337C370.183 68.7255 371.623 66.6717 373.138 64.3026C377.101 58.1237 381.482 49.8732 384.65 42.5503C385.078 41.5692 385.477 40.5865 385.862 39.6552C387.011 36.7769 387.806 34.413 388.245 32.6304C388.447 31.7962 388.575 31.077 388.626 30.4928C388.711 29.6142 388.602 29.0354 388.337 28.7935C388.323 28.7782 388.321 28.7694 388.307 28.754L388.206 28.6959C388.271 28.7258 388.316 28.7516 388.381 28.7815L389.229 29.2456L390.374 29.8574C390.521 29.9414 390.673 30.014 390.822 30.1068C390.822 30.1068 390.829 30.1082 390.842 30.1109C391.169 30.2981 391.495 30.4853 391.813 30.675C392.479 31.0647 393.159 31.4698 393.763 31.8385C393.914 31.9402 394.072 32.0306 394.22 32.1233C394.277 32.1556 394.333 32.1879 394.392 32.229C394.425 32.2484 394.462 32.2766 394.487 32.2984C394.507 32.3025 394.52 32.3178 394.543 32.3307C395.19 32.8588 395.48 33.9304 395.391 35.4947C395.348 36.3525 395.185 37.3662 394.914 38.5045C394.539 40.0321 393.964 41.804 393.157 43.8097C392.105 46.4524 390.762 49.25 389.235 52.0311C387.03 56.0698 384.449 60.087 381.806 63.6268C378.935 67.485 375.968 70.7796 373.356 72.8943L373.348 72.8967C372.817 73.3256 372.335 73.6846 371.86 74.0033C371.184 74.4529 370.567 74.7721 370.005 74.9813C369.055 75.3338 368.312 75.3262 367.767 74.9986L367.758 75.001C367.758 75.001 367.688 74.9534 367.665 74.9405C367.609 74.9082 367.564 74.8824 367.508 74.8501L367.123 74.6218L366.715 74.3805C366.053 75.4819 365.407 76.7789 364.784 78.2691C364.703 78.4621 364.625 78.664 364.54 78.8771C364.122 79.9315 363.73 81.0454 363.363 82.1811C361.727 87.3015 360.701 93.1978 360.344 98.7894C360.253 100.173 360.213 101.534 360.204 102.868C360.202 105.14 360.33 107.33 360.585 109.324C360.794 111.045 361.122 112.639 361.535 114.057C361.7 114.631 361.89 115.159 362.089 115.647C362.406 116.464 362.762 117.147 363.142 117.709C363.865 118.797 364.69 119.457 365.576 119.674C365.605 119.675 365.645 119.683 365.676 119.694C365.844 119.715 366.031 119.74 366.208 119.759C366.112 119.757 365.996 119.75 365.9 119.747L364.643 119.565L364.635 119.567C364.635 119.567 364.632 119.559 364.623 119.561C363.154 119.332 361.289 118.972 359.711 118.658C359.441 118.608 359.202 118.568 358.96 118.519C358.878 118.494 358.806 118.476 358.721 118.442C358.175 118.219 357.717 117.649 357.343 116.724C357.132 116.192 356.954 115.536 356.807 114.749C356.724 114.268 356.65 113.746 356.583 113.184L356.58 113.175Z" fill="#B83856"/>
<path d="M364.368 99.6095C363.908 93.4887 364.51 87.0131 366.212 81.542C366.476 80.691 366.771 79.8505 367.096 79.0495C367.122 79.0423 367.142 79.0463 367.171 79.048L367.247 79.0465C367.2 79.0497 367.142 79.0463 367.093 79.0406C367.25 78.6369 367.421 78.2485 367.587 77.8802C367.956 77.0672 368.342 76.3162 368.745 75.6271C368.871 75.707 368.988 75.7893 369.103 75.8627L369.137 75.8821L369.196 75.9232L369.22 75.945L369.268 75.9797L369.304 76.0079L369.309 76.0256C369.539 76.1724 369.767 76.3482 370.002 76.5128C369.774 76.9357 369.551 77.3763 369.336 77.8436C369.169 78.2119 369.005 78.589 368.846 78.9839C368.802 78.9959 368.744 78.9926 368.697 78.9957L368.742 78.9837C368.742 78.9837 368.808 78.9846 368.837 78.9863C368.494 79.8589 368.178 80.7621 367.918 81.6976C366.379 87.0676 366.158 93.3732 367.128 99.3371C367.348 100.675 367.618 101.99 367.949 103.278C368.527 105.517 369.277 107.653 370.192 109.629C370.992 111.352 371.907 112.938 372.947 114.358C372.883 114.366 372.828 114.372 372.761 114.371C372.825 114.363 372.892 114.364 372.947 114.358C373.384 114.953 373.827 115.498 374.284 115.992C375.042 116.823 375.815 117.536 376.609 118.119C378.525 119.539 380.524 120.214 382.453 120.176L382.637 120.155C382.979 120.119 383.324 120.092 383.657 120.059C383.466 120.092 383.275 120.125 383.08 120.14L383.053 120.147L381.564 120.265C381.564 120.265 381.488 120.267 381.451 120.267L381.397 120.282L381.293 120.282C381.115 120.292 380.928 120.304 380.73 120.31C380.217 120.345 379.703 120.38 379.196 120.403C378.576 120.428 377.944 120.448 377.383 120.447C377.258 120.443 377.136 120.448 377.02 120.441C376.791 120.437 376.582 120.437 376.361 120.43L376.219 120.43C375.989 120.426 375.742 120.426 375.504 120.424C375.426 120.417 375.359 120.416 375.281 120.409L375.241 120.401C373.82 120.244 372.415 119.55 371.093 118.283C370.467 117.692 369.863 116.972 369.283 116.131C368.951 115.641 368.615 115.104 368.299 114.534C368.366 114.535 368.433 114.536 368.488 114.53C368.421 114.53 368.355 114.529 368.297 114.525C367.514 113.112 366.849 111.533 366.29 109.822C365.65 107.846 365.145 105.702 364.805 103.465C364.607 102.207 364.465 100.914 364.366 99.6006L364.368 99.6095Z" fill="#B83856"/>
<path d="M378.974 113.267C377.533 111.842 376.252 110.24 375.109 108.478C373.659 106.247 372.453 103.798 371.528 101.225C370.892 99.4393 370.375 97.6021 369.998 95.7554C369.171 91.6161 369.054 87.3982 369.726 83.5277C369.963 82.123 370.308 80.7651 370.757 79.4743C370.874 79.167 370.975 78.8735 371.096 78.5839C371.221 78.2743 371.349 77.9735 371.488 77.6792C371.406 77.6252 371.332 77.5599 371.268 77.501L371.121 77.3793C371.727 77.8615 372.477 78.1717 373.369 78.2721C373.819 78.3211 374.305 78.3227 374.827 78.2857C374.88 78.2713 374.918 78.2706 374.965 78.2675C375.498 78.1991 376.05 78.097 376.65 77.9249C377.429 77.7137 378.257 77.4036 379.135 76.9946C387.804 72.9912 398.278 61.093 402.543 50.4499C402.696 50.0663 402.835 49.7052 402.964 49.3376C403.603 47.5578 404.012 45.9449 404.207 44.5232C404.585 41.6735 404.122 39.5458 402.896 38.319C402.853 38.2642 402.792 38.2142 402.731 38.1642L404.294 39.4422L404.38 39.514C404.38 39.514 404.402 39.5269 404.418 39.5511C404.432 39.5664 404.457 39.5882 404.491 39.6075C404.762 39.8381 405.041 40.0953 405.34 40.3565C405.714 40.683 406.115 41.0402 406.513 41.3885C406.942 41.7762 407.355 42.1776 407.768 42.5791C407.793 42.6008 407.809 42.625 407.84 42.6355L407.906 42.7032C407.906 42.7032 407.931 42.725 407.947 42.7492C407.961 42.7645 407.988 42.7951 408.01 42.808C408.022 42.8145 408.024 42.8233 408.033 42.8209C408.063 42.8604 408.079 42.8846 408.115 42.9128C408.124 42.9104 408.126 42.9192 408.126 42.9192C408.208 43.0111 408.285 43.0853 408.358 43.1796C410.159 45.1919 410.64 48.5122 409.532 52.7386C409.28 53.7006 408.947 54.6843 408.53 55.7386C408.038 56.9747 407.45 58.2083 406.775 59.4368C401.629 68.8264 391.609 77.7019 382.814 80.2565C381.528 80.6335 380.342 80.8505 379.242 80.93C377.552 81.0456 376.094 80.8227 374.889 80.3033C374.878 80.2969 374.866 80.2904 374.838 80.2888C374.849 89.0315 381.598 97.5171 392.209 100.925C393.524 101.358 394.857 101.681 396.177 101.922C398.334 102.307 400.485 102.456 402.596 102.388C412.127 102.058 420.632 97.1677 423.778 89.3088C424.111 88.4676 424.375 87.6166 424.571 86.7647C424.485 87.216 424.392 87.6118 424.319 87.9738C424.121 88.8547 423.947 89.5481 423.726 90.2736C423.437 91.2075 423.087 92.1959 422.551 93.6911C422.544 93.7024 422.547 93.7112 422.54 93.7225C422.528 93.745 422.526 93.774 422.498 93.8101C422.381 94.0795 422.255 94.3892 422.119 94.6923C422.036 94.8765 421.946 95.0719 421.852 95.2496C418.143 102.681 409.467 106.658 400.058 105.861C398.268 105.71 396.456 105.374 394.639 104.877C393.555 104.562 392.469 104.201 391.39 103.762C391.409 103.728 391.424 103.676 391.438 103.625C390.994 103.812 390.406 103.182 389.972 102.986L388.943 102.485L388.601 102.312C388.415 102.22 388.243 102.114 388.054 102.013C388.023 102.003 387.978 101.977 387.944 101.957C387.775 101.861 387.609 101.773 387.44 101.676L387.294 101.592C387.176 101.51 387.044 101.441 386.931 101.376C386.864 101.338 386.794 101.29 386.746 101.255C386.645 101.197 386.539 101.121 386.429 101.066C386.359 101.018 386.291 100.979 386.23 100.929C386.138 100.869 386.036 100.811 385.939 100.733C385.872 100.694 385.802 100.646 385.741 100.596C385.648 100.536 385.551 100.458 385.458 100.397C385.388 100.349 385.321 100.311 385.26 100.261C385.237 100.248 385.221 100.224 385.188 100.204C385.109 100.159 385.036 100.103 384.975 100.053C384.914 100.003 384.856 99.9615 384.794 99.9115C384.691 99.8445 384.594 99.7663 384.496 99.6881C384.438 99.647 384.388 99.6034 384.331 99.5712C384.209 99.4712 384.078 99.3736 383.956 99.2736C383.934 99.2607 383.897 99.2325 383.884 99.2172C383.759 99.1083 383.628 99.0107 383.504 98.9019C383.481 98.889 383.447 98.8696 383.434 98.8543C383.395 98.8172 383.348 98.7825 383.309 98.7455C383.271 98.7084 383.234 98.6802 383.196 98.6431C383.185 98.6366 383.171 98.6213 383.137 98.6019C383.112 98.5802 383.076 98.552 383.06 98.5278C383.038 98.5149 383.021 98.4907 383.001 98.4866C382.94 98.4367 382.888 98.3843 382.838 98.3407C382.766 98.2843 382.694 98.2278 382.639 98.1666C382.625 98.1513 382.609 98.1271 382.578 98.1166C382.578 98.1166 382.575 98.1077 382.567 98.1101C382.551 98.086 382.523 98.0553 382.489 98.036L382.403 97.9642C382.318 97.8925 382.238 97.8094 382.152 97.7377C382.138 97.7224 382.111 97.6917 382.088 97.6788C382.088 97.6788 382.077 97.6724 382.075 97.6635C382.05 97.6417 382.011 97.6047 381.984 97.574C381.898 97.5023 381.819 97.4193 381.75 97.3427C381.689 97.2927 381.646 97.2379 381.585 97.1879C381.571 97.1726 381.546 97.1508 381.521 97.1291C381.51 97.1226 381.496 97.1073 381.492 97.0896C381.467 97.0678 381.43 97.0396 381.401 97.0001C381.387 96.9848 381.36 96.9542 381.335 96.9324C381.274 96.8824 381.23 96.8276 381.178 96.7752C381.153 96.7535 381.137 96.7293 381.103 96.7099C381.09 96.6946 381.071 96.6616 381.058 96.6463C381.019 96.6092 380.983 96.581 380.953 96.5415C380.942 96.5351 380.94 96.5262 380.928 96.5197C380.894 96.4626 380.844 96.419 380.805 96.3819C380.792 96.3666 380.773 96.3336 380.742 96.3231C380.699 96.2683 380.646 96.2159 380.603 96.1611C380.573 96.1216 380.535 96.0846 380.496 96.0475C380.491 96.0298 380.48 96.0233 380.464 95.9991C380.462 95.9903 380.45 95.9838 380.439 95.9774L380.396 95.9226C380.35 95.8589 380.295 95.7977 380.252 95.7429C380.206 95.6792 380.143 95.6204 380.088 95.5591C380.088 95.5591 380.077 95.5527 380.074 95.5438C380.061 95.5285 380.05 95.5221 380.042 95.4955L379.903 95.3335C379.903 95.3335 379.869 95.2763 379.837 95.2658C379.814 95.2151 379.782 95.1667 379.737 95.1409C379.735 95.1321 379.721 95.1167 379.716 95.099C379.703 95.0837 379.7 95.0749 379.687 95.0596C379.67 95.0354 379.654 95.0112 379.641 94.9959C379.616 94.9741 379.597 94.9411 379.572 94.9194C379.507 94.8516 379.461 94.788 379.401 94.709C379.385 94.6849 379.356 94.6454 379.328 94.6148C379.299 94.5753 379.283 94.5511 379.255 94.5205C379.244 94.514 379.233 94.5076 379.23 94.4987C379.228 94.4899 379.226 94.481 379.214 94.4746C379.201 94.4592 379.182 94.4262 379.169 94.4109C379.139 94.3714 379.12 94.3384 379.091 94.2989C379.079 94.2925 379.077 94.2836 379.075 94.2748C379.05 94.253 379.011 94.2159 378.99 94.174C378.969 94.1321 378.944 94.1104 378.915 94.0709C378.88 94.0137 378.828 93.9613 378.791 93.8953C378.766 93.8735 378.745 93.8316 378.716 93.7921C378.7 93.768 378.675 93.7462 378.65 93.7244C378.634 93.7003 378.626 93.6737 378.61 93.6495C378.565 93.5859 378.519 93.5222 378.473 93.4586C378.439 93.4014 378.395 93.3466 378.358 93.2806C378.358 93.2806 378.354 93.2754 378.345 93.2652C378.267 93.1533 378.187 93.0324 378.117 92.918C378.083 92.8608 378.057 92.8012 378.014 92.7465C378 92.7311 377.989 92.7247 377.984 92.707C377.926 92.599 377.865 92.5112 377.809 92.4122L377.759 92.3308C377.759 92.3308 377.735 92.2801 377.719 92.2559C377.639 92.1351 377.556 92.0054 377.485 91.8821C377.448 91.8161 377.405 91.7613 377.379 91.7017C377.278 91.539 377.199 91.3892 377.118 91.2305C377.068 91.1491 377.015 91.0589 376.982 90.9728C376.886 90.8277 376.813 90.6667 376.744 90.5145C376.716 90.446 376.679 90.38 376.642 90.3139C376.639 90.3051 376.637 90.2962 376.621 90.272C376.59 90.1947 376.551 90.1198 376.509 90.0361C376.422 89.8887 376.356 89.7164 376.293 89.5529C376.277 89.5287 376.267 89.4933 376.26 89.4667C376.214 89.3653 376.181 89.2791 376.134 89.1776C376.129 89.1599 376.12 89.1245 376.106 89.1092C376.099 89.0826 376.08 89.0496 376.073 89.023C376.045 88.9546 376.015 88.8773 375.982 88.7911L375.864 88.4618C375.864 88.4618 375.841 88.411 375.834 88.3845C375.834 88.3845 375.808 88.3249 375.801 88.2983C375.796 88.2806 375.789 88.254 375.778 88.2476L375.749 88.1413C375.749 88.1413 375.721 88.0729 375.709 88.0286C375.685 87.9778 375.676 87.9424 375.661 87.8893C375.654 87.8627 375.636 87.8297 375.624 87.7854L375.6 87.6968C375.577 87.6461 375.562 87.593 375.553 87.5575L375.538 87.5044C375.538 87.5044 375.51 87.436 375.5 87.4005L375.457 87.2411C375.457 87.2411 375.427 87.1638 375.415 87.1195L375.379 86.9867L375.36 86.9159C375.345 86.8627 375.32 86.8031 375.303 86.7411L375.166 86.2363C375.166 86.2363 375.147 86.1655 375.144 86.1188L375.057 85.8C375.057 85.8 375.052 85.7445 375.047 85.7267L375.025 85.647C375.011 85.5939 375.003 85.5295 374.986 85.4675L374.972 85.4144C374.972 85.4144 374.967 85.3967 374.973 85.3854C374.973 85.3854 374.966 85.3589 374.959 85.3323L374.93 85.226C374.93 85.226 374.918 85.1817 374.922 85.1616C374.908 85.1085 374.898 85.0731 374.893 85.0175C374.878 84.9644 374.869 84.929 374.863 84.8734C374.851 84.8291 374.842 84.7937 374.836 84.7382L374.824 84.6939C374.824 84.6939 374.821 84.6472 374.816 84.6295L374.799 84.5675C374.799 84.5675 374.801 84.5386 374.791 84.5031C374.787 84.4854 374.779 84.4588 374.783 84.4387L374.779 84.421C374.773 84.3655 374.756 84.3035 374.753 84.2568L374.739 84.2037L374.715 84.0105L374.696 83.9397C374.696 83.9397 374.688 83.8753 374.689 83.8463C374.682 83.8197 374.675 83.7932 374.677 83.7642C374.672 83.7465 374.665 83.7199 374.669 83.6998C374.654 83.6467 374.646 83.5823 374.643 83.5356C374.641 83.5267 374.636 83.509 374.64 83.4889C374.63 83.4157 374.622 83.3513 374.611 83.278C374.611 83.278 374.608 83.2313 374.603 83.2136L374.599 83.1959C374.599 83.1959 374.592 83.1026 374.587 83.047C374.574 82.9649 374.57 82.8804 374.573 82.7847C374.566 82.7581 374.565 82.7203 374.558 82.6937C374.562 82.6736 374.552 82.6382 374.556 82.618C374.549 82.5915 374.548 82.5537 374.541 82.5271C374.54 82.4514 374.532 82.387 374.539 82.309C374.536 82.2623 374.529 82.2357 374.525 82.1891C374.527 82.1601 374.526 82.1223 374.523 82.0756L374.516 81.9444C374.516 81.9444 374.511 81.8889 374.512 81.8599C374.507 81.8422 374.507 81.8044 374.502 81.7867C374.503 81.7199 374.495 81.6555 374.505 81.5863L374.509 81.3569C374.509 81.3569 374.504 81.3392 374.511 81.328C374.504 81.3014 374.5 81.2547 374.5 81.2169C374.506 81.2056 374.501 81.1879 374.501 81.1879C374.499 81.1791 374.497 81.1702 374.503 81.159L374.512 81.1566C374.512 81.1566 374.5 81.1123 374.506 81.101C374.502 80.9787 374.511 80.8717 374.524 80.7446L374.396 80.589L373.88 80.016C372.635 87.1408 375.46 95.0737 381.092 101.124C383.359 103.561 386.083 105.684 389.18 107.326C390.093 107.782 390.991 108.185 391.889 108.551C393.457 109.181 395.005 109.664 396.52 109.995C403.996 111.658 410.785 109.837 415.822 104.641C415.85 104.605 415.89 104.575 415.918 104.539C415.874 104.589 415.831 104.638 415.787 104.688C415.644 104.86 415.507 105.021 415.369 105.182C415.313 105.254 415.245 105.32 415.18 105.395C415.152 105.431 415.121 105.458 415.084 105.497C415.025 105.56 414.966 105.624 414.908 105.687C414.666 105.952 414.428 106.197 414.197 106.431C414.168 106.467 414.129 106.497 414.101 106.533C413.839 106.794 413.531 107.097 413.223 107.399L413.192 107.426C412.965 107.64 412.738 107.853 412.508 108.058C412.075 108.461 411.668 108.818 411.147 109.245C410.858 109.475 410.547 109.73 410.172 110.032L410.093 110.091L410.132 110.061C410.415 109.842 410.693 109.605 410.96 109.362C410.309 109.871 409.601 110.415 408.905 110.936C404.724 113.609 399.284 114.266 393.695 112.653C392.219 112.226 390.732 111.649 389.255 110.899C388.45 110.49 387.645 110.043 386.851 109.536C386.869 109.531 386.882 109.508 386.897 109.495L386.851 109.536C384.325 107.929 382.074 105.972 380.156 103.773C376.888 100.029 374.569 95.6098 373.421 91.0918C373.146 90.0065 372.937 88.9222 372.805 87.8364C372.443 84.9589 372.592 82.1047 373.291 79.4244C373.171 79.2954 373.055 79.1842 372.939 79.073C372.919 79.0689 372.915 79.0512 372.901 79.0359C372.84 78.9859 372.788 78.9335 372.735 78.8811L372.296 78.4869C371.976 79.3056 371.717 80.1743 371.514 81.0375C370.912 83.5199 370.715 86.1592 370.893 88.8489C370.933 89.3133 370.971 89.7689 371.013 90.2421C371.347 93.2604 372.143 96.3053 373.331 99.2155C374.486 102.002 375.996 104.663 377.832 107.055C379.242 108.888 380.846 110.564 382.624 112.003C383.318 112.565 384.018 113.079 384.713 113.537C385.917 114.333 387.13 114.983 388.339 115.483C392.458 117.209 396.562 117.342 400.074 115.953C399.399 116.231 398.714 116.512 398.06 116.765L398.034 116.772C397.965 116.8 397.906 116.826 397.844 116.843C397.698 116.901 397.541 116.953 397.406 117.018C397.327 117.04 397.249 117.07 397.161 117.094C397.063 117.121 396.959 117.158 396.856 117.196C396.962 117.167 397.066 117.129 397.161 117.094C396.805 117.219 396.44 117.346 396.066 117.476C395.622 117.625 395.186 117.772 394.79 117.889L394.728 117.905C394.657 117.925 394.595 117.941 394.525 117.961C394.471 117.975 394.418 117.989 394.365 118.004C394.303 118.021 394.25 118.035 394.188 118.052C394.064 118.085 393.931 118.121 393.816 118.153C393.728 118.177 393.639 118.201 393.55 118.225L393.143 118.335C392.904 118.4 392.674 118.462 392.436 118.498C389.689 119.024 386.71 118.519 383.759 116.962C382.746 116.418 381.73 115.753 380.723 114.951C380.104 114.454 379.496 113.896 378.881 113.311L378.974 113.267Z" fill="#B83856"/>
<path d="M424.603 86.671L424.589 86.723L424.621 86.5607L424.603 86.671Z" fill="#B83856"/>
<path d="M300.405 46.1684C300.249 46.6099 300.111 47.0467 299.986 47.4988C300.114 47.0934 300.252 46.6566 300.405 46.1684Z" fill="#B83856"/>
<path d="M309.38 87.1805C311.902 88.6266 315.138 89.4132 318.956 89.3292L318.99 89.3864C318.99 89.3864 318.972 89.3534 318.956 89.3292C323.777 89.2299 328.779 87.7604 333.328 85.3584C336.828 83.5066 340.064 81.0992 342.727 78.3335C345.27 75.686 347.306 72.7101 348.558 69.576C348.69 69.2552 348.803 68.9391 348.915 68.6141C349.147 68.6274 349.41 68.6512 349.731 68.6782C349.887 68.693 350.046 68.7166 350.222 68.7353C350.022 69.436 349.778 70.1486 349.483 70.8844L349.426 70.8143C349.426 70.8143 349.458 70.8627 349.483 70.8844C348.859 72.4414 348.053 73.9909 347.101 75.4942C345.574 77.8947 343.679 80.1956 341.525 82.2813C335.835 87.8064 328.373 91.9107 321.413 92.8177C319.199 93.1039 317.206 93.0451 315.454 92.6834C313.32 92.2446 311.555 91.3445 310.223 90.0797C310.185 90.0426 310.148 90.0144 310.119 89.9749C309.978 89.8419 309.844 89.6976 309.721 89.5598C309.682 89.5228 309.653 89.4833 309.614 89.4462C309.544 89.3608 309.473 89.2754 309.402 89.1899L309.395 89.1634C309.107 88.804 308.819 88.4068 308.528 88.0007C308.48 87.9282 308.423 87.8581 308.375 87.7856C307.462 86.5215 306.482 85.1141 305.649 83.8662L305.617 83.8178L305.624 83.8444C306.594 85.1786 307.861 86.3089 309.401 87.1845L309.38 87.1805Z" fill="#B83856"/>
<path d="M406.348 96.2371C403.661 96.9176 400.846 97.2624 398.009 97.2136C396.099 97.1799 394.19 96.9749 392.294 96.5759C382.994 94.6376 376.651 88.6659 375.208 81.5851C375.166 81.3589 375.112 81.1262 375.09 80.9041C375.124 81.0659 375.167 81.2253 375.233 81.5022L375.238 81.5199C376.642 83.0882 378.592 84.214 381.027 84.7804C382.822 85.1969 384.885 85.3032 387.16 85.0671L387.169 85.0647C393.879 84.3584 401.002 80.7549 406.633 75.7496C409.302 73.3912 411.617 70.7103 413.384 67.8643C414.263 66.4759 415.002 65.0302 415.588 63.5786C417.569 58.6117 417.373 54.3108 415.43 51.244C415.398 51.1957 415.372 51.1361 415.334 51.099C415.331 51.0902 415.32 51.0837 415.318 51.0749C415.315 51.066 415.304 51.0595 415.302 51.0507C415.178 50.8751 415.057 50.7083 414.927 50.5439C415.025 50.6599 415.116 50.7872 415.214 50.9033C415.406 51.1555 415.592 51.4189 415.781 51.6623C415.795 51.6776 415.802 51.7041 415.816 51.7195C415.829 51.7348 415.845 51.7589 415.85 51.7766C416.008 52.0095 416.175 52.2399 416.345 52.4792C416.482 52.6701 416.615 52.8812 416.766 53.0874C416.881 53.2655 417.002 53.4322 417.11 53.5837C417.678 54.4183 418.359 55.5267 418.893 56.4466C418.94 56.5481 419.002 56.6359 419.046 56.7285C419.06 56.7438 419.069 56.7793 419.083 56.7946L419.088 56.8123C419.088 56.8123 419.101 56.8276 419.104 56.8365C422.554 63.7443 419.373 72.1069 412.741 78.5052C410.013 81.1364 406.711 83.4383 403.034 85.1666C398.862 87.1339 394.236 88.3779 389.472 88.5473L389.463 88.5497C384.241 88.5389 380.856 87.0607 378.678 85.4454C376.805 84.0421 375.819 82.5413 375.3 81.7502C375.861 83.5754 377.042 86.0028 379.527 88.1909C382.016 90.3967 385.801 92.3655 391.566 93.2938L391.575 93.2914C394.251 93.5548 396.877 93.4898 399.407 93.1462C402.904 92.6835 406.207 91.6837 409.205 90.2914C419.064 85.6993 425.445 76.6594 423.523 67.2843C423.488 67.1225 423.44 66.9454 423.401 66.7658L423.454 66.9607C423.468 67.0138 423.492 67.0645 423.504 67.1088L423.528 67.1974C423.572 67.3278 423.608 67.4607 423.644 67.5935L423.765 67.9695C423.782 68.0315 423.788 68.087 423.8 68.1313C423.864 68.3326 423.919 68.5363 423.974 68.74C424.054 69.0701 424.136 69.409 424.201 69.7527C424.216 69.8437 424.245 69.95 424.269 70.0385C424.294 70.1649 424.325 70.28 424.345 70.3887L424.383 70.5304C424.403 70.6012 424.422 70.6721 424.432 70.7453L424.451 70.8162C424.476 70.9426 424.507 71.0577 424.53 71.1752C424.554 71.3016 424.581 71.4369 424.611 71.5809L424.616 71.5987C424.629 71.6808 424.641 71.7629 424.663 71.8426C424.678 71.9335 424.696 72.0333 424.711 72.1243C424.726 72.2153 424.746 72.3239 424.761 72.4149L424.818 72.7321C424.818 72.7321 424.817 72.761 424.824 72.7876C424.849 72.914 424.865 73.0428 424.88 73.1716C424.896 73.2625 424.916 73.3712 424.913 73.4669L424.925 73.5112L424.916 73.5136C424.931 73.6046 424.942 73.6778 424.957 73.7688C424.969 73.8131 424.967 73.842 424.979 73.8863L424.986 73.9129L425.012 74.1817L425.016 74.1994C425.016 74.1994 425.015 74.2284 425.02 74.2461C425.324 76.8443 424.984 79.5509 423.917 82.2451C421.178 89.081 414.363 94.1697 406.35 96.2081L406.348 96.2371Z" fill="#B83856"/>
<path d="M327.703 21.07L327.498 21.1542C325.769 21.8604 324.191 23.0199 322.829 24.587C321.649 25.9524 320.627 27.6173 319.836 29.6094C319.74 29.8539 319.643 30.1274 319.55 30.3807C319.061 31.7303 318.697 33.1597 318.459 34.6312C317.814 38.5992 318.003 42.9113 318.956 47.1305C319.337 48.8146 319.837 50.4853 320.447 52.107C321.396 54.6257 322.619 57.0323 324.08 59.2316C325.293 61.0418 326.677 62.7106 328.221 64.1649C328.829 64.7605 329.459 65.2935 330.094 65.7774C331.054 66.5152 332.035 67.1526 333.022 67.674C336.513 69.504 340.058 69.9217 343.209 68.9916C343.209 68.9916 343.293 68.9499 343.337 68.9379L343.218 68.9892L343.377 68.946C343.315 68.9628 343.236 68.9844 343.185 69.0077C339.416 70.7801 334.849 70.801 330.289 68.9186C329.104 68.4411 327.928 67.8187 326.761 67.0894C326.046 66.6271 325.34 66.1246 324.61 65.5714L324.601 65.5738C322.686 64.0489 320.955 62.2934 319.439 60.3467C317.498 57.8497 315.918 55.074 314.757 52.1566C312.538 46.6357 311.802 40.6561 312.915 35.3635C313.17 34.1632 313.519 32.9945 313.96 31.8863C314.564 30.3631 315.324 29.026 316.204 27.8557C317.597 26.0143 319.284 24.6256 321.192 23.671C321.217 23.6549 321.258 23.6341 321.3 23.6132L321.87 23.3639C322.326 23.1546 322.787 22.9251 323.246 22.7247C323.478 22.6333 323.699 22.5355 323.904 22.4513C324.017 22.4113 324.138 22.3688 324.251 22.3288C324.885 22.0715 325.523 21.8319 326.171 21.5899C326.283 21.5498 326.407 21.5162 326.511 21.4786C326.692 21.4104 326.876 21.3512 327.066 21.2807C327.11 21.2687 327.152 21.2478 327.197 21.2358L327.312 21.2046C327.469 21.1526 327.643 21.0957 327.818 21.0388C327.957 20.9916 328.117 20.9484 328.274 20.8963C328.522 20.8291 328.785 20.7483 329.042 20.6787C328.823 20.7475 328.586 20.8212 328.341 20.8972C328.139 20.9613 327.911 21.0326 327.701 21.099L327.703 21.07Z" fill="#B83856"/>
</g>
<g opacity="0.9">
<path d="M53.481 64.0639C54.2792 63.332 55.1255 62.6387 56.0231 62.013C46.2814 54.5028 36.244 53.365 27.7765 58.79C26.1259 60.0254 24.0053 61.7811 22.4381 63.1099C30.0011 56.1151 42.7931 56.2037 53.4666 64.0655L53.481 64.0639Z" fill="#B83856"/>
<path d="M60.0647 59.622C61.0924 59.1138 62.1554 58.6603 63.2681 58.2599C56.5152 51.2999 48.3211 49.0811 41.651 51.5414L41.5385 51.583C39.7552 52.2767 37.4105 53.3249 35.6656 54.1022C42.8015 50.5512 52.2354 52.3263 60.0647 59.622Z" fill="#B83856"/>
<path d="M68.1196 56.8338C69.3334 56.554 70.5825 56.329 71.8654 56.1442C67.2123 49.9053 61.3782 47.1785 56.0186 47.9721L53.7439 48.3244L49.9482 49.0926C55.8871 47.7083 62.6423 50.2901 68.134 56.8322L68.1196 56.8338Z" fill="#B83856"/>
<path d="M77.3896 55.6547C78.7462 55.6082 80.1365 55.6019 81.546 55.6374C78.5652 50.0934 74.5651 47.2676 70.4989 47.1725L66.0163 47.1523L64.4539 47.1921C69.0445 46.9954 73.747 49.8173 77.3736 55.6418L77.3896 55.6547Z" fill="#B83856"/>
<path d="M87.5956 56.0567C89.0628 56.2177 90.5509 56.435 92.0581 56.6941C90.4507 51.7899 87.9291 49.0946 85.0367 48.6216C83.2321 48.3219 80.812 48.0167 78.9977 47.762C82.3483 48.1408 85.4484 50.9044 87.5811 56.0583L87.5956 56.0567Z" fill="#B83856"/>
<path d="M98.442 58.0278C99.978 58.4155 101.532 58.8306 103.092 59.3035C102.663 55.0019 101.358 52.583 99.512 52.039C97.7109 51.5047 95.2848 50.878 93.4885 50.3871C95.7604 50.9429 97.5477 53.4846 98.442 58.0278Z" fill="#B83856"/>
<path d="M109.675 61.5235C111.248 62.1121 112.825 62.7442 114.409 63.4341C115.054 59.7029 114.801 57.6661 113.864 57.2712L107.904 54.8656C109.217 55.351 109.882 57.5474 109.689 61.5219L109.675 61.5235Z" fill="#B83856"/>
<path d="M125.684 69.034C127.329 65.881 128.051 64.3229 127.927 64.2633L126.942 63.6979L122.105 61.1105C122.554 61.3393 122.236 63.102 121.013 66.5014C122.579 67.2958 124.15 68.1336 125.697 69.0179L125.684 69.034Z" fill="#B83856"/>
<path d="M136.635 76.0892C139.298 73.5418 140.95 72.5844 141.557 73.0449L138.573 70.942L135.933 69.1674C135.458 69.1025 134.494 70.0576 132.121 72.983C132.831 73.4468 133.542 73.9251 134.239 74.4049C135.047 74.9605 135.84 75.5176 136.62 76.0908L136.635 76.0892Z" fill="#B83856"/>
<path d="M153.858 83.0706L149.435 79.1931L148.92 78.7665C147.921 77.9391 145.77 78.4829 142.495 80.6581C143.832 81.7704 145.128 82.902 146.382 84.0528C150.084 82.1673 152.606 81.9343 153.845 83.0866L153.858 83.0706Z" fill="#B83856"/>
<path d="M154.541 92.4839C159.334 91.3279 162.715 91.9816 164.434 94.033C163.206 92.5865 161.497 90.7537 160.229 89.3409C158.688 87.7092 155.671 87.4402 151.338 88.9117C152.449 90.0928 153.516 91.2788 154.541 92.4839Z" fill="#B83856"/>
<path d="M160.988 101.19C166.972 100.884 171.184 102.705 173.203 105.895C172.214 104.349 170.808 102.351 169.764 100.841C167.843 98.1526 163.983 96.8635 158.508 97.538C159.387 98.7445 160.21 99.9719 160.988 101.19Z" fill="#B83856"/>
<path d="M165.651 109.917C172.982 110.679 178.004 114.007 179.994 118.664C179.286 117.014 178.215 114.862 177.438 113.249C174.125 107.083 166.977 106.521 163.934 106.284C164.566 107.503 165.138 108.714 165.651 109.917Z" fill="#B83856"/>
<path d="M167.49 114.928C167.855 116.118 168.158 117.285 168.403 118.444C177.335 120.582 183.088 126.041 184.449 132.568L183.997 130.583L182.922 126.66C181.211 120.947 175.738 116.438 167.488 114.913L167.49 114.928Z" fill="#B83856"/>
<path d="M169.105 123.242C169.184 124.361 169.218 125.47 169.177 126.558C179.918 130.503 186.145 138.941 185.819 147.572C185.862 146.235 185.811 144.439 185.81 143.092L185.701 141.171C185.146 133.443 179.069 126.38 169.12 123.241L169.105 123.242Z" fill="#B83856"/>
<path d="M168.653 130.994C168.445 132.027 168.173 133.023 167.843 134.011C180.623 140.924 186.271 151.827 182.964 163.172C183.583 161.215 184.26 158.578 184.743 156.578C185.576 151.625 185.694 139.24 168.639 130.996L168.653 130.994Z" fill="#B83856"/>
<path d="M166.065 137.955C166.004 138.064 165.943 138.173 165.88 138.268C165.411 139.066 164.894 139.826 164.332 140.576C176.67 148.664 184.08 164.806 175.115 177.826C176.222 176.313 177.589 174.231 178.602 172.655L179.021 171.936C185.281 160.94 179.532 145.788 166.079 137.953L166.065 137.955Z" fill="#B83856"/>
<path d="M161.269 143.885C160.455 144.604 159.607 145.283 158.695 145.91C170.555 155.647 174.893 172.477 168.4 183.484C166.992 185.864 165.196 187.774 163.129 189.216C164.797 188.008 166.921 186.282 168.504 184.966C169.862 183.733 171.065 182.283 172.051 180.594C178.556 169.571 173.72 153.133 161.268 143.87L161.269 143.885Z" fill="#B83856"/>
<path d="M154.62 148.26C153.59 148.754 152.511 149.194 151.399 149.595C161.567 160.191 164.544 177.698 158.038 188.72C155.791 192.525 152.717 195.059 149.237 196.305L149.885 196.073C151.501 195.456 153.622 194.506 155.216 193.818C158.164 192.396 160.718 190.051 162.618 186.827C169.124 175.804 165.544 158.539 154.62 148.26Z" fill="#B83856"/>
<path d="M151.096 190.698C157.602 179.676 155.548 161.907 146.501 150.997C145.286 151.262 144.037 151.487 142.752 151.657C150.922 162.722 152.274 180.627 145.768 191.649C142.917 196.487 139.027 199.198 134.859 199.773L137.68 199.332L140.905 198.699C144.864 197.811 148.48 195.144 151.097 190.713L151.096 190.698Z" fill="#B83856"/>
<path d="M133.02 152.097C138.931 163.263 138.462 181.251 131.956 192.273C128.659 197.848 124.464 200.578 120.351 200.459L125.391 200.491L126.384 200.47C130.615 200.327 134.752 197.603 137.888 192.295C144.394 181.273 144.087 163.283 137.21 152.12C135.839 152.168 134.447 152.16 133.036 152.11L133.02 152.097Z" fill="#B83856"/>
<path d="M117.007 190.679C113.416 196.769 109.339 199.516 105.819 198.921C107.625 199.235 110.045 199.541 111.861 199.81C124.742 200.577 134.071 170.869 126.966 151.634C125.497 151.458 123.994 151.243 122.486 150.969C125.953 161.877 123.499 179.658 117.007 190.679Z" fill="#B83856"/>
<path d="M101.306 186.898C97.503 193.334 93.8798 196.206 91.3365 195.446C93.1392 195.995 95.5508 196.623 97.3632 197.127C100.344 197.868 104.193 195.059 107.922 188.749C114.428 177.726 118.083 160.209 116.085 149.622C114.535 149.236 112.994 148.805 111.418 148.319C112.329 158.615 107.799 175.892 101.291 186.9L101.306 186.898Z" fill="#B83856"/>
<path d="M104.859 146.053C103.284 145.45 101.705 144.804 100.123 144.128C98.4236 153.451 91.7711 169.936 85.2654 180.959C81.353 187.597 78.374 190.735 77.0053 190.138L82.9684 192.573C84.8463 193.275 88.1017 190.252 91.9787 183.692C98.4844 172.669 104.248 155.828 104.859 146.053Z" fill="#B83856"/>
<path d="M93.5423 140.999C91.9746 140.19 90.4183 139.351 88.8556 138.454C84.5379 146.468 75.7765 161.882 69.2708 172.904C65.3084 179.621 63.1036 183.143 62.9638 183.07L64.4944 183.942L68.7877 186.238C69.4382 186.562 71.9691 183.209 75.9202 176.523C82.4259 165.501 90.3136 149.597 93.5423 140.999Z" fill="#B83856"/>
<path d="M82.4143 134.476C81.8458 134.1 81.2917 133.721 80.7217 133.33C79.771 132.673 78.8348 132.014 77.926 131.338C71.0838 137.697 60.2604 151.8 53.7531 162.808C49.8277 169.462 48.3648 173.473 49.3395 174.215L52.8337 176.702L54.9374 178.125C54.3994 177.759 56.1642 173.964 60.1137 167.263C66.6194 156.241 76.5902 141.573 82.3998 134.478L82.4143 134.476Z" fill="#B83856"/>
<path d="M72.0825 126.783C70.7451 125.67 69.4639 124.537 68.2246 123.385C59.1298 127.898 46.4872 140.502 39.9944 151.508C36.1673 157.99 35.3274 162.475 37.1238 164.166L41.9883 168.464L42.0204 168.49C40.5048 167.221 41.5839 162.915 45.4738 156.339C51.9795 145.316 63.8948 132.089 72.0825 126.783Z" fill="#B83856"/>
<path d="M63.3235 118.49C62.2127 117.309 61.1599 116.121 60.1488 114.915C49.1857 117.48 35.0199 128.48 28.5286 139.501C24.8997 145.654 24.4242 150.523 26.6179 153.166C27.8312 154.614 29.5421 156.462 30.7956 157.876C28.7042 155.631 29.2969 150.896 33.0257 144.585C39.5314 133.563 53.0954 121.883 63.325 118.504L63.3235 118.49Z" fill="#B83856"/>
<path d="M56.2115 109.857C55.3467 108.649 54.5238 107.421 53.7603 106.202C41.3162 106.749 25.9615 116.122 19.4542 127.13C16.1103 132.812 15.7519 137.815 17.9157 141.253C18.891 142.8 20.2964 144.798 21.3119 146.312C19.093 143.173 19.4546 138.199 22.9353 132.297C29.441 121.275 44.3257 111.221 56.2083 109.828L56.2115 109.857Z" fill="#B83856"/>
<path d="M15.352 119.908C21.8577 108.886 37.7577 100.477 50.8737 101.116C50.2564 99.8954 49.6987 98.6829 49.1859 97.48C35.6852 96.005 19.4614 103.731 12.9702 114.752C10.0322 119.731 9.57929 124.539 11.2234 128.444L11.3451 128.752C12.015 130.319 13.0137 132.347 13.7398 133.892C11.848 130.132 12.2433 125.198 15.3681 119.921L15.352 119.908Z" fill="#B83856"/>
<path d="M10.4034 107.655C16.9092 96.6323 33.4548 89.837 47.3767 92.4809C47.0278 91.304 46.7368 90.1207 46.4924 88.9615C32.3642 85.5056 15.6442 91.6466 9.15292 102.667C6.79482 106.66 6.10172 110.748 6.85075 114.502L7.4245 117.06L8.33794 120.444C7.1921 116.543 7.78762 112.1 10.405 107.669L10.4034 107.655Z" fill="#B83856"/>
<path d="M8.23326 95.8866C14.739 84.8643 31.5736 79.6332 45.8514 84.1854C45.7725 83.0666 45.7675 81.9544 45.8106 80.8808C31.5209 75.5539 14.6774 80.171 8.17172 91.1933C6.59161 93.8706 5.77156 96.6694 5.62496 99.4674C5.55872 100.997 5.60597 103.027 5.61366 104.564L5.68909 105.917C5.48597 102.601 6.28109 99.1757 8.22038 95.9026L8.23326 95.8866Z" fill="#B83856"/>
<path d="M7.17969 88.9594C7.02799 89.4446 6.90682 89.9411 6.80011 90.436C6.91158 89.9845 7.04564 89.472 7.17969 88.9594Z" fill="#B83856"/>
<path d="M46.3787 76.4554C46.6035 75.4351 46.8876 74.4229 47.2199 73.4493C33.2683 66.4015 16.6822 69.6286 10.1765 80.6509C9.55955 81.6997 9.06156 82.7647 8.6696 83.8619C8.17587 85.3657 7.63664 87.2551 7.19409 88.9583C7.61373 87.5798 8.21174 86.2256 8.98972 84.9103C15.4954 73.888 32.2398 70.1017 46.3932 76.4538L46.3787 76.4554Z" fill="#B83856"/>
<path d="M49.0443 69.5295L49.0813 69.4669C49.6 68.59 50.1813 67.7502 50.8236 66.9329C38.5849 58.9502 23.914 60.1514 16.7195 69.302C15.4814 70.9607 13.9468 73.2523 12.8195 74.9867L12.7325 75.1281L12.7567 75.0815C19.2624 64.0592 35.5053 61.5725 49.0298 69.5311L49.0443 69.5295Z" fill="#B83856"/>
</g>
<g opacity="0.9">
<path d="M259.505 224.042C259.836 223.821 260.176 223.611 260.506 223.39C260.167 223.6 259.836 223.821 259.505 224.042Z" fill="#B83856"/>
<path d="M283.741 214.382L281.323 214.862C281.323 214.862 281.193 214.898 281.115 214.91C280.858 214.964 280.62 215.019 280.372 215.083C280.531 215.04 280.69 214.996 280.858 214.964C280.482 215.045 280.106 215.126 279.711 215.205L278.091 215.644C278.239 215.609 278.388 215.575 278.517 215.538C276.54 216.06 274.574 216.68 272.628 217.388C264.956 221.192 257.806 226.053 246.251 235.306C268.238 218.846 277.994 215.848 281.293 214.869C282.104 214.693 282.904 214.526 283.722 214.38L283.741 214.382Z" fill="#B83856"/>
<path d="M261.379 221.622C260.395 222.101 259.389 222.598 258.554 223.023L258.035 223.294C255.285 224.935 251.079 229.694 246.272 235.288C246.703 234.825 247.134 234.361 247.563 233.917C255.96 225.172 258.786 223.132 261.371 221.611L261.379 221.622Z" fill="#B83856"/>
<path d="M253.453 225.974C252.64 226.488 251.649 227.132 250.876 227.631L250.844 227.657C250.734 227.801 250.713 227.819 246.291 235.29C252.003 227.281 252.711 226.66 253.67 225.829C253.607 225.882 253.527 225.913 253.464 225.965L253.453 225.974Z" fill="#B83856"/>
<path d="M328.034 379.622C328.236 379.544 328.456 379.468 328.667 379.381C330.175 378.806 331.999 378.057 333.41 377.472C334.844 376.851 336.713 375.922 338.106 375.229C319.764 384.135 299.84 386.557 278.866 382.428L284.79 383.614C285.497 383.719 286.128 383.817 286.7 383.909C288.713 384.137 291.083 384.388 293.431 384.551C294.849 384.616 296.597 384.673 299.002 384.754C300.195 384.74 301.566 384.685 302.95 384.601C314.862 383.927 321.576 381.748 328.034 379.622Z" fill="#B83856"/>
<path d="M247.571 230.12C247.45 230.167 247.28 230.219 247.149 230.275L247.128 230.292C246.419 230.826 245.99 231.164 245.948 231.198C245.56 231.52 245.059 231.9 244.649 232.239C245.453 231.627 245.491 231.63 246.221 231.805C246.515 232.459 246.535 233.624 246.28 235.299C247.963 231 247.779 230.586 247.581 230.112L247.571 230.12Z" fill="#B83856"/>
<path d="M257.287 374.105C293.114 392.678 332.538 378.494 344.76 371.417L344.935 371.307C345.564 370.911 346.339 370.392 346.918 370.001L348.12 369.165L348.183 369.112C341.381 373.773 287.236 396.98 244.737 365.583C245.329 366.084 245.904 366.564 246.453 367.013C249.458 369.165 253.556 371.846 256.773 373.804C256.947 373.908 257.104 373.99 257.278 374.094L257.287 374.105Z" fill="#B83856"/>
<path d="M242.691 234.729C244.663 234.052 245.007 234.317 246.28 235.298C245.337 231.935 243.024 233.762 240.972 235.391C240.303 236.016 239.421 236.854 238.752 237.479L238.131 238.099C239.1 237.172 241.13 235.261 242.682 234.718L242.691 234.729Z" fill="#B83856"/>
<path d="M352.162 366.153C352.415 365.945 352.675 365.746 352.928 365.537L353.033 365.45C353.033 365.45 353.117 365.381 353.159 365.346C353.442 365.111 353.726 364.876 354.01 364.641C354.251 364.441 354.493 364.241 354.703 364.067L354.745 364.032C349.664 368.099 255.266 400.383 221.059 335.459C221.965 337.365 223.316 339.788 224.277 341.632C225.613 343.908 227.596 346.836 229.055 349.046C268.967 399.644 345.064 370.97 352.171 366.164L352.162 366.153Z" fill="#B83856"/>
<path d="M232.75 244.046C232.639 244.19 232.52 244.324 232.409 244.469C239.339 236.391 244.375 235.585 246.281 235.298C241.903 234.674 237.965 238.025 232.75 244.046Z" fill="#B83856"/>
<path d="M214.263 314.128C231.68 394.555 346.329 366.575 358.154 360.942L358.353 360.777L358.741 360.367C358.804 360.315 358.868 360.244 358.933 360.172C359.403 359.713 359.939 359.162 360.4 358.692C360.463 358.64 360.517 358.577 360.571 358.514C341.703 359.301 323.648 366.18 304.64 365.965C295.34 365.858 273.556 365.605 254.06 357.294C215.057 340.66 213.045 311.117 212.963 297.74C212.95 298.194 212.947 298.639 212.944 299.084L212.928 301.311C213.17 305.132 213.685 310.179 214.218 313.988C214.224 314.037 214.239 314.077 214.244 314.126L214.263 314.128Z" fill="#B83856"/>
<path d="M230.287 247.147C230.287 247.147 230.354 247.056 230.377 247.019C230.289 247.128 230.191 247.244 230.122 247.354C229.528 248.112 228.79 249.167 228.23 249.967C227.088 251.603 225.629 253.84 224.644 255.559C224.04 256.626 223.239 258.033 222.672 259.123C221.998 260.426 221.163 262.198 220.535 263.515C219.894 264.879 219.12 266.724 218.62 268.131C218.009 269.788 217.309 271.873 216.705 273.773C211.027 293.798 212.674 317.02 227.741 332.278C263.272 368.243 329.245 358.46 354.081 354.785C359.813 353.934 363.164 353.868 364.137 354.586L364.224 354.478C364.989 353.561 365.934 352.371 366.68 351.434L366.757 351.334C366.996 350.96 366.836 350.295 366.847 349.86C364.901 349.029 362.558 349.216 350.29 350.593C318.723 354.14 285.367 355.785 255.26 343.881C187.3 317.031 218.77 247.955 246.28 235.298C240.509 237.227 235.037 241.441 230.287 247.147Z" fill="#B83856"/>
<path d="M348.243 342.99C367.975 341.471 372.688 341.109 370.359 346.315C370.392 346.27 370.425 346.225 370.45 346.169C370.892 345.484 371.394 344.678 371.894 343.892C372.226 343.352 372.547 342.82 372.87 342.269C376.299 335.054 368.476 335.511 349.785 336.576C329.116 337.755 303.382 339.234 275.566 333.261C193.45 315.623 215.349 255.094 246.281 235.299C208.663 254.805 176.906 356.145 348.243 342.99Z" fill="#B83856"/>
<path d="M347.367 327.029C371.109 326.138 380.005 325.801 376.236 335.92C376.263 335.845 376.308 335.772 376.343 335.707C377.073 334.129 377.922 332.096 378.582 330.54C381.478 322.597 376.072 320.646 369.813 319.719C343.574 315.842 317.104 320.817 290.852 317.587C206.348 307.223 216.918 258.506 246.281 235.299C214.701 256.942 189.263 332.978 347.367 327.029Z" fill="#B83856"/>
<path d="M350.963 308.533C373.979 308.155 383.84 310.03 381.415 322.135C381.936 320.198 382.507 317.617 382.957 315.615C383.163 314.559 383.344 313.452 383.532 312.375C384.927 302.362 379.344 302.187 312.56 300.171C215.752 297.236 226.555 258.936 241.791 240.186C227.785 256.978 194.825 311.082 350.963 308.533Z" fill="#B83856"/>
<path d="M245.597 235.971C244.336 237.228 243.05 238.648 241.791 240.186C243.439 238.219 244.816 236.76 245.597 235.971Z" fill="#B83856"/>
<path d="M246.281 235.298C246.281 235.298 245.994 235.571 245.598 235.97C245.833 235.74 246.057 235.519 246.281 235.298Z" fill="#B83856"/>
<path d="M330.402 288.97C368.642 288.433 384.253 289.743 384.381 305.101C384.39 305.005 384.388 304.918 384.397 304.821C384.53 302.586 384.554 299.75 384.604 297.565L384.608 297.42C384.049 283.446 370.343 279.602 326.064 280.997C210.545 284.598 239.344 243.56 246.281 235.298C240.952 240.988 197.985 290.84 330.402 288.97Z" fill="#B83856"/>
<path d="M322.906 270.257C364.937 268.138 380.295 272.137 383.646 286.083C383.576 285.592 383.495 285.11 383.415 284.627L383.332 284.164C383.277 283.82 383.219 283.514 383.162 283.189L382.276 279.105C382.151 278.589 382.025 278.074 381.905 277.588C376.696 259.496 341.486 261.703 318.116 263.171C242.031 267.975 237.059 250.661 246.28 235.299C237.568 247.405 227.591 275.048 322.906 270.257Z" fill="#B83856"/>
<path d="M311.707 254.151C347.603 251.34 370.036 250.771 378.253 266.443C378.015 265.878 377.777 265.313 377.538 264.768C376.615 262.734 375.518 260.49 374.65 258.693C365.594 243.805 343.496 245.035 308.208 248.281C284.882 250.422 241.482 254.418 246.28 235.299C234.537 260.189 292.626 255.644 311.707 254.151Z" fill="#B83856"/>
<path d="M303.638 241.031C342.909 236.434 357.816 236.768 367.737 247.804C367.565 247.575 367.395 247.326 367.223 247.097L365.001 244.243L362.701 241.596C362.43 241.289 362.165 241.013 361.893 240.706C350.996 229.54 326.849 232.892 296.34 237.14C274.882 240.124 250.548 243.508 246.3 235.3C245.472 247.836 280.481 243.74 303.657 241.033L303.638 241.031Z" fill="#B83856"/>
<path d="M293.226 231.819C327.825 225.689 342.05 224.835 352.976 232.293C351.217 230.898 348.875 229.225 346.886 227.808C346.468 227.517 346.048 227.245 345.63 226.953C333.565 220.173 314.821 223.655 282.878 230.383C260.285 235.141 252.426 236.195 246.289 235.309C252.477 239.058 269.57 236.022 293.234 231.83L293.226 231.819Z" fill="#B83856"/>
<path d="M335.114 221.122C334.854 221.001 334.594 220.879 334.334 220.758L330.807 219.216L328.598 218.389C328.195 218.244 327.784 218.089 327.381 217.945C320.446 215.754 312.056 216.788 300.798 219.17C282.214 223.122 264.509 230.083 246.291 235.29C252.655 234.482 263.237 231.668 276.622 228.09C312.138 218.597 324.318 217.134 335.124 221.113L335.114 221.122Z" fill="#B83856"/>
<path d="M316.438 214.894C316.19 214.851 315.964 214.791 315.697 214.747C315.534 214.722 315.382 214.688 315.211 214.653C315.021 214.615 314.812 214.576 314.611 214.548C312.694 214.222 310.592 213.909 308.902 213.644C298.264 212.519 277.196 219.803 246.272 235.288C295.406 214.479 307.608 213.706 316.43 214.883L316.438 214.894Z" fill="#B83856"/>
<path d="M296.746 213.103C295.171 213.168 293.476 213.261 292.026 213.328C291.733 213.359 291.45 213.381 291.156 213.411C281.653 214.641 266.557 221.992 246.291 235.29C259.255 227.439 283.099 214.205 298.133 213.088C297.658 213.092 297.213 213.088 296.757 213.094L296.746 213.103Z" fill="#B83856"/>
<path d="M260.915 223.157C262.634 222.087 264.372 221.107 266.151 220.218C269.164 218.467 269.577 218.302 272.133 217.283C272.063 217.305 271.964 217.335 271.894 217.357C270.555 217.793 268.806 218.462 267.472 218.947L267.451 218.965C264.382 220.178 261.448 222.432 258.045 225.038C258.201 224.927 258.376 224.817 258.532 224.706C256.721 225.94 254.939 227.275 253.205 228.711C250.642 231.047 250.311 231.374 246.291 235.289C252.905 229.332 256.058 226.808 260.926 223.148L260.915 223.157ZM259.514 224.052C259.844 223.831 260.184 223.621 260.515 223.4C260.175 223.61 259.844 223.831 259.514 224.052Z" fill="#B83856"/>
</g>
</svg>
