<svg width="150" height="80" viewBox="0 0 150 80" fill="none" xmlns="http://www.w3.org/2000/svg">
<path d="M86.8497 30C81.3584 30 77.0231 34.4286 77.0231 40C77.0231 45.4286 81.3584 50 86.8497 50C92.341 50 96.6763 45.5714 96.6763 40C96.6763 34.5714 92.341 30 86.8497 30ZM86.8497 45.4286C83.815 45.4286 81.3584 43 81.3584 40C81.3584 37 83.815 34.5714 86.8497 34.5714C89.8844 34.5714 92.341 37 92.341 40C92.341 43 89.8844 45.4286 86.8497 45.4286Z" fill="#B8B8B8"/>
<path d="M9.82659 45.4286C6.79191 45.4286 4.33526 43 4.33526 40C4.33526 37 6.79191 34.5714 9.82659 34.5714C11.9942 34.5714 13.7283 35.8571 14.7399 37.5714H19.5087V30.2857H15.7514V32.1429C14.1618 30.8571 12.1387 30 9.82659 30C4.33526 30 0 34.4286 0 40C0 45.4286 4.33526 50 9.82659 50C14.4509 50 18.3526 46.8571 19.3642 42.4286H14.7399C13.7283 44.2857 11.9942 45.4286 9.82659 45.4286Z" fill="#B8B8B8"/>
<path d="M48.8438 30C43.3525 30 39.0172 34.4286 39.0172 40C39.0172 45.4286 43.3525 50 48.8438 50C54.3351 50 58.6704 45.5714 58.6704 40C58.6704 34.5714 54.1906 30 48.8438 30ZM48.8438 45.4286C45.8091 45.4286 43.3525 43 43.3525 40C43.3525 37 45.8091 34.5714 48.8438 34.5714C51.8785 34.5714 54.3351 37 54.3351 40C54.1906 43 51.734 45.4286 48.8438 45.4286Z" fill="#B8B8B8"/>
<path d="M59.3931 30.2857H76.5896V35.5715H72.8324V33.5715H67.341V46.4286H70.0867V49.7143H59.5376V46.4286H62.2832V33.5715H59.5376V30.2857H59.3931Z" fill="#B8B8B8"/>
<path d="M118.786 49.7143V46.4286H121.098V33.5715H118.786V30.2857H128.035V33.5715H126.156V37.8572H131.214V33.5715H129.335V30.2857H138.584V33.5715H136.272V46.4286H138.584V49.7143H129.335V46.4286H131.214V41.2857H126.156V46.4286H128.035V49.7143H118.786Z" fill="#B8B8B8"/>
<path d="M148.121 46.4286H150V49.7143H140.751V46.4286H142.919V33.5715H140.607V30.2857H149.855V33.5715H147.977V46.4286H148.121Z" fill="#B8B8B8"/>
<path d="M96.5317 46.4286H98.8439V33.5715V33L101.59 30.2857H107.225V33.5715H103.902V46.4286H107.081V49.7143H96.5317V46.4286ZM107.081 30.2857H116.329V33.5715H114.017V46.4286H116.329V49.7143H107.081V46.4286H108.959V33.5715H107.081V30.2857Z" fill="#B8B8B8"/>
<path d="M36.4161 39.4286C35.2601 38.2857 33.6705 37.7143 31.7919 37.7143H28.7572V33.7143H30.7803V30.2857H21.5317V33.5715H23.8439V46.4286H21.5317V49.7143H31.3583C32.9479 49.7143 35.1155 49.5715 36.5606 48.1429C37.5722 47.1429 38.1502 45.5715 38.1502 43.7143C38.0057 41.8572 37.4277 40.4286 36.4161 39.4286ZM28.7572 41.2857H30.6358C31.9364 41.2857 32.8034 42.4286 32.8034 44C32.8034 45.5715 31.9364 46.5715 30.3468 46.5715H28.7572V41.2857Z" fill="#B8B8B8"/>
</svg>
