<svg width="150" height="80" viewBox="0 0 150 80" fill="none" xmlns="http://www.w3.org/2000/svg">
<path fill-rule="evenodd" clip-rule="evenodd" d="M88.9523 28.7251C88.9523 27.1116 90.095 26 91.6664 26C93.238 26 94.3807 27.1116 94.3807 28.7251C94.3807 30.3386 93.238 31.45 91.6664 31.45C90.095 31.45 88.9523 30.3386 88.9523 28.7251ZM81.1664 28.7251C81.1664 27.1116 82.3095 26 83.8807 26C85.4521 26 86.5952 27.1116 86.5952 28.7251C86.5952 30.3386 85.4521 31.45 83.8807 31.45C82.3095 31.45 81.1664 30.3386 81.1664 28.7251ZM150 34.1393V38.8725C149.357 38.5498 148.607 38.3705 147.893 38.3705C145.214 38.3705 143.643 39.6255 143.643 42.6733V52.6773H139.321V34.3185H142.75L143.357 35.9321C144.607 34.749 146.143 33.996 148.25 33.996C148.821 33.996 149.429 34.0319 150 34.1393ZM64.3155 43.6413C64.3155 40.4861 66.4941 38.2988 69.4229 38.2988C72.3513 38.2988 74.5298 40.4861 74.5298 43.6413C74.5298 46.7968 72.3513 48.9841 69.4229 48.9841C66.4941 48.9841 64.3155 46.7968 64.3155 43.6413ZM126.821 38.012C129.429 38.012 131.107 39.3385 131.5 41.5618H121.786C122.464 39.4462 124.393 38.012 126.821 38.012ZM134.929 46.9761C132.643 48.3745 130.036 48.9482 127.429 48.9482C124.464 48.9482 122.357 47.4422 121.786 45.1833H135.75C135.821 44.3584 135.857 43.8924 135.857 43.3904C135.857 37.6534 132.286 33.996 126.75 33.996C121.214 33.996 117.25 37.9761 117.25 43.4263C117.25 49.1633 121.214 53 127.107 53C130.071 53 132.5 52.3904 134.929 51.1355V46.9761ZM40.7143 52.6773L32.8214 43.3187V52.6773H28.5V27.3625H32.8214V43.3187L40.1786 34.3185H45.3214L37.8214 42.8526L46.0714 52.6773H40.7143ZM114.25 52.6773V42.0277C114.25 36.5418 111.5 34.0319 106.5 34.0319C104.536 34.0319 102.393 34.7849 101.036 36.3267C101 35.1434 100 34.247 98.8929 34.247H94.4286V38.3347H97.1429V52.6773H101.464V42.9602C101.464 40.0916 103.179 38.2628 105.893 38.2628C108.786 38.2628 109.929 39.5538 109.929 42.8167V52.6773H114.25ZM78.887 48.6255V34.3185H75.2439L74.6727 36.1114C73.3155 34.749 71.3871 33.996 69.2084 33.996C63.7443 33.996 59.9227 37.8685 59.9227 43.4263C59.9227 49.1633 63.637 53 69.137 53C71.4941 53 73.8513 52.1036 75.0655 50.3825C75.1013 51.6016 76.0298 52.6773 77.2439 52.6773C77.2439 52.6773 77.2439 52.6773 81.5296 52.6773V48.6255H78.887ZM58.6429 34.1393V38.8725C58 38.5498 57.25 38.3705 56.5357 38.3705C53.8571 38.3705 52.2857 39.6255 52.2857 42.6733V52.6773H47.9643V34.3185H51.3929L52 35.9321C53.25 34.749 54.7857 33.996 56.8929 33.996C57.4643 33.996 58.0714 34.0319 58.6429 34.1393ZM90.1666 48.5896V36.9004C90.1666 35.502 89.0593 34.3546 87.6666 34.3185C87.6666 34.3185 87.7379 34.3185 83.2023 34.3185V38.3347H85.845V50.4183C85.845 51.6374 86.7738 52.6773 87.9879 52.6773H92.7023V48.5896H90.1666ZM19.7857 27.3625H24.3214V42.0277C24.3214 45.4701 23.1786 48.3386 21.0714 50.3108C19.1786 52.0319 16.5 53 13.6071 53C8.17857 53 2.71429 49.5936 2.71429 42.0277V31.45H0V27.3984L0.107143 27.3625H4.60714C6.10714 27.3625 7.32143 28.5815 7.32143 30.0876V42.0277C7.32143 45.3267 9.25 48.6612 13.6071 48.6612C16.6786 48.6612 19.7857 46.5817 19.7857 41.9562V27.3625Z" fill="#B8B8B8"/>
</svg>
