<svg width="150" height="80" viewBox="0 0 150 80" fill="none" xmlns="http://www.w3.org/2000/svg">
<path d="M25 29L13.5922 55H0V29H6.67476V48.875H9.2233L17.4757 29H25Z" fill="#B8B8B8"/>
<path d="M36.6486 55C32.8784 55 29.8378 53.8904 27.527 51.5479C25.2162 49.2055 24 46.2466 24 42.5479C24 38.4795 25.4595 35.0274 28.2568 32.1918C31.0541 29.3562 34.5811 28 38.5946 28C42.2432 28 45.2838 29.1096 47.5946 31.4521C49.9054 33.7945 51 36.7534 51 40.2055C51 40.3288 51 41.0685 50.8784 42.0548L50.7568 42.9178H31.0541C31.1757 44.7671 31.6622 46.2466 32.7568 47.3562C33.7297 48.4658 35.1892 48.9589 36.7703 48.9589C38.5946 48.9589 40.1757 48.4658 41.5135 47.4795C42.1216 46.9863 42.6081 46.4931 42.973 46H50.5135C49.7838 47.6027 48.8108 49.0822 47.5946 50.4384C44.6757 53.3973 41.027 55 36.6486 55ZM31.7838 38.726H43.8243C43.5811 37.2466 42.973 36.137 42 35.274C41.027 34.411 39.8108 33.9178 38.473 33.9178C35.4324 33.9178 33.2432 35.5205 31.7838 38.726Z" fill="#B8B8B8"/>
<path d="M65.2212 55C61.7465 55 58.871 53.8904 56.4747 51.6712C54.1982 49.4521 53 46.4932 53 42.6712C53 38.6027 54.4378 35.1507 57.1935 32.3151C59.9493 29.4795 63.3041 28 67.1382 28C71.8111 28 75.1659 29.726 77.2028 33.0548C78.1613 34.6575 78.7604 36.2603 79 38.1096H72.2903C72.0507 37.3699 71.6912 36.6301 71.3318 36.0137C70.2535 34.6575 68.8157 33.9178 66.8986 33.9178C65.1014 33.9178 63.424 34.7808 62.106 36.3836C60.788 37.9863 59.9493 40.0822 59.9493 42.5479C59.9493 44.5205 60.4286 46.1233 61.5069 47.2329C62.5853 48.3425 63.9032 48.9589 65.4608 48.9589C67.3779 48.9589 68.9355 48.3425 70.1336 46.9863C70.6129 46.4932 71.0922 45.7534 71.4516 45.0137H78.4009C77.682 46.863 76.8433 48.4658 75.6452 49.9452C72.8894 53.274 69.4147 55 65.2212 55Z" fill="#B8B8B8"/>
<path d="M81.1192 36.1786L82.1921 29.5357H85.2914L86.245 24H93.0397L92.0861 29.5357H99L97.9272 36.1786H91.0132L88.8675 48.9722H96.1391L95.1854 55H81L84.2185 36.3016H81.1192V36.1786Z" fill="#B8B8B8"/>
<path d="M113.425 55C109.721 55 106.735 53.8853 104.465 51.5321C102.075 49.1789 101 46.2064 101 42.7385C101 38.6514 102.434 35.1835 105.301 32.3349C108.168 29.3624 111.633 28 115.575 28C119.279 28 122.265 29.1147 124.535 31.4679C126.925 33.8211 128 36.7936 128 40.2615C128 44.3486 126.566 47.8165 123.699 50.6651C120.832 53.5138 117.367 55 113.425 55ZM113.783 48.9312C115.814 48.9312 117.606 48.1881 119.04 46.578C120.473 44.9679 121.19 42.8624 121.19 40.2615C121.19 38.2798 120.593 36.6697 119.518 35.555C118.442 34.4404 117.009 33.8211 115.217 33.8211C113.186 33.8211 111.394 34.5642 109.96 36.1743C108.527 37.7844 107.81 39.8899 107.81 42.4908C107.81 44.4725 108.407 46.0826 109.482 47.1972C110.558 48.3119 111.991 48.9312 113.783 48.9312Z" fill="#B8B8B8"/>
<path d="M129 55L133.295 29H139.858L139.381 31.5H140.097L142.125 29H150L148.807 35.875H143.915C141.051 35.875 138.665 38 138.188 40.875L138.068 41.375L135.682 54.875H129V55Z" fill="#B8B8B8"/>
</svg>
